<svg xmlns="http://www.w3.org/2000/svg" id="svg" width="512" height="512" viewBox="0 0 300 300"><svg xmlns="http://www.w3.org/2000/svg"><defs><linearGradient id="color-1" x1="273.759" x2="11.689" y1="182.543" y2="111.008" gradientUnits="userSpaceOnUse"><stop offset="0" stop-color="#7acb1a"/><stop offset="1" stop-color="#dbc81a"/></linearGradient><clipPath id="clip-1"><path fill="none" d="M0 0h300.001v300.001H0z"/></clipPath></defs><g fill="none" stroke-miterlimit="10" clip-path="url(#clip-1)" font-family="none" font-size="none" font-weight="none" style="mix-blend-mode:normal" text-anchor="none"><path fill="#000" d="M30 48.696c5.557-.218 12.039-.079 17.647-.08l31.472.002 95.575.006 62.586-.007 19.754-.022c3.143-.002 7.359-.002 10.427.076 4.229.107 11.363 8.35 14.153 11.652.495 3.288.226 15.882.226 20.1v43.296l.006 83.946.002 19.906c0 1.436.025 8.479-.191 9.343-.665 2.67-10.312 10.62-12.423 11.974-2.267.487-12.217.229-15.347.22l-32.255-.007-133.604.005c-7.307 0-55.85.518-58.124-.314l-.16-.06c-2.708-1.007-8.608-6.885-10.447-9.246l-.142-.184c-.246-.316-.49-.62-.651-.991-.594-1.369-.629-157.118-.333-172.861.024-1.275-.13-3.19.385-4.363 1.127-2.565 8.958-11.381 11.445-12.39"/><path fill="url(#color-1)" d="M32.38 54.222c25.688.473 53.05.011 78.847.009l156.394-.016c2.402 2.39 6.216 6.035 8.514 8.687l.021.8c.232 6.042.098 12.8.097 18.886l-.005 32.588.007 119.76c-2.997 2.853-6.96 5.926-9.556 8.504l-92.79-.013c-14.43.004-30.387.366-44.656-.034-10.524.3-22.385.033-32.995.035l-64.202-.005c-2.378-2.256-5.63-5.957-8.296-7.497l.003-172.135c3.179-3.618 5.158-6.163 8.617-9.569"/><path fill="#6cca17" d="M129.253 243.393c.742-.297 18.95-.144 20.95-.167 8.999-.106 95.187.03 96.334-.729-.61-.193-.598-.19-1.127-.555l.128-.321 1.166-.168-.731-.284-.212-.544c3.177-4.244 6.33-17.206 8.029-22.495l9.027-27.339c1.855-5.507 3.882-11.113 6.363-16.357 1.007-2.129 1.905-7.887 3.727-9.095 1.127.808.839 11.536 1.734 13.582l.32-.044c.848-2.24.622-14.851.655-18.519l.29-67.007-.017-19.034c-.003-2.333-.113-8.286.226-10.374l.041-.241c.232 6.042.098 12.8.097 18.886l-.005 32.588.007 119.76c-2.997 2.853-6.96 5.926-9.556 8.504l-92.79-.013c-14.43.004-30.387.366-44.656-.034"/><path fill="#000" d="M114.855 67.596c4.44.27 11.608.06 16.274.062h31.88l96.322-.034a910 910 0 0 0 .006 17.927l-144.498.011z"/><path fill="#87847b" d="M117.483 70.327c14.848.2 30.116.017 44.991.015l94.159.017q-.054 6.285-.012 12.57c-46.113-.51-92.944.015-139.138-.056.114-4.035.013-8.48 0-12.546"/><path fill="#fe8000" d="M70.696 67.522a8.433 8.433 0 1 1 2.168 16.725 8.433 8.433 0 0 1-2.168-16.725"/><path fill="#6cca17" d="M95.257 68.388a8.26 8.26 0 1 1 3.41 16.163 8.26 8.26 0 0 1-3.41-16.163"/><path fill="red" d="M43.405 67.863a8.257 8.257 0 1 1 4 16.023 8.257 8.257 0 0 1-4-16.023"/></g></svg></svg>