<svg xmlns="http://www.w3.org/2000/svg" id="svg" width="300" height="300" viewBox="0 0 300 300"><svg xmlns="http://www.w3.org/2000/svg"><defs><clipPath id="clip-1"><path fill="none" d="M0 0h299.991v299.991H0z"/></clipPath></defs><g fill="none" stroke-miterlimit="10" clip-path="url(#clip-1)" font-family="none" font-size="none" font-weight="none" style="mix-blend-mode:normal" text-anchor="none"><path fill="#000" d="M149.53 67c.5-.23.712-.092 1.246.109 1.661.802 3.203 1.783 4.815 2.661 3.523 1.918 6.94 3.98 10.402 6.003l24.322 14.129 19.74 11.47c3.339 1.899 6.802 3.653 10.098 5.643 1.103.666 2.062 1.807 2.024 3.167-.124 3.98-.135 7.961-.137 11.943l-.021 38.045.023 19.133c.014 3.766.244 8.434-.209 12.036-.155.484-.136.557-.678.909-.784.28-2.67 1.561-3.598 2.078a534 534 0 0 0-12.995 7.415l-40.437 23.38c-3.105 1.779-11.141 6.802-14.033 7.712-2.313-.503-7.262-3.56-9.576-4.892l-8.603-4.948-32.748-18.978-12.804-7.376c-2.345-1.35-4.787-2.732-7.062-4.197-.939-.605-.98-1.444-1.148-2.48l-.125-.359c-.309-2.849-.123-7.617-.126-10.598q-.07-8.969-.049-17.935l.02-33.357c0-5.415-.116-10.864-.014-16.276.016-.84.002-2.294.363-3.052.464-.977 12.476-7.431 14.394-8.54L128.827 78.9c4.818-2.848 9.604-5.847 14.521-8.535 1.524-.833 4.685-2.846 6.182-3.365"/><path fill="#fefefe" d="M149.53 67c-.202 1.124-.864 2.126-1.298 3.168-1.891 4.547-4.79 8.374-7.224 12.643l-22.733 39.596c-.666 1.136-2.183 2.583-2.668 3.605-.977 2.054-2.612 4.037-3.55 6-1.362 2.843-2.626 5.036-4.503 7.573-.651.88-1.196 2.642-1.829 3.604-1.714 2.842-3.367 5.654-4.86 8.623-.605 1.201-1.74 2.424-2.399 3.618-.736 1.273-1.36 3.013-2.114 4.26-2.514 4.154-4.947 8.336-7.398 12.527-.825 1.412-1.42 3.057-2.298 4.502-.927 1.523-2.511 3.385-3.335 4.878-1.838 3.33-2.795 5.099-5.295 8.007-.309-2.85-.123-7.618-.126-10.599q-.07-8.969-.049-17.935l.02-33.357c0-5.415-.116-10.864-.014-16.276.016-.84.002-2.294.363-3.052.464-.977 12.476-7.431 14.394-8.54L128.827 78.9c4.818-2.848 9.604-5.847 14.521-8.535 1.524-.833 4.685-2.846 6.182-3.365m1.246.109c1.661.802 3.203 1.783 4.815 2.661 3.523 1.918 6.94 3.98 10.402 6.003l24.322 14.129 19.74 11.47c3.339 1.899 6.802 3.653 10.098 5.643 1.103.666 2.062 1.807 2.024 3.167-.124 3.98-.135 7.961-.137 11.943l-.021 38.045.023 19.133c.014 3.766.244 8.434-.209 12.036-1.1-2.146-2.476-3.89-3.617-5.943-1.224-2.201-2.188-4.33-3.521-6.51-1.037-1.696-2.687-3.69-3.604-5.339l-32.653-58.417c-.833-1.468-1.848-2.802-2.686-4.22-1.827-3.09-3.624-6.14-5.56-9.169-1.027-1.594-1.709-3.644-2.697-5.227-3.983-6.365-7.899-12.612-11.414-19.248-1.987-3.75-3.835-6.032-5.305-10.157M78.151 189.962q.948.924 1.855 1.889l102.29-.006 26.005.003c2.695.007 10.538-.182 12.854.4-.784.28-2.67 1.561-3.598 2.078a534 534 0 0 0-12.995 7.415l-40.437 23.38c-3.105 1.779-11.141 6.802-14.033 7.712-2.313-.503-7.262-3.56-9.576-4.892l-8.603-4.948-32.748-18.978-12.804-7.376c-2.345-1.35-4.787-2.732-7.062-4.197-.939-.605-.98-1.444-1.148-2.48"/><path fill="#fa5202" d="M280.799 114.834c1.794 5.619 2.502 11.062 3.576 16.792 1.52 8.11.82 16.026.87 24.16.045 7.362-.668 13.888-2.227 21.097-.587 2.72-.911 5.34-2.007 7.996-4.076-.656-9.934-2.496-14.004-3.591l-25.235-6.77c-3.613-.982-7.192-2.027-10.876-2.7l-.419.143a83.47 83.47 0 0 0 .17-43.38c1.04-.696 6.019-1.863 7.601-2.284a695 695 0 0 1 13.248-3.492l22.992-6.21c1.329-.368 5.457-1.12 6.31-1.762"/><path fill="#a931a7" d="M209.05 208.909c.651.485 3.562 3.587 4.313 4.341l11.312 11.382 14.878 14.855c1.38 1.386 5.233 5.057 6.267 6.336-2.892 3.063-5.12 4.986-8.356 7.658-3.1 2.558-5.922 5.178-9.262 7.504-9.318 6.49-19.506 11.637-30.195 15.452-3.962 1.413-9.076 3.448-13.126 4.353-.2-.926-.227-1.65-.517-2.71-.812-2.963-1.634-5.925-2.423-8.893l-7.598-28.507c-.43-1.644-2.599-9.022-2.444-10.19a83.5 83.5 0 0 0 37.152-21.581"/><path fill="#fb1a00" d="M230.477 171.96q.21-.07.419-.143c3.684.674 7.263 1.719 10.876 2.7l25.235 6.77c4.07 1.096 9.928 2.936 14.004 3.592-4.098 13.367-8.922 26.32-16.646 38.078-2.527 3.842-5.97 8.163-8.824 11.816-2.696 3.449-6.42 8.2-9.721 11.05-1.034-1.279-4.887-4.95-6.267-6.336l-14.878-14.855-11.312-11.382c-.751-.754-3.662-3.856-4.312-4.341a83.5 83.5 0 0 0 21.426-36.948"/><path fill="#1eb84f" d="M19.065 115.148c.44-1.98 1.61-5.473 2.256-7.456 3.395-10.404 8.112-20.85 13.87-30.16 2.373-3.837 5.933-8.125 8.714-11.69 2.773-3.556 6.984-8.659 10.32-11.645 9.062 9.484 18.84 18.582 27.96 28.043 2.855 2.962 5.858 5.724 8.677 8.772a83.47 83.47 0 0 0-21.508 37.274c-2.357-.84-6.366-1.638-8.959-2.337l-23.616-6.225c-3.99-1.043-7.998-2.305-12.025-3.274-1.724-.415-3.964-1.142-5.69-1.302"/><path fill="#168e7a" d="M19.357 185.42c-.965-2.457-1.718-6.545-2.275-9.116-2.17-10.027-2.564-20.357-2.313-30.586.062-2.56.057-5.93.282-8.416a137 137 0 0 1 4.014-22.154c1.725.16 3.965.887 5.689 1.302 4.027.969 8.035 2.23 12.025 3.274l23.616 6.225c2.593.699 6.602 1.498 8.959 2.337a83.47 83.47 0 0 0 .06 43.56c-2.238.62-4.623 1.033-6.884 1.647-6.819 1.849-13.701 3.804-20.538 5.572l-15.882 4.177c-1.922.51-3.858.965-5.782 1.467-.507.134-.823.188-.97.71"/><path fill="#7242fe" d="M91.113 209.15a83.5 83.5 0 0 0 37.198 21.418c-3.418 12.838-6.65 25.969-10.21 38.742a364 364 0 0 0-2.005 7.339c-.242.93-.828 3.479-1.15 4.24-1.407-.49-3.09-.865-4.551-1.316-21.77-6.712-40.08-17.55-56.165-33.807.362-.488 2.01-1.946 2.582-2.498l6.455-6.291 14.73-14.744c3.985-3.91 9.448-9.013 13.116-13.083"/><path fill="#1061fe" d="M19.357 185.42c.148-.523.464-.577.971-.71 1.924-.503 3.86-.957 5.782-1.468l15.882-4.177c6.837-1.768 13.72-3.723 20.538-5.572 2.261-.614 4.646-1.027 6.883-1.648a83.47 83.47 0 0 0 21.7 37.305c-3.668 4.07-9.131 9.173-13.117 13.083l-14.73 14.744-6.454 6.291c-.573.552-2.22 2.01-2.582 2.498-3.782-3.693-5.846-6.384-9.2-10.319-12.862-15.09-20.115-31.095-25.673-50.027"/><path fill="#79259e" d="M128.311 230.568a83.47 83.47 0 0 0 43.588-.078c-.155 1.168 2.013 8.546 2.444 10.19l7.598 28.507c.79 2.968 1.611 5.93 2.423 8.893.29 1.06.316 1.784.517 2.71-1.651.766-6.844 1.696-8.788 2.074a138 138 0 0 1-54.043-.313c-2.19-.469-5.002-1.017-7.103-1.663.321-.76.907-3.309 1.149-4.24q.964-3.68 2.005-7.338c3.56-12.773 6.792-25.904 10.21-38.742"/><path fill="#fe8e01" d="M245.615 54.21c15.529 15.35 26.714 33.98 33.479 54.675.64 1.959 1.076 4.006 1.705 5.949-.854.641-4.982 1.393-6.31 1.76l-22.993 6.211a695 695 0 0 0-13.248 3.492c-1.582.421-6.561 1.588-7.601 2.284a83.5 83.5 0 0 0-21.766-37.748c.89-.562 36.03-35.541 36.734-36.623"/><path fill="#fef200" d="m115.13 19.08.198-.033c2.022-.354 4-1.078 6.009-1.489 21.212-4.335 42.43-3.999 63.491 1.532-.62 4.408-2.871 11.084-4.06 15.671l-6.17 23.095c-.996 3.697-1.973 7.843-3.07 11.465a83.47 83.47 0 0 0-42.59-.143l-.34-.097c-.194-.218-.224-.247-.305-.536a2562 2562 0 0 1-8.675-32.514c-1.355-5.105-3.618-11.877-4.488-16.95"/><path fill="#fccd01" d="M184.828 19.09c13.257 3.872 26.142 8.98 37.717 16.59 2 1.313 3.948 2.706 5.894 4.096a135.3 135.3 0 0 1 17.176 14.434c-.703 1.082-35.844 36.06-36.734 36.623a83.5 83.5 0 0 0-37.354-21.512c1.098-3.622 2.075-7.768 3.07-11.465l6.17-23.095c1.19-4.587 3.441-11.263 4.061-15.671"/><path fill="#89e33d" d="M115.13 19.08c.87 5.074 3.133 11.846 4.488 16.951a2562 2562 0 0 0 8.675 32.514c.08.29.11.318.306.536l.34.097a83.47 83.47 0 0 0-38.077 21.834c-2.82-3.048-5.822-5.81-8.678-8.772-9.12-9.461-18.897-18.559-27.96-28.043 3.47-3.633 7.846-7.104 11.781-10.24 3.902-2.997 7.67-6.184 11.846-8.815 9.121-5.747 19.343-10.044 29.505-13.574 2.563-.89 5.275-1.528 7.774-2.487"/></g></svg></svg>