<svg id="svg" version="1.1" viewBox="0 0 300 300" width="300" height="300" xmlns="http://www.w3.org/2000/svg"><svg xmlns="http://www.w3.org/2000/svg"><defs><clipPath id="clip-1"><rect x="0" y="0" transform="scale(0.14648,0.14648)" width="2048" height="2048" fill="none"/></clipPath></defs><g clip-path="url(#clip-1)" fill="none" fill-rule="nonzero" stroke="none" stroke-width="1" stroke-linecap="butt" stroke-linejoin="miter" stroke-miterlimit="10" stroke-dasharray="" stroke-dashoffset="0" font-family="none" font-weight="none" font-size="none" text-anchor="none" style="mix-blend-mode: normal"><path d="M0,63.04863c0.76331,-0.61714 1.01055,-5.50825 1.22864,-6.773c2.35104,-13.63506 9.18184,-26.20298 19.00114,-35.88501c4.5498,-4.48608 9.81167,-8.57486 15.43931,-11.58248c5.82949,-3.11546 12.39009,-5.32863 18.82354,-6.73071c3.20874,-0.98115 6.7166,-0.57936 9.82646,-0.98291c4.85933,-0.63055 9.17754,-0.51134 14.06572,-0.51124l18.07368,0.00147l61.05469,-0.001l51.9082,-0.0016l13.67871,0.00146c4.40479,0.00073 8.5166,-0.0749 12.88184,0.53233c1.3623,0.18959 3.01465,-0.06337 4.4751,0.12657c26.90186,3.38162 49.22314,22.42188 56.80225,48.45362c0.94629,3.36533 1.71973,6.5127 1.98633,10.01353c0.06152,0.8105 0.17578,2.6625 0.75439,3.2001v174.07705c-0.51855,0.57422 -0.5918,2.05371 -0.68555,2.8667c-1.24512,10.79297 -5.18262,21.24609 -11.49023,30.10986c-1.52344,2.1416 -3.41455,4.27881 -4.75488,6.60352l-0.07324,0.13037l0.01611,2.08008c-1.21143,0.69727 -1.69189,0.63574 -3.08203,0.74121c-1.2041,0.95068 -2.36426,2.36572 -3.5332,3.36035c-1.16748,0.99463 -2.56934,1.95264 -3.78516,2.88428c-6.43213,4.93066 -14.22803,8.64844 -22.02539,10.81934c-1.54541,0.43066 -3.3501,1.00781 -4.92334,1.31396c-3.39404,0.65918 -6.48486,0.93457 -9.93311,0.96533c-1.34619,0.01172 -3.34277,0.49805 -4.80908,0.52002c-2.43457,0.03662 -4.875,0.02344 -7.30957,0.02344h-13.59375l-44.62354,-0.00146l-62.69092,0.00439l-21.67969,0.00146c-3.78779,0 -7.62085,0.02344 -11.40483,-0.02637c-1.77466,0.03955 -3.87817,-0.57275 -5.6042,-0.54932c-5.52041,0.07178 -10.42705,-1.00049 -15.74121,-2.56201c-18.70195,-5.67041 -34.07295,-19.09131 -42.21382,-36.85693c-2.53217,-5.53125 -4.30556,-12.08496 -5.16863,-18.08789c-0.17383,-1.2085 -0.18215,-3.57861 -0.89074,-4.3916z" fill="#151516"/><path d="M145.40654,42.11675c4.79707,-0.07705 10.89814,-0.11177 15.66182,0.12627c11.40381,0.57671 22.73877,2.11611 33.8833,4.60195c23.04932,5.12007 51.58887,15.96343 63.46289,38.0168c3.91113,7.2646 4.28906,16.13906 1.84863,23.96968c6.86865,3.99624 14.59424,10.34824 17.91211,17.65679c2.18555,4.77363 2.34961,10.22769 0.4541,15.12407c-3.50537,9.2915 -15.16113,17.68799 -23.93994,21.69141c-0.13037,1.51611 -0.78809,3.47607 -1.25977,4.9541c-1.98779,6.22266 -5.16064,12.646 -9.66797,17.4375c-7.74316,8.22949 -17.71582,11.95898 -28.91309,12.21094c-1.95703,0.05127 -3.93164,-0.12598 -5.88574,-0.17871c-16.29932,-0.44678 -34.51465,-6.90234 -41.44775,-22.98926c-4.82373,-11.19287 -6.41895,-25.92773 -6.76465,-38.19316c0.92578,-1.61001 2.35254,-4.24512 3.41016,-5.65957c-0.92139,-0.35625 -2.3584,-1.26152 -3.2959,-1.76602c-2.34961,-1.26533 -4.07227,-1.72324 -6.646,-2.25337c-7.02686,-1.25669 -13.48857,0.35156 -19.38911,4.19546c0.71572,1.50308 3.11528,4.41475 3.19292,5.85938c0.15879,2.95342 -0.12056,7.27515 -0.48325,10.24014c-1.4291,11.67627 -2.70366,23.91943 -9.82998,33.71338c-4.73071,6.67969 -12.31611,11.43604 -20.06309,13.94678c-5.80122,1.87939 -12.39243,2.58545 -18.48691,2.93555c-10.15811,0.58301 -20.59087,-1.13232 -28.88057,-7.41943c-7.10698,-5.39062 -11.98345,-12.87012 -14.64038,-21.33691c-0.71514,-2.27197 -1.34561,-3.97705 -1.70024,-6.39844c-6.56982,-3.19336 -15.41851,-9.6665 -19.54409,-15.74854c-3.17139,-4.69189 -5.11055,-10.1313 -3.8688,-15.81357c2.23037,-10.20601 10.7146,-16.50586 18.86733,-21.93398c-0.79453,-1.88511 -1.82549,-7.88979 -1.77158,-10.06699c0.58081,-23.51602 25.03022,-38.15552 44.89336,-45.72861c19.06172,-7.26768 42.01538,-10.96567 62.89219,-11.1936z" fill="#70e200"/><path d="M143.19023,43.71357c1.66333,-0.15278 4.00459,-0.10137 5.6877,-0.06768c11.80811,0.23643 24.73535,0.83452 36.35742,2.93394c4.49268,0.82939 8.95752,1.80454 13.38574,2.92397c19.87793,4.82563 42.79102,14.19639 55.29639,31.14785c6.52734,8.84663 6.81445,17.02866 4.92188,27.41001c-1.55859,-0.9394 -3.24756,-1.85303 -4.89258,-2.64858c-10.75049,-5.36294 -21.87158,-8.63115 -33.46729,-11.48306c-8.56934,-2.10703 -15.94043,-3.34805 -24.6416,-4.57896c-13.11328,-1.97681 -26.35107,-3.00293 -39.6123,-3.07075c-7.05176,-0.02681 -14.1791,-0.05273 -21.22749,0.11777c-1.83765,0.04453 -3.70386,0.31611 -5.53755,0.42144c-16.78989,0.86719 -33.46685,3.254 -49.82593,7.13145c-2.56509,0.61084 -5.78848,1.34238 -8.28223,2.03452c-3.18618,0.88418 -6.96152,2.28735 -10.11357,3.3041c-4.95791,1.59932 -16.44067,6.07559 -20.21089,9.1686c-0.66577,-1.96304 -1.16396,-3.94497 -1.36831,-6.01245c-0.8395,-8.54443 1.79238,-17.06763 7.30342,-23.65107c15.26133,-18.29824 40.1959,-26.67539 62.8377,-31.35586c2.00728,-0.41499 4.06055,-0.81636 6.08774,-1.12148c5.46299,-0.79761 10.94839,-1.43218 16.44917,-1.90313c3.63838,-0.28887 7.10801,-0.3457 10.85259,-0.70063z" fill="#151516"/><path d="M143.02368,87.80815c21.76245,-0.35596 43.50952,1.35923 64.94751,5.12227c4.52783,0.81138 8.42578,1.7644 12.90234,2.85117c17.43604,4.39658 35.87842,10.19458 49.24219,22.68311c15.44678,14.43472 6.45264,29.75845 -8.61328,39.03823c-1.82666,1.125 -4.53076,2.55762 -6.22852,3.72363l-0.1333,0.09375c1.30225,-6.43213 1.79004,-16.2312 0.99609,-22.72808c1.67725,-0.59766 3.3208,-1.52314 5.08594,-2.16665l-0.00293,-16.53354c-4.1748,-1.02114 -8.90771,-2.86157 -13.10742,-3.97002c-10.05322,-2.62573 -20.25879,-5.15874 -30.6416,-6.00439c-13.00342,-1.05894 -25.99072,1.19839 -38.41846,4.91616c-1.59082,0.47578 -3.17139,0.97998 -4.74316,1.51216c-2.05811,0.71631 -4.48682,1.79678 -6.58154,2.20635c-0.56982,0.11147 -4.40039,-1.61074 -5.20459,-1.90884c-1.7915,-0.66372 -3.4292,-1.10508 -5.26611,-1.57705c-5.88721,-1.25522 -13.19487,-0.91816 -18.92666,0.91553c-2.44907,0.78354 -4.71167,1.8252 -7.11035,2.71172c-6.01582,-2.01577 -11.54224,-4.15503 -17.77148,-5.52524c-3.28711,-0.72305 -6.38306,-1.55347 -9.72319,-2.17192c-20.09619,-3.72085 -40.26182,1.04355 -59.42812,6.94614c-2.07876,0.63984 -4.6708,1.5832 -6.77563,1.95337c-0.08306,5.35518 -0.03047,10.99058 0.00205,16.35234c1.55728,0.52324 3.90732,1.72412 5.4126,2.48848c-0.38452,3.94702 -0.86309,7.84424 -0.49102,11.82422c0.3104,3.31934 0.41997,6.68408 1.14419,9.94482c-4.20498,-2.20312 -8.58809,-5.18115 -12.10884,-8.38037c-4.73364,-4.30078 -9.12627,-9.76143 -9.40737,-16.42705c-0.24375,-5.78423 2.08198,-11.12417 6.02314,-15.32783c20.93774,-22.33242 70.11255,-29.67319 99.63574,-31.86899c2.7873,-0.20728 5.60054,-0.15601 8.39399,-0.26572c2.30229,-0.09038 4.59302,-0.34043 6.8978,-0.42773z" fill="#151516"/><path d="M197.4873,123.1084l0.16992,0.03062c-0.24609,0.46655 -2.49756,2.60991 -3.11426,3.31362c-1.604,1.85347 -3.09961,3.79629 -4.48389,5.81895c-5.79492,8.63848 -8.86963,19.00576 -10.98779,29.09707c-0.61084,2.91211 -1.2832,5.97363 -1.66553,8.91797c-0.35449,-1.01074 -0.76611,-2.03027 -1.15723,-3.03076c-0.94336,-2.64551 -2.05811,-6.26807 -2.55176,-9.07324c-1.43115,-8.13867 -1.32129,-21.47695 3.40283,-28.47759c3.36621,-4.83457 9.71338,-5.81016 15.1626,-6.26733c1.76074,-0.1478 3.5127,0.01274 5.2251,-0.3293z" fill="#151516"/><path d="M78.03428,123.20288l0.33442,0.01582c-0.0687,0.22617 -3.14077,3.375 -3.65347,3.96519c-1.05059,1.21157 -2.03101,2.48232 -2.93628,3.80596c-6.52485,9.41206 -9.11206,18.16201 -11.6751,29.19814c-0.64204,2.76416 -1.69146,7.40186 -2.00317,10.12646c-0.30439,-0.98437 -0.61978,-1.86475 -0.97603,-2.83301c-0.15293,-0.39697 -0.30249,-0.79541 -0.44897,-1.19385c-3.18179,-8.69971 -4.24951,-21.10972 -0.38555,-29.82202c2.71362,-6.11851 8.69004,-9.62915 14.88413,-11.40571c1.95542,-0.56089 4.84849,-1.10054 6.66226,-1.78125z" fill="#151516"/><path d="M98.8582,241.53076c24.85708,11.66895 53.02412,14.23242 79.57881,7.24072c5.19727,-1.32129 10.94824,-3.37354 15.88623,-5.54736c0.8584,-0.37793 1.58643,-1.05908 2.4917,-0.4248c0.27832,0.75146 0.12451,1.23193 -0.59912,1.52783c-1.66553,0.65479 -3.26367,1.46338 -4.9585,2.09912c-8.10791,3.04102 -15.55518,5.05371 -24.12891,6.38232c-18.7749,3.06445 -38.01255,1.52783 -56.06411,-4.47363c-5.52305,-1.81201 -8.48525,-2.83594 -13.70771,-5.58252c0.64102,-0.43799 0.9271,-0.69287 1.50161,-1.22168z" fill="#70e200"/></g></svg></svg>