<svg version="1.1" xmlns="http://www.w3.org/2000/svg" width="512" height="512">
    <path
        d="M0 0 C42.24 0 84.48 0 128 0 C128 0.66 128 1.32 128 2 C129.32 2 130.64 2 132 2 C132 2.66 132 3.32 132 4 C132.66 4 133.32 4 134 4 C134 4.66 134 5.32 134 6 C134.66 6 135.32 6 136 6 C136 6.66 136 7.32 136 8 C136.66 8 137.32 8 138 8 C138 8.66 138 9.32 138 10 C138.66 10 139.32 10 140 10 C140 10.66 140 11.32 140 12 C140.66 12 141.32 12 142 12 C142 13.32 142 14.64 142 16 C142.66 16 143.32 16 144 16 C144 16.66 144 17.32 144 18 C144.66 18 145.32 18 146 18 C146 19.32 146 20.64 146 22 C146.66 22 147.32 22 148 22 C148 22.66 148 23.32 148 24 C148.66 24 149.32 24 150 24 C150 24.66 150 25.32 150 26 C150.66 26 151.32 26 152 26 C152 27.32 152 28.64 152 30 C152.66 30 153.32 30 154 30 C154 30.66 154 31.32 154 32 C155.32 32 156.64 32 158 32 C158 32.66 158 33.32 158 34 C159.32 34 160.64 34 162 34 C162 34.66 162 35.32 162 36 C254.4 36 346.8 36 442 36 C442 36.66 442 37.32 442 38 C443.32 38 444.64 38 446 38 C446 38.66 446 39.32 446 40 C447.32 40 448.64 40 450 40 C450 40.66 450 41.32 450 42 C450.66 42 451.32 42 452 42 C452 42.66 452 43.32 452 44 C452.66 44 453.32 44 454 44 C454 44.66 454 45.32 454 46 C454.66 46 455.32 46 456 46 C456 47.32 456 48.64 456 50 C456.66 50 457.32 50 458 50 C458 51.32 458 52.64 458 54 C458.66 54 459.32 54 460 54 C460.00496522 55.92077095 460.00496522 55.92077095 460.01003075 57.88034534 C460.08899804 88.25699936 460.1781987 118.63360407 460.28005161 149.01018931 C460.29257092 152.7466201 460.30500363 156.48305117 460.31738281 160.21948242 C460.3210818 161.33529664 460.3210818 161.33529664 460.32485552 162.47365256 C460.36461122 174.52845217 460.3973461 186.58326119 460.42749982 198.6380882 C460.45858144 211.0015967 460.49717665 223.36506516 460.54279006 235.72852868 C460.57071226 243.3613549 460.59272905 250.99415173 460.60726251 258.62701537 C460.6190216 264.47362113 460.64121941 270.32015751 460.66738319 276.16671753 C460.67648509 278.56976966 460.68215524 280.9728375 460.68421364 283.37590599 C460.68751776 286.64612717 460.70294489 289.91606882 460.7215271 293.18623352 C460.718625 294.62639492 460.718625 294.62639492 460.71566427 296.09565049 C460.72312976 296.96898914 460.73059525 297.84232778 460.73828697 298.74213123 C460.74056529 299.49739497 460.74284362 300.25265871 460.74519098 301.03080922 C460.89354595 303.32060232 460.89354595 303.32060232 463 306 C463.19498227 308.5462391 463.27905784 310.95743895 463.25 313.5 C463.25773437 314.17675781 463.26546875 314.85351562 463.2734375 315.55078125 C463.25884811 319.24919257 463.10264442 320.84603337 461 324 C460.67478946 325.99593196 460.67478946 325.99593196 460.68115234 328.19604492 C460.66128265 329.03668991 460.64141296 329.8773349 460.62094116 330.74345398 C460.60938995 331.64666885 460.59783875 332.54988373 460.5859375 333.48046875 C460.56657135 334.40845779 460.5472052 335.33644684 460.5272522 336.29255676 C460.46745756 339.25744425 460.42107145 342.22237057 460.375 345.1875 C460.33682012 347.19728259 460.29776838 349.20704881 460.2578125 351.21679688 C460.16175607 356.14439842 460.07772451 361.07207658 460 366 C459.34 366 458.68 366 458 366 C458 367.32 458 368.64 458 370 C457.34 370 456.68 370 456 370 C456 370.66 456 371.32 456 372 C454.68 372 453.36 372 452 372 C452 372.66 452 373.32 452 374 C450.23910034 373.94332153 450.23910034 373.94332153 448.44262695 373.88549805 C444.02707509 373.76112394 439.61418866 373.72480943 435.19702148 373.71313477 C433.29692816 373.69624862 431.39687925 373.6564472 429.49780273 373.59204102 C417.48914603 372.92666066 417.48914603 372.92666066 407.04833984 377.92578125 C404.78049855 380.16126884 402.83491334 382.53945745 400.87573242 385.04370117 C398.33034287 388.04706941 396.15843543 388.94880401 392.33198547 389.65742493 C388.72800837 389.60731368 385.36465654 389.3022996 382 388 C379.64355183 385.05267048 379.64355183 385.05267048 378.51659459 383.31249684 C375.16161025 378.48217284 371.43205711 375.55377527 365.64593863 374.23628592 C355.67870522 373.08012095 345.63693957 373.2799289 335.61843979 373.40660393 C331.0016043 373.45063996 326.38518699 373.4191361 321.76828003 373.39706421 C313.78060597 373.36909615 305.79418545 373.3883976 297.80664635 373.44031334 C286.25842725 373.51530293 274.71106234 373.51821552 263.16264961 373.50384996 C244.42402685 373.4824835 225.68598475 373.51895875 206.94750977 373.59204102 C188.75085155 373.66288574 170.55446575 373.70634494 152.35766602 373.71313477 C151.23498409 373.71356318 150.11230216 373.71399159 148.95559957 373.71443298 C143.32312302 373.71641389 137.69064649 373.7178581 132.05816972 373.71903551 C85.37182554 373.72948851 38.68603254 373.83391062 -8 374 C-8 373.34 -8 372.68 -8 372 C-9.32 372 -10.64 372 -12 372 C-12 371.34 -12 370.68 -12 370 C-12.66 370 -13.32 370 -14 370 C-14 369.34 -14 368.68 -14 368 C-14.66 368 -15.32 368 -16 368 C-16 251.84 -16 135.68 -16 16 C-15.34 16 -14.68 16 -14 16 C-14 14.68 -14 13.36 -14 12 C-13.34 12 -12.68 12 -12 12 C-12 10.68 -12 9.36 -12 8 C-11.34 8 -10.68 8 -10 8 C-10 7.34 -10 6.68 -10 6 C-8.68 6 -7.36 6 -6 6 C-6 5.34 -6 4.68 -6 4 C-5.34 4 -4.68 4 -4 4 C-4 3.34 -4 2.68 -4 2 C-2.68 2 -1.36 2 0 2 C0 1.34 0 0.68 0 0 Z "
        fill="#4D4D4D" transform="translate(35,69)" />
    <path
        d="M0 0 C21.98703871 18.96365621 37.27477354 45.47379126 40.25 74.625 C41.7432493 110.20767626 33.56036636 139.74032421 9.75 166.875 C1.54707465 175.72738244 -7.40239503 182.50124442 -17.75 188.625 C-18.63510254 189.15867187 -18.63510254 189.15867187 -19.53808594 189.703125 C-27.80935113 194.60461548 -35.01292606 196.99160687 -44.75 195.625 C-46.88029675 193.49470325 -45.9118267 188.64756093 -45.92578125 185.69140625 C-45.94900557 183.82616091 -45.97312391 181.96092654 -45.99804688 180.09570312 C-46.03297336 177.15333006 -46.06239026 174.21135263 -46.07592773 171.26879883 C-46.09154793 168.43000787 -46.13187464 165.59238333 -46.17578125 162.75390625 C-46.17291862 161.45798302 -46.17291862 161.45798302 -46.16999817 160.13587952 C-46.33036685 151.99742603 -48.647159 145.02050065 -53.75 138.625 C-53.17668945 138.50495605 -52.60337891 138.38491211 -52.01269531 138.26123047 C-29.48589748 133.67510349 -29.48589748 133.67510349 -12.13671875 119.4453125 C-4.93681561 108.26134385 -2.5744866 96.46602031 -2.5 83.375 C-2.479375 82.48425781 -2.45875 81.59351563 -2.4375 80.67578125 C-2.38925409 72.36542284 -3.78468204 64.52856412 -8.875 57.75 C-12.92825322 52.28516606 -12.71871843 49.29839366 -11.75 42.625 C-11.28043059 35.09884585 -12.32956119 28.0062088 -13.75 20.625 C-23.12056537 21.90099188 -30.57577076 24.04894466 -38.73657227 28.84375 C-43.96230459 31.90932089 -47.51018 33.18039458 -53.4375 31.75 C-64.5831451 29.32061049 -76.49101041 28.22781447 -87.71875 30.61328125 C-99.7803281 33.09975687 -106.57648252 32.73195245 -116.98828125 25.89453125 C-122.46292689 22.32429765 -128.22586995 21.2987935 -134.75 21.625 C-137.1992615 30.35049411 -137.98610105 39.88242769 -136.06640625 48.80078125 C-135.67222138 52.31924622 -136.38863913 53.35006857 -138.5 56.125 C-139.056875 56.89714844 -139.61375 57.66929687 -140.1875 58.46484375 C-140.703125 59.17769531 -141.21875 59.89054687 -141.75 60.625 C-148.39055893 72.24597812 -147.62761087 84.75112206 -145.4375 97.5625 C-145.31995361 98.25980225 -145.20240723 98.95710449 -145.08129883 99.67553711 C-142.86207723 111.52036651 -136.5534088 121.62256515 -126.75 128.625 C-119.82997364 132.92663801 -112.66112414 134.93051558 -104.75 136.625 C-103.83863281 136.83125 -102.92726563 137.0375 -101.98828125 137.25 C-99.9113493 137.71951052 -97.83105271 138.17410525 -95.75 138.625 C-96.08773437 139.19347656 -96.42546875 139.76195312 -96.7734375 140.34765625 C-98.97476722 144.15862881 -100.6544436 147.13129194 -101.5 151.5 C-102.75 154.625 -102.75 154.625 -104.55078125 155.72265625 C-111.84483653 158.43115691 -118.6191793 158.85170709 -125.8125 155.75 C-131.61364087 152.59720605 -134.90871102 147.85294262 -138.75 142.625 C-145.00492888 135.78821727 -149.67644329 134.13593814 -158.75 133.625 C-157.01601273 137.20134874 -154.97759771 139.35949573 -151.9375 141.8125 C-146.08890971 146.74892483 -142.89616523 153.04153977 -139.8125 159.9375 C-137.76125328 164.11596554 -134.96736735 166.66802019 -130.75 168.625 C-124.47094251 170.59920148 -118.80087404 170.87378105 -112.25 170.75 C-110.87328125 170.73646484 -110.87328125 170.73646484 -109.46875 170.72265625 C-107.22888444 170.69932432 -104.98958817 170.66659235 -102.75 170.625 C-102.7210663 174.41665074 -102.70322399 178.20827327 -102.6875 182 C-102.67912109 183.08023438 -102.67074219 184.16046875 -102.66210938 185.2734375 C-102.65888672 186.3046875 -102.65566406 187.3359375 -102.65234375 188.3984375 C-102.64710693 189.35153809 -102.64187012 190.30463867 -102.63647461 191.28662109 C-102.75 193.625 -102.75 193.625 -103.75 195.625 C-115.90186924 196.99208529 -123.57444872 193.81960831 -133.75 187.625 C-134.33168945 187.27228027 -134.91337891 186.91956055 -135.51269531 186.55615234 C-161.33838045 170.52564146 -180.29334173 144.38379311 -187.58447266 114.87280273 C-191.57220924 96.90637438 -191.9596084 76.36297839 -186.75 58.625 C-186.42128906 57.42746094 -186.09257812 56.22992188 -185.75390625 54.99609375 C-181.24648406 40.03893845 -173.70100054 26.62882933 -163.75 14.625 C-163.05390625 13.77679688 -162.3578125 12.92859375 -161.640625 12.0546875 C-120.68129341 -35.63154162 -47.86799098 -40.00335658 0 0 Z "
        fill="#FDFDFD" transform="translate(333.75,194.375)" />
    <path
        d="M0 0 C42.24 0 84.48 0 128 0 C128 0.66 128 1.32 128 2 C129.32 2 130.64 2 132 2 C132 2.66 132 3.32 132 4 C132.66 4 133.32 4 134 4 C134 4.66 134 5.32 134 6 C134.66 6 135.32 6 136 6 C136 6.66 136 7.32 136 8 C136.66 8 137.32 8 138 8 C138 8.66 138 9.32 138 10 C138.66 10 139.32 10 140 10 C140 10.66 140 11.32 140 12 C140.66 12 141.32 12 142 12 C142 13.32 142 14.64 142 16 C142.66 16 143.32 16 144 16 C144 16.66 144 17.32 144 18 C144.66 18 145.32 18 146 18 C146 19.32 146 20.64 146 22 C146.66 22 147.32 22 148 22 C148 22.66 148 23.32 148 24 C148.66 24 149.32 24 150 24 C150 24.66 150 25.32 150 26 C150.66 26 151.32 26 152 26 C152 27.32 152 28.64 152 30 C152.66 30 153.32 30 154 30 C154 30.66 154 31.32 154 32 C155.32 32 156.64 32 158 32 C158 32.66 158 33.32 158 34 C159.32 34 160.64 34 162 34 C162 34.66 162 35.32 162 36 C254.4 36 346.8 36 442 36 C442 36.66 442 37.32 442 38 C443.32 38 444.64 38 446 38 C446 38.66 446 39.32 446 40 C447.32 40 448.64 40 450 40 C450 40.66 450 41.32 450 42 C450.66 42 451.32 42 452 42 C452 42.66 452 43.32 452 44 C452.66 44 453.32 44 454 44 C454 44.66 454 45.32 454 46 C454.66 46 455.32 46 456 46 C456 47.32 456 48.64 456 50 C456.66 50 457.32 50 458 50 C458 51.32 458 52.64 458 54 C458.66 54 459.32 54 460 54 C460 61.59 460 69.18 460 77 C458.35 77 456.7 77 455 77 C454.74734375 76.26265625 454.4946875 75.5253125 454.234375 74.765625 C452.20995845 70.22990691 448.86272525 67.06156742 445 64 C441.70604085 62.88553286 441.70604085 62.88553286 439 63 C439 62.34 439 61.68 439 61 C295.78 61 152.56 61 5 61 C5 61.66 5 62.32 5 63 C3.96875 63.2475 2.9375 63.495 1.875 63.75 C-2.0040685 64.89644535 -4.89793012 66.32093965 -8 69 C-9.34661154 71.64259858 -10.14133386 74.13777952 -11 77 C-12.65 77 -14.3 77 -16 77 C-16 56.87 -16 36.74 -16 16 C-15.34 16 -14.68 16 -14 16 C-14 14.68 -14 13.36 -14 12 C-13.34 12 -12.68 12 -12 12 C-12 10.68 -12 9.36 -12 8 C-11.34 8 -10.68 8 -10 8 C-10 7.34 -10 6.68 -10 6 C-8.68 6 -7.36 6 -6 6 C-6 5.34 -6 4.68 -6 4 C-5.34 4 -4.68 4 -4 4 C-4 3.34 -4 2.68 -4 2 C-2.68 2 -1.36 2 0 2 C0 1.34 0 0.68 0 0 Z "
        fill="#363636" transform="translate(35,69)" />
    <path
        d="M0 0 C20.79 0 41.58 0 63 0 C63 26.4 63 52.8 63 80 C76.2 80 89.4 80 103 80 C106 81 106 81 107 83 C107.12419345 85.49253376 107.18515513 87.94490756 107.1875 90.4375 C107.19974609 91.11876953 107.21199219 91.80003906 107.22460938 92.50195312 C107.23555848 96.22829809 107.12005619 97.81991571 105 101 C104.67478946 102.99593196 104.67478946 102.99593196 104.68115234 105.19604492 C104.66128265 106.03668991 104.64141296 106.8773349 104.62094116 107.74345398 C104.60938995 108.64666885 104.59783875 109.54988373 104.5859375 110.48046875 C104.56657135 111.40845779 104.5472052 112.33644684 104.5272522 113.29255676 C104.46745756 116.25744425 104.42107145 119.22237057 104.375 122.1875 C104.33682012 124.19728259 104.29776838 126.20704881 104.2578125 128.21679688 C104.16175607 133.14439842 104.07772451 138.07207658 104 143 C103.34 143 102.68 143 102 143 C102 144.32 102 145.64 102 147 C101.34 147 100.68 147 100 147 C100 147.66 100 148.32 100 149 C98.68 149 97.36 149 96 149 C96 149.66 96 150.32 96 151 C94.82606689 150.96221436 93.65213379 150.92442871 92.44262695 150.88549805 C88.02707509 150.76112394 83.61418866 150.72480943 79.19702148 150.71313477 C77.29692816 150.69624862 75.39687925 150.6564472 73.49780273 150.59204102 C61.48914603 149.92666066 61.48914603 149.92666066 51.04833984 154.92578125 C48.78049855 157.16126884 46.83491334 159.53945745 44.87573242 162.04370117 C41.71237823 165.8303436 38.82740362 166.14957389 34 166.625 C26.50762687 166.23167569 22.33932467 162.75188341 17.42382812 157.33056641 C16.46681953 156.21181439 15.52251604 155.08204087 14.59265137 153.94062805 C9.56400594 147.81327929 4.20923586 142.05863958 -1.40234375 136.46484375 C-2.08373917 135.78249161 -2.76513458 135.10013947 -3.46717834 134.39710999 C-4.89705741 132.96655563 -6.32817911 131.53724233 -7.76049805 130.10913086 C-9.93197711 127.94300926 -12.09806325 125.77159826 -14.26367188 123.59960938 C-15.66374202 122.20020013 -17.06412238 120.80110116 -18.46484375 119.40234375 C-19.10155502 118.76360825 -19.7382663 118.12487274 -20.39427185 117.46678162 C-24.23274497 113.64790388 -28.18626759 110.01786854 -32.29251099 106.48806763 C-36.36352724 102.94019854 -40.27285924 99.27837437 -41.9375 94.0625 C-41.958125 93.051875 -41.97875 92.04125 -42 91 C-42.03609375 90.24074219 -42.0721875 89.48148437 -42.109375 88.69921875 C-42.25431846 84.15524121 -42.25431846 84.15524121 -42 82 C-41.01 81.01 -41.01 81.01 -40 80 C-26.8 80 -13.6 80 0 80 C0 53.6 0 27.2 0 0 Z "
        fill="#FEFEFE" transform="translate(391,292)" />
    <path
        d="M0 0 C48.51 0 97.02 0 147 0 C147 0.66 147 1.32 147 2 C147.66 2 148.32 2 149 2 C149 2.66 149 3.32 149 4 C149.99 4 150.98 4 152 4 C152.054138 6.24973447 152.09285491 8.49984383 152.125 10.75 C152.14820313 12.00296875 152.17140625 13.2559375 152.1953125 14.546875 C152.01537302 17.72820492 151.68998582 19.36521896 150 22 C149.34 22 148.68 22 148 22 C148 22.66 148 23.32 148 24 C99.16 24 50.32 24 0 24 C0 23.34 0 22.68 0 22 C-0.66 22 -1.32 22 -2 22 C-2 21.34 -2 20.68 -2 20 C-2.66 20 -3.32 20 -4 20 C-5.44207941 17.11584117 -5.09394887 14.58278472 -5.0625 11.375 C-5.05347656 10.18648438 -5.04445313 8.99796875 -5.03515625 7.7734375 C-5.02355469 6.85820312 -5.01195312 5.94296875 -5 5 C-4.34 5 -3.68 5 -3 5 C-3 4.34 -3 3.68 -3 3 C-2.34 3 -1.68 3 -1 3 C-0.67 2.01 -0.34 1.02 0 0 Z "
        fill="#FDFDFD" transform="translate(350,484)" />
    <path
        d="M0 0 C0 13.86 0 27.72 0 42 C-0.66 42 -1.32 42 -2 42 C-2 43.32 -2 44.64 -2 46 C-2.66 46 -3.32 46 -4 46 C-4 46.66 -4 47.32 -4 48 C-5.32 48 -6.64 48 -8 48 C-8 48.66 -8 49.32 -8 50 C-28.79 50.495 -28.79 50.495 -50 51 C-48.08397904 47.16795809 -46.4598981 45.21183681 -43.47436523 42.23144531 C-42.78870987 41.54294243 -42.78870987 41.54294243 -42.08920288 40.8405304 C-40.58383542 39.33147141 -39.07141304 37.82971056 -37.55859375 36.328125 C-36.50973159 35.28045526 -35.46123917 34.23241525 -34.4131012 33.184021 C-32.21964316 30.99212481 -30.02287221 28.80362351 -27.82348633 26.61767578 C-24.99800935 23.80924065 -22.17921267 20.99421481 -19.36262417 18.17686844 C-17.20029455 16.01481 -15.03537443 13.85536183 -12.86955452 11.69680023 C-11.82869318 10.65912992 -10.7884442 9.620845 -9.74880791 8.58194733 C-8.30046944 7.13576484 -6.84845006 5.69327153 -5.39624023 4.25097656 C-4.5695433 3.42809143 -3.74284637 2.6052063 -2.89109802 1.75738525 C-1 0 -1 0 0 0 Z "
        fill="#4D4D4D" transform="translate(495,393)" />
</svg>