<svg id="svg" version="1.1" viewBox="0 0 300 300" width="300" height="300" xmlns="http://www.w3.org/2000/svg"><svg xmlns="http://www.w3.org/2000/svg"><defs><clipPath id="clip-1"><rect x="0" y="0" transform="scale(0.14648,0.14648)" width="2048" height="2048" fill="none"/></clipPath></defs><g clip-path="url(#clip-1)" fill="none" fill-rule="nonzero" stroke="none" stroke-width="1" stroke-linecap="butt" stroke-linejoin="miter" stroke-miterlimit="10" stroke-dasharray="" stroke-dashoffset="0" font-family="none" font-weight="none" font-size="none" text-anchor="none" style="mix-blend-mode: normal"><path d="M11.46404,84.45791l-0.00798,-23.49067c-0.00037,-2.72681 0.02591,-5.70703 0.00545,-8.42183c-0.03495,-4.64048 1.0253,-5.66162 4.02145,-8.83755c3.54888,-3.76172 4.61514,-3.31787 9.49058,-3.31816l51.71089,0.00586l11.84033,-0.00044c2.11523,-0.00015 4.35483,-0.06621 6.45732,0.18193c0.54917,0.06475 2.43252,1.95791 2.90303,2.39106c2.82144,2.59805 5.13896,5.5793 7.679,8.40103c3.12627,3.47285 6.51431,6.82603 9.76655,10.18755c2.7564,-0.1834 6.63325,-0.07075 9.44971,-0.07075l17.32002,0.00322l53.41084,0.00308l54.44238,-0.00146h17.354c3.80127,0 8.04639,-0.06401 11.84619,0.17886c2.22363,0.14224 10.14258,8.09385 10.60254,10.20674c0.66211,3.04805 0.36621,9.26484 0.31787,12.62622l0.0498,133.0355c-0.03223,0.54492 -0.05273,0.98291 -0.04834,1.52783c0.36328,4.51758 0.00586,12.26074 0.00879,17.13281l0.01465,11.42285c0.00293,1.88086 0.08789,4.86035 -0.08057,6.66357c-1.27588,1.63477 -3.67529,5.11084 -5.71143,5.2207c-2.75684,0.14941 -5.98242,0.08057 -8.77002,0.0791l-16.70361,0.06299c-1.93652,0.22705 -6.77344,6.95947 -9.11426,8.13135c-1.53076,0.04688 -2.83301,0.0293 -4.35498,-0.01465c-2.02734,-1.52783 -7.37842,-7.86768 -8.93555,-8.24121c-1.37549,0.17725 -5.63818,0.06738 -7.19385,0.06299l-13.77393,-0.00879h-48.83936l-99.81606,0.00146l-33.39624,-0.00439c-5.14512,-0.00146 -10.29316,0.00439 -15.44707,0.02051c-2.57124,0.00732 -3.18765,-0.78662 -4.99743,-2.56494c-0.72062,-0.70752 -1.45767,-1.53223 -1.49556,-2.56641c-0.08158,-2.2251 -0.0566,-4.51758 -0.05769,-6.74854l-0.00294,-12.91846l-0.00094,-41.05957l-0.00268,-70.93184c0.00025,-12.61641 -0.18611,-25.76367 0.05908,-38.34756z" fill="#49e080"/><path d="M11.46404,84.45791l-0.00798,-23.49067c-0.00037,-2.72681 0.02591,-5.70703 0.00545,-8.42183c-0.03495,-4.64048 1.0253,-5.66162 4.02145,-8.83755c3.54888,-3.76172 4.61514,-3.31787 9.49058,-3.31816l51.71089,0.00586l11.84033,-0.00044c2.11523,-0.00015 4.35483,-0.06621 6.45732,0.18193c0.54917,0.06475 2.43252,1.95791 2.90303,2.39106c2.82144,2.59805 5.13896,5.5793 7.679,8.40103c3.12627,3.47285 6.51431,6.82603 9.76655,10.18755c2.7564,-0.1834 6.63325,-0.07075 9.44971,-0.07075l17.32002,0.00322l53.41084,0.00308l54.44238,-0.00146h17.354c3.80127,0 8.04639,-0.06401 11.84619,0.17886c2.22363,0.14224 10.14258,8.09385 10.60254,10.20674c0.66211,3.04805 0.36621,9.26484 0.31787,12.62622l-0.22412,-0.61846c-1.61133,-1.35176 -2.99707,-2.61885 -4.56152,-4.07358c-1.31689,-1.06582 -3.65039,-4.08735 -5.35254,-4.16426c-2.84326,-0.12847 -6.06006,-0.05449 -8.90039,-0.05112l-18.74561,0.0019l-62.90186,0.00015l-110.90112,-0.00029l-36.63032,-0.00073c-6.30381,-0.00029 -12.64629,-0.03838 -18.95244,0.02769c-1.98677,-0.0813 -4.06582,0.57905 -5.5522,1.9853c-1.52095,1.43892 -5.64735,4.77979 -5.88806,6.84873z" fill="#1fb557"/><path d="M228.5127,217.37842v-30.11865c0,-2.85937 -0.21533,-14.66455 0.33984,-16.37695c0.84229,-0.5332 36.01465,-0.70752 37.42383,0.00879c0.55664,1.56885 0.33984,13.83984 0.33838,16.13232l0.00293,30.3457c6.25488,0.09521 12.55078,-0.07617 18.80859,-0.00732c1.56006,0.01611 3.15234,-0.03955 4.69775,0.17578c-0.03223,0.54492 -0.05273,0.98291 -0.04834,1.52783c0.36328,4.51758 0.00586,12.26074 0.00879,17.13281l0.01465,11.42285c0.00293,1.88086 0.08789,4.86035 -0.08057,6.66357c-1.27588,1.63477 -3.67529,5.11084 -5.71143,5.2207c-2.75684,0.14941 -5.98242,0.08057 -8.77002,0.0791l-16.70361,0.06299c-1.93652,0.22705 -6.77344,6.95947 -9.11426,8.13135c-1.53076,0.04688 -2.83301,0.0293 -4.35498,-0.01465c-2.02734,-1.52783 -7.37842,-7.86768 -8.93555,-8.24121c-0.7251,-0.81006 -2.44043,-2.3877 -3.29736,-3.24463l-7.98486,-7.98779c-6.80127,-6.80127 -13.75342,-13.93506 -20.6499,-20.59277c-0.00879,-1.59668 -0.25049,-8.90771 0.30322,-9.85254c1.39893,-0.71631 7.51611,-0.479 9.4834,-0.47754z" fill="#fefefe"/><path d="M290.07568,219.06592c0.36328,4.51758 0.00586,12.26074 0.00879,17.13281l0.01465,11.42285c0.00293,1.88086 0.08789,4.86035 -0.08057,6.66357c-1.27588,1.63477 -3.67529,5.11084 -5.71143,5.2207c-2.75684,0.14941 -5.98242,0.08057 -8.77002,0.0791l-16.70361,0.06299c0.55078,-0.95801 30.03662,-30.49658 31.18652,-31.229c0,-2.9707 -0.09229,-6.42627 0.05566,-9.35303z" fill="#49e080"/><path d="M147.74121,97.62056c1.05176,-0.14326 4.42969,-0.13301 5.58984,-0.09214c19.29199,0.68101 34.87207,8.02061 48.08496,21.76685c12.17725,12.8376 18.75879,29.98403 18.30029,47.67202c-0.41455,19.1792 -8.0625,35.14014 -21.81006,48.30469c-4.87939,4.62451 -10.43115,8.48145 -16.46631,11.44043c-4.35059,2.18408 -6.46582,2.73193 -11.34521,2.42871c-2.92822,-0.18164 -2.05078,-6.25928 -2.09619,-8.18994c-0.14941,-6.31641 0.5874,-12.71777 -0.58008,-18.93311c-0.45117,-2.36865 -2.23242,-5.08154 -3.83936,-6.82617c1.99219,-0.85986 4.57031,-1.11621 6.74561,-1.55127c5.60596,-1.12354 11.64404,-3.42334 15.79248,-7.50732c6.21533,-6.11719 8.24121,-15.37939 8.41553,-23.80518c0.13184,-6.36035 -2.68213,-13.92627 -7.15283,-18.5335c1.62744,-3.28418 1.27441,-5.46343 1.32275,-8.96206c0.04395,-3.14824 -0.97119,-5.39663 -1.26562,-8.27183c-1.32861,-0.01392 -3.36475,-0.07617 -4.61719,0.13066c-5.09033,0.84009 -9.29297,3.75249 -13.51318,6.32183c-2.0127,0.08716 -3.8833,-0.51152 -5.84326,-0.946c-4.81494,-1.06802 -9.55518,-0.7749 -14.44043,-0.82764c-2.64023,-0.02856 -5.10806,0.25386 -7.6875,0.77622c-2.18423,0.40605 -4.54805,1.07593 -6.76201,0.99492c-3.69199,-2.26201 -7.5873,-4.48315 -11.71772,-5.85381c-2.00479,-0.66533 -3.79907,-0.69829 -5.88662,-0.62651c-1.86958,5.25088 -2.7189,12.10737 -0.39873,17.34038c-1.69365,1.7978 -3.10825,3.83965 -4.19663,6.05596c-4.4001,8.86963 -3.21021,21.60791 1.05366,30.3252c3.69463,7.5542 11.11685,11.35986 18.9999,13.20703c2.32471,0.54492 5.55659,0.68555 7.54834,1.69336l0.18311,0.09521c-1.69263,1.69189 -2.87974,3.90234 -3.53613,6.1875c-0.32534,1.13232 -0.55342,2.00098 -1.13979,3.03516c-0.55869,0.98584 -3.12876,1.53809 -4.23457,1.78711c-5.92896,1.33154 -10.98838,-0.58887 -14.66133,-5.42285c-2.00522,-2.63818 -3.07441,-4.97168 -6.04131,-6.83203c-2.17134,-1.36084 -4.29785,-1.81201 -6.92622,-1.40039c-0.46904,0.07471 -0.6356,0.23877 -0.80317,0.5625c0.10093,0.89941 3.09756,2.88867 3.82603,3.46436c4.04927,3.20068 5.39063,7.90283 7.82241,12.03223c2.62661,4.46045 10.06978,5.48145 14.69268,5.08301c1.50264,-0.13037 4.52227,-0.56543 6.01948,-0.28564c0.16494,0.15088 0.37046,0.28711 0.37852,0.57715c0.10576,4.03418 0.25313,8.14014 0.13491,12.17285c-0.22441,1.55566 -0.56514,2.77881 -2.27505,2.90479c-4.59155,0.33545 -6.6895,-0.18311 -10.8356,-2.18848c-21.29355,-10.30078 -36.53511,-31.47656 -38.53447,-55.12354c-1.56226,-18.47461 3.877,-36.03911 15.86499,-50.11582c12.51987,-14.60479 28.75928,-22.59521 47.8311,-24.06489z" fill="#fefefe"/><path d="M207.19336,280.67725c4.72852,-0.18311 10.12061,-0.0542 14.90918,-0.0542l26.95459,0.00293l23.69531,-0.00586c4.40039,-0.00586 9.56982,-0.14062 13.92627,0.06592c1.28027,0.97852 4.72998,4.30371 5.71289,5.55029c0.08496,2.16504 0.08643,4.33301 0.00146,6.49951c-1.32715,1.24219 -3.70898,3.8877 -4.96582,4.85449c-1.58496,0.2124 -6.49658,0.09229 -8.34814,0.09082l-17.17969,-0.01318l-35.31006,0.00293c-6.39258,0.00146 -12.94629,0.09082 -19.32422,-0.02197c-1.84277,-1.47949 -3.5376,-3.13623 -5.05664,-4.94531c-0.17725,-2.26611 -0.11426,-4.78564 -0.05273,-7.05615c1.29639,-1.45166 3.479,-3.89209 5.0376,-4.97021z" fill="#fefefe"/></g></svg></svg>