<svg xmlns="http://www.w3.org/2000/svg" width="512" height="512" style="shape-rendering:geometricPrecision;text-rendering:geometricPrecision;image-rendering:optimizeQuality;fill-rule:evenodd;clip-rule:evenodd"><path fill="#faf900" d="M511.5 251.5v16q-7.844 21.83-31 25-12.52-2.257-23-9.5a57505 57505 0 0 0-202-201.5A58188 58188 0 0 0 52.5 284q-10.642 6.297-23 7.5-22.569-2.571-30-24v-15q1.637-7.49 6-14l71-71a6.54 6.54 0 0 0 3-3q1 0 1-1 30-29 59-59a3369 3369 0 0 0 69-69q30.532-31.33 72-16.5a112.6 112.6 0 0 1 20 14.5l203 203q5.474 6.906 8 15" style="opacity:1"/><path fill="#faaf43" d="M480.5 292.5v204h-161v-197h-128v197q-77.4.194-155-.5a15.3 15.3 0 0 1-4.5-1.5 21280 21280 0 0 1-2.5-203q12.358-1.203 23-7.5a58188 58188 0 0 1 203-202.5 57505 57505 0 0 1 202 201.5q10.48 7.243 23 9.5" style="opacity:1"/><path fill="#f90000" d="M139.5 104.5a2.43 2.43 0 0 1-2-.5q1.405-1.038 2 .5m-59 59q-1 0-1 1-.814-.09-1-1 1.135-1.91 2 0m-4 4q-1.538-.595-.5-2 .696.891.5 2" style="opacity:1"/><path fill="#a57429" d="M319.5 496.5h-2v-1a9511 9511 0 0 0 1-195h-126a9511 9511 0 0 0 1 195v1h-2v-197h128z" style="opacity:1"/><path fill="#a76300" d="M317.5 495.5v1a1946 1946 0 0 0-124 0v-195h124z" style="opacity:1"/><path fill="#4b2e06" d="M317.5 495.5v-194h-124v194a9511 9511 0 0 1-1-195h126a9511 9511 0 0 1-1 195" style="opacity:1"/><path fill="#020000" d="M204.5 398.5a21.1 21.1 0 0 1 9 1 32 32 0 0 0 4.5 5 12.5 12.5 0 0 1 0 7q-10.029 10.331-19-1-1.22-3.603.5-7a17.9 17.9 0 0 0 5-5" style="opacity:1"/></svg>