<svg xmlns="http://www.w3.org/2000/svg" id="svg" width="300" height="300" viewBox="0 0 300 300"><svg xmlns="http://www.w3.org/2000/svg"><defs><clipPath id="clip-1"><path fill="none" d="M0 0h299.991v299.991H0z"/></clipPath></defs><g fill="none" stroke-miterlimit="10" clip-path="url(#clip-1)" font-family="none" font-size="none" font-weight="none" style="mix-blend-mode:normal" text-anchor="none"><path fill="#7f94a2" d="M147.645 9.454c2.311-.076 4.362-.132 6.653.268.986.173 2.34.663 3.129.734 1.542-.03 7.07 1.924 8.58 2.7 7.08 3.638 12.029 9.259 17.575 14.815l16.95 16.976 54.716 54.762 27.436 27.452 8.014 7.995c4.112 4.095 7.572 7.071 8.641 13.055.125.702.43 2.105.661 2.74v2.954l-.042.116c-.465 1.317-.698 2.716-1.231 4.197a18.8 18.8 0 0 1-9.628 10.746c-2.78 1.337-4.75 1.602-7.744 1.865.192 2.386-.065 7.13-.065 9.81v23.215l-.003 54.42c.001 10.695-.15 21.84.129 32.499-5.521-.38-13.75-.142-19.437-.142l-35.79.006-25.873.003c-3.169-.002-10.274-.204-13.094.088l-.655-.015c-.706-.157-5.34-.098-6.322-.097l-14.907.02-33.477-.005c-5.778-.002-12.815-.2-18.463.094-.138.033-.438.008-.597.004-.833-.158-5.252-.101-6.314-.101l-13.976.007-48.367-.004-15.02.017c-2.663.006-5.432.06-8.09-.06-1.235-.055-1.469-.436-2.218-1.315-.225-2.436-.113-6.192-.111-8.728l.004-14.915.003-48.946.001-32.796q.013-3.975-.02-7.949c-.02-1.28-.165-4.094-.019-5.17-.421-.093-1.268-.08-1.807-.172-2.53-.432-4.83-.618-7.056-2.004-4.847-3.017-7.966-7.36-9.397-12.807-.112-.43-.215-.596-.414-.981v-4.552l.2-.066c.31-.748.39-1.617.514-2.43.467-1.704 1.123-3.611 2.104-5.085 2.963-4.427 6.814-7.779 10.605-11.556l13.561-13.554 52.336-52.34 32.355-32.363 9.048-9.045c2.272-2.272 4.46-4.65 7.025-6.57 1.081-.547 2.562-1.712 3.613-2.255 3.04-1.573 7.715-4.222 11.081-4.505 1.09-.136 2.81-.592 3.923-.875.33-.061.927-.113 1.28-.155"/><path fill="#fe0000" d="M147.645 9.454c2.311-.076 4.362-.132 6.653.268.986.173 2.34.663 3.129.734 1.542-.03 7.07 1.924 8.58 2.7 7.08 3.638 12.029 9.259 17.575 14.815l16.95 16.976 54.716 54.762 27.436 27.452 8.014 7.995c4.112 4.095 7.572 7.071 8.641 13.055.125.702.43 2.105.661 2.74v2.954l-.042.116c-.465 1.317-.698 2.716-1.231 4.197a18.8 18.8 0 0 1-9.628 10.746c-2.78 1.337-4.75 1.602-7.744 1.865-3.246.1-7.667-1.34-10.34-3.188-3.368-2.329-6.278-5.836-9.173-8.74l-15.33-15.339-67.183-67.084-19.525-19.55-5.533-5.532c-1.157-1.156-2.635-2.73-3.916-3.668-.88.007-1.347.38-1.95.977-3.375 3.344-6.722 6.73-10.084 10.086l-21.652 21.642-65.52 65.54-13.806 13.808c-2.368 2.376-5.017 5.21-7.554 7.315-2.09 1.735-8.597 4.027-11.115 3.673-.421-.093-1.268-.08-1.807-.172-2.53-.432-4.829-.618-7.056-2.004-4.847-3.017-7.966-7.36-9.397-12.807-.112-.43-.215-.596-.414-.981v-4.552l.2-.066c.31-.748.39-1.617.514-2.43.467-1.704 1.123-3.611 2.104-5.085 2.963-4.427 6.814-7.779 10.605-11.556l13.561-13.554 52.336-52.34 32.355-32.363 9.048-9.045c2.272-2.272 4.46-4.65 7.025-6.57 1.081-.547 2.562-1.712 3.613-2.255 3.04-1.573 7.715-4.222 11.081-4.505 1.09-.136 2.81-.592 3.923-.875.33-.061.927-.113 1.28-.155"/><path fill="#c97800" d="M147.645 9.454c2.311-.076 4.362-.132 6.653.268.986.173 2.34.663 3.129.734a37 37 0 0 1-4.843.396c-1.124.026-4.557.275-5.249-.384-.083-.538-.024-.41.31-1.014"/><path fill="#ed1700" d="m0 150.253.2-.065c.31-.749.39-1.618.514-2.43.53 2.027.78 4.262.107 6.283l-.007-.19c-.203.718-.283 1.21-.4 1.935-.112-.43-.215-.596-.414-.981z"/><path fill="#c97800" d="M142.442 10.484c1.09-.136 2.81-.592 3.923-.875l.294.651c-.48 1.01-3.117.259-4.217.224M113.396 176.76c13.104-.25 26.947-.035 40.121-.034l22.584-.001c3.404-.002 7.117-.093 10.488-.02-.218 12.28-.043 24.966-.04 37.293l.018 76.715c-.706-.157-5.34-.098-6.322-.097l-14.907.02-33.477-.005c-5.778-.002-12.815-.2-18.463.094l.013-55.738.015-36.826c0-7.088.07-14.323-.03-21.401"/><path fill="#000100" d="M120.364 233.41q2.242-.134 4.486-.033c1.148 1.311 2.575 2.376 3.82 3.88.127 1.27.085 2.285.018 3.552l-.132.171c-.642.816-3.062 3.582-4.08 3.703-1.534.123-2.954.098-4.483.062-.578-.743-2.97-3.028-3.736-3.797a21 21 0 0 1-.006-3.857c1.014-.844 3.046-3.372 4.113-3.681"/><path fill="#fefe00" d="M120.056 234.127c1.58-.065 3.36-.04 4.955-.046.53.786 2.196 2.305 2.95 3.033.075 1.301.054 2.44.033 3.737-.915 1.006-2.084 2.282-3.116 3.145-1.605.066-3.321.026-4.936.02-.779-.935-2.135-2.211-3.028-3.103-.025-1.244-.001-2.532.006-3.778.81-.65 2.323-2.227 3.136-3.008"/><path fill="#000100" d="M112.75 175.922c1.948.208 6.691.05 8.824.048l18.282-.004 31.138.001c5.235.002 11.14.135 16.336-.029-.138 9.174-.018 18.665-.016 27.86l.006 53.235.001 20.981c0 4.122.096 8.632-.1 12.714l-.654-.015-.018-76.715c-.003-12.327-.178-25.013.04-37.292-3.37-.074-7.084.017-10.488.019l-22.584.001c-13.174-.001-27.017-.215-40.12.034.099 7.078.029 14.313.03 21.401l-.016 36.826-.013 55.738c-.138.033-.438.008-.597.004-.29-10.244-.084-21.233-.088-31.53v-58.32l.004-17.151c.002-2.45.102-5.41.032-7.806"/></g></svg></svg>