<svg xmlns="http://www.w3.org/2000/svg" width="512" height="512" viewBox="0 0 64 64"><path fill="#003bff" d="M43.62 35h-6.46a2 2 0 0 1 0-4h1.63l-14-14a2 2 0 0 1 2.82-2.83L45 31.56A2 2 0 0 1 43.62 35"/><path fill="#003bff" d="M43.62 35a2 2 0 0 1-2-2v-6.7a2 2 0 0 1 4 0V33a2 2 0 0 1-2 2m-5.78 15.49a2 2 0 0 1-1.41-.59L19 32.44A2 2 0 0 1 20.38 29h6.46a2 2 0 1 1 0 4h-1.63l14 14a2 2 0 0 1-1.41 3.42Z"/><path fill="#003bff" d="M20.38 39.7a2 2 0 0 1-2-2V31a2 2 0 0 1 4 0v6.7a2 2 0 0 1-2 2"/><path fill="#ffb300" d="M32 60.21A28.21 28.21 0 1 1 60.21 32a2 2 0 0 1-4 0 24.2 24.2 0 1 0-1.83 9.24 2 2 0 0 1 3.69 1.53A28.1 28.1 0 0 1 32 60.21"/></svg>