<svg xmlns="http://www.w3.org/2000/svg" id="svg" width="300" height="300" viewBox="0 0 300 300"><svg xmlns="http://www.w3.org/2000/svg"><defs><clipPath id="clip-1"><path fill="none" d="M0 0h300.001v300.001H0z"/></clipPath></defs><g fill="#1b5965" stroke-miterlimit="10" clip-path="url(#clip-1)" font-family="none" font-size="none" font-weight="none" style="mix-blend-mode:normal" text-anchor="none"><path d="M142.296 154.607c1.92-7.802 4.212-15.307 6.39-23.03l10.991-39.13c1.034-3.696 6.74-25.688 7.923-27.614 3.064-.908 20.896-.556 25.083-.546l38.106-.028c8.057 0 17.302.196 25.262-.193-.382 35.229-.074 70.956-.069 106.228l.005 30.484c0 4.66.193 11.034-.03 15.526 6.118-.13 16.104.086 22.559-.222l.312.298c-.452 1.628-14.872 15.552-17.097 17.783l-37.292 37.34c-3.495-3.994-7.855-8.222-11.686-11.936-14.602-14.155-28.618-29.407-43.525-43.193 7.732-.273 16.176-.154 23.959-.161-.378-3.508-.198-9.977-.195-13.736l.015-24.214c.004-25.568-.245-50.764.514-76.321-1.876 4.014-4.783 16.453-6.214 21.56l-15.164 53.845a1534 1534 0 0 1-7.226 25.805c-.745 2.615-3.193 12.482-4.526 14.01-2.181.365-13.255.32-15.952.234-6.897-.217-15.669.326-22.37-.058l-.064-.124c-1.592-3.136-2.083-7.929-3.127-10.764-2.571-6.987-6.28-23.95-8.43-29.668-2.641-7.025-19.231-72.585-20.638-73.91-.427 1.613-.25 8.815-.235 10.901q.084 8.818.077 17.636l.029 86.104c-3.846-.165-7.782-.165-11.634-.133-10.432.089-20.927-.133-31.352.05.383-10.815.142-22.798.14-33.73l.003-57.88.004-39.931c0-6.153.301-15.55-.166-21.387 14.133-.527 29.082-.116 43.307-.229 5.67-.045 20.5-.353 25.453.366l17.999 63.472 4.827 17.07c.772 2.783 2.049 7.933 3.094 10.395.15.72.007.484.483 1.007.509-.635.425-1.142.457-1.976"/><path fill-opacity=".031" d="M141.356 155.576q.072-1.053.103-2.108l.372.018c.16.461.255.677.465 1.12-.032.835.052 1.342-.457 1.977-.476-.523-.333-.287-.483-1.007"/></g></svg></svg>