<svg xmlns="http://www.w3.org/2000/svg" id="svg" width="512" height="512" viewBox="0 0 300 300"><svg xmlns="http://www.w3.org/2000/svg"><defs><linearGradient id="color-1" x1="100.488" x2="286.377" y1="150.072" y2="150.076" gradientUnits="userSpaceOnUse"><stop offset="0" stop-color="#ff4c00"/><stop offset="1" stop-color="#ffd600"/></linearGradient><clipPath id="clip-1"><path fill="none" d="M0 0h299.991v299.991H0z"/></clipPath></defs><g fill="none" stroke-miterlimit="10" clip-path="url(#clip-1)" font-family="none" font-size="none" font-weight="none" style="mix-blend-mode:normal" text-anchor="none"><path fill="url(#color-1)" d="M80.52 82.203c1.64-1.827 3.85-3.929 5.614-5.691l9.469-9.47 30.285-30.305 16.454-16.471c1.406-1.409 6.27-6.468 7.545-7.372 11.814 12.216 24.444 24.53 36.48 36.588l71.281 71.364c9.677 9.681 19.86 19.581 29.353 29.37-1.792 2.01-4.36 4.447-6.31 6.395l-11.14 11.136-33.965 33.997-57.429 57.462c-9.32 9.323-18.846 19.116-28.271 28.28L109.92 247.49l-11.33-11.332c-.703-.702-4.436-4.34-4.872-4.924-3.936-3.713-8.053-8.023-11.911-11.884l-23.062-23.076L29.481 167c-5.55-5.55-11.329-11.192-16.773-16.823.728-.896 2.313-2.392 3.2-3.278l5.687-5.678 17.504-17.565 27.012-27.08c4.658-4.676 9.644-9.868 14.41-14.373m5.936 49.337c-1.002 1.146-2.269 2.358-3.37 3.434-5.114 5-10.079 10.217-15.22 15.184.864.847 4.437 4.261 4.986 4.997 2.924 2.694 6.207 6.162 9.06 9.016l17.214 17.224 50.848 50.925 54.19-54.42 17.62-17.64c3.245-3.243 6.865-7.012 10.241-10.065l-82.1-82.201c-2.912 3.205-6.836 6.924-9.96 10.049l-18.32 18.328-22.832 22.853c-4.017 4.021-8.261 8.451-12.357 12.316"/><path fill="#f30" d="m80.52 82.203.262.161c3.865-3.988 7.945-7.938 11.867-11.893 2.75-2.772 6.115-6.33 9.056-8.758-.03.224-.032.315-.182.466-.591.595-.787 2.75-.772 3.588.498.942.598.809.184 1.825.155 1.296.706 2.467.733 3.788.135 6.539.017 13.125.036 19.66l-.004 11.699c.012 2.536.39 11.77-1.287 13.515l.03.23c.846-.145.477-.518.955-.344-1.745 2.291-14.833 14.162-14.942 15.4-1.002 1.146-2.269 2.358-3.37 3.434-5.114 5-10.079 10.217-15.22 15.184.864.847 4.437 4.261 4.986 4.997.053.244.083.407.226.618.691 1.02 3.838 3.855 4.97 4.988 2.402 2.404 22.664 22.403 22.742 22.914.033.214-.233.572-.337.747.317 1.354 1.158 3.26 1.237 4.782.059 1.138-.067 2.458-.039 3.653q.146 7.842.073 15.684l.006 16.77c0 2.44.292 10.768-.757 12.493l-.242.08c-1.852-1.643-5.26-5.544-6.834-6.761l-.18.111c-3.936-3.713-8.053-8.023-11.911-11.884l-23.062-23.076L29.481 167c-5.55-5.55-11.329-11.192-16.773-16.823.728-.896 2.313-2.392 3.2-3.278l5.687-5.678 17.504-17.565 27.012-27.08c4.658-4.676 9.644-9.868 14.41-14.373"/></g></svg></svg>