<svg xmlns="http://www.w3.org/2000/svg" id="svg" width="300" height="300" viewBox="0 0 300 300"><svg xmlns="http://www.w3.org/2000/svg"><defs><clipPath id="clip-1"><path fill="none" d="M0 0h299.991v299.991H0z"/></clipPath></defs><g fill="none" stroke-miterlimit="10" clip-path="url(#clip-1)" font-family="none" font-size="none" font-weight="none" style="mix-blend-mode:normal" text-anchor="none"><path fill="#000" d="M0 62.275c.68-1.312 1.05-5.414 1.373-7.064C7.056 26.251 32.04 3.617 61.458 1.043 66.518.6 71.694.65 76.915.65l17.907.003 57.747.001h54.99L224.274.65c4.68-.002 9.384-.071 14.048.36 7 .646 14.196 2.46 20.62 5.322 16.41 7.307 29.849 20.543 36.3 37.464 1.378 3.615 2.595 7.31 3.325 11.118.48 2.502.53 5.462 1.434 7.834v174.668c-.798 2.485-.848 5.08-1.375 7.576a69.7 69.7 0 0 1-10.616 24.906c-1.464 2.145-3.34 4.089-4.698 6.3-.454.752-.482 2.284-.52 3.197-.754.078-2.443.095-2.977.519-2.458 1.95-4.687 4.035-7.221 5.932a67 67 0 0 1-27.485 12.279c-7.188 1.346-13.992 1.275-21.234 1.275l-16.534-.001-56.726-.003H92.946l-16.543.003c-7.33.004-13.35.104-20.681-1.184a67.3 67.3 0 0 1-30.696-14.188A68.18 68.18 0 0 1 1.873 247.23c-.381-1.61-1.446-8.824-1.873-9.486z"/><path fill="#00e000" d="M255.409 87.731c5.174-.19 10.49.064 15.676-.042 1.112-.023 2.822-.055 3.818.43.514 1.011-3.693 9.785-4.4 11.398l-9.285 21.097c-.578 1.34-2.039 3.846-1.888 5.154l.018.164.03.26c-.536 1.235-1.713 2.455-2.279 3.757-3.245 7.464-6.543 14.929-9.814 22.379-.739 1.681-3.466 8.197-4.333 9.297-2.65.038-18.137.388-19.392-.356-.142-.083-.145-.086-.167-.248-.101-.757.334-1.759.628-2.456 2.226-5.284 4.628-10.504 6.934-15.755l16.166-36.651 5.17-11.918c.682-1.561 2.242-5.4 3.118-6.51m-56.833.007c2.472-.105 18.152-.263 19.577.31.238.424.098 1.03-.085 1.457-4.62 10.77-9.458 21.456-14.09 32.224-.502 1.169-1.276 2.463-1.499 3.686.014-.075.052.378.05.358l.012.157c.069.767-1.843 3.17-2.326 4.269-3.242 7.368-6.48 14.762-9.716 22.127-.7 1.591-3.43 8.1-4.28 9.293-2.415.02-18.475.372-19.474-.316-.145-.1-.122-.123-.16-.314-.14-.723.448-1.926.734-2.603 2.411-5.72 5.008-11.376 7.512-17.057l14.26-32.382 6.26-14.328c.726-1.646 2.327-5.52 3.225-6.881M41.228 125.023c1.458 4.526 1.163 8.306 3.351 12.423 2.482 4.667 4.765 6.95 10.041 8.256 2.983.738 1.215 1.423 1.84 2.549 2.407 1.346 1.058 3.17 1.486 5.632.21 1.21.594 6.648.042 7.237-.987.382-2.16.489-3.234.446-.47-.017-.552-.348-.832-.773l-.276-.025c-.127.1-.683.529-.773.546-1.078.203-4.793-.817-5.63-1.183-.177-.328-.235-.527-.327-.89-1.282-.307-2.507-.077-3.615-.393-1.126-.324-2.794-1.363-3.78-2.023a35.9 35.9 0 0 1-11.854-13.408c-4.794-9.396-5.392-21.806-2.394-31.885 3.949-13.28 15.517-22.625 29.354-23.584 1.366-.095 2.987-.46 3.657.933l.659.374c-.1 2.278.28 10.892-.159 12.374-.183-.426-.163-3.796-.19-4.515-.367 1.325.05 3.3-.175 4.688-.637 1.15-4.088 1.875-5.57 2.51-6.294 2.696-9.096 7.86-10.381 14.36-.416 2.102-.331 4.234-1.149 6.14z"/><path fill="#004600" d="m58.284 88.881.659.374c-.1 2.278.28 10.892-.159 12.374-.183-.426-.163-3.796-.19-4.515-.367 1.325.05 3.3-.175 4.688-.31-1.108-.146-11.066-.135-12.92"/><path fill="#000" d="M33.006 124.341c.883.157 1.405.559 2.012 1.193-.714-.025-1.214-.105-1.837-.432-.316-.414-.234-.176-.175-.76"/><path fill="#00e000" d="M58.943 89.255c.634-1.763 1.648-1.437 3.263-1.321 4.4.273 8.696 1.453 12.618 3.465 8.353 4.202 14.025 10.63 16.831 19.554.345 1.097.23 2.276.472 3.14.699 2.496 2.037 4.257.526 6.792-.06.1.716.665.838.751.332 1.47.471 3.424 0 4.865a7 7 0 0 1-.966.902c.31.475 1.094.735 1.076 1.446-.187 7.171-3.631 15.2-8.116 20.85-4.898 6.17-13.978 10.868-21.695 11.705a29 29 0 0 1-4.434.126c-.712-2.48-.53-3.923-.472-6.472.04-1.77-.46-2.408.403-4.118-.048-.427-.264-.643-.518-.997-.082-1.497 1.261-1.707 2.443-1.915.267-.62-.19-.9.148-1.607.545-.377 1.951-.83 2.622-1.026 4.266-1.25 6.29-4.428 9.339-7.418-.115-2.108 1.037-3.813 1.4-5.969.811-4.818.944-9.916-.168-14.691l.808-1.274c-1.637-1.475-1.716-2.265-2.62-4.11-2.225-4.542-6.248-7.342-11.102-8.486-1.289-.304-2.242-.536-2.855-1.818.44-1.482.06-10.096.159-12.374m42.359 3.695c-.647-.945-2.431-3.52-1.947-4.636 1.301-.796 14.47-.469 16.758-.414 3.135 4.2 5.572 8.794 8.069 13.384 1.412 2.597 3.666 4.552 4.063 7.627 4.005 2.584 1.644 3.555 2.128 4.667.96.128 1.25.03 1.872.943 1.446 2.12 2.862 4.443 4.176 6.644l7.74 13.204 10.705 18.054c1.259 2.125 2.59 4.22 3.841 6.313.385.642.962 2.354.267 2.59-1.638.555-5.684.235-7.223.227-2.968-.014-5.99.3-8.818-.003-1.824-2.267-3.73-5.488-5.281-8.031l-6.824-11.347a952 952 0 0 0-5.967-10.028c-2.604-4.227-5.437-8.618-7.88-12.94l-.652-1.68c-.034-1.89-.66-.149-1.89-2.484-.352-.676-.677-1.349-1.11-1.975-.826-2.176-1.59-3.22-2.948-5.143-.146-.351-.95-1.525-1.195-1.956-1.47-2.59-3.105-5.085-4.67-7.618-.198-.562-2.788-4.87-3.214-5.398"/><path fill="#000" d="M127.68 114.115c.113-.009.27.03.392.051-.14.91-3.354 1.558-4.162 1.81-.315.098-1.609-.028-2.014-.063l-1.37.867-.81-.643.041-.122c2.999-.79 4.939-.753 7.923-1.9"/><path fill="#fefefe" d="M122.894 169.488c.738.027.934.386 1.472.942 1.997.374 3.766.65 5.722 1.242.474-.09 3.007 1.626 3.2 1.596 2.118-.346 3.483-.917 2.83 2.816 1.99 3.853 2.766 6.063 2.558 10.597-.183 4.004-2.012 7.654-4.918 10.384-3.583 3.367-13.284 3.645-18.149 3.27-.059 3.699-.014 7.518-.017 11.225.018 4.203-.936 3.208-4.552 3.273-1.73.03-5.208.361-6.707-.329-.824-.8-.614-7.713-.613-9.24l.011-12.62-.004-13.826c.003-2.186-.008-4.437.03-6.623.007-.41.188-.914.482-1.223.311-.325 1.27-.444 1.781-.45 2.524-.024 5.118-.117 7.628.143.282.027.705.648 1.176.82.089-.107.625-.724.687-.734 1.528-.272 3.355-.132 4.883-.43.978-.193 1.67-.502 2.5-.833"/><path fill="#000" d="M121.172 180.312c1.58.475 3.08.359 4.38 1.556 1.952 1.797 1.82 5.13-.074 6.931-1.49 1.417-2.653 1.518-4.592 1.481-1.77-.007-3.53-.03-5.298.047l.013-9.885c1.967.118 2.332-.057 3.93.901.717-.363.999-.568 1.641-1.031"/><path fill="#00e000" d="M101.302 92.95c.426.528 3.016 4.836 3.214 5.398 1.565 2.533 3.2 5.029 4.67 7.618.245.43 1.05 1.605 1.195 1.956 1.358 1.922 2.122 2.967 2.947 5.143.434.626.759 1.299 1.112 1.975 1.23 2.335 1.855.594 1.89 2.483l.65 1.681-.465.378c.159.891.34 1.956.364 2.86.183 6.804.19 13.65.283 20.456l.16 10.398c.026 1.797.206 6.334-.212 7.834-.58.404-1.225.463-1.917.504-1.797.11-15.268.155-15.769-.437-.368-.435-.4-1.5-.432-2.075-.277-4.8-.031-10.238-.032-15.102 0-7.602-.151-15.241.082-22.838.285-.425.566-.78.72-1.264-1.388-1.642-.627-3.182-.8-5.219-.044-.528.736-1.058 1.128-1.354-.118-.371-.578-.514-1.007-.757-.21-1.925-.369-17.996.037-19.088.082-.22.166-.363.378-.463.532-.253 1.024-.084 1.543.099z"/><path fill="#000" d="m110.148 108.444.233-.522c1.358 1.922 2.122 2.967 2.947 5.143l-.469.08c-.66-1.483-.775-1.832-2.046-2.894-2.486.956-1.97 1.668-2.959 2.29.042-1.494 1.364-2.169 2.352-3.066.178-.514.104-.399-.058-1.03"/><path fill="#006c00" d="M104.516 98.348c1.565 2.533 3.2 5.029 4.67 7.618.245.43 1.05 1.605 1.195 1.956l-.233.522c-1.915-3.17-3.781-6.5-5.724-9.62z"/><path fill="#000" d="M114.44 115.04c1.23 2.335 1.855.594 1.89 2.483l-.609.059-1.156-.573c-.37-.412-.314-.801-.35-1.374z"/><path fill="#00b700" d="M101.302 92.95c.426.528 3.016 4.836 3.214 5.398l-.092.475c-1.182-1.716-2.148-3.97-3.383-5.687z"/><path fill="#006c00" d="M113.328 113.065c.434.626.759 1.299 1.112 1.975l-.225.595-.052-.139-.092-.228c-.344-.878-.694-1.341-1.212-2.123z"/><path fill="#002100" d="m115.721 117.582.608-.059.651 1.681-.465.377c-.138-.892-.312-1.256-.794-2"/><path fill="#00e000" d="M142.007 87.93c3.147-.183 6.593.092 9.789-.042 1.614-.068 6.356-.254 7.53.636.197.787.294 1.705.3 2.517.043 5.543.019 11.103.014 16.645l.007 29.293-.001 13.062c-.003 1.648.032 3.608-.08 5.259-.028.432-.439.597-.762.798-.777.007-1.305-.038-1.748-.766-2.661-4.378-5.002-8.955-7.706-13.309-2.432-3.916-4.954-7.812-6.936-11.981-.47-.828-.466-1.801-.527-2.726-.422-5.067-.13-10.163-.255-15.222-.124-5.04-.376-10.057-.264-15.11.06-2.68-.237-5.398-.148-8.075.016-.495.434-.74.787-.98"/><path fill="#fefefe" d="M177.828 170.821c3.458-.127 6.921-.129 10.38-.006 1.212 2.523 3.174 8.327 4.217 11.243 1.658 4.64 3.933 10.247 5.35 14.88 1.433-4.458 3.247-9.204 4.863-13.627 1.451-3.979 3.007-8.584 4.645-12.457 1.573-.104 9.647-.339 10.67.383.458 1.657-3.64 11.568-4.46 13.808l-6.63 18.158c-1.338 3.668-2.83 8.162-4.332 11.652-2.038.114-7.559.105-9.513-.015-.737-1.453-1.655-4.206-2.248-5.838l-3.68-10.142-6.807-18.615c-.443-1.202-2.898-7.65-3.01-8.646.136-.488.156-.45.555-.778m-35.962-.014c2.679.035 5.261-.025 7.946-.04l15.217-.019c2.303.002 7.528-.267 9.384.54.13 1.416.305 8.923-.243 9.79-1.25.463-8.521.273-10.315.243-.12 8.02-.031 16.235-.028 24.27.004 3.013.05 6.123-.087 9.126-3.237.179-8.316.139-11.57-.008-.296-1.979-.143-9.005-.138-11.271l.025-22.093-9.393-.02c-2.934-1.987-1.323-3.008-.85-5.632.283-1.571-1.898-3.382.052-4.886m-50.652-.101c2.277-.043 7.145-.268 9.325.263.83.2.6 6.54.6 7.682v12.064l-.02 16.776c-.014 1.822.068 3.62.053 5.436-.01 1.188-.34 1.788-1.526 1.955-1.66-.003-8.282.304-9.807-.357-.605-.262-.505-5.146-.51-6.337l.016-10.167-.03-17.003c0-1.731-.242-9.111.419-9.958.477-.32.9-.296 1.48-.354"/><path fill="#00e000" d="M223.872 87.764a75 75 0 0 1 4.822-.067c4.729.077 9.55-.139 14.27.05.92 1.52 2.109 4.374 2.857 6.111.913 2.118 2.102 4.62 2.91 6.74-1.76 4.536-4.792 10.686-6.888 15.265-.632 1.393-2.086 5.594-3.416 6.069-.355-.088-.492-.114-.756-.382-.627-.636-13.273-29.402-14.356-32.317-.096-.26-.105-.483-.104-.757.273-.579.08-.334.661-.712m-56.859.004c2.959-.16 6.56-.075 9.556-.075 3.033 0 6.648-.093 9.642.06.804 1.363 1.682 3.509 2.328 4.987a415 415 0 0 0 3.432 7.759c-1.617 4.3-4.81 10.749-6.766 15.123-.775 1.595-2.042 5.421-3.384 6.25-.286.017-.56.07-.781-.178-.35-.394-.874-1.432-1.082-1.904-2.98-6.753-5.999-13.586-8.971-20.334-.766-1.74-4.333-9.519-4.591-10.905.185-.541.116-.366.617-.783m92.641 39.736c.622.008.832.152 1.125.696.908 1.684 1.643 3.46 2.417 5.209l3.782 8.585 5.038 11.447c.555 1.263 3.214 6.811 2.956 7.745-.806.732-8.102.462-9.616.457-2.888.001-7.404.142-10.18-.081-.744-1.321-1.527-3.221-2.154-4.644l-3.361-7.65c.97-3.037 3.27-7.476 4.58-10.55.904-2.12 4.234-10.18 5.413-11.214"/></g></svg></svg>