<svg xmlns="http://www.w3.org/2000/svg" width="512" height="512" viewBox="0 0 360 360"><path d="m 336.29006,318.10004 c 8.5855,0 16.45648,-4.5216 20.6875,-11.90625 4.25346,-7.37342 4.25346,-16.47912 0,-23.875 L 200.82135,11.975043 C 196.54539,4.6016433 188.72329,0.10005333 180.22758,0.10005333 c -0.0312,0 -0.0625,-1.2e-4 -0.0937,0 -0.0312,-1.2e-4 -0.0625,0 -0.0937,0 -8.49573,0 -16.31785,4.50157997 -20.59376,11.87498967 L 3.2901025,282.31879 c -4.25347,7.39588 -4.25347,16.50158 0,23.875 4.23102,7.38465 12.1019905,11.90625 20.6875005,11.90625 z" fill="#008000"/><path d="m 322.51265,286.28315 -284.757827,0 L 180.13381,39.806515 z" fill="#ffffff"/><path d="m 180.13382,95.779218 c -14.7838,0.01249 -27.32263,11.907032 -27.437,27.124502 0.11437,4.05306 1.15623,6.71863 1.15623,6.71863 l 23.06208,93.06081 6.43738,0 23.06208,-93.06081 c 0,0 1.04186,-2.66557 1.15623,-6.71863 -0.11437,-15.21747 -12.6532,-27.112012 -27.437,-27.124502 z" fill="#000000"/><path d="m 180.13383,275.78316 c -11.68083,0 -21.15001,-9.46917 -21.15001,-21.14999 0,-11.68084 9.46918,-21.15001 21.15001,-21.15001 11.68082,0 21.14999,9.46917 21.14999,21.15001 0,11.68082 -9.46917,21.14999 -21.14999,21.14999 z" fill="#000000"/></svg>