<svg xmlns="http://www.w3.org/2000/svg" width="512" height="512" style="shape-rendering:geometricPrecision;text-rendering:geometricPrecision;image-rendering:optimizeQuality;fill-rule:evenodd;clip-rule:evenodd"><path d="M99.5-.5h312q83.5 16.5 100 100v312q-16.5 83.5-100 100h-312Q16 495-.5 411.5v-312Q16 16 99.5-.5" style="opacity:1"/><path fill="#000108" d="M380.5 289.5h5q9.719 1.486 20 1-.626 1.083-2 1.5 7.1 3.14 13-2a3.65 3.65 0 0 1-1-1.5 46.6 46.6 0 0 0 13.5-12 385 385 0 0 1 18-27q2.721 2.026-1 3-.081 3.07 3 0a28.3 28.3 0 0 0 5-10q6.85-5.823 10-14 8.203-10.87 12.5-22-1.62-3.939 1-7.5a38 38 0 0 1-3-7.5q.514-2.975-2-4-3.703-1.226-8-1.5l6-1-3-1 1-1-7-5q-12.007-.564-23 4-2 1 0 2-1.684 1.566-4 2a90 90 0 0 1-13 14.5q-2.652 3.303-3.5 7 1.67-2.744 4.5-2.5-5.236 8.341-14.5 8.5a81 81 0 0 1-9.5-6 87 87 0 0 1-9-13 18.3 18.3 0 0 0-6-4 11.5 11.5 0 0 0-3.5-5l-1 1q-15.008-12.19-32.5-3a1387 1387 0 0 0-18.5-3 3.94 3.94 0 0 0-2 1 144 144 0 0 0-11.5-4l-2 1a423 423 0 0 0-20.5-3q-12.029 1.314-25 0a8207 8207 0 0 0-17 5l-3-1a2.43 2.43 0 0 0-.5 2q-4.09 1.808-7.5 5-3.688-1.724-7.5 0-.269-3.159-3-5l-2 2a156 156 0 0 1-9-12.5 24.8 24.8 0 0 0-8-3q2-1 0-2a42.4 42.4 0 0 1-8.5-1.5 42.4 42.4 0 0 1-8.5 1.5q1.701 1.524-1 2-4.606.22-8.5 2.5-4.561-1.928-10 0-7.288-.26-13.5-4 3.955-1.89 7 1.5 11.459 2.9 22-3-4.838.521-9.5 2.5-2.39-2.678-4.5-.5-3.032.21-5.5.5-4.094-5.018-10-4-2.836-3.23-6.5-2a4.46 4.46 0 0 1-2-1.5 93.8 93.8 0 0 1-20.5-2.5q-5.07-.915-10 2-8.489.063-18-2-16.614.025-35.5.5a140 140 0 0 1-10.5 3.5q-3.117-2.164-2.5 2-3.985-.507-7 2 .832 2.84-2 5-1.487-.257-2 1-1.46 3.672-1 8-2.322-.481-2-3-4.125.177-6 4 .315.879 1 1.5a49.7 49.7 0 0 0-3.5 12.5 229 229 0 0 1-1.5 19.5 52.5 52.5 0 0 1 2 8.5v18a50.7 50.7 0 0 1 4.5 16q1.037-3.587 3 0 .075-3.366 2.5-5-.904 7.678 2 14 15.27.49 30-1 4.896-5.62 12-8.5l-1-1a92 92 0 0 1 9-3 1880 1880 0 0 0 50-3q.912-1.305 2.5-1.5 3.602 1.354 7.5-.5l-2-1a47 47 0 0 1 5.5-3.5q.684 1.866-1.5 2.5a36.4 36.4 0 0 1 12 .5 199 199 0 0 1 12.5 11q.506-3.46-2.5-5.5 6.94-1.146 8 5.5-.426 2.872 1 5-.356 1.937 1 3 13.728 1.49 28 1h1q5.092 2.865 11.5 4a21.7 21.7 0 0 0 4-1q8.25 3.576 16.5 6.5a622 622 0 0 1 25.5 3.5 1731 1731 0 0 0 44.5-2.5 118 118 0 0 0 20-6 11.3 11.3 0 0 0 1.5-3.5l5.5.5q2.586-10.059 6.5-17.5 3.962-3.457 8-7a25.8 25.8 0 0 1 7 5l9 13q4.188 10.296 6.5 20a349 349 0 0 1-4 7q.544 1.025 1 2-4.397 2.184-2-2.5-3.71-3.12 0-6.5-6.125-6.76-6.5-16-4.017-4.489-4.5-9.5-1.65-1.534-4-1.5-4.221 1.902-9 2.5 3.45 3.008 0 6.5a6.8 6.8 0 0 1-3 1.5 20.5 20.5 0 0 1-3 5.5q-1.16 1.817-2.5 0a39.5 39.5 0 0 1-4.5 6l-2-2q-1.267 3.393-4 2-2.958 1.208-4.5 4l-3-1q-1 4-2 0l-1 2q-2.127-2.794-5.5-1.5 1.701 1.524-1 2-5.009.586-10-.5-7.865.226-15 3a4770 4770 0 0 0-35.5-4 6.3 6.3 0 0 0-3 1 548 548 0 0 1-27-7q-11.698.132-23.5 3-4.014-.505-8-1a4.93 4.93 0 0 0-.5-3q-2.082 1.58-4.5.5l-1-3q-1.926-1.026-3.5.5-1.896-3.16-5.5-3a12.9 12.9 0 0 0-.5-5q-2.807 1.752-4.5-1.5 1.87-2.187 0-4.5a39.5 39.5 0 0 0-6-4.5l2-1a8.4 8.4 0 0 0-4-.5 4.93 4.93 0 0 1-.5 3q-1.011-1.617-3-2a128 128 0 0 0-19.5 4q-3.907-1.821-8.5 1-6.687-1.6-13.5 1-6-2-12 0a324 324 0 0 0-9.5-2 41.3 41.3 0 0 1-13.5 3v3a8.4 8.4 0 0 0-4 .5l-1 3-4 1q.884 2.81-2 5-8.115 5.192-17.5 6.5-8.879-1.054-16.5-6a14.7 14.7 0 0 1-1.5-5l-1 2a13.9 13.9 0 0 1-4-3q-.662-6.644-4.5-13 1.188-2.543-1-5a147 147 0 0 1-1.5-17 9.5 9.5 0 0 0-1.5-2.5q1.523-.779 2-2.5a34.8 34.8 0 0 1-2-10 267 267 0 0 1 2-23q-2.103-2.014 1-2.5a3.65 3.65 0 0 1-1-1.5 72.3 72.3 0 0 0 4-15q2.217.393 4-1a13.27 13.27 0 0 1 5-5.5q-2.437-1.28-1-3 1.866-.684 2.5 1.5 1.68-1.578 1.5-3.5a404 404 0 0 0 19-6q27.038-.29 54-1.5 1.929.528 2.5 2 1.517-.588 1.5-2a7.3 7.3 0 0 0 3 2q8.919-1.197 16.5-1l1.5 1.5a460 460 0 0 1 32 6.5l6-.5q1.75-.75 2.5-2.5a3.94 3.94 0 0 0 2 1 233 233 0 0 0 18.5-6 95 95 0 0 0 14 7q5.647 13.615 22 10.5a4.46 4.46 0 0 1 2-1.5q2.802.669 5.5 1a216 216 0 0 1 16-3q8.784.801 18 0 17.285 1.425 34.5 3 2.197-1.663 3 1.5 20.217 5.672 39-2.5 3.93 1.533 8 0 2.316.434 4 2a4.46 4.46 0 0 0 1.5-2l3.5 5.5a17.2 17.2 0 0 1 8 3.5q11.017 12.015 22 24l3.5 1q3.894-1.36 7.5-1 1.712-1.388 0-2.5 10.737-13.215 25.5-24.5 18.548-8.561 33.5 7a39 39 0 0 1 1.5 7q2.412-1.4 2.5 2-.05 7.195 0 14.5-2.841 1.651-2 4-11.656 22.327-28 43l1 1a72 72 0 0 1-7 8q1.17 1.61-.5 3.5a161 161 0 0 1-11 13q-1.67 1.89-.5 3.5L421 295.5l-1-1q-4.768 5.017-11.5 7a426 426 0 0 0-17 0q-.301-5.775-5.5-3a20.5 20.5 0 0 1-3.5-2.5q2-1 0-2-7.681-2.135 0-3-1.374-.417-2-1.5" style="opacity:1"/><path fill="#060613" d="M231.5 186.5q-12.865 1.138-15-11 .356-1.937-1-3a105.7 105.7 0 0 0-29 0q-1.152 1.144-1.5 3a4.93 4.93 0 0 1-.5-3q-5.334-.338-1 2.5-.351 2.599-3 2.5-10.344-1.284-22-4 .359-2.951-1-5.5-4.933-.462-7.5 1.5-2.23-1.13-.5-2.5-4.251-.068-7.5-2.5-12.582 1.014-25.5 0a6.8 6.8 0 0 0-1.5 3l-3-4q-2.029 1.806-5 2a227 227 0 0 1-24.5-1 166 166 0 0 1-17 1.5q-4 1 0 2a339 339 0 0 1-21 2.5q2.832-2.16 2-5 3.015-2.507 7-2-.617-4.164 2.5-2a140 140 0 0 0 10.5-3.5q18.886-.475 35.5-.5 9.511 2.063 18 2 4.93-2.915 10-2a93.8 93.8 0 0 0 20.5 2.5 4.46 4.46 0 0 0 2 1.5q3.664-1.23 6.5 2 5.906-1.018 10 4 2.468-.29 5.5-.5 2.11-2.178 4.5.5 4.662-1.979 9.5-2.5-10.541 5.9-22 3-3.045-3.39-7-1.5 6.212 3.74 13.5 4 5.439-1.928 10 0 3.894-2.28 8.5-2.5 2.701-.476 1-2a42.4 42.4 0 0 0 8.5-1.5 42.4 42.4 0 0 0 8.5 1.5q2 1 0 2a24.8 24.8 0 0 1 8 3 156 156 0 0 0 9 12.5l2-2q2.731 1.841 3 5" style="opacity:1"/><path fill="#12051e" d="M158.5 173.5h-1q-4.482-2.46-10-2.5-43.254-1.245-86 .5h-19q.513-1.257 2-1a339 339 0 0 0 21-2.5q-4-1 0-2a166 166 0 0 0 17-1.5 227 227 0 0 0 24.5 1q2.971-.194 5-2l3 4a6.8 6.8 0 0 1 1.5-3q12.918 1.014 25.5 0 3.249 2.432 7.5 2.5-1.73 1.37.5 2.5 2.567-1.962 7.5-1.5 1.359 2.549 1 5.5" style="opacity:1"/><path fill="#1d1246" d="M61.5 171.5a1236 1236 0 0 1 86-.5q5.518.04 10 2.5a589 589 0 0 0-65-2z" style="opacity:1"/><path fill="#7347a6" d="M42.5 171.5h40a381 381 0 0 1-39 1v92a2163 2163 0 0 1-1-93" style="opacity:1"/><path fill="#a876d4" d="M82.5 171.5h10l9 2h-57v59h-1v-60a381 381 0 0 0 39-1" style="opacity:1"/><path fill="#e8ccfa" d="M64.5 173.5q-9.95 2.945 1 4.5a32 32 0 0 1 4 3.5 3.65 3.65 0 0 0 1.5-1l1 4q1-4 2 0 1.088-2.487 3.5-1.5-3.138 1.43-1 4-2.184.634-1.5 2.5 1.986-2.07 4-1 1-4 2 0a3.65 3.65 0 0 1 1.5-1q4.77 2.925 10 4h-21q-1.465 4.18-1 9-1.083-.626-1.5-2-1.72 1.437-3-1a3.65 3.65 0 0 1-1.5 1q-2.118-1.96-5-2.5l2-1-5.5-5.5q-3.195 2.044-1.5-1l-1.5-3-3 3q-.907-2.972-3-1-.82-4.319-2.5-8v-6z" style="opacity:1"/><path fill="#e7d8fa" d="M64.5 173.5h27a71 71 0 0 1-4 2q.519 1.794 1.5 0 1 4 2 0 2.006 2.256 5 3l1-1a26.3 26.3 0 0 0 4 6q1.436-3.314 3.5.5-1.552 2.26.5 4.5 1-4 2 0 1.37-1.73 2.5.5l-1 1q3.312.286 6 1.5h-22q-5.23-1.075-10-4a3.65 3.65 0 0 0-1.5 1q-1-4-2 0-2.014-1.07-4 1-.684-1.866 1.5-2.5-2.138-2.57 1-4-2.412-.987-3.5 1.5-1-4-2 0l-1-4a3.65 3.65 0 0 1-1.5 1 32 32 0 0 0-4-3.5q-10.95-1.555-1-4.5" style="opacity:1"/><path fill="#e6e5f9" d="M91.5 173.5h31q-1.653 2.388 2 2.5-2.487 1.088-1.5 3.5l1-2q1.112 1.712 2.5 0a29 29 0 0 0 4 1.5l-3 1a20.5 20.5 0 0 1 8 3l-3 3q.502 2.254 0 4 4.479-.192 9 0a23 23 0 0 0 5 2q-1.321 1.063-2 2.5a86 86 0 0 0-7-2.5q-11.489-.75-23-.5-2.688-1.214-6-1.5l1-1q-1.13-2.23-2.5-.5-1-4-2 0-2.052-2.24-.5-4.5-2.064-3.814-3.5-.5a26.3 26.3 0 0 1-4-6l-1 1q-2.994-.744-5-3-1 4-2 0-.981 1.794-1.5 0a71 71 0 0 0 4-2" style="opacity:1"/><path fill="#0d0f25" d="M186.5 172.5v7q-1.257.513-1 2-1.083.626-1.5 2l-1-2q-2.131 4.683-5 1l-3 2q-.926-1.423.5-2.5-3.578-.426-2-3-3.549-.66-7-1.5a60 60 0 0 1-8-4q11.656 2.716 22 4 2.649.099 3-2.5-4.334-2.838 1-2.5a4.93 4.93 0 0 0 .5 3q.348-1.856 1.5-3" style="opacity:1"/><path fill="#000d10" d="M398.5 207.5a11 11 0 0 0-1 2.5q1.394 1.616 2 3.5-1.983.255-3.5-1-.348 1.856-1.5 3-4.02-7.366-9-12a127 127 0 0 1-11-15.5q-16.262-1.238-32 .5-1 0-1 1-3.534 1.612-7 0 2.09-1.78-.5-2a17.65 17.65 0 0 1-9.5.5l2-1-5-3a1895 1895 0 0 1-35-3.5 184 184 0 0 0-35.5 4q-1.545.504-1.5 2-9.344-.023 0-3.5l-3-1.5a2.43 2.43 0 0 1 .5-2l3 1a8207 8207 0 0 1 17-5q12.971 1.314 25 0 10.26 1.245 20.5 3l2-1a144 144 0 0 1 11.5 4 3.94 3.94 0 0 1 2-1q9.276 1.44 18.5 3 17.492-9.19 32.5 3l1-1a11.5 11.5 0 0 1 3.5 5 18.3 18.3 0 0 1 6 4 87 87 0 0 0 9 13" style="opacity:1"/><path fill="#060311" d="M472.5 187.5q-14.772-.49-29 1a27.2 27.2 0 0 0-6 8 73 73 0 0 1-11 6 27.2 27.2 0 0 1-6 8 3.65 3.65 0 0 0 1 1.5q-9.664 9.981-22 1.5-.606-1.884-2-3.5.365-1.353 1-2.5a81 81 0 0 0 9.5 6q9.264-.159 14.5-8.5-2.83-.244-4.5 2.5.848-3.697 3.5-7a90 90 0 0 0 13-14.5q2.316-.434 4-2-2-1 0-2 10.993-4.564 23-4l7 5-1 1 3 1-6 1q4.297.274 8 1.5" style="opacity:1"/><path fill="#5e88be" d="M215.5 172.5v41h-1v-41q-13.274-.49-26 1v37l-2-5v-33a105.7 105.7 0 0 1 29 0" style="opacity:1"/><path fill="#19013d" d="M42.5 171.5q-.497 46.756 1 93v1q-2.904-6.322-2-14v-72q-.46-4.328 1-8" style="opacity:1"/><path fill="#03141b" d="M341.5 189.5q-1.37 2.379 0 4.5a179 179 0 0 0-7-.5 25.66 25.66 0 0 0-11-4q-1.663-1.185-4-1.5-33.496-.75-67-.5-1.063-1.356-3-1-.045-1.496 1.5-2a184 184 0 0 1 35.5-4 1895 1895 0 0 0 35 3.5l5 3-2 1a17.65 17.65 0 0 0 9.5-.5q2.59.22.5 2 3.466 1.612 7 0" style="opacity:1"/><path fill="#7888cc" d="M92.5 171.5q32.595-.795 65 2h1a60 60 0 0 0 8 4 72 72 0 0 1 9 11q3.95 16.02 0 32h-1v-3a59.6 59.6 0 0 0 1-14q1.074-23.613-22-28.5a221 221 0 0 0-31-1.5h-21z" style="opacity:1"/><path fill="#141336" d="M166.5 177.5q3.451.84 7 1.5-1.578 2.574 2 3-1.426 1.077-.5 2.5l3-2q2.869 3.683 5-1l1 2q.417-1.374 1.5-2 .433 4.724-1.5 9-1.731-3.685-4 0-1.036-3.587-3 0-.417-1.374-1.5-2a72 72 0 0 0-9-11" style="opacity:1"/><path fill="#0a0c1f" d="M216.5 175.5q2.135 12.138 15 11 3.812-1.724 7.5 0 3.41-3.192 7.5-5l3 1.5q-9.344 3.477 0 3.5 1.937-.356 3 1-11.778-.488-23 1l4 14q-.442 3.353 1 6-.16 2.818 1.5 1 3.25 2.25-.5 3.5-3.61.459-6.5 2.5-2.407-.901-4-3-3.699-8.835-1.5-17.5a34.9 34.9 0 0 1-7-8.5z" style="opacity:1"/><path fill="#e2f0f9" d="M122.5 173.5q15.555-.339 31 1.5 23.074 4.887 22 28.5-1.875-.116-2.5-2-1.036 3.587-3 0-2.574 1.578-3-2-2.034 1.32-4.5 1 .13-4.648-1.5-1-.476-2.701-2-1l-7-4q-3.706-.075-5.5 2-1.5-.5-2-2 .679-1.437 2-2.5a23 23 0 0 1-5-2 106 106 0 0 0-9 0q.502-1.746 0-4l3-3a20.5 20.5 0 0 0-8-3l3-1a29 29 0 0 1-4-1.5q-1.388 1.712-2.5 0l-1 2q-.987-2.412 1.5-3.5-3.653-.112-2-2.5" style="opacity:1"/><path fill="#e0f3fa" d="M188.5 173.5h25v39q-1.083.626-1.5 2a6.8 6.8 0 0 0-1.5-3q-2.397.165-5 1l-4-3q-2.014 2.103-2.5-1-1.524 1.701-2-1l-1 1-1-3q-2.712.582-5 0-.279-3.804-1.5-7z" style="opacity:1"/><path fill="#0b112a" d="M216.5 186.5a34.9 34.9 0 0 0 7 8.5q-2.199 8.665 1.5 17.5 1.593 2.099 4 3 2.89-2.041 6.5-2.5 3.75-1.25.5-3.5-1.66 1.818-1.5-1a32.5 32.5 0 0 1 8 .5q-3.587 1.036 0 3-2.437 1.28-1 3-3.024 4.167-7.5 2.5-.926 1.423.5 2.5-1.423.926-2.5-.5-2.508 4.521-6 6a13.9 13.9 0 0 0-4-3q-1.026-1.926.5-3.5-2.184-3.399-2.5-7.5l-1 6q-.852-7.683 1.5-15a349 349 0 0 1-4-16" style="opacity:1"/><path fill="#31728d" d="M229.5 188.5q11.222-1.488 23-1 33.504-.25 67 .5 2.337.315 4 1.5a1256 1256 0 0 0-68-1z" style="opacity:1"/><path fill="#0a0312" d="M41.5 179.5v10a626 626 0 0 0-2 10 3.65 3.65 0 0 0-1.5 1 125.7 125.7 0 0 0 1 30l1-3q.26 8.772 1.5 17v7q-2.425 1.634-2.5 5-1.963-3.587-3 0a50.7 50.7 0 0 0-4.5-16v-18a52.5 52.5 0 0 0-2-8.5 229 229 0 0 0 1.5-19.5 49.7 49.7 0 0 1 3.5-12.5 3.65 3.65 0 0 1-1-1.5q1.875-3.823 6-4-.322 2.519 2 3" style="opacity:1"/><path fill="#64b0cb" d="M255.5 189.5v-1q34.033-.42 68 1a25.66 25.66 0 0 1 11 4q3.908 2.755 6.5 7a10.1 10.1 0 0 1 1.5 6h-1a29.6 29.6 0 0 1-3-5q-1.092-3.352-4-5.5a51.8 51.8 0 0 0-17-6q-30.996-.75-62-.5" style="opacity:1"/><path fill="#e6c7fa" d="M443.5 190.5q1.063-1.356 3-1h25q.356 1.937-1 3-12.908-2.957-27-2" style="opacity:1"/><path fill="#f0eaf9" d="M443.5 190.5q14.092-.957 27 2a341 341 0 0 1-14 21q-1.875.116-2.5 2l-1-1q-.539 4.567-2 1-1.877 4.975-5 1-3.276 2.95-7 2a274 274 0 0 0-4 4l-1-1q-4.301 2.524-9.5 3-1.374-.064-2-1 1.65-1.657 2-4a645 645 0 0 0 19-29" style="opacity:1"/><path fill="#1e1848" d="M186.5 179.5v82q-1.426-2.128-1-5v-16a43.1 43.1 0 0 0-1-13q-2.346 3.954-4-.5l-4.5-1.5a25.6 25.6 0 0 1-4.5 4 54 54 0 0 0 4-9q3.95-15.98 0-32 1.083.626 1.5 2 1.964-3.587 3 0 2.269-3.685 4 0 1.933-4.276 1.5-9-.257-1.487 1-2" style="opacity:1"/><path fill="#d6f8f9" d="M255.5 189.5q31.004-.25 62 .5a51.8 51.8 0 0 1 17 6q2.908 2.148 4 5.5-.384 3.438 1 6.5a6.98 6.98 0 0 0-2.5 3.5l-1-2q-3.219-.87-6 2-1.418-.608-2-2-1 4-2 0a4.46 4.46 0 0 1-1.5 2q-5.318-1.086-9.5-6-.625 1.884-2.5 2a43 43 0 0 1-5-1.5q-14.492-.75-29-.5-1.144-1.152-3-1.5 6.354-2.084 13 .5a38.7 38.7 0 0 0 8.5-2q1 4 2 0 1.461 3.567 2-1l1 3q1.158-2.023 3.5-2.5a15.9 15.9 0 0 1-4.5-2.5q-3.545 3.037-8 1-2.487.263-4 2-3.68-4.478-9-2-1.845-1.163-1-3 2.424-.264 4.5-1a14.7 14.7 0 0 0-5-1.5q1.794-.981 0-1.5a4.46 4.46 0 0 0-1.5 2 9.5 9.5 0 0 0-1.5-2.5q-6.625-1.78-11.5 2.5-2-4-4 0a456 456 0 0 0-4-3l-3 3q-5.51-4.528-13-4-3.674.237-6.5 2-1.1-1.812-1-4z" style="opacity:1"/><path fill="#240c4c" d="M86.5 193.5a61 61 0 0 1-5.5 2q-2.86.119-6-1a242 242 0 0 1-1.5 21.5q8.222 2.173 17 1.5 22.265-.494 44 1h-62v-25z" style="opacity:1"/><path fill="#5ca3c1" d="M385.5 203.5q.713 3.426 3 6v2q-8.08-9.627-14-21-15-2-30 0a555 555 0 0 0 22 32 36.6 36.6 0 0 0 4 7q.915 1.337 1 3h-1q-1.46-2.459-4-4a99.6 99.6 0 0 0-10-16 4650 4650 0 0 0-10-15 54 54 0 0 1-4-9q15.738-1.738 32-.5a127 127 0 0 0 11 15.5" style="opacity:1"/><path fill="#140722" d="M121.5 193.5h1q2.128 1.426 5 1a12.9 12.9 0 0 0 .5 5q1.5 2 3 0 2.196 1.438 2.5 4-1.655 2.666 0 5.5a7.3 7.3 0 0 1-2 3.5q2.557 2.704 5.5 2 .724 1.422.5 3-1.487-.257-2 1h-1a485 485 0 0 0-44-1 71 71 0 0 0-4-2q1.143-.616 3-.5a33.8 33.8 0 0 1-5-6v-4q3.587-1.964 0-3a18.7 18.7 0 0 1 6-6.5q15.738-1 31-2" style="opacity:1"/><path fill="#1c0c34" d="M86.5 193.5h35q-15.262 1-31 2a18.7 18.7 0 0 0-6 6.5q3.587 1.036 0 3v4a33.8 33.8 0 0 0 5 6q-1.857-.116-3 .5a71 71 0 0 1 4 2q-8.778.673-17-1.5a242 242 0 0 0 1.5-21.5q3.14 1.119 6 1a61 61 0 0 0 5.5-2" style="opacity:1"/><path fill="#1c1039" d="M122.5 193.5q8.29-.482 16 1a14.7 14.7 0 0 0 3 3.5 193 193 0 0 0-3 4q4 1 0 2 5.919 2.94 0 6a4.46 4.46 0 0 1 2 1.5q-.519 1.794-1.5 0-1.174 2.9 1.5 4.5l-3 1.5a4.93 4.93 0 0 0-.5-3q-2.943.704-5.5-2a7.3 7.3 0 0 0 2-3.5q-1.655-2.834 0-5.5-.304-2.562-2.5-4-1.5 2-3 0a12.9 12.9 0 0 1-.5-5q-2.872.426-5-1" style="opacity:1"/><path fill="#dbf3f9" d="M278.5 205.5h-42l-3-12q2.826-1.763 6.5-2 7.49-.528 13 4l3-3a456 456 0 0 1 4 3q2-4 4 0 4.875-4.28 11.5-2.5a9.5 9.5 0 0 1 1.5 2.5 4.46 4.46 0 0 1 1.5-2q1.794.519 0 1.5a14.7 14.7 0 0 1 5 1.5q-2.076.736-4.5 1-.845 1.837 1 3 5.32-2.478 9 2 1.513-1.737 4-2 4.455 2.037 8-1a15.9 15.9 0 0 0 4.5 2.5q-2.342.477-3.5 2.5l-1-3q-.539 4.567-2 1-1 4-2 0a38.7 38.7 0 0 1-8.5 2q-6.646-2.584-13-.5 1.856.348 3 1.5" style="opacity:1"/><path fill="#865cbb" d="M443.5 188.5q14.228-1.49 29-1 2.514 1.025 2 4-2.211 1.405-3 4-4.096 3.669-6 9a208 208 0 0 0-14 20v-2a59.6 59.6 0 0 0 5-9 341 341 0 0 0 14-21q1.356-1.063 1-3h-25q-1.063-1.356-3-1" style="opacity:1"/><path fill="#0d0617" d="M104.5 196.5q1.083.626 1.5 2 1.461-3.567 2 1 .853-5.791 2.5 0 4.442-1.024 1-2.5 3-1 6 0a4.46 4.46 0 0 0-2 1.5q7.553 1.47 7.5 9-3.605 1.921-5.5 5.5-10.092 2.181-20 0a3.65 3.65 0 0 1-1-1.5l2-1q-1.238-1.329-3-1-.245-3.535.5-7 4.798 1.104.5-2.5l7-1q1.128-1.006 1-2.5" style="opacity:1"/><path fill="#201347" d="M138.5 194.5q4.671.887 7.5 5a42.5 42.5 0 0 1 0 13q-2.718 6.162-9.5 6h-1q.513-1.257 2-1l3-1.5q-2.674-1.6-1.5-4.5.981 1.794 1.5 0a4.46 4.46 0 0 0-2-1.5q5.919-3.06 0-6 4-1 0-2a193 193 0 0 1 3-4 14.7 14.7 0 0 1-3-3.5" style="opacity:1"/><path fill="#120321" d="M41.5 189.5v55q-1.24-8.228-1.5-17l-1 3a125.7 125.7 0 0 1-1-30 3.65 3.65 0 0 1 1.5-1 626 626 0 0 1 2-10" style="opacity:1"/><path fill="#d8e2fa" d="M175.5 203.5a59.6 59.6 0 0 1-1 14 20.7 20.7 0 0 1-3.5-4 7.3 7.3 0 0 0-2 3l-2-4-3-1a8.4 8.4 0 0 1-.5-4 15.9 15.9 0 0 0-6.5 1 66 66 0 0 0-8.5-7 16.3 16.3 0 0 0-2-5q1.794-2.075 5.5-2l7 4q1.524-1.701 2 1 1.63-3.648 1.5 1 2.466.32 4.5-1 .426 3.578 3 2 1.964 3.587 3 0 .625 1.884 2.5 2" style="opacity:1"/><path fill="#e3bbfa" d="M44.5 179.5q1.68 3.681 2.5 8 2.093-1.972 3 1l3-3 1.5 3q-1.695 3.044 1.5 1l5.5 5.5-2 1q2.882.54 5 2.5a3.65 3.65 0 0 0 1.5-1q1.28 2.437 3 1 .417 1.374 1.5 2 .25 9.014-.5 18-2.668 4.164-3-1-1 4-2 0-2.103 3.71-4.5 0-1.195.686-1 2-1.588-1.65-2.5-4-1.371 5.528-2-1l-1 1q-2.5-4-5 0-.53-2.361-2-5l-1 2q-.348-1.856-1.5-3z" style="opacity:1"/><path fill="#d0f4f9" d="m388.5 211.5 1 4a43 43 0 0 1-5 0q-1.561 3.737-2.5 0-1 4-2 0-1 4-2 0-1 4-2 0-3.994 1.984-7 7-1.155-1.647-2.5 0a555 555 0 0 1-22-32q15-2 30 0 5.92 11.373 14 21" style="opacity:1"/><path fill="#07262d" d="M342.5 188.5a54 54 0 0 0 4 9 4650 4650 0 0 1 10 15 56 56 0 0 1-4 1 101 101 0 0 0-6 6.5q1.368 2.438-2 2.5 1.877-7.45-1-14 .258-1.487-1-2a10.1 10.1 0 0 0-1.5-6q-2.592-4.245-6.5-7 3.623.19 7 .5-1.37-2.121 0-4.5 0-1 1-1" style="opacity:1"/><path fill="#cde2fa" d="M188.5 198.5q1.221 3.196 1.5 7 2.288.582 5 0l1 3 1-1q.476 2.701 2 1 .486 3.103 2.5 1l4 3q2.603-.835 5-1a6.8 6.8 0 0 1 1.5 3q.417-1.374 1.5-2v14q-1.933-2.622-4.5-1-2.87-4.361-7-2a39.2 39.2 0 0 0-7-5q-2.862.869-5 0-.272-4.793-1.5-9z" style="opacity:1"/><path fill="#14364b" d="M285.5 207.5q12.01-.25 24 .5l4.5 4.5q.743 2.96.5 6a221 221 0 0 0-27-1h-8q4.054-2.194 9-2.5 2.18-3.172 6-4-2.342-.477-3.5-2.5-4.217 1.277-9.5.5 2.337-.315 4-1.5" style="opacity:1"/><path fill="#172c46" d="M258.5 207.5h27q-1.663 1.185-4 1.5 5.283.777 9.5-.5 1.158 2.023 3.5 2.5-3.82.828-6 4-4.946.306-9 2.5h-16q-5.898-3.513 1.5-5 .87-4.571-1-1-1.43-3.138-4-1a11.3 11.3 0 0 0-3.5-1.5q1.374-.417 2-1.5" style="opacity:1"/><path fill="#121c3e" d="M215.5 172.5q1.356 1.063 1 3v11a349 349 0 0 0 4 16q-2.352 7.317-1.5 15l1-6q.316 4.101 2.5 7.5-1.526 1.574-.5 3.5a13.9 13.9 0 0 1 4 3q3.492-1.479 6-6 1.077 1.426 2.5.5-1.426-1.077-.5-2.5 4.476 1.667 7.5-2.5-1.437-1.72 1-3-3.587-1.964 0-3a32.5 32.5 0 0 0-8-.5q-1.442-2.647-1-6 2.147 1.92 2 5h23q-.626 1.083-2 1.5 1.9.464 3.5 1.5 2.57-2.138 4 1 1.87-3.571 1 1-7.398 1.487-1.5 5a101.3 101.3 0 0 0-22 1.5q-5.567 1.84-10 5.5a21.5 21.5 0 0 0-5.5 4q-7.479-1.479-9-9-.264-6.282-1.5-12z" style="opacity:1"/><path fill="#7577c1" d="M443.5 188.5q1.937-.356 3 1-1.937-.356-3 1a645 645 0 0 1-19 29h-1q1.733-5.466 5-10a143 143 0 0 1 9-13 27.2 27.2 0 0 1 6-8" style="opacity:1"/><path fill="#ccd8f9" d="M148.5 201.5a66 66 0 0 1 8.5 7 15.9 15.9 0 0 1 6.5-1 8.4 8.4 0 0 0 .5 4l3 1 2 4a7.3 7.3 0 0 1 2-3 20.7 20.7 0 0 0 3.5 4v1q-1.987 2.179-2.5-1a21.3 21.3 0 0 1-4 5q-1.72-1.437-3 1a240 240 0 0 0-6 0 128 128 0 0 1-8.5-3q-1.763 2.032-3-.5l1-1-3-1q1.129-1.006 1-2.5 2.566-6.571 2-14" style="opacity:1"/><path fill="#0b0c21" d="M437.5 196.5a143 143 0 0 0-9 13q-3.006 1.76-4.5 5-1.72-1.437-3 1a40.7 40.7 0 0 1-3.5 7 3.65 3.65 0 0 1-1.5-1q-3.452 3.148-7 4h-4a16.7 16.7 0 0 1-4-4l-1 1q-3.68-2.912-5.5-7 1.152-1.144 1.5-3 1.517 1.255 3.5 1 12.336 8.481 22-1.5a3.65 3.65 0 0 1-1-1.5 27.2 27.2 0 0 0 6-8 73 73 0 0 0 11-6" style="opacity:1"/><path fill="#7674c2" d="M71.5 192.5v-1h43q11.511-.25 23 .5 3.6 1.116 7 2.5.5 1.5 2 2a16.3 16.3 0 0 1 2 5q.566 7.429-2 14-2.371 3.852-7 4-1.936.356-3-1 6.782.162 9.5-6a42.5 42.5 0 0 0 0-13q-2.829-4.113-7.5-5-7.71-1.482-16-1h-36q-7.208-1.481-15-1" style="opacity:1"/><path fill="#91b8eb" d="M188.5 173.5q12.726-1.49 26-1v57h-1v-56z" style="opacity:1"/><path fill="#bfecf9" d="M389.5 215.5q3.675 3.194 5 8-1.348 7.02-7 1-3.64 1.71-7.5 0-5.077.921-9.5 5a36.6 36.6 0 0 1-4-7q1.345-1.647 2.5 0 3.006-5.016 7-7 1 4 2 0 1 4 2 0 1 4 2 0 .939 3.737 2.5 0a43 43 0 0 0 5 0" style="opacity:1"/><path fill="#6da9d1" d="M229.5 188.5h26v1h-23q-.1 2.188 1 4l3 12h42q14.508-.25 29 .5a43 43 0 0 0 5 1.5q5.254 5.36 4 13a841 841 0 0 0-55-1h-10l36-2a221 221 0 0 1 27 1 18.5 18.5 0 0 0-.5-6l-4.5-4.5q-11.99-.75-24-.5h-50q.147-3.08-2-5z" style="opacity:1"/><path fill="#795db5" d="M71.5 192.5q7.792-.481 15 1h-14v25h64q1.064 1.356 3 1-4.18 1.465-9 1h-59z" style="opacity:1"/><path fill="#bfc7f9" d="M146.5 215.5q.129 1.494-1 2.5l3 1-1 1q1.237 2.532 3 .5a128 128 0 0 0 8.5 3q2.982-.038 6 0 1.28-2.437 3-1a21.3 21.3 0 0 0 4-5q.513 3.179 2.5 1v2q-8.38 16.45-27 17-5.568-.237-10.5 0a6.55 6.55 0 0 1-3-3l-1 2q-.598-.343-.5-1-2.79-.798-6-3.5 2.031-1.94 4-.5 1.671-1.834.5-4-.906 3.279-3.5.5a7.3 7.3 0 0 0 3-2q-3.348-1.975-6-2.5a14.34 14.34 0 0 1 6-3q4.82.465 9-1 4.629-.148 7-4" style="opacity:1"/><path fill="#bdddf8" d="M251.5 219.5h10a30 30 0 0 1 3.5 3l1-1a22.8 22.8 0 0 1 4 5l1-1q.332 5.164 3 1l1.5 3q3.703 1.002 7 2-10.78-.487-21 1h-3q-1.983.255-3.5-1a12.4 12.4 0 0 1-2.5 4q.774-1.887-2-3 .465 2.552-1.5 5a16.5 16.5 0 0 0-3.5-5.5l1-1q-2.75-.75-3.5-3.5l-2 2-3-4q-1 4-2 0-1.006 1.129-2.5 1 2.357-4.097 7-5.5a94 94 0 0 1 11-1.5" style="opacity:1"/><path fill="#bdf1f9" d="M338.5 201.5a29.6 29.6 0 0 0 3 5v24q-8.979.087-20.5 0-2.668-4.164-3 1-1.035-1.857-1.5 0h-34a247 247 0 0 0-7-2l-1.5-3q-2.668 4.164-3-1l-1 1a22.8 22.8 0 0 0-4-5l-1 1a30 30 0 0 0-3.5-3q27.535-.4 55 1 1.254-7.64-4-13 1.875-.116 2.5-2 4.182 4.914 9.5 6a4.46 4.46 0 0 0 1.5-2q1 4 2 0 .582 1.392 2 2 2.781-2.87 6-2l1 2a6.98 6.98 0 0 1 2.5-3.5q-1.384-3.062-1-6.5" style="opacity:1"/><path fill="#c4befa" d="M119.5 220.5h11a14.34 14.34 0 0 0-6 3q2.652.525 6 2.5a7.3 7.3 0 0 1-3 2q2.594 2.779 3.5-.5 1.171 2.166-.5 4-1.969-1.44-4 .5 3.21 2.702 6 3.5-1.473.961-3 2a21 21 0 0 0-1-2.5q-3.646-.443-5.5-3.5l-1 2q-1.5-2-3 0a9.5 9.5 0 0 0-2.5-1.5q2-2.76-.5-1.5-.486-3.103-2.5-1a15 15 0 0 1-3.5-3l-1 1q-1-6-2 0l-1-2q-1 2-2 0-.094-4.462 2-1a9.5 9.5 0 0 1 1.5-2.5q6.282-.264 12-1.5" style="opacity:1"/><path fill="#6a86c7" d="M263.5 217.5h24l-36 2a94 94 0 0 0-11 1.5q-4.643 1.403-7 5.5h-1a22.8 22.8 0 0 1-4 5q.282-4.059 3-7 4.433-3.66 10-5.5a101.3 101.3 0 0 1 22-1.5" style="opacity:1"/><path fill="#0f183a" d="M394.5 215.5q1.82 4.088 5.5 7l1-1a16.7 16.7 0 0 0 4 4h4q3.548-.852 7-4 .621.686 1.5 1a40.7 40.7 0 0 0 3.5-7q1.28-2.437 3-1 1.494-3.24 4.5-5-3.267 4.534-5 10a36 36 0 0 0-6 8q-2.317.305-4 2l-3.5 7q-1.647-2.201-4.5-2.5 2.184-.634 1.5-2.5-1.077 1.426-2.5.5-1.242-2.988-4-4.5a164 164 0 0 1-12-18q-2.287-2.574-3-6 4.98 4.634 9 12" style="opacity:1"/><path fill="#112d47" d="M343.5 208.5q2.877 6.55 1 14a195 195 0 0 0 1 22 789 789 0 0 1-2 20z" style="opacity:1"/><path fill="#091a1f" d="M356.5 212.5a99.6 99.6 0 0 1 10 16v3q-5.16-.282-10.5-3-2.59.22-.5 2a20.2 20.2 0 0 1-6 1.5q1.198 2.623-2 4l1 1q-1.968 3.72-3 7.5a195 195 0 0 1-1-22q3.368-.062 2-2.5a101 101 0 0 1 6-6.5 56 56 0 0 0 4-1" style="opacity:1"/><path fill="#180f33" d="M465.5 204.5a8.4 8.4 0 0 1-.5 4 58.5 58.5 0 0 0-7.5 16q-10.019 8.751-14.5 20-4.797 1.095-4.5 6h-3q7.983-12.958 16-26a208 208 0 0 1 14-20" style="opacity:1"/><path fill="#cbaef9" d="M71.5 191.5v29h19a71 71 0 0 1-4 2q.519 1.794 1.5 0 .663 3.268 3 2l1 3q1.72-1.437 3 1 2.288.582 5 0a456 456 0 0 1 4 3l1-2q1.718 4.466 6.5 5a6.8 6.8 0 0 1-3 1.5q8.29 1.197 17 2.5h-14q-8.1-1.03-16.5-2-1.524 1.701-2-1-2.097.826-4 1-.538-4.567-2-1-1.574-2.41-4.5-2a8.44 8.44 0 0 0-.5-4q-2.81.883-5-2 .115 1.857-.5 3-1.5-.5-2-2 1.71-1.388 0-2.5-4.443 1.11-8-2.5a4.45 4.45 0 0 0-1.5 2 19 19 0 0 1-3-5q-1.51 3.362-2.5-1-.195-1.314 1-2 2.397 3.71 4.5 0 1 4 2 0 .332 5.164 3 1 .75-8.986.5-18-.465-4.82 1-9" style="opacity:1"/><path fill="#18143c" d="M215.5 207.5q1.236 5.718 1.5 12 1.521 7.521 9 9a21.5 21.5 0 0 1 5.5-4q-2.718 2.941-3 7-1.935.837-2.5 3-2.086 11.279 3.5 21-2.361-.656-3.5-3a7.25 7.25 0 0 1-2.5 2q-2.739-.63-6 0a41.7 41.7 0 0 0-1 9v2h-1z" style="opacity:1"/><path fill="#120f2f" d="M185.5 240.5q-1.185-1.663-1.5-4-1 2-2 0a12.9 12.9 0 0 1-.5-5q-1.983.255-3.5-1-8.489 2.124-15.5 7l1-2a34.3 34.3 0 0 0 8-6 25.6 25.6 0 0 0 4.5-4l4.5 1.5q1.654 4.454 4 .5a43.1 43.1 0 0 1 1 13" style="opacity:1"/><path fill="#c3b4f9" d="M90.5 220.5h29q-5.718 1.236-12 1.5a9.5 9.5 0 0 0-1.5 2.5q-2.094-3.462-2 1 1 2 2 0l1 2q1-6 2 0l1-1a15 15 0 0 0 3.5 3q2.014-2.103 2.5 1 2.5-1.26.5 1.5 1.374.561 2.5 1.5 1.5-2 3 0l1-2q1.854 3.057 5.5 3.5.646 1.38 1 2.5a186 186 0 0 1 3-2q-.098.657.5 1l1-2a6.55 6.55 0 0 0 3 3q4.932-.237 10.5 0-10.722 1.488-22 1a3468 3468 0 0 0-17-2.5 6.8 6.8 0 0 0 3-1.5q-4.782-.534-6.5-5l-1 2a456 456 0 0 0-4-3q-2.712.582-5 0-1.28-2.437-3-1l-1-3q-2.337 1.268-3-2-.981 1.794-1.5 0a71 71 0 0 0 4-2" style="opacity:1"/><path fill="#afe6f9" d="M394.5 223.5q4.096 3.669 6 9 .166 3.222-2 1-3.252 2.932-7 2-4.179 2.645-8.5 2l-1-2-3 3q-1.155-1.647-2.5 0a580 580 0 0 0-5-6 5.73 5.73 0 0 0-1-3q4.423-4.079 9.5-5 3.86 1.71 7.5 0 5.652 6.02 7-1" style="opacity:1"/><path fill="#bdd1fa" d="M188.5 209.5q1.228 4.207 1.5 9 2.138.869 5 0a39.2 39.2 0 0 1 7 5q4.13-2.361 7 2 2.567-1.622 4.5 1v10q-1.083-.626-1.5-2l-1 3q-1-2-2 0-2.767-2.775-6-1l-1-2q-2.833.896-5.5 1-1.794-.519 0-1.5a25 25 0 0 0-7-.5q.479-7.295-1-14z" style="opacity:1"/><path fill="#ccdcf9" d="M456.5 213.5a59.6 59.6 0 0 1-5 9 1235 1235 0 0 0-6 8q-5.602-1.15-6 5-3.333.483-5.5-2 .116 1.857-.5 3-3.28-1.533-7.5-4l-1 2q-3.546-1.32-5.5-6 .915-2.901 3-5 .626.936 2 1 5.199-.476 9.5-3l1 1a274 274 0 0 1 4-4q3.724.95 7-2 3.123 3.975 5-1 1.461 3.567 2-1l1 1q.625-1.884 2.5-2" style="opacity:1"/><path fill="#cda5f9" d="M44.5 209.5q1.152 1.144 1.5 3l1-2q1.47 2.639 2 5 2.5-4 5 0l1-1q.629 6.528 2 1 .912 2.35 2.5 4 .99 4.362 2.5 1a19 19 0 0 0 3 5 4.45 4.45 0 0 1 1.5-2q3.557 3.61 8 2.5 1.71 1.112 0 2.5.5 1.5 2 2 .615-1.143.5-3 2.19 2.883 5 2a8.44 8.44 0 0 1 .5 4q2.926-.41 4.5 2 1.462-3.567 2 1 1.903-.174 4-1 .476 2.701 2 1 8.4.97 16.5 2h-40q-1.89 4.137-2.5 9l-1-5q-1.963 3.587-3 0-1.61 1.17-3.5-.5 1.7-1.524-1-2 3.783-2.529-1-4l1-1q-3.057-1.854-3.5-5.5-1.461 3.567-2-1l-1 3q-2.482-.453-4-4l-1 2q-2.175.354-4.5 0z" style="opacity:1"/><path fill="#a0ecf3" d="M341.5 230.5v10a2.43 2.43 0 0 0-2 .5q1.794.981 0 1.5-2-2-4 0-1.561-3.737-2.5 0-1-4-2 0l-1-2q-2.712.582-5 0-2.103 3.71-4.5 0a3.65 3.65 0 0 0-1.5 1 81 81 0 0 0-2.5-3v-7q.465-1.857 1.5 0 .332-5.164 3-1 11.521.087 20.5 0" style="opacity:1"/><path fill="#6783c4" d="M388.5 209.5a164 164 0 0 0 12 18 134 134 0 0 0 8 13 137 137 0 0 0 9-13 36 36 0 0 1 6-8h1q-.35 2.343-2 4-2.085 2.099-3 5a76.5 76.5 0 0 0-9 14 5.73 5.73 0 0 1-3 1q-2.381-6.275-7-11-1.904-5.331-6-9-1.325-4.806-5-8l-1-4z" style="opacity:1"/><path fill="#171e54" d="M400.5 227.5q2.758 1.512 4 4.5 1.423.926 2.5-.5.684 1.866-1.5 2.5 2.853.299 4.5 2.5l3.5-7q1.683-1.695 4-2a137 137 0 0 1-9 13 134 134 0 0 1-8-13" style="opacity:1"/><path fill="#7472c2" d="M174.5 220.5h1a54 54 0 0 1-4 9 34.3 34.3 0 0 1-8 6 58.8 58.8 0 0 1-18 4h-35v-1h15q11.278.488 22-1 18.62-.55 27-17" style="opacity:1"/><path fill="#afd1f7" d="M419.5 228.5q1.954 4.68 5.5 6l1-2q4.22 2.467 7.5 4 .616-1.143.5-3 2.167 2.483 5.5 2 .398-6.15 6-5a117.3 117.3 0 0 1-14 21q-1.732-4.971-5.5 0-1-2-2 0a6.55 6.55 0 0 1-3-3l-1 3-4-10q-.939 3.737-2.5 0a5.6 5.6 0 0 1-3 1 76.5 76.5 0 0 1 9-14" style="opacity:1"/><path fill="#0a0415" d="M185.5 240.5v16q-1.06-6.646-8-5.5 3.006 2.04 2.5 5.5a199 199 0 0 0-12.5-11 36.4 36.4 0 0 0-12-.5q2.184-.634 1.5-2.5a47 47 0 0 0-5.5 3.5l2 1q-3.898 1.854-7.5.5-1.588.195-2.5 1.5a1880 1880 0 0 1-50 3 92 92 0 0 0-9 3l1 1q-7.104 2.88-12 8.5v-3q1.442-2.647 1-6 5.79-.52 9-5.5a166 166 0 0 1 11-6q17.33-.013 34-2.5 17.43 1.09 34-4 7.011-4.876 15.5-7 1.517 1.255 3.5 1a12.9 12.9 0 0 0 .5 5q1 2 2 0 .315 2.337 1.5 4" style="opacity:1"/><path fill="#594192" d="M110.5 239.5h35a1290 1290 0 0 0-72 3 418 418 0 0 1 0 19v3q-14.73 1.49-30 1v-1h29v-25z" style="opacity:1"/><path fill="#16053d" d="m163.5 235.5-1 2q-16.57 5.09-34 4-29.18-.234-55 1a1290 1290 0 0 1 72-3 58.8 58.8 0 0 0 18-4" style="opacity:1"/><path fill="#5c61a8" d="M214.5 213.5h1v52q-14.272.49-28-1h27z" style="opacity:1"/><path fill="#aec5f9" d="M232.5 226.5q2.806 6.61 8.5 11 1.67 1.89.5 3.5l4 2q-2.21 1.065-2 3.5 5.923.29 0 1.5a8.9 8.9 0 0 1 4 3q-1.6 3.147-1.5 6.5l1-1q.663 3.268 3 2 .522 4.263 4.5 5-31.518-1.06-26-32a22.8 22.8 0 0 0 4-5" style="opacity:1"/><path fill="#9cdcf4" d="M400.5 232.5q4.619 4.725 7 11 1.418 3.098 2 5.5-3.038 1.791-1 4.5l-1.5 3q-1-2-2 0-1-4-2 0a7.3 7.3 0 0 1-2-3q-.539 4.567-2 1-1.304 4.894-4 1l-1 2q-2.439-.531-5.5 0l-12-19q1.345-1.647 2.5 0l3-3 1 2q4.321.645 8.5-2 3.748.932 7-2 2.166 2.222 2-1" style="opacity:1"/><path fill="#c394f3" d="M71.5 238.5v25h-27v-34q2.325.354 4.5 0l1-2q1.518 3.547 4 4l1-3q.539 4.567 2 1 .443 3.646 3.5 5.5l-1 1q4.783 1.471 1 4 2.7.476 1 2 1.89 1.67 3.5.5 1.037 3.587 3 0l1 5q.61-4.863 2.5-9" style="opacity:1"/><path fill="#120520" d="M128.5 241.5q-16.67 2.487-34 2.5a166 166 0 0 0-11 6q-3.21 4.98-9 5.5.442 3.353-1 6a418 418 0 0 0 0-19q25.82-1.234 55-1" style="opacity:1"/><path fill="#aaccf9" d="M258.5 232.5q-4.814 2.104-4 7.5-1.095 5.363 4 6.5.512 1.257 2 1v1q-1.763-.329-3 1l2 1-2 2 3 2.5q-2.013 3.023-1.5 6.5a374 374 0 0 1 15.5 2h-20q-3.978-.737-4.5-5-2.337 1.268-3-2l-1 1q-.1-3.353 1.5-6.5a8.9 8.9 0 0 0-4-3q5.923-1.21 0-1.5-.21-2.435 2-3.5l-4-2q1.17-1.61-.5-3.5-5.694-4.39-8.5-11h1q1.494.129 2.5-1 1 4 2 0l3 4 2-2q.75 2.75 3.5 3.5l-1 1a16.5 16.5 0 0 1 3.5 5.5q1.965-2.448 1.5-5 2.774 1.113 2 3a12.4 12.4 0 0 0 2.5-4q1.517 1.255 3.5 1" style="opacity:1"/><path fill="#090f24" d="M366.5 228.5q2.54 1.541 4 4a273 273 0 0 0 12 19q.349 8.202 5 15-.291 2.355 0 4.5-.85 1.492-2 2.5-2.892-3.151-2-7-3.351-5.375-5-10.5 3.827-2.274-1-2.5-.65-4.178-4-7h3q-4.656-8.076-10-15z" style="opacity:1"/><path fill="#5d7dbb" d="M258.5 232.5h57v15h-55q-1.488.257-2-1-5.095-1.137-4-6.5-.814-5.396 4-7.5" style="opacity:1"/><path fill="#292f6a" d="M258.5 235.5q-2.731 5.596 2 9.5 5.979.749 12 .5 20.265-.494 40 1h-54q-2.284-2.736-3-6.5.07-3.384 3-4.5" style="opacity:1"/><path fill="#171945" d="M279.5 233.5q-6.303 1.19-13 2.5 5.5 1.5 1 5 1.423.926 2.5-.5 2.426 1.554.5 3.5 1.374.417 2 1.5a72.4 72.4 0 0 1-12-.5q-4.731-3.904-2-9.5 1.144-1.152 3-1.5a163 163 0 0 1 18-.5" style="opacity:1"/><path fill="#12203f" d="M279.5 233.5h20q-1.602 1.401-4 1 .531 3.061 0 5.5 1.423.926 2.5-.5 3.775 4.764 11.5 5 .571-3.663-2-2a10.3 10.3 0 0 1-1.5-4l-1 1a6.98 6.98 0 0 0-3.5-2.5q1.4-4.272 4.5-.5 2.42-1.683 3.5 1.5l-1 1a14.5 14.5 0 0 1 4.5 4.5q.747-4.975.5-10 .994 2.959 1 6.5-.05 3.915-2 6.5a401 401 0 0 0-40-1q-.626-1.083-2-1.5 1.926-1.946-.5-3.5-1.077 1.426-2.5.5 4.5-3.5-1-5 6.697-1.31 13-2.5" style="opacity:1"/><path fill="#122c41" d="M299.5 233.5h14a50.5 50.5 0 0 1-.5 10 14.5 14.5 0 0 0-4.5-4.5l1-1q-1.08-3.183-3.5-1.5-3.1-3.772-4.5.5a6.98 6.98 0 0 1 3.5 2.5l1-1a10.3 10.3 0 0 0 1.5 4q2.571-1.663 2 2-7.725-.236-11.5-5-1.077 1.426-2.5.5.531-2.439 0-5.5 2.398.401 4-1" style="opacity:1"/><path fill="#0a0a1c" d="M471.5 195.5q-.474 4.134-3 7.5a88 88 0 0 0 0 7.5 65 65 0 0 1-7 6.5l1 1a32.6 32.6 0 0 0-3 10 255.6 255.6 0 0 0-22.5 33.5 117.4 117.4 0 0 0-15.5 20.5 6.98 6.98 0 0 0-3.5 2.5l-3-1q-.926 1.423.5 2.5-2.701.476-1 2-3.91 3.157-9 2.5-10.281.486-20-1h25q.148-4.629 4-7 5.394-4.286 7-11 5.657-3.43 7-10 7.604-2.733 7-11h3q-.297-4.905 4.5-6 4.481-11.249 14.5-20a58.5 58.5 0 0 1 7.5-16 8.4 8.4 0 0 0 .5-4q1.904-5.331 6-9" style="opacity:1"/><path fill="#80aee4" d="M261.5 232.5q10.22-1.487 21-1h34v17h-56v-1h55v-15z" style="opacity:1"/><path fill="#9bcff2" d="M341.5 206.5h1v57h-68a374 374 0 0 0-15.5-2q-.513-3.477 1.5-6.5l-3-2.5 2-2-2-1q1.237-1.329 3-1h18q-2.688 1.214-6 1.5a11.3 11.3 0 0 1 1.5 3.5l1-3a71 71 0 0 0 2 9l1-3q2.445 1.83 3 6l1-2q5.863 1.944 12.5 2a900 900 0 0 1 47 0z" style="opacity:1"/><path fill="#94dff3" d="M316.5 238.5a81 81 0 0 1 2.5 3 3.65 3.65 0 0 1 1.5-1q2.397 3.71 4.5 0 2.288.582 5 0l1 2q1-4 2 0 .939-3.737 2.5 0 2-2 4 0 1.794-.519 0-1.5a2.43 2.43 0 0 1 2-.5v22a900 900 0 0 0-47 0q-6.637-.056-12.5-2l-1 2q-.555-4.17-3-6l-1 3a71 71 0 0 1-2-9l-1 3a11.3 11.3 0 0 0-1.5-3.5q3.312-.286 6-1.5h38z" style="opacity:1"/><path fill="#6282bf" d="M370.5 232.5h1a580 580 0 0 1 5 6l12 19q2.701 4.696 8 6-.663 1.858-2 3 .322-2.518-2-3-6.43-4.892-10-12a273 273 0 0 1-12-19" style="opacity:1"/><path fill="#a7c3f7" d="M188.5 219.5q1.479 6.705 1 14 3.535-.245 7 .5-1.794.981 0 1.5 2.667-.104 5.5-1l1 2q3.233-1.775 6 1 1-2 2 0l1-3q.417 1.374 1.5 2v27h-25z" style="opacity:1"/><path fill="#040411" d="M474.5 191.5a38 38 0 0 0 3 7.5q-2.62 3.561-1 7.5-4.297 11.13-12.5 22-3.15 8.177-10 14a28.3 28.3 0 0 1-5 10q-3.081 3.07-3 0 3.721-.974 1-3a385 385 0 0 0-18 27 46.6 46.6 0 0 1-13.5 12 3.65 3.65 0 0 0 1 1.5q-5.9 5.14-13 2 1.374-.417 2-1.5 5.09.657 9-2.5-1.701-1.524 1-2-1.426-1.077-.5-2.5l3 1a6.98 6.98 0 0 1 3.5-2.5 117.4 117.4 0 0 1 15.5-20.5 255.6 255.6 0 0 1 22.5-33.5 32.6 32.6 0 0 1 3-10l-1-1a65 65 0 0 0 7-6.5 88 88 0 0 1 0-7.5q2.526-3.366 3-7.5.789-2.595 3-4" style="opacity:1"/><path fill="#0c1537" d="M382.5 251.5q3.57 7.108 10 12 1.205 1.385.5 3a101 101 0 0 0-7.5 10v-3q1.15-1.008 2-2.5-.291-2.145 0-4.5-4.651-6.798-5-15" style="opacity:1"/><path fill="#12153b" d="M435.5 250.5q.604 8.267-7 11 2.381-6.275 7-11" style="opacity:1"/><path fill="#676cb6" d="M228.5 231.5q-5.518 30.94 26 32v1q-6.535-.13-13-1-6.925-2.473-12-8-5.586-9.721-3.5-21 .565-2.163 2.5-3" style="opacity:1"/><path fill="#646eb6" d="M451.5 222.5v2a29272 29272 0 0 1-16 26q-4.619 4.725-7 11a41.2 41.2 0 0 0-7 10 60 60 0 0 0-7 11q-3.852 2.371-4 7h-31a44 44 0 0 0-1-2 349 349 0 0 0 4-7q2.211-1.404 3-4a101 101 0 0 1 7.5-10q.705-1.615-.5-3 2.322.482 2 3a6242 6242 0 0 0-12 19q-.814.09-1 1a113.2 113.2 0 0 0 26 .5 9.5 9.5 0 0 0 2.5-1.5q3.284-5.583 6.5-11a266 266 0 0 0 15-23 117.3 117.3 0 0 0 14-21q3.018-4.058 6-8" style="opacity:1"/><path fill="#8bccf2" d="M431.5 251.5a266 266 0 0 1-15 23q-5.028 4.793-8.5 11-12.865 1.731-25.5 0a6242 6242 0 0 1 12-19q1.337-1.142 2-3-5.299-1.304-8-6 3.061-.531 5.5 0l1-2q2.696 3.894 4-1 1.461 3.567 2-1a7.3 7.3 0 0 0 2 3q1-4 2 0 1-2 2 0l1.5-3q-2.038-2.709 1-4.5-.582-2.402-2-5.5a5.73 5.73 0 0 0 3-1 5.6 5.6 0 0 0 3-1q1.561 3.737 2.5 0l4 10 1-3a6.55 6.55 0 0 0 3 3q1-2 2 0 3.768-4.971 5.5 0" style="opacity:1"/><path fill="#9162ca" d="M43.5 232.5h1v31h27v-25h39v1h-38v25h-29z" style="opacity:1"/><path fill="#6e79c4" d="m186.5 205.5 2 5v53h25v-34h1v35h-27q-1.356-1.063-1-3z" style="opacity:1"/><path fill="#6589c5" d="M342.5 206.5q1.258.513 1 2v56h-89v-1h88z" style="opacity:1"/><path fill="#050a18" d="M229.5 255.5q5.075 5.527 12 8 4.51 2.512 10 2 16.807 1.03 34 2 13.604-1.293 29-1-3.55 4.07-4 8.5-19.44 2.688-41-.5-4.782.235-8.5 1-2.827-2.28-6.5-3-4.477.683-8.5 0-5.356-4.179-12-6-2.442.895-5-1-2.742 3.46-5-1-3.474 1.301-6-2-.575.834-1.5 1a41.7 41.7 0 0 1 1-9q3.261-.63 6 0a7.25 7.25 0 0 0 2.5-2q1.139 2.344 3.5 3" style="opacity:1"/><path fill="#121644" d="M428.5 261.5q-1.343 6.57-7 10a41.2 41.2 0 0 1 7-10" style="opacity:1"/><path fill="#000910" d="M366.5 231.5q5.344 6.924 10 15h-3q3.35 2.822 4 7 4.827.226 1 2.5 1.649 5.125 5 10.5-.892 3.849 2 7v3q-.789 2.596-3 4-2.312-9.704-6.5-20l-9-13a25.8 25.8 0 0 0-7-5 3742 3742 0 0 1-8 7q-3.914 7.441-6.5 17.5l-5.5-.5a11.3 11.3 0 0 1-1.5 3.5 118 118 0 0 1-20 6 1731 1731 0 0 1-44.5 2.5 622 622 0 0 0-25.5-3.5q-8.25-2.924-16.5-6.5-1.951.69-4 1-6.408-1.135-11.5-4v-2q.925-.166 1.5-1 2.526 3.301 6 2 2.258 4.46 5 1 2.558 1.895 5 1 6.644 1.821 12 6 4.023.683 8.5 0 3.673.72 6.5 3 3.718-.765 8.5-1 21.56 3.188 41 .5.45-4.43 4-8.5 3.228 3.467 6-1 11.778.488 23-1a789 789 0 0 0 2-20q1.032-3.78 3-7.5l-1-1q3.198-1.377 2-4a20.2 20.2 0 0 0 6-1.5q-2.09-1.78.5-2 5.34 2.718 10.5 3" style="opacity:1"/><path fill="#070d2d" d="M251.5 265.5h69q-2.772 4.467-6 1-15.396-.293-29 1a7027 7027 0 0 1-34-2" style="opacity:1"/><path fill="#41508f" d="M241.5 263.5q6.465.87 13 1h89q-11.223 1.488-23 1h-69q-5.49.512-10-2" style="opacity:1"/><path fill="#101542" d="M421.5 271.5q-1.606 6.714-7 11a60 60 0 0 1 7-11" style="opacity:1"/><path fill="#81b4eb" d="M416.5 274.5q-3.216 5.417-6.5 11a9.5 9.5 0 0 1-2.5 1.5 113.2 113.2 0 0 1-26-.5q.186-.91 1-1 12.635 1.731 25.5 0 3.472-6.207 8.5-11" style="opacity:1"/><path fill="#dcdfe1" d="M256.5 302.5q4.206-1.707 9-.5a126 126 0 0 1 12.5 13.5 70.7 70.7 0 0 0 11.5-13q4.5-2 9 0l-15.5 17q-2.069 6.804-1.5 14h-7a72.4 72.4 0 0 0-.5-12 480 480 0 0 0-17.5-19m-32 23q.09.814 1 1a157 157 0 0 0 1-25h7v32a61 61 0 0 1-11-.5 736 736 0 0 0-22-23.5q-.09-.814-1-1a157 157 0 0 0-1 25h-6v-32q5.025-.247 10 .5a736 736 0 0 0 22 23.5" style="opacity:1"/><path fill="#333939" d="M226.5 301.5q.497 12.54-1 25-.91-.186-1-1z" style="opacity:1"/><path fill="#dcdee1" d="M319.5 301.5a41 41 0 0 1 9 .5l11.5 11.5a163 163 0 0 0 10.5-11q4.926-1.736 10-.5a328 328 0 0 0-15 15.5 159 159 0 0 0 15 15q-4.419 1.732-9 .5a194 194 0 0 0-12-11.5 177 177 0 0 1-11 11.5q-4.581 1.232-9-.5a159 159 0 0 0 15-15q-7.607-8.1-15-16" style="opacity:1"/><path fill="#d9dbde" d="M129.5 301.5a173 173 0 0 1 31 1.5 17.8 17.8 0 0 1 4.5 5.5q1.326 10.623-1 21-1.978 2.98-5.5 3.5a240 240 0 0 1-31 0 11.5 11.5 0 0 1-3.5-4.5 121 121 0 0 1 0-22q2.109-3.365 5.5-5" style="opacity:1"/><path fill="#060707" d="M132.5 307.5q11.511-.25 23 .5l2.5 2.5q1 7.5 0 15l-1.5 1.5q-12.5 1-25 0-1.711-8.625-.5-17.5 1.076-.816 1.5-2" style="opacity:1"/><path fill="#8d8f8f" d="m200.5 309.5-2 24q-.497-12.54 1-25 .91.186 1 1" style="opacity:1"/></svg>