<svg xmlns="http://www.w3.org/2000/svg" id="svg" width="300" height="300" viewBox="0 0 300 300"><svg xmlns="http://www.w3.org/2000/svg"><defs><clipPath id="clip-1"><path fill="none" d="M0 0h299.991v299.991H0z"/></clipPath></defs><g fill="none" stroke-miterlimit="10" clip-path="url(#clip-1)" font-family="none" font-size="none" font-weight="none" style="mix-blend-mode:normal" text-anchor="none"><path fill="#000" d="M0 62.274c.8-1.458.85-4.889 1.28-6.618.617-2.476 1.069-5.084 1.893-7.507A75.5 75.5 0 0 1 8.261 36.25C19.015 16.421 39.107 3.14 61.513.987c4.896-.47 10.098-.34 15.021-.34l18.02.002 59.132.003 54.824.001 16.746-.009c4.272 0 9.022-.098 13.209.322 17.035 1.71 32.4 9.723 44.098 22.12 1.048 1.11 1.983 2.546 2.951 3.741A66.6 66.6 0 0 1 295.677 44.9c1.34 3.582 2.199 6.51 2.97 10.3.372 1.828.736 5.901 1.353 7.53v174.673c-.804 2.439-.803 4.998-1.321 7.444-1.91 9.03-5.52 17.562-10.746 25.172-1.437 2.09-3.31 3.998-4.594 6.186-.445.775-.43 2.263-.444 3.192-.962.053-2.429.016-3.163.574-2.386 1.812-4.271 3.731-6.716 5.578-8.115 6.135-17.379 10.433-27.36 12.454-7.207 1.46-14.385 1.377-21.699 1.377l-16.235-.001-55.169-.003-58.122-.001-17.247.004c-8.054.006-15.05.17-23.01-1.477-12.038-2.49-22.64-7.99-31.751-16.151a68.45 68.45 0 0 1-20.751-35.376c-.398-1.673-1.14-7.82-1.672-8.637z"/><path fill="#c430dc" d="M174.119 81.615c3.237-.13 7.006.007 10.287-.035 2.174-.028 6.167-.103 8.155.127a1985 1985 0 0 1 8.28 21.909l13.083 34.807 5.362 14.265c.902 2.404 3.058 7.523 3.315 9.892-.661.598-3.88.49-4.894.47-4.39-.092-8.914.147-13.29-.07-2.31-6.003-4.476-12.747-6.581-18.875-1.838-.043-3.835-.002-5.685 0l-14.993.005c-2.245 0-6.324.107-8.452-.107-1.755 5.484-3.762 10.913-5.599 16.371-.33.98-.653 1.76-1.148 2.663-2.33.006-16.936.258-17.85-.363-.22-.91.155-1.925.487-2.816 2.082-5.59 4.196-11.187 6.293-16.77l12.473-33.2 7.007-18.648c.97-2.583 2.606-7.38 3.75-9.625"/><path fill="#000" d="M183.284 102.2c.163.197 1.63 5.34 1.881 6.105 2.184 6.682 4.698 13.257 6.983 19.904-2.827-.09-6.11-.022-8.97-.026l-8.878-.015c2.313-5.752 4.325-12.193 6.476-18.044.94-2.551 1.505-5.304 2.508-7.924"/><path fill="#c430dc" d="M26.226 81.65c5.205-.28 10.936-.057 16.18-.068 11.525-.025 23.253-1.282 32.344 7.442 5.304 5.09 7.732 10.794 7.934 18.126a25 25 0 0 1-7.068 18.368c-6.357 6.596-13.893 8.197-22.6 8.36l-10.254-.005c-.122 7.65.08 15.345-.002 22.999-.021 1.974.098 4.144-.17 6.092-3.88.265-8.019-.03-11.925.078-1.536.042-3.331.029-4.842-.106-.272-2.162-.154-5.906-.15-8.238l.006-13.921.001-43.677c0-2.26-.263-14.001.156-15.27z"/><path fill="#000" d="M42.756 97.846c2.69.066 5.477-.005 8.18-.006 3.945-.036 8.73-.281 11.809 2.744 4.14 4.067 3.595 10.219-.092 14.266-3.416 3.144-7.948 2.72-12.288 2.706q-3.81-.03-7.619-.003z"/><path fill="#c430dc" d="M216.278 81.625c5.762-.15 12.509-.114 18.283-.009 4.66 7.32 8.92 15.001 13.494 22.38.736 1.186 1.402 2.406 2.21 3.544 1.164-2.366 3.68-6.416 5.095-8.848l9.94-17.1 12.04-.01c1.228 0 7.216-.28 7.69.558.037.652-.128 1.016-.47 1.595-2.192 3.703-4.554 7.411-6.82 11.068l-13.907 22.464c-1.658 2.504-3.419 5.492-5.023 8.071-.11 3.078-.032 6.547-.03 9.66l.01 17.18c.001 3.31.126 7.524-.12 10.732-1.47.216-5.72.164-7.38.136-2.705-.047-6.827.139-9.425-.132-.293-1.5-.154-7.818-.156-9.688l-.011-20.466c.004-1.125.154-6.939-.145-7.516-1.102-2.122-3.384-5.578-4.719-7.696l-15.218-24.174a630 630 0 0 0-3.734-5.956c-.74-1.142-3.102-4.092-2.723-5.345.478-.415.412-.294 1.12-.448m-124.519.01q4.883-.075 9.765-.06c1.788-.004 5.134-.102 6.758.208.21 1.566.117 5.424.116 7.16l-.008 13.035.005 44.663c7.428.192 15.094-.079 22.538.03 3.426.05 7.427-.162 10.78.153q.073.52.108 1.046c.194 2.906.157 11.565-.114 14.833l-.264.299c-10.88.236-22.421.023-33.354.032l-10.32.013c-1.64.003-4.817.09-6.339-.181-.227-1.735-.146-4.647-.147-6.503l.004-10.951v-37.675l.003-18.686c.002-2.108-.041-4.68.053-6.806.017-.39.188-.449.416-.61"/><path fill="#fefefe" d="M95.241 170.905c11.403-1.28 21.684 6.93 22.957 18.335 1.273 11.404-6.944 21.678-18.349 22.946-11.394 1.264-21.659-6.944-22.93-18.337-1.273-11.395 6.929-21.664 18.322-22.944"/><path fill="#000" d="M97.136 178.135c7.393-.231 13.581 5.562 13.838 12.955s-5.515 13.601-12.907 13.883c-7.428.284-13.673-5.523-13.93-12.951-.258-7.43 5.569-13.654 12.999-13.887"/><path fill="#fefefe" d="m124.366 171.686 8.741.005c2.693 4.95 6.424 10.512 9.279 15.503 1.323 2.314 5.736 9.823 7.101 11.392-.496-4.491-.463-9.649-.458-14.18.004-4.179-.072-8.556.051-12.722q3.731-.018 7.465.026c-.167 9.062-.038 18.457-.032 27.547l.003 7.548c0 1.297.061 3.13-.055 4.357-.347.33-.37.21-1.026.22l-6.979-.008c-1.83-3.608-5.445-9.286-7.624-12.874-2.977-4.903-6.342-10.974-9.479-15.638.146 2.75.42 6.01.443 8.712.056 6.583.025 13.213.02 19.797q-3.731.023-7.462.007zm98.385.002c2.955-.021 6.53-.102 9.438.103-.871.977-2.352 3.454-3.11 4.652l-5.661 8.946c-.954 1.507-2.402 3.945-3.456 5.263.898 1.139 2.33 3.557 3.159 4.874l6.416 10.224c.997 1.59 2.518 4.175 3.615 5.614l-1.963.019-7.515-.009a1087 1087 0 0 0-8.748-14.439c-1.057 1.313-2.656 4.102-3.584 5.648-1.727 2.877-3.61 5.867-5.24 8.787-3.11.064-6.36.013-9.482.01 1.326-1.76 4.12-6.466 5.398-8.539 2.293-3.722 5.521-8.404 7.572-12.143-.207-.573-3.363-5.537-3.91-6.346-2.672-3.943-5.38-8.884-8.127-12.649a455 455 0 0 1 9.383.002c2.496 3.96 5.364 9.5 7.973 13.186 2.572-4.24 5.418-8.902 7.842-13.203m-36.808.005a395 395 0 0 1 9.218.028c-3.332 4.936-7.053 11.275-10.211 16.43-.913 1.436-2.22 3.04-2.754 4.643-.526 1.578-.223 15.857-.23 18.584l-7.541-.001c-.128-4.102-.02-8.227-.009-12.331.004-1.903.214-4.09-.161-5.955-.416-2.074-11.136-17.556-13.06-21.154l-.112-.212q4.458-.086 8.917-.016c.782 1.034 2.465 3.97 3.184 5.18 1.594 2.682 3.463 5.578 4.95 8.292 2.332-3.912 5.831-9.558 7.809-13.488"/></g></svg></svg>