<?xml version="1.0" encoding="UTF-8"?>
<!DOCTYPE svg PUBLIC "-//W3C//DTD SVG 1.1//EN" "http://www.w3.org/Graphics/SVG/1.1/DTD/svg11.dtd">
<svg xmlns="http://www.w3.org/2000/svg" version="1.1" width="512px" height="512px" style="shape-rendering:geometricPrecision; text-rendering:geometricPrecision; image-rendering:optimizeQuality; fill-rule:evenodd; clip-rule:evenodd" xmlns:xlink="http://www.w3.org/1999/xlink">
<g><path style="opacity:1" fill="#4b43e1" d="M 30.5,30.5 C 90.5,30.5 150.5,30.5 210.5,30.5C 210.5,43.8333 210.5,57.1667 210.5,70.5C 163.833,70.5 117.167,70.5 70.5,70.5C 70.5,103.833 70.5,137.167 70.5,170.5C 117.167,170.5 163.833,170.5 210.5,170.5C 210.5,183.833 210.5,197.167 210.5,210.5C 150.5,210.5 90.5,210.5 30.5,210.5C 30.5,150.5 30.5,90.5 30.5,30.5 Z"/></g>
<g><path style="opacity:1" fill="#4b43e1" d="M 235.5,30.5 C 248.833,30.5 262.167,30.5 275.5,30.5C 275.5,57.1667 275.5,83.8333 275.5,110.5C 262.167,110.5 248.833,110.5 235.5,110.5C 235.5,83.8333 235.5,57.1667 235.5,30.5 Z"/></g>
<g><path style="opacity:1" fill="#4b43e1" d="M 301.5,30.5 C 361.5,30.5 421.5,30.5 481.5,30.5C 481.5,90.5 481.5,150.5 481.5,210.5C 448.167,210.5 414.833,210.5 381.5,210.5C 381.5,197.167 381.5,183.833 381.5,170.5C 401.5,170.5 421.5,170.5 441.5,170.5C 441.5,137.167 441.5,103.833 441.5,70.5C 408.167,70.5 374.833,70.5 341.5,70.5C 341.5,77.1667 341.5,83.8333 341.5,90.5C 328.167,90.5 314.833,90.5 301.5,90.5C 301.5,70.5 301.5,50.5 301.5,30.5 Z"/></g>
<g><path style="opacity:1" fill="#4b43e1" d="M 90.5,90.5 C 110.5,90.5 130.5,90.5 150.5,90.5C 150.5,110.5 150.5,130.5 150.5,150.5C 130.5,150.5 110.5,150.5 90.5,150.5C 90.5,130.5 90.5,110.5 90.5,90.5 Z"/></g>
<g><path style="opacity:1" fill="#4b43e1" d="M 361.5,90.5 C 381.5,90.5 401.5,90.5 421.5,90.5C 421.5,110.5 421.5,130.5 421.5,150.5C 401.5,150.5 381.5,150.5 361.5,150.5C 361.5,130.5 361.5,110.5 361.5,90.5 Z"/></g>
<g><path style="opacity:1" fill="#4b43e1" d="M 170.5,100.5 C 183.833,100.5 197.167,100.5 210.5,100.5C 210.5,113.833 210.5,127.167 210.5,140.5C 197.167,140.5 183.833,140.5 170.5,140.5C 170.5,127.167 170.5,113.833 170.5,100.5 Z"/></g>
<g><path style="opacity:1" fill="#4b44e0" d="M 235.5,151.5 C 248.833,151.5 262.167,151.5 275.5,151.5C 275.5,192.167 275.5,232.833 275.5,273.5C 247.5,273.5 219.5,273.5 191.5,273.5C 191.823,260.254 191.489,247.087 190.5,234C 205.496,233.5 220.496,233.333 235.5,233.5C 235.5,206.167 235.5,178.833 235.5,151.5 Z"/></g>
<g><path style="opacity:1" fill="#4b43e1" d="M 301.5,170.5 C 314.833,170.5 328.167,170.5 341.5,170.5C 341.5,183.833 341.5,197.167 341.5,210.5C 328.167,210.5 314.833,210.5 301.5,210.5C 301.5,197.167 301.5,183.833 301.5,170.5 Z"/></g>
<g><path style="opacity:1" fill="#4b43e1" d="M 30.5,233.5 C 43.8333,233.5 57.1667,233.5 70.5,233.5C 70.5,246.833 70.5,260.167 70.5,273.5C 57.1667,273.5 43.8333,273.5 30.5,273.5C 30.5,260.167 30.5,246.833 30.5,233.5 Z"/></g>
<g><path style="opacity:1" fill="#4b44e0" d="M 111.5,233.5 C 124.837,233.333 138.171,233.5 151.5,234C 150.511,247.087 150.177,260.254 150.5,273.5C 137.5,273.5 124.5,273.5 111.5,273.5C 111.5,260.167 111.5,246.833 111.5,233.5 Z"/></g>
<g><path style="opacity:1" fill="#4b43e1" d="M 315.5,233.5 C 343.833,233.5 372.167,233.5 400.5,233.5C 400.5,246.833 400.5,260.167 400.5,273.5C 372.167,273.5 343.833,273.5 315.5,273.5C 315.5,260.167 315.5,246.833 315.5,233.5 Z"/></g>
<g><path style="opacity:1" fill="#4b43e1" d="M 441.5,233.5 C 454.833,233.5 468.167,233.5 481.5,233.5C 481.5,246.833 481.5,260.167 481.5,273.5C 468.167,273.5 454.833,273.5 441.5,273.5C 441.5,260.167 441.5,246.833 441.5,233.5 Z"/></g>
<g><path style="opacity:1" fill="#4b43e1" d="M 381.5,301.5 C 414.833,301.5 448.167,301.5 481.5,301.5C 481.5,361.5 481.5,421.5 481.5,481.5C 421.5,481.5 361.5,481.5 301.5,481.5C 301.5,468.167 301.5,454.833 301.5,441.5C 348.167,441.5 394.833,441.5 441.5,441.5C 441.5,408.167 441.5,374.833 441.5,341.5C 421.5,341.5 401.5,341.5 381.5,341.5C 381.5,328.167 381.5,314.833 381.5,301.5 Z"/></g>
<g><path style="opacity:1" fill="#4b43e1" d="M 30.5,315.5 C 90.5,315.5 150.5,315.5 210.5,315.5C 210.5,370.833 210.5,426.167 210.5,481.5C 190.5,481.5 170.5,481.5 150.5,481.5C 150.5,468.167 150.5,454.833 150.5,441.5C 157.167,441.5 163.833,441.5 170.5,441.5C 170.5,412.833 170.5,384.167 170.5,355.5C 137.167,355.5 103.833,355.5 70.5,355.5C 70.5,397.5 70.5,439.5 70.5,481.5C 57.1667,481.5 43.8333,481.5 30.5,481.5C 30.5,426.167 30.5,370.833 30.5,315.5 Z"/></g>
<g><path style="opacity:1" fill="#4b43e1" d="M 235.5,315.5 C 270.833,315.5 306.167,315.5 341.5,315.5C 341.5,328.833 341.5,342.167 341.5,355.5C 319.5,355.5 297.5,355.5 275.5,355.5C 275.5,370.833 275.5,386.167 275.5,401.5C 262.167,401.5 248.833,401.5 235.5,401.5C 235.5,372.833 235.5,344.167 235.5,315.5 Z"/></g>
<g><path style="opacity:1" fill="#4b43e1" d="M 361.5,361.5 C 381.5,361.5 401.5,361.5 421.5,361.5C 421.5,381.5 421.5,401.5 421.5,421.5C 401.5,421.5 381.5,421.5 361.5,421.5C 361.5,401.5 361.5,381.5 361.5,361.5 Z"/></g>
<g><path style="opacity:1" fill="#4b43e1" d="M 90.5,381.5 C 110.5,381.5 130.5,381.5 150.5,381.5C 150.5,394.833 150.5,408.167 150.5,421.5C 143.833,421.5 137.167,421.5 130.5,421.5C 130.5,441.5 130.5,461.5 130.5,481.5C 117.167,481.5 103.833,481.5 90.5,481.5C 90.5,448.167 90.5,414.833 90.5,381.5 Z"/></g>
<g><path style="opacity:1" fill="#4b43e1" d="M 235.5,441.5 C 248.833,441.5 262.167,441.5 275.5,441.5C 275.5,454.833 275.5,468.167 275.5,481.5C 262.167,481.5 248.833,481.5 235.5,481.5C 235.5,468.167 235.5,454.833 235.5,441.5 Z"/></g>
</svg>
