<svg xmlns="http://www.w3.org/2000/svg" id="svg" width="300" height="300" viewBox="0 0 300 300"><svg xmlns="http://www.w3.org/2000/svg"><defs><clipPath id="clip-1"><path fill="none" d="M0 0h299.991v299.991H0z"/></clipPath></defs><g fill="none" stroke-miterlimit="10" clip-path="url(#clip-1)" font-family="none" font-size="none" font-weight="none" style="mix-blend-mode:normal" text-anchor="none"><path fill="#fefefe" d="M0 63.31c.559-1.122.942-6.616 1.306-8.303C3.46 45.023 7.411 36.014 13.57 27.832A67.9 67.9 0 0 1 46.556 4.034C56.975.49 66.542.687 77.35.69l19.4.006 61.938-.001L210.089.69h15.64c4.306-.001 9.516-.027 13.798.373a63.7 63.7 0 0 1 22.182 6.387 68.3 68.3 0 0 1 35.385 41.376c.344 1.098.596 2.594.967 3.586 1.108 2.974.864 7.542 1.939 10.328v174.64c-.524 1.222-1.078 6.9-1.506 8.761-1.809 7.875-4.868 15.145-9.218 21.948-1.184 1.85-2.272 3.341-3.617 5.073-.578.744-2.043 2.516-2.4 3.231a3.66 3.66 0 0 0-.379 1.896c.025.398.05.379-.052.798-.736.428-2.51.32-2.912.7-11.416 10.789-25.634 17.927-41.43 19.232-4.956.41-10.647.385-15.998.382l-17.74-.003h-58.32l-53.92.005-16.42-.002c-13.18-.003-22.897-.297-35.28-5.729a68.4 68.4 0 0 1-37.99-42.58c-.773-2.436-1.174-4.725-1.674-7.2-.332-1.647-.516-5.545-1.144-6.931z"/><path fill="#4d3268" d="m176.817 150.658 49.619-.005 14.106-.011c2.839 0 7.35-.112 10.037.364a17.27 17.27 0 0 1 9.002 4.628c3.855 3.701 5.507 8.097 5.5 13.352-.007 5.934.009 11.881.007 17.815l.003 32.606.002 15.384c0 7.13.43 12.826-5.083 18.352-4.26 4.267-8.382 5.283-14.181 5.374l-50.813.003-13.917.006c-2.808 0-6.576.168-9.3-.322-8.24-1.486-14.459-8.986-14.46-17.318-.003-5.714-.02-11.163-.018-16.741l.005-32.675-.008-16.232c-.001-2.633-.14-7.513.286-9.898a18 18 0 0 1 4.645-9.16c4.247-4.447 8.729-5.412 14.568-5.522"/><path fill="#fefefe" d="M198.91 206.936c9.68.002 19.563-.124 29.223.017q.046 7.451-.026 14.905c-9.5.015-19.753.2-29.193-.038z"/><path fill="#4d3268" d="m55.065 150.658 49.977-.005 13.904-.006c2.832-.001 7.217-.121 9.912.371a17.7 17.7 0 0 1 8.915 4.576c3.578 3.437 5.476 7.956 5.482 12.91.024 17.351.018 34.702.016 52.053l-.001 14.73c0 2.505.185 6.005-.223 8.375-1.157 6.72-6.135 12.331-12.722 14.164-2.245.625-4.095.66-6.386.693H73.147l-13.721.007c-7.016 0-12.937.414-18.41-4.967-3.55-3.49-5.426-7.623-5.462-12.648-.042-5.966-.02-11.949-.018-17.922v-33.134l-.002-15.63c0-6.931-.47-12.578 4.926-18.052 4.394-4.46 8.521-5.404 14.605-5.515"/><path fill="#fefefe" d="M82.228 177.155c4.467-.093 9.172-.02 13.649 0-.235 6.384.057 13.619-.046 20.152 6.545-.154 13.777-.076 20.346-.007q.034 7.013-.008 14.027l-12.835.012c-2.092 0-5.483.085-7.454-.1-.123 6.654.029 13.453-.042 20.14-3.682-.215-9.73.002-13.596.01-.097-6.21-.15-13.91.03-20.118-1.998.163-5.255.066-7.321.066q-6.465.024-12.929-.036c-.105-4.57-.028-9.413-.03-14.004 6.543-.163 13.675-.025 20.264-.025-.139-6.568-.046-13.523-.028-20.117"/><path fill="#4d3268" d="M173.975 33.168c5.237-.206 11.534-.04 16.838-.04l32.044-.002 17.257-.008c7.122-.013 12.933-.774 18.76 4.253a17.6 17.6 0 0 1 6.148 12.209c.289 4.207.07 11.113.07 15.463l-.005 30.292.007 19.864c0 2.436.136 8.353-.196 10.523a17.95 17.95 0 0 1-4.308 9.194 17.62 17.62 0 0 1-12.116 5.93c-5.05.2-11.398.024-16.561.024l-32.09-.001-17.595.002c-7.13.012-12.683.834-18.565-4.13a17.84 17.84 0 0 1-6.263-12.152c-.14-1.776-.08-4.003-.08-5.824l.001-9.343.003-29.177-.004-21.128c0-2.264-.14-8.486.148-10.544a18.03 18.03 0 0 1 4.14-9.282c3.241-3.748 7.458-5.754 12.367-6.123"/><path fill="#fefefe" d="M194.918 60.888c1.846 1.632 4.786 4.729 6.656 6.609 3.002 3.018 6.49 6.313 9.36 9.399l15.944-16.024c2.887 3.038 6.639 6.825 9.668 9.696L226.27 80.855c-1.737 1.74-3.938 4.069-5.756 5.666 1.454 1.24 4.072 4.002 5.502 5.429l10.677 10.66-9.95 9.952c-1.595-1.82-3.899-3.996-5.66-5.76l-10.41-10.468c-1.478 1.715-4.026 4.122-5.704 5.803l-10.207 10.24c-3.065-3.116-6.488-6.732-9.665-9.697l15.983-15.966c-5.327-5.059-10.852-10.805-16.068-16.025q4.983-4.87 9.905-9.801"/><path fill="#4d3268" d="M52.156 33.168c5.234-.215 11.633-.044 16.968-.044h49.447c2.626.001 7.367-.16 9.74.216a17.74 17.74 0 0 1 8.737 4 17.8 17.8 0 0 1 6.17 12.176c.117 1.702.055 4.021.055 5.759l-.005 10.044-.004 30.39.007 19.968c.002 2.268.135 8.191-.183 10.142a18.4 18.4 0 0 1-4.275 9.067 17.56 17.56 0 0 1-12.214 5.965c-5.124.189-11.468.023-16.707.022l-32.415-.003-17.485.007c-2.875.002-7.072.217-9.816-.228-7.571-1.228-13.934-8.05-14.557-15.708-.149-1.83-.093-3.819-.09-5.683l.015-9.139-.001-29.223-.007-21.657c-.009-6.91-.93-13.572 3.738-19.312 3.37-4.142 7.582-6.34 12.882-6.76"/><path fill="#fefefe" d="M61.988 79.69c17.867-.22 36.286-.04 54.187-.002.004 1.595.155 13.45-.168 13.968l-53.99.023c-.101-4.584-.03-9.388-.029-13.99M81.6 100.192l14.927-.002.002 14.923-14.937-.003zm.005-41.972c4.557-.164 10.347-.058 14.924 0l-.001 14.872-14.927-.007z"/></g></svg></svg>