<svg xmlns="http://www.w3.org/2000/svg" id="svg" width="300" height="300" viewBox="0 0 300 300"><svg xmlns="http://www.w3.org/2000/svg"><defs><clipPath id="clip-1"><path fill="none" d="M0 0h299.991v299.991H0z"/></clipPath></defs><g fill="none" stroke-miterlimit="10" clip-path="url(#clip-1)" font-family="none" font-size="none" font-weight="none" style="mix-blend-mode:normal" text-anchor="none"><path fill="#fefefe" d="M0 0h300v300H0z"/><path fill="#2f5f9d" d="m11.726 11.152 217.954-.004-.004 278.283-217.935.013z"/><path fill="#fefefe" d="m143.723 111.038 1.003-.007 27.143-.007c20.056 0 48.24-1.814 48.197 26.395-.033 21.253-16.674 30.152-35.922 29.866-3.624-.053-7.355-.246-10.97-.306.066 2.852.012 6.003.016 8.875l-.004 11.372c.002 2.649-.049 5.231.254 7.868.611 5.316 3.742 6.083 8.187 7.024l-.005 4.73-37.904-.003c.039-1.494-.005-3.221-.012-4.729 2.865-.763 6.19-1.79 6.855-5.102 1.052-5.237.713-11.045.715-16.399l.003-19.54v-22.247c.001-4.742.04-9.423-.148-14.164-.23-5.793-1.997-7.408-7.428-8.78.034-1.586.015-3.253.02-4.846"/><path fill="#2f5f9d" d="M179.43 119.454c14.386-.25 19.034 6.314 18.803 20.318-.116 6.985-1.453 13.934-8.353 17.2-4.511 2.174-11.676 1.915-16.7 1.942l-.008-39.383c2.061.01 4.193-.048 6.258-.077"/><path fill="#fefefe" d="M54.118 110.095c6.168-.5 14.508.306 20.66 1.348 2.542.43 5.085 1.059 7.66 1.483-.092 6.776-.018 13.743-.025 20.532l-9.798.012c-2.303-8.98-5.685-14.96-15.78-15.133-7.794-.133-14.428 3.849-14.28 12.324.044 2.567.39 4.837 1.706 7.114 4.256 6.886 12.916 9.991 19.567 14.034 4.483 2.682 7.881 4.737 11.625 8.448 5.738 5.688 7.883 11.966 7.883 19.885-.013 7.149-2.3 13.976-7.525 19.006-7.798 7.506-17.956 8.926-28.25 8.825-10.017-.25-17.262-1.131-27.052-3.107l-.01-21.76 9.687-.025c1.252 4.75 2.651 9.57 6.45 13.015 3.407 2.997 8.143 3.69 12.467 3.496 9.102-.407 13.961-5.863 13.45-14.948-.651-11.587-12.067-15.441-20.669-20.42-3.863-2.038-6.98-4.248-10.375-7.004-10.872-8.827-13.13-26.031-3.777-36.812 6.415-7.394 16.73-9.737 26.386-10.313m75.959-76.246c1.261.405 6.258 3.745 7.668 4.65l13.46 8.626 20.546 13.15c3.459 2.211 8.14 5.02 11.357 7.375-1.66 1.369-5.216 3.497-7.16 4.74l-13.208 8.447-20.836 13.342c-3.67 2.35-8.077 5.352-11.817 7.455-.108-8.596-.025-17.355-.025-25.96zM95.952 161.16l33.422-.008c-.144 4.728-.016 10.128-.017 14.909l-33.394-.015z"/><path fill="#2c86fe" d="m239.06 11.146 49.804-.004-.007 278.29c-16.456.185-33.299-.007-49.784.02z"/></g></svg></svg>