<svg xmlns="http://www.w3.org/2000/svg" id="svg" width="300" height="300" viewBox="0 0 300 300"><svg xmlns="http://www.w3.org/2000/svg"><defs><clipPath id="clip-1"><path fill="none" d="M0 0h299.991v299.991H0z"/></clipPath></defs><g fill="none" stroke-miterlimit="10" clip-path="url(#clip-1)" font-family="none" font-size="none" font-weight="none" style="mix-blend-mode:normal" text-anchor="none"><path fill="#fff" d="M0 63.31c.529-1.062.974-6.694 1.31-8.322C6.186 31.243 23.53 11.656 46.556 4.033 57.286.481 66.34.686 77.418.691l19.431.003h62.02l51.44-.004H225.8c4.276 0 9.484-.024 13.75.376a63.8 63.8 0 0 1 22.158 6.385 68.3 68.3 0 0 1 35.385 41.376c.344 1.099.596 2.594.965 3.586 1.11 2.974.866 7.542 1.941 10.328v174.641c-.523 1.212-1.08 6.906-1.506 8.76-1.762 7.806-4.917 15.208-9.218 21.948-1.86 2.915-4.045 5.487-6.016 8.303-.564.805-.238 1.9-.434 2.695-.803.467-2.497.262-3.047.786-11.298 10.767-25.629 17.847-41.292 19.146-5.071.42-10.685.385-16.04.382l-17.515-.003h-58.55l-53.971.005-16.35-.002c-13.1-.003-22.764-.293-35.083-5.654A68.42 68.42 0 0 1 2.774 250.96c-.749-2.388-1.137-4.645-1.63-7.068-.333-1.64-.515-5.55-1.144-6.927z"/><path fill="#1b671b" d="M80.56 45.032c32.294-2.394 58.601 13.307 57.893 48.488-.09 4.469.003 9.262.003 13.763v36.418l.003 42.418v14.7c0 6.902-.08 11.468-1.319 18.273 6.361 6.268 13.8 13.278 20.383 19.316-2.585 2.803-5.26 6.013-7.791 8.924l-14.707 16.929c-1.428-1.512-3.459-3.344-5.015-4.827l-10.113-9.568c-1.047-1.027-1.888-1.83-3.018-2.783-2.088.867-4.114 1.96-6.256 2.783-5.539 2.13-12.277 3.517-18.222 3.887-15.532.967-32.254-1.353-44.35-11.99-9.106-8.01-13.34-19.354-14.142-31.189-.196-2.9-.112-6.32-.11-9.252l.004-14.377v-45.221l-.001-35.134c-.001-15.915-1.246-30.647 9.12-44.109 9.131-11.858 23.244-16.567 37.638-17.449"/><path fill="#fff" d="M84.603 79.602c.455-.084 1.562-.089 2.039-.08 4.552.082 9.016 1.446 12.235 4.789 2.118 2.238 3.596 5.41 4.005 8.473.58 4.352.41 8.985.41 13.384v20.2l-.002 38.98c0 7.074.133 14.557-.055 21.582-1.52-1.42-5.16-4.7-6.34-6.18-.884 1.18-2.639 3.067-3.65 4.22l-7.567 8.59-7.136 8.115c-1.35 1.54-2.941 3.466-4.377 4.866.839.652 2.28 2.08 3.106 2.85 3.42 3.123 6.868 6.514 10.208 9.728-4.79.058-8.939-.457-12.748-3.573-6.13-5.014-5.59-12.612-5.59-19.647l.002-12.577v-40.138l-.003-32.669v-9.723c.004-5.744-.133-11.3 3.892-15.98 3.135-3.643 6.918-4.802 11.57-5.21"/><path fill="#1b671b" d="M165.614 46.775c1.383.106 3.775.04 5.201.042l11.836-.099c9.988-.1 20 .205 29.996.094 16.188-.308 33.602 2.512 45.018 15.08 10.905 12.005 11.138 26.256 10.84 41.367-.112 5.643.146 11.382-.083 17.051-.518 12.888-5.125 25.323-15.376 33.654a40 40 0 0 1-4.383 3.09c-1.323.799-3.677 1.898-4.677 2.876.946 2.34 2.055 6.101 2.881 8.613l5.341 16.272 14.104 42.927c2.559 7.81 5.226 16.528 7.989 24.19-12.25.037-25.191.191-37.4-.014-1.572-6.075-3.702-12.996-5.529-19.042-1.556-5.78-3.47-11.724-5.11-17.516-4.73-16.695-9.985-33.407-14.637-50.107-1.292-.218-3.617-.148-4.984-.149-2.288-.003-4.7-.02-6.981.084l-.01 86.736c-11.123.206-22.892.017-34.066.016.122-2.933.052-6.293.053-9.255v-65.971z"/><path fill="#fff" d="m199.679 80.288 12.398-.026c7.319-.004 15.213-.75 19.012 7.117 1.565 3.239 1.547 6.01 1.58 9.524l.011 13.74c-.003 6.34 1.004 12.55-3.753 17.396-4.535 4.263-10.763 3.687-16.501 3.685l-12.738-.022c-.087-2.314-.055-4.763-.036-7.083.123-14.76-.184-29.578.027-44.331"/></g></svg></svg>