<svg xmlns="http://www.w3.org/2000/svg" id="svg" width="300" height="300" viewBox="0 0 300 300"><svg xmlns="http://www.w3.org/2000/svg"><defs><clipPath id="clip-1"><path fill="none" d="M0 0h299.991v299.991H0z"/></clipPath></defs><g fill="none" stroke-miterlimit="10" clip-path="url(#clip-1)" font-family="none" font-size="none" font-weight="none" style="mix-blend-mode:normal" text-anchor="none"><path fill="#fbfbfb" d="M0 63.309c.456-.925.96-6.671 1.271-8.175a68.2 68.2 0 0 1 5.333-15.783C14.558 22.654 28.658 10.186 46.15 4.175 57.01.442 66.564.677 77.835.682l19.42.003h62.435l50.773-.003 15.435-.001c4.263 0 9.535-.014 13.79.396 7.188.73 14.2 2.673 20.738 5.747a73.2 73.2 0 0 1 21.81 15.8c.879.945 2.064 2.51 2.872 3.544a69 69 0 0 1 11.93 22.494c1.154 3.672 1.891 7.342 2.356 11.153.1.826.316 2.18.606 2.923v174.65c-.284.67-.521 2.15-.598 2.887-1.412 13.473-7.668 25.645-16.104 36.046-.494.61-.38 1.948-.44 2.711-.57.547-2.497.303-3.029.809-11.257 10.714-25.456 17.787-41.048 19.157-4.799.422-10.24.409-15.37.407l-16.894-.003h-56.382l-56.337.002-17.268.001c-13.168-.001-22.992-.205-35.394-5.588a68.39 68.39 0 0 1-38.241-42.478c-.773-2.47-1.2-4.77-1.723-7.274-.35-1.669-.551-5.74-1.172-7.102z"/><path fill="#f01257" d="M80.131 33.74c3.354-2.34 10.719-5.86 14.499-7.528a135.95 135.95 0 0 1 78.968-9.54 135.4 135.4 0 0 1 87.428 55.772 135.1 135.1 0 0 1 22.062 101.682 135.47 135.47 0 0 1-56.067 86.98c-21.589 14.979-44.761 22.44-70.833 24.026-6.257.435-12.543.306-18.779-.384-.659-.078-2.6-.182-3.101-.375-.769-.013-1.697-.158-2.473-.255a135.28 135.28 0 0 1-79.673-40.333 135.96 135.96 0 0 1-38.131-95.392 136.04 136.04 0 0 1 29.64-83.01c4.725-5.908 8.325-9.484 13.658-14.693 5.084-5.098 16.45-13.617 22.803-16.95"/><path fill="#fe1262" d="M57.328 50.69c5.084-5.098 16.45-13.617 22.803-16.95-.493 1.209-6.862 4.067-6.576 4.819.452-.219.608-.33 1.008-.609l.04.09c-5.006 3.615-9.9 6.886-14.46 11.141-.545.509-1.983 2.047-2.585 1.984zm74.506 233.428c.354-.975 1.929-.68 2.48.041l-.007.214c-.769-.013-1.697-.158-2.473-.255"/><path fill="#fbfbfb" d="M125.417 74.46c16.176-.207 32.972-.088 49.169-.018l-.002 30.417c0 6.513-.121 13.476.055 19.96l23.219-.009c3.135.002 7.573.178 10.53.03-1.53 1.276-3.874 3.768-5.331 5.229l-9.624 9.625-30.65 30.641-7.372 7.397c-1.289 1.294-3.96 4.36-5.666 4.673-1.702-1.053-7.616-7.208-9.38-8.973L120.831 153.9l-19.16-19.162c-2.596-2.597-7.505-7.217-9.751-9.87 2.739.13 7.45-.047 10.363-.049l23.125-.004zM91.432 200.438c14.28-.166 28.803-.036 43.098-.036l72.857.01.017 15.764-115.97.023z"/></g></svg></svg>