<svg xmlns="http://www.w3.org/2000/svg" id="svg" width="300" height="300" viewBox="0 0 300 300"><svg xmlns="http://www.w3.org/2000/svg"><defs><linearGradient id="color-1" x1="228.62" x2="130.991" y1="252.122" y2="125.029" gradientUnits="userSpaceOnUse"><stop offset="0" stop-color="#2a067a"/><stop offset="1" stop-color="#2064c0"/></linearGradient><linearGradient id="color-2" x1="141.16" x2="70.582" y1="138.891" y2="48.196" gradientUnits="userSpaceOnUse"><stop offset="0" stop-color="#215eba"/><stop offset="1" stop-color="#0da5f8"/></linearGradient><linearGradient id="color-3" x1="155.361" x2="98.336" y1="197.067" y2="121.185" gradientUnits="userSpaceOnUse"><stop offset="0" stop-color="#27399c"/><stop offset="1" stop-color="#1974c5"/></linearGradient><linearGradient id="color-4" x1="174.702" x2="173.933" y1="203.484" y2="205.245" gradientUnits="userSpaceOnUse"><stop offset="0" stop-color="#45cffe" stop-opacity=".988"/><stop offset="1" stop-color="#3ca6de"/></linearGradient><clipPath id="clip-1"><path fill="none" d="M0 0h299.991v299.991H0z"/></clipPath></defs><g fill="none" stroke-miterlimit="10" clip-path="url(#clip-1)" font-family="none" font-size="none" font-weight="none" style="mix-blend-mode:normal" text-anchor="none"><path fill="#fff" d="M0 63.31c.557-1.12.946-6.634 1.31-8.322 2.154-9.977 6.105-18.98 12.26-27.156A67.9 67.9 0 0 1 46.556 4.034C56.988.484 66.577.687 77.4.69l19.414.006 62.042-.001L210.211.69h15.593c4.275 0 9.482-.024 13.745.376a63.8 63.8 0 0 1 22.16 6.385 68.3 68.3 0 0 1 35.385 41.376c.344 1.099.596 2.594.967 3.586 1.108 2.974.864 7.542 1.939 10.328v174.64c-.521 1.214-1.072 6.847-1.485 8.67-1.771 7.913-4.985 15.416-9.36 22.234-1.842 2.868-4.042 5.396-5.94 8.204-.55.815-.172 1.912-.386 2.599-.808.472-2.345.237-2.998.756-1.565 1.24-3.13 2.875-4.684 4.119a71 71 0 0 1-16.828 10.141 65.4 65.4 0 0 1-19.832 4.916c-5.36.428-10.707.385-16.075.382l-17.67-.003h-58.437l-53.84.005-16.225-.002c-12.665-.003-22.115-.21-34.106-5.165a68.4 68.4 0 0 1-39.334-43.2c-.754-2.381-1.145-4.631-1.64-7.044-.32-1.557-.552-5.771-1.16-7.028zm165.728 137.816c-.069.393-.057.633-.35.89 4.65 1.691 9.11 3.54 13.935 4.682.94.223 2.183.712 3.06.837.113-.128.61-.504.772-.632-.615-.284-4.961-1.484-6.1-1.82-3.332-.99-8.138-3.194-11.317-3.957m36.942 66.965c.893-.432 1.856-.871 2.701-1.38 19.036-8.99 34.166-21.468 47.129-38.053a123.5 123.5 0 0 0 12.651-20.277 127.1 127.1 0 0 0 13.893-48.16c.272-3.156.74-10.845.357-14.003-.036-2.838-.284-5.49-.553-8.314-.02-.303-.074-.658-.109-.965-3.199-27.953-14.994-54.924-34.424-75.4-3.42-3.606-7.018-7.297-10.946-10.383-2.028-2.12-7.645-6.11-10.105-7.842a129.54 129.54 0 0 0-71.647-23.08c-9.33-.115-18.641.839-27.754 2.841-2.596.556-5.657 1.182-8.203 1.887A131.46 131.46 0 0 0 59.89 57.31a127.63 127.63 0 0 0-36.793 67.596c-1.429 7.001-2.452 14.29-2.598 21.44a125.2 125.2 0 0 0 8.91 50.13c1.174 3.015 3.653 8.908 5.348 11.639 2.503 5.524 6.918 12.344 10.464 17.273a130.34 130.34 0 0 0 52.651 42.914c8.24 3.703 16.137 6.21 24.93 8.154a125.96 125.96 0 0 0 79.449-8.168q.21-.097.419-.197m-79.006-102.86q13.278.096 26.556.022l16.19-.004c3.093.003 6.865.09 9.928-.082-1.317-2.467-1.969-4.339-3.095-6.807l-5.699-12.224c-1.853-4.02-3.944-7.81-5.506-12.006-.704-1.895-2.253-4.04-2.95-5.974-1.466-4.075-3.385-7.777-5.298-11.639-1.301-2.628-1.963-5.787-3.873-8.135-2.272 3.957-3.467 8.194-5.683 12.184a22 22 0 0 0-.968 1.982c-2.48 6.11-5.538 11.898-8.055 17.996-1.038 2.514-2.703 5.061-3.72 7.622-1.47 3.623-3.113 6.866-4.775 10.387-1.055 2.234-1.776 4.51-3.052 6.678"/><path fill="url(#color-1)" d="M34.757 208.115c-1.695-2.73-4.174-8.624-5.349-11.64a125.2 125.2 0 0 1-8.91-50.13c.147-7.15 1.17-14.438 2.599-21.439A127.63 127.63 0 0 1 59.889 57.31a131.46 131.46 0 0 1 55.771-32.348c2.546-.705 5.606-1.331 8.203-1.887a122.3 122.3 0 0 1 27.754-2.841 129.54 129.54 0 0 1 71.647 23.08c2.46 1.731 8.077 5.723 10.105 7.842 3.928 3.086 7.526 6.777 10.946 10.382 19.43 20.477 31.225 47.448 34.424 75.401.035.307.088.662.109.965.27 2.824.517 5.476.553 8.314.383 3.158-.085 10.847-.357 14.002a127.1 127.1 0 0 1-13.893 48.161 123.5 123.5 0 0 1-12.651 20.277c-12.963 16.585-28.093 29.062-47.129 38.053-.845.509-1.808.948-2.701 1.38q-.209.1-.419.197a125.96 125.96 0 0 1-79.45 8.168c-8.792-1.944-16.689-4.45-24.929-8.154a130.34 130.34 0 0 1-52.65-42.914c-3.547-4.929-7.962-11.75-10.465-17.273m88.121-88.746-6.193 13.58c-1.442 3.215-2.395 6.171-4.251 9.236l-.257.364c-1.113 2.144-1.95 4.78-2.934 7.006-.851 1.927-2.016 3.769-2.878 5.69-1.585 3.532-2.594 6.405-4.547 9.781-.17.375-.255.592-.47.947L81.671 209.35c-1.731 3.875-3.82 7.565-5.301 11.575-.5 1.352-1.317 2.701-1.834 4.092 3.641.212 8.025.1 11.728.096l19.587.005c3.944-6.96 6.89-15.312 10.421-22.566 1.036-2.129 2.08-4.263 3.083-6.406 1.348-3.045 3.312-7.969 4.975-10.71l1.092-.001c3.517.21 7.976-.035 11.653.02.417-.038.683-.093 1.096-.04 4.368.181 10.392-.269 14.52.136l1 .105c2.075-.332 5.98-.227 8.22-.228q6.252-.03 12.505.045c.438.119.75.188 1.168.38l.13.027c1.912.412 2.576 1.17 4.45.02l.837-.484c.64-.574 1.008-1.28 1.452-2.014l.293-.716c-.229-1.468-.19-2.281-1.165-3.412l-.73-.672c-2.736-2.51-7.388-1.963-10.946-1.96l-10.206.007c-13.644-.018-27.755.186-41.366-.051-.47 1.328-1.488 3.34-2.11 4.718l-4.983 10.837c-.885 1.906-1.631 3.914-2.51 5.834l-8.56 18.24q-5.925.037-11.85-.007c.655-2.701 3.233-7.134 4.448-9.852l13.122-28.726c.958-2.067 2.035-4.1 2.982-6.16l26.46-57.475 11.023-23.918c1.357-2.886 2.031-5.381 3.697-8.26.365.703.883 1.627 1.164 2.348 1.474 4.229 3.838 8.06 5.6 12.103 1.843 4.225 3.575 8.384 5.75 12.481.73 1.375 1.186 3.306 1.914 4.646 1.984 3.646 3.4 7.516 5.127 11.238l11.51 24.787c1.87 3.948 3.695 7.715 5.403 11.758 1.087 2.571 2.391 4.725 3.406 7.437.148.333.279.627.448.951 2.492 5.698 5.535 11.685 8.08 17.45.109.333.219.644.296.988.808 1.178 1.414 2.177 2.045 3.464l.24 1.273c2.151 5.206 4.23 10.222 5.851 15.626.793 2.642 2.674 5.497 2.745 8.336l-.618.277c-1.431-.047-8.657-3.55-10.561-4.238-2.76-.997-11.908-4.114-13.742-5.642l-.911-.368-.655.158c-.161.128-.66.504-.772.632-5.16 3.241-6.37 3.353-11.804 5.238-6.646 2.306-11.285 3.43-18.404 3.606-.954.172-1.414.063-2.326.14l-.504.004q-.877-.064-1.755-.113c-7.295-.33-12.933-1.613-19.736-4.167-2.718-1.021-4.778-1.607-7.448-3.053-.976 2.549-2.613 5.06-3.658 7.94 3.302 1.684 6.794 3.433 10.306 4.633 1.85.631 4.346 1.145 6.31 1.588a75.33 75.33 0 0 0 39.208-1.421c2.53-.756 4.898-1.953 7.272-3.085 1.505-.718 2.993-1.544 4.622-1.94 3.214.929 7.739 3.44 11.036 4.647 1.477.653 3.336.98 4.783 1.63 4.863 2.187 9.763 3.99 14.757 5.82 3.531 1.293 6.67 3.245 10.406 4.204-.486-2.139-1.611-4.286-2.29-6.37-.627-1.917-1.174-3.859-1.883-5.749-.923-2.686-2.312-5.373-3.197-8.058-1.393-4.218-2.795-8.269-4.583-12.342-.908-2.069-1.817-4.495-2.275-6.695.971-2.237 2.333-3.707 3.678-5.732 1.408-2.116 2.486-4.607 3.563-6.915a72.68 72.68 0 0 0 5.682-44.69c-1.24-6.384-2.086-9.917-4.64-15.862-6.297-14.658-15.333-25.185-28.624-34.155-1.412-.81-2.934-2.034-4.337-2.726-3.024-1.49-6.154-2.976-9.246-4.318-4.146-1.8-8.874-2.644-13.276-3.72 1.427 3.179 3.55 7.355 4.82 10.415 4.416 1.53 8.646 2.783 12.69 5.163 2.192 1.29 4.31 2.398 6.46 3.79l.7.59c1.312 1.045 4.652 3.54 5.674 4.427 3.032 2.63 10.472 10.879 11.993 14.48l.304.922c.557.603.88.793.935 1.577.138.506.185.565.42 1.016l.194.324c.334.387.589.671.874 1.093 1.762 2.305 2.177 4.47 3.157 7.095 2.82 7.558 4.31 14.647 4.39 22.773.032.978.043 1.322-.09 2.304-.187 8.358-1.778 14.486-4.723 22.254-.88 2.321-2.59 6.85-4.322 8.598-.378.274-.319.287-.543.731l-.151.195c-.258-.206-.778-1.983-1.087-2.618-1.208-2.483-2.536-4.913-3.681-7.425-1.433-3.145-3.292-8.089-5.115-10.961l-.459-.753c-2.619-6.478-5.823-12.791-8.634-19.326l-.363-.59c-2.118-4.264-3.703-8.393-5.729-12.554-.315-.371-.378-.675-.535-1.133-1.289-1.98-2.566-5.933-3.773-8.33l-.359-.707c-.766-1.523-1.519-2.963-2.206-4.525-.702-1.593-1.261-3.461-2.127-4.942-.102-.153-.233-.607-.299-.808-1.93-3.515-3.51-6.897-5.005-10.621-.727-1.81-2.022-3.691-2.73-5.492-1.566-3.996-3.308-7.779-5.275-11.594-.916-1.773-1.506-3.9-2.38-5.71-.86-1.879-1.868-3.783-2.784-5.647-1.45-2.957-2.48-6.635-4.28-9.352-1.75 2.795-2.723 6.1-4.105 9.126l-10.601 23.245c-1.784 3.886-3.747 7.432-5.321 11.47-1.294 3.316-3.492 6.648-4.653 10.101-.443 1.134-1.638 3.134-1.937 4.06zm-32.45 1.307c2.353-6.534 12.232-18.794 18.22-22.538l.77-.617c2.734-2.839 5.605-4.003 8.87-5.92 4.219-2.476 8.144-3.605 12.74-5.184 1.841-3.163 3.437-7.006 4.836-10.367-2.96.744-6.924 1.245-9.793 2.33-4.992 1.887-10.864 4.425-15.369 7.305-2.033 1.3-3.79 2.614-5.81 3.896-8.23 6.168-15.068 13.924-20.25 22.813-2.5 4.287-4.817 9.8-6.513 14.493-.806 2.228-1.11 5.004-1.737 7.298-2.546 11.37-2.248 20.524.025 31.878.485 1.688 1.144 5.357 1.532 6.499 1.209 3.56 4.628 11.65 6.595 14.55 1.91-2.778 3.948-7.484 4.894-10.692-.462-.442-.44-.418-.684-1.012-.597-2.118-1.849-4.92-2.582-7.162-1.825-5.578-2.381-9.956-2.676-15.751l-.033-.645c-.432-7.843 1.257-17.076 4.1-24.32.554-1.411 1.065-3.175 1.7-4.52.371-.295.337-.296.802-.36l.429-.918.026-.109c-.204-.658-.213-.354-.092-.947"/><path fill="#00f8f8" fill-opacity=".988" d="M149.97 60.533c1.801 2.717 2.83 6.395 4.281 9.352.915 1.864 1.925 3.769 2.783 5.647.875 1.81 1.465 3.937 2.38 5.71 1.968 3.815 3.71 7.598 5.277 11.594.707 1.8 2.002 3.682 2.729 5.492a95 95 0 0 0 5.005 10.62c.066.202.197.656.3.809.865 1.48 1.424 3.35 2.126 4.942.687 1.562 1.44 3.003 2.206 4.526l.359.706c1.207 2.397 2.484 6.35 3.773 8.33.157.458.22.762.535 1.133 2.026 4.161 3.611 8.29 5.73 12.554l.362.59c2.811 6.535 6.015 12.848 8.634 19.326l.459.753c1.823 2.872 3.682 7.816 5.115 10.961 1.145 2.512 2.473 4.943 3.681 7.425.31.635.83 2.412 1.087 2.618l.15-.195c.225-.444.166-.457.544-.73 1.732-1.75 3.441-6.278 4.322-8.6 2.945-7.767 4.536-13.895 4.724-22.253.132-.982.121-1.326.09-2.304-.081-8.126-1.571-15.215-4.391-22.773-.98-2.625-1.395-4.79-3.157-7.095-.285-.422-.54-.706-.874-1.093l-.194-.324c-.236-.451-.282-.51-.42-1.016-.054-.784-.378-.974-.935-1.577l-.304-.922c-1.52-3.601-8.96-11.85-11.993-14.48-1.022-.886-4.362-3.382-5.673-4.427l-.7-.59c-2.151-1.392-4.27-2.5-6.46-3.79-4.045-2.38-8.275-3.633-12.69-5.163-1.27-3.06-3.395-7.236-4.821-10.416 4.402 1.077 9.13 1.921 13.276 3.72 3.092 1.343 6.222 2.829 9.246 4.32 1.403.69 2.925 1.915 4.337 2.725 13.29 8.97 22.327 19.497 28.623 34.155 2.555 5.945 3.402 9.478 4.64 15.862a72.68 72.68 0 0 1-5.681 44.69c-1.077 2.308-2.155 4.799-3.563 6.915-1.345 2.025-2.707 3.495-3.678 5.732.458 2.2 1.367 4.626 2.275 6.695 1.788 4.073 3.19 8.124 4.583 12.342.885 2.685 2.274 5.372 3.197 8.058.709 1.89 1.256 3.832 1.883 5.75.679 2.083 1.804 4.23 2.29 6.37-3.737-.96-6.875-2.912-10.406-4.205-4.994-1.83-9.894-3.633-14.757-5.82-1.447-.65-3.306-.977-4.783-1.63-3.297-1.207-7.822-3.718-11.036-4.647-1.629.396-3.117 1.222-4.622 1.94-2.374 1.132-4.743 2.329-7.272 3.085a75.33 75.33 0 0 1-39.208 1.42c-1.964-.442-4.46-.956-6.31-1.587-3.512-1.2-7.004-2.949-10.306-4.634 1.045-2.88 2.682-5.39 3.658-7.939 2.67 1.446 4.73 2.032 7.448 3.053 6.803 2.554 12.441 3.838 19.736 4.167q.877.05 1.755.113l.504-.004c.912-.077 1.372.032 2.326-.14 7.12-.175 11.758-1.3 18.404-3.606 5.433-1.885 6.645-1.997 11.804-5.238.113-.128.61-.504.772-.632l.655-.158.91.368c1.835 1.528 10.983 4.645 13.743 5.642 1.904.689 9.13 4.191 10.561 4.238l.618-.277c-.071-2.839-1.952-5.694-2.745-8.336-1.621-5.404-3.7-10.42-5.852-15.626l-.239-1.273c-.631-1.287-1.237-2.286-2.045-3.464-.077-.344-.187-.655-.297-.989-2.544-5.764-5.587-11.75-8.079-17.449-.17-.324-.3-.618-.448-.95-1.015-2.713-2.319-4.867-3.406-7.438-1.708-4.043-3.533-7.81-5.403-11.758l-11.51-24.787c-1.727-3.722-3.143-7.592-5.127-11.238-.728-1.34-1.185-3.271-1.914-4.646-2.175-4.097-3.907-8.256-5.75-12.481-1.762-4.042-4.126-7.874-5.6-12.103-.281-.72-.8-1.645-1.164-2.349-1.666 2.88-2.34 5.375-3.697 8.26l-11.022 23.92-26.461 57.474c-.947 2.06-2.024 4.093-2.982 6.16L92.77 206.37c-1.215 2.718-3.793 7.151-4.449 9.852q5.925.044 11.852.008l8.56-18.24c.878-1.921 1.624-3.93 2.51-5.835l4.983-10.837c.621-1.379 1.64-3.39 2.11-4.718 13.61.237 27.72.033 41.365.05l10.206-.006c3.558-.003 8.21-.55 10.947 1.96l.729.672c.974 1.13.936 1.944 1.165 3.412l-.293.716c-.444.734-.812 1.44-1.452 2.014l-.838.483c-1.873 1.152-2.537.393-4.449-.019l-.13-.027c-.418-.192-.73-.261-1.168-.38q-6.252-.074-12.505-.045c-2.24.001-6.145-.104-8.22.228l-1-.105c-4.128-.405-10.152.045-14.52-.136-.413-.053-.679.002-1.096.04-3.677-.055-8.136.19-11.653-.02l-1.092.002c-1.663 2.74-3.627 7.664-4.975 10.709-1.004 2.143-2.047 4.277-3.083 6.406-3.531 7.254-6.477 15.606-10.421 22.566l-19.587-.005c-3.703.005-8.087.116-11.728-.096.517-1.39 1.335-2.74 1.834-4.092 1.481-4.01 3.57-7.7 5.301-11.575l19.675-43.378c.216-.355.302-.572.471-.947 1.953-3.376 2.962-6.249 4.547-9.78.862-1.922 2.027-3.764 2.878-5.691.984-2.225 1.821-4.862 2.934-7.006l.256-.364c1.857-3.065 2.81-6.021 4.252-9.236l6.193-13.58.476-.835c.299-.925 1.494-2.925 1.937-4.059 1.16-3.453 3.36-6.785 4.653-10.101 1.574-4.038 3.536-7.584 5.321-11.47l10.6-23.245c1.383-3.026 2.355-6.331 4.106-9.126"/><path fill="#253598" d="M187.13 104.04c.625-2.359.943-6.369 1.55-8.208 1.312 1.045 4.652 3.54 5.674 4.427 3.032 2.63 10.472 10.879 11.993 14.48l.304.922c.557.603.88.793.935 1.577.138.506.185.565.42 1.016l.194.324c.334.387.589.671.874 1.093 1.762 2.306 2.177 4.47 3.157 7.095 2.82 7.558 4.31 14.647 4.39 22.773.032.978.043 1.322-.09 2.304-.187 8.358-1.778 14.486-4.723 22.254-.88 2.321-2.59 6.85-4.322 8.598-.378.274-.319.287-.543.731l-.151.195c-.258-.206-.778-1.983-1.087-2.618-1.208-2.482-2.536-4.913-3.681-7.425-1.433-3.145-3.292-8.089-5.115-10.961l-.459-.753c-2.619-6.478-5.823-12.791-8.634-19.326l-.363-.59c-2.118-4.264-3.703-8.393-5.729-12.554-.315-.371-.378-.675-.535-1.133-1.289-1.98-2.566-5.933-3.773-8.33l-.359-.706c1.858-2.995 4.822-6.6 6.393-9.268.288.226.518.435.855.58.519.084 2.88.375 3.176.525.636-.197.678-.282.932-.75.322-.308.62-.493.981-.75.286-.342.438-.68.645-1.071-.424-2.55-.267-3.565-2.91-4.45"/><path fill="#1e54b0" d="M187.13 104.04c.625-2.359.943-6.369 1.55-8.208 1.312 1.045 4.652 3.54 5.674 4.427 3.032 2.63 10.472 10.879 11.993 14.48l.304.922c.557.603.88.793.935 1.577.138.506.185.565.42 1.016-2.381 2.67-4.356 6.441-6.821 9.141-.438.48-.747 1.228-1.162 1.714a9 9 0 0 1-.83-.656c-1.118-.462-1.722-.539-2.929-.51-.407.146-.72.165-.911.566-.315.553-1.003 1.442-1.472 1.89-.2.19-.453.612-.444.885.66.849.584 1.714 1.146 2.582-2.428 2.595-5.108 5.112-7.13 8.082-2.118-4.264-3.703-8.393-5.729-12.554-.315-.371-.378-.675-.535-1.133-1.289-1.98-2.566-5.933-3.773-8.33l-.359-.706c1.858-2.995 4.822-6.6 6.393-9.268.288.226.518.435.855.58.519.084 2.88.375 3.176.525.636-.197.678-.282.932-.75.322-.308.62-.493.981-.75.286-.342.438-.68.645-1.071-.424-2.55-.267-3.565-2.91-4.45"/><path fill="#1e54b0" d="M183.45 109.957c.288.226.518.435.855.58.519.084 2.88.375 3.176.525.394 1.38 1.311 3.002 1.838 4.36 1.128 2.912 2.315 5.467 3.718 8.248.56 1.107 2.118 3.835 2.316 4.839-.315.553-1.003 1.442-1.472 1.89-.2.19-.453.612-.444.885.66.849.584 1.714 1.146 2.582-2.428 2.595-5.108 5.112-7.13 8.082-2.118-4.264-3.703-8.393-5.729-12.554-.315-.371-.378-.675-.535-1.133-1.289-1.98-2.566-5.933-3.773-8.33l-.359-.706c1.858-2.996 4.822-6.6 6.393-9.268"/><path fill="#1e54b0" d="M181.724 129.394c2.167.436 9.913 2.117 11.713 1.89.66.849.584 1.714 1.146 2.582-2.428 2.595-5.108 5.112-7.13 8.082-2.118-4.264-3.703-8.393-5.729-12.554"/><path fill="#37bdf1" d="M181.19 128.26c3.05-.24 9.452 2.193 12.69 2.14-.198.189-.452.611-.443.884-1.8.227-9.546-1.454-11.713-1.89-.315-.371-.378-.675-.535-1.133m2.261-18.304c.288.226.518.435.855.58-.666 1.099-6.288 9.005-6.889 9.394l-.359-.706c1.858-2.996 4.822-6.6 6.393-9.268"/><path fill="#1e54b0" d="M187.13 104.04c.625-2.359.943-6.369 1.55-8.208 1.312 1.045 4.652 3.54 5.674 4.427 3.032 2.63 10.472 10.879 11.993 14.48-3.784-.933-7.377-3.28-11.177-4.38-1.629-.472-3.681-1.04-5.131-1.868-.424-2.55-.267-3.565-2.91-4.45"/><path fill="#37bdf1" d="M187.481 111.062c.636-.197.678-.282.932-.75.968 3.149 2.918 7.127 4.372 10.094.872 1.774 2.927 5.61 3.31 7.413l.17.124c-.408.146-.72.165-.912.566-.198-1.004-1.756-3.732-2.316-4.84-1.403-2.78-2.59-5.335-3.718-8.247-.527-1.358-1.444-2.98-1.838-4.36m2.558-2.572c1.45.83 3.502 1.397 5.13 1.869 3.8 1.1 7.394 3.447 11.178 4.38l.304.922c-1.208-.542-3.484-1.025-4.938-1.56-4.437-1.632-7.67-3.523-12.319-4.54.286-.34.438-.679.645-1.07m17.547 8.747c.138.506.185.565.42 1.016-2.381 2.67-4.356 6.441-6.821 9.141-.438.48-.747 1.228-1.162 1.714a9 9 0 0 1-.83-.656c.758-.706 1.724-2.5 2.441-3.376 1.896-2.314 3.945-5.721 5.952-7.839"/><path fill="#253598" d="M210.346 152.278c1.069-.255 4.961-.374 6.186-.435-.188 8.358-1.779 14.486-4.724 22.254-.88 2.321-2.59 6.85-4.322 8.598-.378.274-.319.287-.543.731l-.151.195c-.258-.206-.778-1.983-1.087-2.618-1.208-2.482-2.536-4.913-3.681-7.425-1.433-3.145-3.292-8.089-5.115-10.961l-.459-.753c1.676-2.42 5.504-5.694 7.383-8.063.353.284.565.43.87.768.459.242.948.472 1.368.767.394-.007.654 0 1.046-.077 1.834-.366 2.463-1.342 3.229-2.981"/><path fill="#253598" d="M203.833 153.801c.353.284.565.43.87.768.459.242.948.472 1.368.767.394-.007.654 0 1.046-.077L207.48 173c.055 2.667.271 7.185.006 9.694-.378.274-.319.287-.543.731l-.151.195c-.258-.206-.778-1.983-1.087-2.618-1.208-2.482-2.536-4.913-3.681-7.425-1.433-3.145-3.292-8.089-5.115-10.961l-.459-.753c1.676-2.42 5.504-5.694 7.383-8.063"/><path fill="#37bdf1" d="M206.071 155.336c.394-.007.654 0 1.046-.077L207.48 173c.055 2.667.271 7.185.006 9.694-.378.274-.319.287-.543.731-.297-1.98-.28-5.932-.336-8.105l-.334-12.004c-.055-2.514-.032-5.505-.202-7.98m-2.238-1.535c.353.284.565.43.87.768-1.043.745-2.695 2.702-3.583 3.722-1.474 1.69-2.53 2.829-4.211 4.326l-.459-.753c1.676-2.42 5.504-5.694 7.383-8.063"/><path fill="#253598" d="M194.583 133.866c.164.211.607.822.783.956.89.255 2.634.548 3.25.881 1.21 2.072 1.848 4.001 2.77 6.186.925 2.202 2 4.339 3.218 6.394-1.515 1.997-2.15 3.175-.771 5.518-1.88 2.369-5.707 5.643-7.383 8.063-2.619-6.478-5.823-12.791-8.634-19.326l-.363-.59c2.022-2.97 4.702-5.487 7.13-8.082"/><path fill="#37bdf1" d="M194.583 133.866c.164.211.607.822.783.956-2.965 2.484-4.876 5.087-7.55 7.716l-.363-.59c2.022-2.97 4.702-5.487 7.13-8.082"/><path fill="#1e54b0" d="M200.023 129.11c.415-.487.724-1.235 1.162-1.715 2.465-2.7 4.44-6.471 6.821-9.14l.194.323c.334.387.589.671.874 1.093-.527 9.197-1.074 19.06-1.898 28.234l-1.008.192-.61-.205-.954.391a52 52 0 0 1-3.217-6.394c-.923-2.185-1.562-4.114-2.772-6.186-.615-.333-2.36-.626-3.249-.88-.176-.135-.62-.746-.783-.957-.562-.868-.487-1.733-1.146-2.582-.009-.273.245-.695.444-.885.469-.448 1.157-1.337 1.472-1.89.192-.4.504-.42.911-.566 1.207-.029 1.81.048 2.928.51.315.27.484.414.831.656"/><path fill="#00f8f8" d="M196.264 127.943c1.207-.029 1.81.048 2.928.51.315.27.484.414.831.656 1.793 2.09 1.055 4.01-.504 5.898-.21.487-.331.633-.904.696-.615-.333-2.36-.626-3.249-.88-.176-.135-.62-.746-.783-.957-.562-.868-.487-1.733-1.146-2.582-.009-.273.245-.695.444-.885.469-.448 1.157-1.337 1.472-1.89.192-.4.504-.42.911-.566"/><path fill="#37bdf1" d="M208.2 118.578c.334.387.589.671.874 1.093-.527 9.197-1.074 19.06-1.898 28.234l-1.008.192c.312-2.586.309-4.77.507-7.247a648 648 0 0 0 .96-13.914c.087-1.478.267-7.287.565-8.358m-9.585 17.125c.573-.063.693-.21.904-.696 1.153 1.957 1.425 3.161 2.309 5.1 1.132 2.492 2.412 5.414 3.73 7.785l-.954.391a52 52 0 0 1-3.217-6.394c-.923-2.185-1.562-4.114-2.772-6.186"/><path fill="#00f8f8" d="M207.176 147.905c1.749.53 2.638 1.357 3.198 3.112-.012.36-.046.918-.028 1.26-.766 1.64-1.395 2.616-3.229 2.982-.392.077-.652.07-1.046.077-.42-.295-.91-.525-1.368-.767-.305-.339-.517-.484-.87-.768-1.38-2.343-.744-3.521.77-5.518l.954-.39.611.204z"/><path fill="#37bdf1" d="M216.621 149.539c.032.978.043 1.322-.09 2.304-1.224.061-5.116.18-6.185.435-.018-.343.016-.901.028-1.261 1.312.016 4.747-.05 5.944-.258.31-.413.23-.613.303-1.22"/><path fill="#1973ca" d="M108.648 98.138c.692.905 1.626 3.488 2.283 4.735.547 1.04 1.494 2.255 1.912 3.076-1.037 1.18-1.75 2.367-1.477 4.006l.565 1.105c.696.643.964.925 1.838 1.36l1.011.076c.756-.02 1.62-.11 2.386-.167.245-.258.382-.489.577-.783 1.07 1.28 4.973 5.792 5.611 6.988l-.476.835-6.193 13.58c-1.442 3.215-2.395 6.171-4.252 9.236l-.256.364c-1.113 2.144-1.95 4.78-2.934 7.006-.851 1.927-2.016 3.769-2.878 5.69-1.585 3.532-2.594 6.405-4.547 9.781-1.27-1.401-2.245-1.567-3.655-3.44.646-1.298.594-1.622.59-3.042-.586-.82-.811-1.108-1.522-1.825-.63-.337-.703-.414-1.392-.47l-.827-.163c-.559.186-.626.226-1.203.242-.571.406-1.01.813-1.703.89-.112.162-.361.502-.444.657-.904-.388-2.877-1.828-3.73-2.423a135 135 0 0 0-4.436-2.957l-.033-.645c-.432-7.843 1.257-17.076 4.1-24.32.554-1.411 1.065-3.175 1.7-4.52.371-.295.337-.296.802-.36l.429-.918.026-.109c-.204-.658-.213-.354-.092-.947 2.353-6.534 12.232-18.794 18.22-22.538"/><path fill="#1973ca" d="m90.065 122.65.14.138c.568.38.99.921 1.46 1.419 3.714 3.927 8.283 7.306 12.096 11.065.443.43.822.921 1.125 1.459-.644 1.684-.445 3.229.603 4.683.542.435.613.49 1.293.613 1.505.124 2.611-.047 4.104-.167.438.205.93.391 1.291.69-1.113 2.143-1.95 4.78-2.934 7.005-.851 1.927-2.016 3.769-2.878 5.69-1.585 3.532-2.594 6.405-4.547 9.781-1.27-1.401-2.245-1.567-3.655-3.44.646-1.298.594-1.622.59-3.042-.586-.82-.811-1.108-1.522-1.825-.63-.337-.703-.414-1.392-.47l-.827-.163c-.559.186-.626.226-1.203.242-.571.406-1.01.813-1.703.89-.112.162-.361.502-.444.657-.904-.388-2.877-1.828-3.73-2.423a135 135 0 0 0-4.436-2.957l-.033-.645c-.432-7.843 1.257-17.076 4.1-24.32.554-1.411 1.065-3.175 1.7-4.52.371-.295.337-.296.802-.36"/><path fill="#1973ca" d="m90.065 122.65.14.138c.247 2.526.715 5.26 1.173 7.765 1.547 8.47 2.195 17.058 3.634 25.533-.559.186-.626.226-1.203.242-.571.406-1.01.813-1.703.89-.112.162-.361.502-.444.657-.904-.388-2.877-1.828-3.73-2.423a135 135 0 0 0-4.436-2.957l-.033-.645c-.432-7.843 1.257-17.076 4.1-24.32.554-1.411 1.065-3.175 1.7-4.52.371-.295.337-.296.802-.36"/><path fill="#37bdf1" d="m90.065 122.65.14.138c.247 2.526.715 5.26 1.173 7.765 1.547 8.47 2.195 17.058 3.634 25.533-.559.186-.626.226-1.203.242.171-2.182-.905-9.828-1.264-12.09l-1.944-12.307c-.466-2.9-1.034-6.017-1.337-8.921.37-.295.336-.296.8-.36m-6.601 29.2c2.075.352 7.154 3.942 8.643 5.367-.112.163-.361.503-.444.658-.904-.388-2.877-1.828-3.73-2.423a135 135 0 0 0-4.436-2.957z"/><path fill="#1e54b0" d="M106.782 142.027c1.505.124 2.611-.047 4.104-.167.438.205.931.391 1.291.69-1.113 2.143-1.95 4.78-2.934 7.005-.851 1.927-2.016 3.769-2.878 5.69-1.585 3.532-2.594 6.405-4.547 9.781-1.27-1.401-2.245-1.567-3.655-3.44.646-1.298.594-1.622.59-3.042-.586-.82-.811-1.108-1.522-1.825.64-.842 1.279-1.9 1.846-2.828 2.307-3.77 4.971-7.18 6.774-11.242.226-.51.44-.518.93-.622"/><path fill="#37bdf1" d="M105.49 141.414c.54.435.612.49 1.292.613-.49.104-.705.113-.93.622-1.804 4.062-4.468 7.473-6.775 11.242-.567.928-1.206 1.986-1.846 2.828-.63-.337-.703-.414-1.392-.47.32-.069.67-.123.858-.454 2.43-4.257 5.295-8.276 7.67-12.537.414-.742.524-1.22 1.122-1.844"/><path fill="#1973ca" d="M117.743 111.546c1.07 1.28 4.973 5.792 5.611 6.988l-.476.835-6.193 13.58c-1.442 3.215-2.395 6.171-4.252 9.236l-.256.364c-.36-.298-.853-.484-1.291-.689-1.493.12-2.599.29-4.104.167-.68-.124-.751-.178-1.293-.613-1.048-1.454-1.247-2.999-.603-4.683.279-.39.4-.466.748-.791.92-.198 1.581-.79 2.924-.93.938-3.35 1.123-6.392 1.89-9.653a386 386 0 0 1 1.978-7.712c.38-1.376 1.235-3.993 1.343-5.225l1.011.076c.756-.02 1.62-.11 2.386-.167.245-.258.382-.489.577-.783"/><path fill="#00f8f8" d="M105.634 135.94c.92-.198 1.581-.79 2.924-.93.39.18.66.33 1.085.415 2.481 1.79 2.211 2.744 1.418 5.614q.681.579 1.373 1.146l-.257.364c-.36-.298-.853-.484-1.291-.689-1.493.12-2.599.29-4.104.167-.68-.124-.751-.178-1.293-.613-1.048-1.454-1.247-2.999-.603-4.683.279-.39.4-.466.748-.791"/><path fill="#37bdf1" d="m113.77 112.42 1.01.076c-.854 2.986-1.641 6.706-2.39 9.783-.935 3.836-2.438 9.28-2.747 13.146-.426-.085-.695-.234-1.085-.414.938-3.351 1.123-6.393 1.89-9.654a386 386 0 0 1 1.978-7.712c.38-1.376 1.235-3.993 1.343-5.225m3.974-.874c1.07 1.28 4.973 5.792 5.611 6.988l-.476.835c-.195-.155-5.463-6.626-5.712-7.04.245-.258.382-.489.577-.783"/><path fill="#1973ca" d="M108.648 98.138c.692.905 1.626 3.488 2.283 4.735.547 1.04 1.494 2.255 1.912 3.076-1.037 1.18-1.75 2.367-1.477 4.006-2.497 1.95-8.492 4.655-11.489 5.981-1.579.699-8.191 4.576-9.449 4.74 2.353-6.534 12.232-18.794 18.22-22.538"/><path fill="#37bdf1" d="m111.366 109.955.565 1.105c-1.986.886-4.003 2.174-5.981 3.158-1.526.758-3.933 1.506-5.274 2.35-3.274 2.059-6.796 3.338-10.156 5.055-.204-.658-.213-.354-.092-.947 1.258-.164 7.87-4.041 9.45-4.74 2.996-1.326 8.991-4.031 11.488-5.981M90.065 122.65l.429-.918c.551.61 1.235 1.09 1.822 1.688 4.08 4.152 9.722 8.036 13.318 12.52-.349.325-.47.402-.748.791a6.5 6.5 0 0 0-1.125-1.46c-3.813-3.758-8.382-7.137-12.096-11.064-.47-.498-.892-1.038-1.46-1.419z"/><path fill="#00f8f8" fill-opacity=".988" d="M76.417 166.063c-2.273-11.354-2.57-20.507-.025-31.878.627-2.294.931-5.07 1.737-7.298 1.696-4.693 4.013-10.206 6.513-14.493 5.182-8.889 12.02-16.645 20.25-22.813 2.02-1.282 3.777-2.597 5.81-3.896 4.505-2.88 10.377-5.418 15.37-7.305 2.868-1.085 6.831-1.586 9.792-2.33-1.4 3.361-2.995 7.204-4.836 10.367-4.596 1.58-8.521 2.708-12.74 5.184-3.265 1.917-6.136 3.081-8.87 5.92l-.77.617c-5.988 3.744-15.867 16.004-18.22 22.538-.121.593-.112.29.092.947l-.026.11-.43.917c-.464.064-.43.065-.8.36-.636 1.345-1.147 3.109-1.702 4.52-2.842 7.244-4.53 16.477-4.1 24.32l.034.645c.295 5.795.851 10.173 2.676 15.751.733 2.241 1.985 5.044 2.582 7.162.244.594.222.57.684 1.012-.946 3.208-2.983 7.914-4.894 10.692-1.967-2.9-5.386-10.99-6.595-14.55-.388-1.142-1.047-4.811-1.532-6.499"/><path fill="#253598" d="M181.582 179.275c1.41-1.099 2.845-3.047 4.103-4.383 1.504-1.601 3.716-3.376 4.69-5.313 2.492 5.698 5.535 11.685 8.08 17.45.109.333.219.644.296.988.808 1.178 1.414 2.177 2.045 3.464l.24 1.273c2.151 5.206 4.23 10.222 5.851 15.626.793 2.642 2.674 5.497 2.745 8.336l-.618.277c-1.431-.047-8.657-3.55-10.561-4.238-2.76-.997-11.908-4.114-13.742-5.642l-.911-.368-.655.158c-.615-.284-4.961-1.484-6.1-1.82-3.332-.99-8.138-3.194-11.317-3.957-.375-.467-1.01-2.56-1.245-3.248l-.425-.38c-1.378-.873-2.222-.704-3.811-.567-.54.192-.611.367-.958.821-1.12-2.846-5.127-7.95-6.702-10.819.064-.045.614-.773.81-.96l.296-.316c2.074-.332 5.98-.227 8.22-.228q6.251-.03 12.504.045c.438.119.75.188 1.168.38l.13.027c1.912.412 2.576 1.17 4.45.02l.837-.484c.64-.574 1.008-1.28 1.452-2.014l.293-.716c-.229-1.468-.19-2.281-1.165-3.412"/><path fill="#253598" d="M195.135 196.094c.262-.21 1.65-.826 2.077-1.046 1.425-.734 2.52-1.37 3.823-2.294 2.152 5.206 4.23 10.222 5.852 15.626.793 2.642 2.674 5.497 2.745 8.336l-.618.277c-1.431-.047-8.657-3.55-10.561-4.238-2.76-.997-11.908-4.114-13.742-5.642.577-.907 4.153-5.518 4.82-6.144 1.767.532 2.974-.148 4.68.08.468-.379.421-.39.473-.94.665-1.705.694-2.285.45-4.015"/><path fill="#253598" d="M189.53 200.97c1.768.531 2.975-.149 4.682.08 3.195 4.002 7.547 7.894 11.038 11.729 1.277 1.403 2.383 2.91 3.764 4.214-1.431-.047-8.657-3.55-10.561-4.238-2.76-.997-11.908-4.114-13.742-5.642.577-.907 4.153-5.518 4.82-6.144"/><path fill="#37bdf1" d="M194.212 201.05c.467-.38.42-.391.472-.94 1.574 1.811 3.68 3.535 5.255 5.402 2.861 3.39 6.441 6.498 8.977 10.109.271.385.366.748.716 1.095l-.618.277c-1.381-1.304-2.487-2.81-3.764-4.214-3.491-3.835-7.843-7.727-11.038-11.73"/><path fill="#253598" d="M181.582 179.275c1.41-1.099 2.845-3.047 4.103-4.383 1.504-1.601 3.716-3.376 4.69-5.313 2.492 5.698 5.535 11.685 8.08 17.45.109.333.219.644.296.988.808 1.178 1.414 2.177 2.045 3.464l.24 1.273c-1.303.925-2.399 1.56-3.824 2.294-.428.22-1.815.837-2.077 1.046l-.567-.612c-1.269-.724-2.34-1.522-3.853-1.093-.41.117-1.084.218-1.513.185-.735-1.52-6.707-7.83-8.2-9.157.64-.574 1.008-1.28 1.452-2.014l.293-.716c-.229-1.468-.19-2.281-1.165-3.412"/><path fill="#253598" d="M181.582 179.275c1.41-1.099 2.845-3.047 4.103-4.383 1.504-1.601 3.716-3.376 4.69-5.313 2.492 5.698 5.535 11.685 8.08 17.45-1.627-.326-3.224-1.04-4.822-1.467-2.745-.734-5.508-1.367-8.223-2.212-.837-.26-1.798-.592-2.663-.663-.229-1.468-.19-2.281-1.165-3.412"/><path fill="#37bdf1" d="M182.747 182.687c.865.071 1.826.402 2.663.663 2.715.845 5.478 1.478 8.223 2.212 1.598.428 3.195 1.141 4.821 1.466.11.334.22.645.297.99-4.359-1.144-8.617-2.542-13.047-3.442-.94-.192-2.336-.801-3.25-1.173zm18.049 8.794.24 1.273c-1.303.925-2.399 1.56-3.824 2.294-.428.22-1.815.837-2.077 1.046l-.567-.612c.85-.602 6.02-3.524 6.228-4"/><path fill="#253598" d="M153.693 185.657c2.074-.332 5.98-.227 8.22-.228q6.251-.03 12.504.045c-.603 1.932-6.294 6.48-7.672 8.747-.53.871-1.896 1.759-2.687 3.277-1.378-.873-2.222-.704-3.811-.567-.54.192-.611.367-.958.821-1.12-2.846-5.127-7.95-6.702-10.819.064-.045.614-.773.81-.96z"/><path fill="#37bdf1" d="M152.587 186.933c.064-.045.614-.773.81-.96a20.4 20.4 0 0 0 2.31 3.704c1.8 2.27 2.802 4.95 4.54 7.254-.541.192-.611.367-.958.821-1.12-2.846-5.127-7.95-6.702-10.819"/><path fill="#00f8f8" d="M189.202 194.574c.43.033 1.103-.068 1.513-.185 1.514-.429 2.584.37 3.853 1.093l.567.612c.243 1.73.214 2.31-.451 4.015-.052.55-.005.561-.472.94-1.707-.228-2.914.452-4.682-.08-.199-.258-.376-.45-.593-.69-1.383-1.83-1-2.976-.46-5.021.239-.487.192-.347.725-.684"/><path fill="#37bdf1" d="M174.417 185.474c.438.119.75.188 1.168.38-.706.714-1.584 1.855-2.196 2.683-.79 1.068-2.29 2.183-2.988 3.182-1.781 2.546-3.784 4.059-5.918 6.16l-.425-.381c.791-1.518 2.156-2.406 2.687-3.277 1.378-2.268 7.069-6.815 7.672-8.747m5.747.426.838-.483c1.493 1.327 7.465 7.636 8.2 9.157-.533.337-.486.197-.725.684-1.318-1.497-2.587-3.176-3.911-4.636-1.425-1.572-2.947-3.157-4.402-4.722m8.773 14.38c.217.24.394.431.593.69-.666.625-4.242 5.236-4.82 6.143l-.91-.368c1.605-1.368 3.114-4.515 5.137-6.466"/><path fill="#253598" d="M165.378 202.015c4.65 1.692 9.11 3.54 13.935 4.683.94.223 2.183.712 3.06.837-5.16 3.241-6.37 3.353-11.804 5.238-6.646 2.306-11.285 3.43-18.404 3.606.296-.835.67-1.639 1.12-2.403.882-1.495 2.276-3.285 3.282-4.729.769-1.104 2.764-4.802 3.663-5.452 1.074.264 1.613.246 2.683.233 1.144-.66 1.756-1.796 2.465-2.013"/><path fill="#00f8f8" d="M160.247 196.93c1.589-.136 2.433-.305 3.811.568l.425.38c.234.689.87 2.78 1.245 3.248-.069.393-.057.633-.35.89-.71.216-1.321 1.351-2.465 2.012-1.07.013-1.609.03-2.683-.233-.468-.09-.694-.341-1.069-.646-.5-.749-.927-1.771-1.31-2.603l.141-1.086c.465-.58.873-1.09 1.297-1.708.347-.454.417-.63.958-.821"/><path fill="url(#color-2)" d="M34.757 208.115c-1.695-2.73-4.174-8.624-5.349-11.64a125.2 125.2 0 0 1-8.91-50.13c.147-7.15 1.17-14.438 2.599-21.439A127.63 127.63 0 0 1 59.889 57.31a131.46 131.46 0 0 1 55.771-32.348c2.546-.705 5.606-1.331 8.203-1.887a122.3 122.3 0 0 1 27.754-2.841 129.54 129.54 0 0 1 71.647 23.08c2.46 1.731 8.077 5.723 10.105 7.842.249.983.58 1.275 1.384 1.88.05.584-.23.894-.57 1.468l.273.447c-.77 1.479-7.442 7.675-8.822 7.756-3.403.2-2.711 1.681-5.096 2.523-2.69.95-2.413 1.26-4.824 2.776-4.529 2.675-7.89 7.073-11.93 10.411-1.513 1.25-7.351 4.376-8.082 5.627-2.017 3.448-3.865 1.31-4.833 2.594-1.412-.81-2.934-2.034-4.337-2.726-3.024-1.49-6.154-2.976-9.246-4.318-4.146-1.8-8.874-2.644-13.276-3.72 1.427 3.179 3.55 7.355 4.82 10.415 4.416 1.53 8.646 2.783 12.69 5.163 2.192 1.29 4.31 2.398 6.46 3.79l.7.59c-.607 1.84-.925 5.849-1.55 8.208 2.642.886 2.485 1.9 2.909 4.45-.207.392-.36.73-.645 1.071-.362.258-.66.443-.981.75-.254.47-.296.554-.932.751-.296-.15-2.657-.44-3.176-.525-.337-.145-.567-.354-.855-.58-1.57 2.668-4.535 6.272-6.393 9.267-.766-1.523-1.519-2.963-2.206-4.525-.702-1.593-1.261-3.461-2.127-4.942-.102-.153-.233-.607-.299-.808-1.93-3.515-3.51-6.897-5.005-10.621-.727-1.81-2.022-3.691-2.73-5.492-1.566-3.996-3.308-7.779-5.275-11.594-.916-1.773-1.506-3.9-2.38-5.71-.86-1.879-1.868-3.783-2.784-5.647-1.45-2.957-2.48-6.635-4.28-9.352-1.75 2.795-2.723 6.1-4.105 9.126l-10.601 23.245c-1.784 3.886-3.747 7.432-5.321 11.47-1.294 3.316-3.492 6.648-4.653 10.101-.443 1.134-1.638 3.134-1.937 4.06-.638-1.197-4.541-5.709-5.611-6.989-.195.294-.332.525-.577.783-.765.058-1.63.148-2.386.167l-1.01-.076c-.875-.435-1.143-.717-1.84-1.36l-.564-1.105c-.274-1.64.44-2.827 1.477-4.006-.418-.82-1.365-2.036-1.912-3.076-.657-1.247-1.59-3.83-2.283-4.735l.77-.618c2.734-2.838 5.606-4.002 8.87-5.919 4.219-2.476 8.144-3.605 12.74-5.184 1.841-3.164 3.437-7.006 4.836-10.367-2.96.744-6.924 1.245-9.793 2.33-4.992 1.887-10.864 4.425-15.369 7.305-2.033 1.3-3.79 2.614-5.81 3.896-8.23 6.168-15.068 13.924-20.25 22.813-2.5 4.287-4.817 9.8-6.513 14.493-.806 2.228-1.11 5.004-1.737 7.298-2.546 11.37-2.248 20.524.025 31.878-.067.368-.173.961-.432 1.263-.839.977.007 4.058-.098 4.556-.317 1.51-.924 5.773-1.688 6.838-3.182 4.428-7.642 6.303-12.025 9.228-.574.368-1.526.598-2.044 1.018-1.457 1.184-2.753 2.489-4.226 3.668-3.123 2.5-6.19 5.03-9.451 7.352-1.971 1.404-2.42 4.393-3.8 6.201-.781 1.055-2.257 1.828-3.348 2.47-.19.112-1.388 1.473-1.59 1.717a4 4 0 0 1-.287-.455l-.04.926-.166.122c-1.22-1.118-1.43-2.628-2.465-2.852"/><path fill="#1e54b0" d="M172.724 109.757c2.553.01 7.928-1.313 10.067-1.174l.659 1.374c-1.57 2.668-4.535 6.272-6.393 9.268-.766-1.523-1.519-2.964-2.206-4.526-.702-1.593-1.261-3.461-2.127-4.942"/><path fill="#00f8f8" d="M186.227 103.905c.349.074.545.133.902.136 2.643.885 2.486 1.9 2.91 4.45-.207.391-.36.73-.645 1.07-.362.258-.66.443-.981.75-.254.47-.296.554-.932.751-.296-.15-2.657-.44-3.176-.525-.337-.145-.567-.354-.855-.58l-.66-1.374c.036-.647.022-.683-.15-1.318.006-.61.342-1.62.521-2.243.413-.436.177-.318.675-.474.882-.33 1.445-.631 2.391-.643m-72.342 1.617c1.171.062 1.825-.16 2.902.34.248.199.735.526.846.772 1.833 2.38.677 2.718.11 4.912-.195.294-.332.525-.577.783-.765.058-1.63.148-2.386.167l-1.01-.076c-.875-.435-1.143-.717-1.84-1.36l-.564-1.105c-.274-1.64.44-2.827 1.477-4.006z"/><path fill="#37bdf1" d="M183.161 105.022c-1.686-.688-3.73-3.468-5.18-4.691-1.305-1.1-2.794-2.15-3.994-3.34-.564-.56-1.625-2.246-1.87-2.99l.138-.194c1.12.355 2.208 2.08 3.087 2.841 2.928 2.54 5.729 5.186 8.494 7.9-.498.156-.262.038-.675.474m-66.374.839c2.683-1.653 5.538-6.428 8.106-8.62 1.022-.873 1.645-2.421 3.056-3.487-1.616 3.776-2.326 4.435-5.263 7.418-.779.79-1.823 2.101-2.668 2.981-.553.576-2.002 1.96-2.385 2.481-.111-.246-.598-.573-.846-.773m55.638 3.088c2.934-.732 7.814-1.006 10.215-1.684.173.635.186.671.15 1.318-2.138-.14-7.513 1.183-10.066 1.174-.102-.153-.233-.607-.299-.808m-63.777-10.811.77-.618c.93 1.82 1.743 3.524 2.762 5.305.474.828 1.337 2.013 1.705 2.697l-1.042.427c-.418-.82-1.365-2.035-1.912-3.076-.657-1.247-1.591-3.83-2.283-4.735m79.332-2.896.7.59c-.607 1.84-.925 5.849-1.55 8.209-.358-.003-.554-.062-.903-.136.312-2.26 1.024-6.692 1.753-8.663"/><path fill="#253598" d="M138.172 185.416c4.368.181 10.392-.269 14.52.136l1 .105-.295.317c-.196.186-.746.914-.81.96 1.575 2.867 5.582 7.972 6.702 10.818a28 28 0 0 1-1.297 1.708l-.14 1.086c.382.832.81 1.854 1.31 2.603.374.305.6.555 1.068.646-.899.65-2.894 4.348-3.663 5.452-1.006 1.444-2.4 3.234-3.281 4.729-.45.764-.825 1.568-1.121 2.403-.954.172-1.414.063-2.326.14l-.504.004q-.877-.064-1.755-.113c-1.162-2.531-2.973-4.686-4.401-7.028-1.777-2.912-3.494-6.047-5.512-8.81.632-.067.607-.217.796-.751.27-.57.682-1.258.996-1.82.644-.404.511-.493.62-1.207-.434-.348-.49-.487-.781-.946l-.012-.183c-.399-.492-.439-.543-.699-1.115-.388-.382-1.216-.84-1.71-1.14.026-.686.11-1.44.17-2.13q.636-2.918 1.125-5.864"/><path fill="#253598" d="M138.172 185.416c4.368.181 10.392-.269 14.52.136l1 .105-.295.317c-.196.186-.746.914-.81.96 1.575 2.867 5.582 7.972 6.702 10.818a28 28 0 0 1-1.297 1.708c-.792.06-5.166-.86-6.416-1.059a532 532 0 0 0-11.498-1.607c-.433-.348-.49-.487-.78-.946l-.012-.183c-.399-.492-.439-.543-.699-1.115-.388-.382-1.216-.84-1.71-1.14.026-.686.11-1.44.17-2.13q.636-2.918 1.125-5.864"/><path fill="#253598" d="M138.172 185.416c4.368.181 10.392-.269 14.52.136l1 .105-.295.317c-.196.186-.746.914-.81.96-2.594 1.832-12.151 7.361-13.289 8.914l-.012-.183c-.399-.492-.439-.543-.699-1.115-.388-.382-1.216-.84-1.71-1.14.026-.686.11-1.44.17-2.13q.636-2.918 1.125-5.864"/><path fill="#37bdf1" d="m152.692 185.552 1 .105-.295.317c-.196.186-.746.914-.81.96-2.594 1.832-12.151 7.361-13.289 8.914l-.012-.183c-.399-.492-.439-.543-.699-1.115 1.432-.526 3.492-2.384 4.969-3.274 2.564-1.542 6.926-3.816 9.136-5.724m-12.614 11.242q5.759.741 11.498 1.607c1.25.2 5.624 1.12 6.416 1.06l-.14 1.085c-.832-.284-4.505-.558-5.75-.716-4.134-.523-8.543-1.417-12.643-1.829.644-.404.511-.493.62-1.207m-1.616 3.026c.417 1.1 1.726 2.506 2.362 3.616 1.86 3.253 3.915 6.328 6.049 9.407.832 1.201 1.055 3.342 2.461 3.68q-.877-.064-1.755-.113c-1.162-2.531-2.973-4.686-4.401-7.028-1.777-2.912-3.494-6.047-5.512-8.81.632-.067.607-.217.796-.751m20.698 3.328c.375.305.6.555 1.07.646-.9.65-2.895 4.348-3.664 5.452-1.006 1.444-2.4 3.234-3.281 4.729-.45.764-.825 1.568-1.121 2.403-.954.172-1.414.063-2.326.14.303-.072.665-.125.873-.403 1.164-1.56 1.934-3.372 3.111-4.935 1.944-2.581 3.65-5.283 5.338-8.032"/><path fill="#1e54b0" d="M83.496 152.495q2.247 1.434 4.436 2.957c.853.595 2.826 2.035 3.73 2.423-.188 2.167-.008 3.596 1.799 5.067l-3.2 8.465c-.464 1.219-.99 2.843-1.507 4-.597-2.117-1.849-4.92-2.582-7.16-1.825-5.579-2.381-9.957-2.676-15.752"/><path fill="#253598" d="M137.076 185.457c.417-.039.683-.094 1.096-.041q-.489 2.947-1.125 5.863c-.06.69-.144 1.445-.17 2.13l-.726-.168c-1.139.038-1.52.23-2.515.798-.662-1.452-6.493-6.564-8.213-8.603 3.517.21 7.976-.035 11.653.02"/><path fill="#37bdf1" d="M137.076 185.457c.417-.039.683-.094 1.096-.041q-.489 2.947-1.125 5.863l-.297-.19a8 8 0 0 1-.192-1.147c-.062-.791.379-3.62.518-4.485"/><path fill="#37bdf1" d="M136.558 189.942c.056.469.082.678.192 1.147l.297.19c-.06.69-.144 1.445-.17 2.13l-.726-.168q.233-1.646.407-3.3"/><path fill="#00f8f8" d="m136.151 193.24.726.17c.494.3 1.322.758 1.71 1.14.26.572.3.623.7 1.115l.011.183c.29.459.347.598.78.946-.108.714.025.803-.619 1.207-.314.562-.726 1.25-.996 1.82-.189.534-.164.684-.796.751-2.628-.01-3.098.318-4.965-1.74-.242-.353-.358-.7-.52-1.096.12-1.277.304-1.766.707-2.962.302-.436.335-.43.747-.735.995-.568 1.376-.76 2.515-.798M93.81 156.328c.576-.016.643-.056 1.202-.242l.827.163c.69.056.761.133 1.392.47.71.717.936 1.005 1.522 1.825.004 1.42.056 1.744-.59 3.041-.099.668.042.399-.38.865l-.537.183c-.917.384-2.25.948-3.234.784l-.551-.475c-1.807-1.47-1.987-2.9-1.8-5.067.084-.155.333-.495.445-.658.692-.076 1.132-.483 1.703-.889"/><path fill="#37bdf1" d="m124.33 185.438 1.093-.002c1.72 2.04 7.55 7.151 8.213 8.603-.412.305-.445.299-.747.735a71 71 0 0 0-6.154-6.183c-.675-.602-1.552-2.191-2.229-2.957zm-30.87-22.496.552.474c-.6 2.286-3.352 11.161-4.574 13.004-.462-.442-.44-.418-.684-1.012.517-1.158 1.043-2.782 1.507-4zm38.723 34.794c.16.396.277.743.52 1.096q-.458.29-.925.565c-.84.493-8.55 4.098-9.036 3.973l-.027-.242c.562-1.15 2.71-2.014 3.877-2.482 2.048-.824 3.725-1.704 5.59-2.91m-34.936-35.103.537-.183c.422-.466.281-.197.38-.865 1.41 1.874 2.385 2.04 3.655 3.441-.17.375-.255.592-.47.947-.954-.89-2.946-3.082-4.102-3.34"/><path fill="#253598" d="m279.401 146.218-.111.247-.124-.11a27 27 0 0 1-.065-1.834l-.193.157-.115-.028c-.08-1.232-.222-5.703.055-6.746.27 2.824.517 5.476.553 8.314"/><path fill="#28157b" d="m202.67 268.091.252-.537-.283-.11.057-.154c.586-.354 2.107-1.165 2.762-1.197-.314.21-.238.097-.392.4l.305.218c-.845.509-1.808.948-2.701 1.38"/><path fill="url(#color-3)" d="M88.32 216.221c.656-2.701 3.234-7.134 4.449-9.852l13.122-28.726c.958-2.067 2.035-4.1 2.982-6.16l26.46-57.475 11.023-23.918c1.357-2.886 2.031-5.381 3.697-8.26.364.703.883 1.627 1.164 2.348 1.474 4.229 3.838 8.06 5.6 12.103 1.843 4.225 3.575 8.384 5.75 12.481.73 1.375 1.186 3.306 1.914 4.646 1.984 3.646 3.4 7.516 5.127 11.238l11.51 24.787c1.87 3.948 3.695 7.715 5.403 11.758 1.087 2.571 2.391 4.725 3.406 7.437.148.333.279.627.448.951-.974 1.937-3.186 3.712-4.69 5.313-1.258 1.336-2.694 3.284-4.103 4.383l-.73-.672c-2.736-2.51-7.388-1.963-10.946-1.96l-10.206.007c-13.644-.018-27.755.186-41.366-.051-.47 1.328-1.488 3.34-2.11 4.718l-4.983 10.837c-.885 1.906-1.631 3.914-2.51 5.834l-8.56 18.24q-5.925.037-11.85-.007m61.9-50.968 16.19-.004c3.093.003 6.865.09 9.928-.082-1.317-2.467-1.969-4.339-3.095-6.807l-5.699-12.224c-1.853-4.02-3.944-7.81-5.506-12.006-.704-1.895-2.253-4.04-2.95-5.974-1.466-4.075-3.385-7.777-5.298-11.639-1.301-2.628-1.963-5.787-3.873-8.135-2.272 3.957-3.467 8.194-5.683 12.184a22 22 0 0 0-.968 1.982c-2.48 6.11-5.538 11.898-8.055 17.996-1.038 2.514-2.703 5.061-3.72 7.622-1.47 3.623-3.113 6.866-4.775 10.387-1.055 2.234-1.776 4.51-3.052 6.678q13.278.096 26.556.022"/><path fill="#37bdf1" d="M189.927 168.628c.148.333.279.627.448.951-.974 1.937-3.186 3.712-4.69 5.313-1.258 1.336-2.694 3.284-4.103 4.383l-.73-.672c2.2-2.561 6.682-7.645 9.075-9.975"/><path fill="#00f8f8" fill-opacity=".988" d="M149.917 108.382c1.91 2.348 2.572 5.507 3.873 8.135 1.913 3.862 3.832 7.564 5.298 11.639.697 1.935 2.246 4.08 2.95 5.974 1.562 4.196 3.653 7.985 5.506 12.006l5.699 12.224c1.126 2.468 1.778 4.34 3.095 6.807-3.063.173-6.835.085-9.927.082l-16.191.004q-13.278.075-26.556-.022c1.276-2.168 1.997-4.444 3.052-6.678 1.662-3.521 3.305-6.764 4.774-10.387 1.018-2.56 2.683-5.108 3.72-7.622 2.518-6.098 5.575-11.886 8.056-17.997.227-.56.664-1.432.968-1.98 2.216-3.991 3.41-8.228 5.682-12.185"/><path fill="#1e54b0" d="M150.037 129.443c1.517 2.403 2.661 6.248 3.918 8.853.608 1.6 2.174 3.605 2.688 5.156 1.507 4.553 4.146 8.654 5.982 12.973-4.062.082-8.327.017-12.405.017l-12.723-.007c.904-2.29 2.182-4.42 3.217-6.653.885-1.767 1.495-3.758 2.368-5.517 1.84-3.708 3.769-7.282 5.2-11.183.423-1.157 1.179-2.523 1.755-3.64"/><path fill="url(#color-4)" d="M165.728 201.126c3.179.763 7.985 2.968 11.317 3.957 1.139.336 5.485 1.536 6.1 1.82-.161.128-.66.504-.772.632-.877-.125-2.12-.614-3.06-.837-4.825-1.142-9.284-2.991-13.935-4.683.293-.256.281-.496.35-.889"/></g></svg></svg>