<svg xmlns="http://www.w3.org/2000/svg" width="512" height="512" viewBox="0 0 512 512"><path d="M452 480H276.82L221 120.92h231a28.3 28.3 0 0 1 28.29 28.29v302.5A28.3 28.3 0 0 1 452 480" class="cls-1" style="fill:#cfd5da" /><path d="M452 480H276.82L221 120.92h49.51l209.82 208.22v122.57A28.3 28.3 0 0 1 452 480" class="cls-1" style="fill:#cfd5da" /><path d="m276.82 480 77-84.57H247.75z" style="fill: #393a7e;" /><path d="M60 32h176.75l117.07 363.43H60a28.3 28.3 0 0 1-28.29-28.28V60.29A28.3 28.3 0 0 1 60 32" class="cls-3" style="fill: #6366f1;" /><path d="M415.11 243.76H452v-17.29h-84v-27.89h-28.32v28.28h-45.57v16.9h100.57s-6 28.76-30.33 55.33C345.93 277.36 340.86 265 340.86 265h-22.39s4.27 10.48 18.46 31.43c2.6 3.84 7.61 9.78 13.9 16.75-18.58 19-28.83 28.43-28.83 28.43l14.14 11.79s13-11.77 27.45-26.43c23.42 24.78 52.7 53.53 52.7 53.53l13.36-14.53s-17.29-16.5-49.11-49.11q-1.91-1.96-3.7-3.85a250 250 0 0 0 14.31-17c18.46-24.36 23.96-52.25 23.96-52.25" class="cls-3" style="fill: #6366f1;" /><path d="M157 197.75v28.72h40.1a34.6 34.6 0 0 1-14.73 22.73 42 42 0 0 1-16.21 6.4 48 48 0 0 1-17.56 0 43 43 0 0 1-16.39-7.08 45.7 45.7 0 0 1-16.86-22.6 44.6 44.6 0 0 1 0-28.66 46 46 0 0 1 10.68-17.35 43.2 43.2 0 0 1 43.59-11.33 40 40 0 0 1 15.87 9.33c4.52-4.5 9-9 13.54-13.53 2.37-2.43 4.86-4.75 7.15-7.24a71 71 0 0 0-23.68-14.68 73.75 73.75 0 0 0-91.25 36.04A73.66 73.66 0 0 0 138 282.65a78.6 78.6 0 0 0 37.65.4 64.9 64.9 0 0 0 48.75-46.23 86.4 86.4 0 0 0 1.88-39.07Z" style="fill:#fff" /></svg>