<svg xmlns="http://www.w3.org/2000/svg" id="svg" width="512" height="512" viewBox="0 0 300 300"><svg xmlns="http://www.w3.org/2000/svg"><defs><clipPath id="clip-1"><path fill="none" d="M0 0h300.001v300.001H0z"/></clipPath></defs><g fill="none" stroke-miterlimit="10" clip-path="url(#clip-1)" font-family="none" font-size="none" font-weight="none" style="mix-blend-mode:normal" text-anchor="none"><path fill="#565656" d="M56.293 70.08c9.347-.184 19.333-.01 28.72-.011l64.624-.025c11.686-.005 23.675.157 35.338-.069l-.036 27.762c-4.928-.286-11.635-.233-16.668-.178.254 6.858.098 14.214.112 21.108.009 4.064.163 10.88-.315 14.663 17.306-.386 34.796.055 52.278-.302.038 8.923.313 19 .044 27.83-10.731.42-22.584-.14-33.454.06-3.642.067-16.019.247-18.769-.164.444 8.626.151 17.982.224 26.709.035 4.125.212 13.484-.375 17.265 3.644-.362 10.032-.18 13.881-.178l23.573.017c4.537-.002 10.426.098 14.904-.208l.012 17.43c.004 3.168-.093 7.486.175 10.556-9.338-.416-19.328-.254-28.725-.255l-44.334.004c-4.453.435-11.479.042-16.087.068-8.895.05-18.097-.274-26.974.069.179-11.203.01-22.896.01-34.147v-66.586c-.004-11.162-.2-22.836.054-33.958l-32.167-.016c-4.011-.004-12.255-.233-16.007.195q.17-13.82-.038-27.639"/><path fill="#fec300" d="M137.089 97.414c9.8.407 21.132-.034 31.182.145.254 6.858.098 14.214.112 21.108.009 4.064.163 10.88-.315 14.663 17.306-.386 34.796.055 52.278-.302.038 8.923.313 19 .044 27.83-10.731.42-22.584-.14-33.454.06-3.642.067-16.019.247-18.769-.164.444 8.626.151 17.982.224 26.709.035 4.125.212 13.484-.375 17.265 3.644-.362 10.032-.18 13.881-.178l23.573.017c4.537-.002 10.426.098 14.904-.208l.012 17.43c.004 3.168-.093 7.486.175 10.556-9.338-.416-19.328-.254-28.725-.255l-44.334.004c-2.802-.203-7.519-.067-10.448-.059.386-14.48.03-30.847.03-45.46zm47.886-27.439c2.621-.24 6.261-.074 8.952.001 8.814.247 17.635-.193 26.42-.226.035 9.261.177 18.752.062 27.996-11.467.007-24.137.302-35.47-.009z"/></g></svg></svg>