<svg xmlns="http://www.w3.org/2000/svg" id="Nuca" width="512" height="512" viewBox="0 0 300 300">
  <defs>
    <radialGradient id="CoreToOrbit" cx="150" cy="150" r="150" gradientUnits="userSpaceOnUse"><stop offset="0%" stop-color="#4b1010" /><stop offset="35%" stop-color="#990000" /><stop offset="70%" stop-color="#e62e2e" /><stop offset="85%" stop-color="#d42929" /><stop offset="100%" stop-color="#f44234" /></radialGradient>
  </defs>
  <style>
    #Nuca {transform-origin: center;}
    #K-Orbit, #L-Orbit, #M-Orbit {transform-box: fill-box;transform-origin: center;}
    #K-Orbit {animation: spinK 3s cubic-bezier(0.2, 0.8, 0.2, 1) forwards;}
    @keyframes spinK { from { transform: rotate(540deg); } to   { transform: rotate(0deg); }}
    #L-Orbit { animation: spinL 3s cubic-bezier(0.2, 0.8, 0.2, 1) forwards;}
    @keyframes spinL {from { transform: rotate(0deg); } to   { transform: rotate(540deg); }}
    #M-Orbit {animation: spinM 3s cubic-bezier(0.2, 0.8, 0.2, 1) forwards;}
    @keyframes spinM {from { transform: rotate(720deg); }to   { transform: rotate(0deg); }}
    #Core {opacity: 0;transform: scale(0.6);transform-origin: center; animation: PopOut 0.8s ease-out forwards;animation-delay: .5s;}
    @keyframes PopOut {0%   { opacity: 0; transform: scale(0.6); }70%  { opacity: 1; transform: scale(1.15); }100% { opacity: 1; transform: scale(1); }}
  </style>
  <path id="K-Orbit" fill="url(#CoreToOrbit)" d="M145.251 8.285c3.712-.208 7.945-.077 11.656.087a141.1 141.1 0 0 1 70.903 22.9c4.328 2.828 8.175 5.131 9.265 10.493.68 3.234.04 6.606-1.782 9.363a11.76 11.76 0 0 1-7.746 5.08c-4.202.77-6.937-.672-10.234-2.945-26.917-18.557-58.1-24.906-90.17-18.883A117.42 117.42 0 0 0 53.4 82.678c-18.764 27.478-25.144 57.758-19.025 90.431 2.006 9.192 4.572 17.71 8.633 26.236.92 1.932 1.971 4.384 3.138 6.155 4.546 1.752 8.054 4.01 10.453 8.435a17.6 17.6 0 0 1 1.39 13.445c-2.84 9.317-12.788 14.524-22.025 11.511a17.52 17.52 0 0 1-10.182-8.716c-2.242-4.44-2.319-8.609-.796-13.245-2.982-5.141-5.053-10.046-7.229-15.517-6.278-15.79-9.116-31.141-9.673-48.08A142.04 142.04 0 0 1 46.04 53.352a141.33 141.33 0 0 1 99.211-45.067m112.563 52.862c1.078-.097 3.041.122 4.097.339 4.19.857 7.87 3.341 10.23 6.907 2.658 4.045 3.131 8.354 2.154 12.996.382.962 1.465 2.892 1.977 3.878a122 122 0 0 1 3.18 6.506 142.5 142.5 0 0 1 9.497 29.22 142 142 0 0 1-19.989 106.51 141.55 141.55 0 0 1-88.613 60.898 142.72 142.72 0 0 1-109.005-20.313c-4.56-2.994-8.303-5.587-8.803-11.483a12.2 12.2 0 0 1 3.008-9.036 12.05 12.05 0 0 1 11.923-3.743c3.393.815 6.683 3.573 9.62 5.471 20.864 13.483 46.293 19.846 71.112 18.109a117.38 117.38 0 0 0 80.947-40.512 117.07 117.07 0 0 0 28.51-84.683 116.8 116.8 0 0 0-11.133-42.599c-.643-1.347-2.66-5.729-3.474-6.56-1.141-1.167-3.677-1.84-5.573-3.592-3.188-2.95-4.933-6.764-5.185-11.075a16.67 16.67 0 0 1 4.15-11.85c3.113-3.494 6.756-5.103 11.37-5.388"/>
  <path id="L-Orbit" fill="url(#CoreToOrbit)" d="M146.268 48.549c20.718-1.121 43.18 5.5 60.328 17.087a102.37 102.37 0 0 1 35.956 42.414 76 76 0 0 1 2.762 6.698c1.098 3.082 1.503 5.561 3.82 7.992 1.599 1.678 2.775 4.92 3.2 7.189a17.3 17.3 0 0 1-2.796 12.988c-2.6 3.746-6.696 6.203-11.161 7.001a17.47 17.47 0 0 1-13.091-2.95c-6.802-4.807-9.381-14.081-5.403-21.57.714-1.342 1.51-2.454 2.394-3.68-.869-2.567-2.701-6.257-3.998-8.644a78.46 78.46 0 0 0-46.856-37.682 76.9 76.9 0 0 0-29.502-2.628 78.25 78.25 0 0 0-61.082 42.231 95 95 0 0 0-3.73 8.357c-.921 2.396-1.667 4.893-2.564 7.3-2.887 7.928-13.835 9.62-19.589 3.813-5.254-5.302-3.59-10.16-1.495-16.291a102.7 102.7 0 0 1 20.557-35.482 100.88 100.88 0 0 1 59.906-32.954c4.239-.679 8.083-.94 12.344-1.19M63.884 159.144c2.211-.201 4.958.316 7.017 1.11 4.1 1.544 7.4 4.686 9.143 8.705 2.238 5.12 1.717 8.967-.219 13.928 7.27 16.907 22.868 31.17 39.653 38.386a77.4 77.4 0 0 0 59.343.74 77.76 77.76 0 0 0 41.995-40.015c1.553-3.37 2.813-6.9 3.872-10.455.306-1.025.631-2.144 1.058-3.118a11.5 11.5 0 0 1 6.438-6.144 12.5 12.5 0 0 1 9.54.279 11.93 11.93 0 0 1 6.214 6.663c.563 1.493.806 3.088.712 4.682-.287 4.56-4.381 14.373-6.337 18.634-4.058 8.43-8.306 15.377-14.325 22.61a101.25 101.25 0 0 1-68.398 35.922 101.44 101.44 0 0 1-91.744-41.39 101 101 0 0 1-7.837-12.788c-1.176-2.286-2.267-5.048-3.612-7.197-.723-.785-1.726-1.317-2.515-2.038-10.695-9.772-4.374-27.471 10.002-28.514"/>
  <path id="M-Orbit" fill="url(#CoreToOrbit)" d="M169.396 86.037c6.189-.877 13.106 2.313 16.292 7.71.624 1.057 1.336 3.117 2.187 3.933 1.466 1.406 3.37 2.529 4.838 3.961 19.787 17.297 26.867 45.76 17.84 70.365a64.26 64.26 0 0 1-26.446 32.369c-4.248 2.6-7.401 3.921-12.332 2.732a11.4 11.4 0 0 1-3.955-1.919c-6.675-4.982-6.192-15.136.583-19.715 1.901-1.285 4.183-2.004 6.097-3.45 3.149-2.38 5.81-4.976 8.146-8.146a40 40 0 0 0 7.31-30.09c-1.34-8.706-6.232-18.862-13.451-24.137q-1.237.259-2.483.471a17 17 0 0 1-12.892-3.052 17.06 17.06 0 0 1-6.8-11.212c-.702-4.66.49-9.408 3.31-13.184 2.97-3.933 6.951-5.957 11.756-6.636m-46.521 6.593c3.063-.392 6.16.412 8.644 2.247 2.53 1.866 4.146 4.77 4.582 7.867a11.9 11.9 0 0 1-4.806 11.396c-1.628 1.194-3.553 2.122-5.291 3.441-3.36 2.55-5.829 4.875-8.346 8.249a40.1 40.1 0 0 0-7.706 30.305 40.17 40.17 0 0 0 15.56 25.885c4.311-1.758 8.612-2.16 13.062-.536a16.27 16.27 0 0 1 9.211 8.505 16.3 16.3 0 0 1 .425 12.66c-1.627 4.351-4.527 7.297-8.714 9.211-1.207.506-2.8.919-4.088 1.114-4.88.78-9.854-.657-13.566-3.919-.734-.644-2.177-2.607-2.777-2.99-2.504-1.6-5.119-3.063-7.515-4.845a64.17 64.17 0 0 1-25.2-42.623 64.22 64.22 0 0 1 12.116-46.943c4.757-6.342 16.522-17.906 24.409-19.024"/>
  <path id="Core" fill="url(#CoreToOrbit)" d="M148.682 128.84c12.318-1.365 23.408 7.519 24.766 19.837 1.356 12.32-7.534 23.406-19.853 24.756-12.31 1.35-23.385-7.534-24.74-19.841-1.357-12.31 7.518-23.39 19.827-24.753"/>
</svg>