<svg xmlns="http://www.w3.org/2000/svg" width="512" height="512" id="MainRoute-Core_Svg" viewBox="0 0 600 600">
  <defs>
    <radialGradient id="CoreToOrbit" cx="300" cy="300" r="300" gradientUnits="userSpaceOnUse"><stop offset="0%" stop-color="#4b1010" /><stop offset="35%" stop-color="#990000" /><stop offset="70%" stop-color="#e62e2e" /><stop offset="85%" stop-color="#d42929" /><stop offset="100%" stop-color="#f44234" /></radialGradient>
  </defs>
  <path id="K-Orbit" fill="url(#CoreToOrbit)" d="M590.013 281.735c.335 2.41.972 4.355.937 6.288-.24 13.439.223 26.961-1.128 40.296-2.911 28.721-9.56 56.587-20.633 83.424-9.304 22.545-21.182 43.61-35.78 62.943-10.012 13.26-21.286 25.762-33.245 37.31-17.493 16.893-37.242 31.001-58.581 42.886-22.155 12.338-45.577 21.432-70.03 27.677-12.159 3.105-24.72 5.175-37.226 6.253-16.973 1.462-34.105 2.55-51.099 1.924-20.624-.762-41.004-4.527-60.95-10.1-19.106-5.34-37.5-12.596-55.11-21.678-8.848-4.562-17.448-9.703-25.734-15.22-4.78-3.183-9.716-5.246-15.266-5.67-17.269-1.32-27.283-16.27-28.239-28.463-1.75-22.333 12.96-34.396 27.624-36.472 19.216-2.722 36.314 10.34 37.628 29.486.144 2.104 2.253 4.776 4.197 5.946 18.695 11.251 38.034 21.377 59.118 27.258 13.96 3.894 28.244 7.232 42.606 8.912 16.062 1.878 32.445 2.85 48.567 1.975 25.078-1.363 49.478-7.025 72.886-16.545 17.047-6.934 33.274-15.281 48.548-25.614 16.802-11.366 31.825-24.763 45.361-39.703 16.14-17.814 29.31-37.843 39.38-59.676 9.745-21.132 16.574-43.229 20.29-66.325 2.805-17.433 3.785-34.958 2.675-52.432-1.709-26.898-7.474-53.02-17.642-78.167-7.605-18.808-17.65-36.14-29.184-52.703-1.21-1.738-2.122-3.002-.145-4.96 9.588-9.491 19.047-19.112 29.182-29.322 3.768 4.958 7.722 9.295 10.686 14.228 7.92 13.181 16.106 26.276 22.919 40.034 10.47 21.145 18.126 43.444 22.272 66.732 2.297 12.896 3.443 25.998 5.116 39.478M71.139 478.634c-8.264-12.552-16.45-24.75-24.283-37.17-10.108-16.027-16.895-33.67-22.575-51.563-4.523-14.25-7.73-29.042-10.073-43.824-2.34-14.756-3.968-29.799-3.952-44.714.023-21.844 2.56-43.524 7.38-64.999 6.077-27.071 16.083-52.49 29.194-76.776 8.651-16.024 19.305-30.697 30.806-44.818 18.483-22.696 40.32-41.619 64.723-57.512 29.889-19.466 62.179-33.679 97.392-40.142 16.262-2.985 32.848-4.254 49.31-6.088 18.333-2.043 36.441.44 54.573 2.89 26.107 3.53 51.054 10.923 75.153 21.422 16.417 7.152 31.96 15.773 46.599 26.144 2.779 1.97 7.084 2.052 10.746 2.459 14.605 1.623 26.995 14.546 27.945 29.233.743 11.474-2.482 20.888-11.273 28.653-10.484 9.26-32.125 10.073-42.301.245-6.341-6.124-11.24-12.785-11.596-22.004-.234-6.07-5.678-7.54-9.615-9.896-23.722-14.193-49.068-24.604-75.972-30.94-22.683-5.342-45.865-6.546-68.985-5.057-36.582 2.357-71.153 12.49-103.252 30.351-14.608 8.128-28.791 17.095-40.817 28.84-11.94 11.662-24.21 23.162-34.752 36.03-12.76 15.576-22.59 33.193-30.715 51.776-6.45 14.751-11.842 29.776-15.015 45.508-2.1 10.416-3.722 20.985-4.649 31.565-.953 10.882-1.254 21.87-1.035 32.795.377 18.766 3.622 37.151 8.535 55.274 4.996 18.426 12.219 35.948 21.456 52.58 5.068 9.126 11.167 17.679 16.79 26.497.778 1.22 1.494 2.48 2.354 3.913-9.93 9.916-19.694 19.694-29.533 29.397-.425.419-1.537.14-2.563-.069" />
  <path id="L-Orbit" fill="url(#CoreToOrbit)" d="M151.749 152.751c57.428-54.666 125.183-74.563 201.224-54.641 84.938 22.252 134.618 80.433 154.61 165.688h-40.707c-2.932-8.532-5.615-17.06-8.783-25.406-6.68-17.6-16.609-33.239-28.734-47.636-15.526-18.433-34.223-32.659-55.92-42.86-16.337-7.68-33.376-13.333-51.536-14.92-7.21-.629-14.43-2.012-21.62-1.859-36.72.784-70.404 11.438-99.965 33.369-18.928 14.043-35.256 30.948-46.04 52.18-6.55 12.898-11.653 26.55-16.978 40.033-.704 1.782.474 5.12 1.893 6.797 10.08 11.918 9.41 32.102-1.635 43.343-17.51 17.821-47.15 11.347-54.735-11.136-4.62-13.694-.872-29.778 11.003-38.406 2.097-1.523 2.851-5.325 3.58-8.236 6.793-27.185 18.627-51.983 35.484-74.302 5.74-7.601 12.38-14.524 18.859-22.008m289.987 303.014c-12.002 10.504-24.534 19.59-38.075 27.43-20.054 11.61-41.603 18.898-64.135 23.476-17.929 3.643-36.21 4.514-54.345 3.13-28.457-2.171-55.756-9.465-81.128-22.845-14.062-7.415-27.31-16.097-39.373-26.631-14.993-13.093-28.295-27.553-39.175-44.243-15.647-24.002-26.185-50.04-31.399-78.216-.26-1.407-.033-2.904-.033-4.856 12.831 0 25.29-.086 37.743.15 1.089.02 2.793 1.99 3.106 3.314 3.66 15.528 8.95 30.433 16.555 44.474 10.378 19.164 23.915 35.671 40.613 49.784 19.894 16.814 42.366 28.462 67.585 34.381 11.263 2.644 22.948 3.773 34.512 4.789 22.387 1.967 43.966-2.26 64.96-9.867 19.122-6.93 36.137-17.364 51.784-30.347 17.386-14.425 30.766-31.999 40.892-51.903 5.37-10.555 8.785-22.115 12.849-33.305.432-1.189-.272-3.317-1.182-4.384-10.685-12.528-10.932-32.971 1.852-45.76 10.866-10.87 31.219-12.529 44.393-1.436 13.98 11.77 14.31 33.674 5.302 44.995-.816 1.026-1.448 2.406-2.512 2.993-7.992 4.406-9.36 12.53-11.425 20.19-4.732 17.54-12.72 33.62-21.89 49.156-10.043 17.015-22.878 31.778-37.474 45.53" />
  <path id="M-Orbit" fill="url(#CoreToOrbit)" d="M167.006 320.89c-3.548-29.631.333-57.552 14.384-83.676 16.019-29.784 40.042-50.556 71.337-63.12 1.57-.63 3.219-1.735 4.186-3.082 7.214-10.044 17.411-14.637 29.2-13.635 15.21 1.293 25.725 9.67 29.766 24.894 3.539 13.329-1.914 27.72-13.08 35.301-11.417 7.75-27.393 7.293-38.698-.791-1.332-.953-4.157-1.178-5.594-.42-26.818 14.148-44.075 35.913-50.392 65.66-6.065 28.56.695 54.61 18.345 77.491 9.765 12.66 22.063 22.826 37.396 28.485 5.045 1.862 7.729 4.244 7.317 10.329-.65 9.617-.212 19.31-.16 28.972.018 3.58-.74 5.086-5 3.932-20.288-5.495-38.192-15.116-54.23-28.76-13.354-11.363-23.486-25.092-31.579-40.327-6.761-12.731-10.81-26.552-13.198-41.254m228.242 76.376c-12.731 11.483-26.203 21.137-41.79 27.752-3.438 1.459-6.655 4.255-9.06 7.185-9.375 11.43-24.594 15.842-38.515 10.68-12.526-4.644-21.373-17.974-20.83-32.042.496-12.82 6.743-22.472 18.032-28.258 11.123-5.7 22.39-5 32.933 1.941 3.05 2.008 5.466 2.596 8.933.582 14.562-8.46 26.984-19.185 35.907-33.538 7.933-12.76 12.78-26.575 14.266-41.727 2.544-25.948-5.185-48.765-20.927-68.779-10.142-12.895-23.283-22.704-38.966-28.233-5.78-2.037-6.34-5.933-6.203-10.723.278-9.616.636-19.23.988-28.844.047-1.285.253-2.565.453-4.498 45.372 11.794 78.538 38.306 95.061 81.563 20.765 54.36 9.912 103.914-30.282 146.939" />
  <path id="Core" fill="url(#CoreToOrbit)" d="M344.766 341.732c-13.083 13.877-29.153 19.973-47.533 19.155-28.041-1.247-52.055-22.455-56.296-50.404-3.287-21.668 3.248-39.78 18.897-54.79 8.373-8.03 18.683-12.544 29.878-14.539 21.267-3.788 39.668 2.632 54.64 17.89 8.978 9.15 14.023 20.496 15.76 33.44 2.524 18.79-3.127 34.802-15.346 49.248" />
</svg>