<svg xmlns="http://www.w3.org/2000/svg" width="512" height="512"><path fill="#f2bbc0" d="M294.5 35.5q63.007-.5 126 1a669 669 0 0 0 17.5 30 20.6 20.6 0 0 0 2 6l15 24a227 227 0 0 0 18 32 60.5 60.5 0 0 1 4.5 11.5 2412 2412 0 0 1-23.5 39.5 2725 2725 0 0 1-34.5 52 307 307 0 0 0-12.5-20 10620 10620 0 0 1-45.5-83.5q-62.715-.008-125-2a4388 4388 0 0 0 58-90.5"/><path fill="#f2bbc0" d="M230.5 145.5q56.009-.5 112 1a2527 2527 0 0 0 55.5 93 10.1 10.1 0 0 1 1.5 6q-54.502.25-109-.5l-6.5-8.5a802 802 0 0 0-28-46 248 248 0 0 0-19-31 133 133 0 0 0-6.5-14m-143 6q52.509-.5 105 1a5738 5738 0 0 1-65 104.5 10395 10395 0 0 1 65 105.5q-52.5 2-105 0-32.27-51.55-64.5-103-1-2 0-4a7999 7999 0 0 1 64.5-104"/><path fill="#f2bbc0" d="M210.5 159.5q7.769 6.078 10.5 16a43368 43368 0 0 1 49.5 81.5 9617 9617 0 0 1-46.5 77.5 80.6 80.6 0 0 0-5 11 104 104 0 0 0-7.5 10q-8.63-9.741-13.5-22a417 417 0 0 1-15-23 2381 2381 0 0 1-30.5-53 9037 9037 0 0 1 58-98m79 103q55.509-.5 111 1a2444 2444 0 0 0-58 99q-55.991 1.5-112 1a184 184 0 0 1 7.5-16 372894 372894 0 0 1 51.5-85"/><path fill="#f2bbc0" d="M411.5 283.5q1.494-.129 2.5 1a6459 6459 0 0 0 51.5 97 2950 2950 0 0 1-59 97.5q-62.506 1.25-125-.5a306 306 0 0 0-22.5-41 404 404 0 0 0-22-41 172 172 0 0 0-6.5-16q62.008.5 124-1a6721 6721 0 0 0 57-96"/></svg>