<svg xmlns="http://www.w3.org/2000/svg" id="svg" width="300" height="300" viewBox="0 0 300 300"><svg xmlns="http://www.w3.org/2000/svg"><defs><clipPath id="clip-1"><path fill="none" d="M0 0h299.991v299.991H0z"/></clipPath></defs><g fill="none" stroke-miterlimit="10" clip-path="url(#clip-1)" font-family="none" font-size="none" font-weight="none" style="mix-blend-mode:normal" text-anchor="none"><path fill="#000" d="M0 0h300v300H0z"/><path fill="#000" d="m2.333 2.352 147.68-.026 58.358.029 13.85-.009c1.361 0 5.76-.09 6.872.178 1.028-.224 3.085-.269 4.113-.034 1.484-.243 5.33-.152 7.008-.15l12.8.015 44.622.003.016 147.67.001 147.618-97.265-.009-32.737.002c-5.812 0-11.837-.078-17.636.022-16.457-.213-33.384-.01-49.873-.01l-97.794.005.005-147.66z"/><path fill="#f72317" d="M233.206 2.49c1.484-.243 5.33-.152 7.008-.15l12.8.015 44.622.003.016 147.67c-15.469-.298-31.345.117-46.877-.063l-.004-25.745 23.465.017q-.001-1.187-.03-2.373H250.79c-.013-3.403-.161-8.267.051-11.556l-.262-.013c-.792.925-1.724 2.467-2.347 3.537.352 1.132.22 6.49.211 8.044a340 340 0 0 0-5.373-.01c-5.216 7.653-10.194 15.529-15.316 23.263l-3.68 5.577c-.18.274-1.387 2.172-1.551 2.356-2.78 3.584-4.689 9.703-10.563 9.287-3.794-.268-7.036-3.7-7.326-7.453-.13-1.682.202-3.154.342-4.839-6.201-.278-13.89-.063-20.24-.063l-34.74.012c-.175-7.094-.012-14.905-.014-22.046l.02-38.892c8.186.016 16.94.167 25.078-.027-.45-5.253 1.065-5.475 3.052-9.57l.096-.2c-.153-1.461-.088-4.128-.09-5.678l-.006-10.308c2.908-.002 7.421-.15 10.216.04.6-.554 1.191-1.667 1.63-2.405.547-.697 1.88-2.952 2.419-3.794a900 900 0 0 0 6.297-9.998l7.282-11.514c1.537-2.419 3.21-4.916 4.61-7.403.75-.83 2.462-3.788 3.154-4.86l8.704-13.729c2.527-3.995 2.418-4.753 6.649-7.098 1.028-.224 3.085-.269 4.113-.034"/><path fill="#33a953" d="M233.206 2.49c1.484-.243 5.33-.152 7.008-.15l12.8.015 44.622.003.016 147.67c-15.469-.298-31.345.117-46.877-.063l-.004-25.745 23.465.017q-.001-1.187-.03-2.373H250.79c-.013-3.403-.161-8.267.051-11.556.64-1.68 4.931-7.817 6.232-9.77l9.83-15.044c2.15-3.248 5.392-7.837 7.206-11.13 1.163-3.02.72-4.338.088-7.404.1-4.49.033-9.245.036-13.748l.005-25.081c-4.506-.09-9.238-.018-13.757-.02l-23.4.02c.117-.725.152-1.602.227-2.347.5-5.055 1.198-10.1 1.656-15.156.07-.765-.27-1.889-.46-2.644-.73-2.893-2.868-4.198-5.298-5.494"/><path fill="#fefefe" d="M274.109 74.364c.212 1.38.133 4.562.132 6.088l-.01 10.49.002 20.113c0 3.502.077 7.328-.027 10.81l-23.416-.002c-.013-3.402-.161-8.266.051-11.555.64-1.68 4.931-7.817 6.232-9.769l9.83-15.045c2.15-3.248 5.392-7.837 7.206-11.13"/><path fill="#33a953" d="M150.001 89.068c8.187.016 16.941.167 25.079-.027.191.618.36 1.206.605 1.807.366.647 2.417 3.373 2.452 3.48-.068 9.043-.112 18.506.001 27.54 9.66.004 19.99.188 29.594-.015.1.256-.205 1.837-.26 2.38-.066 2.223-.374 3.959-.583 6.135l-1.141 11.246c-.226 2.095-.304 4.272-.619 6.384-.093.625-.05 1.49-.153 2.06-6.201-.28-13.89-.064-20.24-.064l-34.74.012c-.175-7.094-.012-14.905-.014-22.046z"/><path fill="#000" d="M175.685 90.848c.366.647 2.417 3.373 2.452 3.48-.068 9.043-.112 18.506.001 27.54 9.66.004 19.99.188 29.594-.015.1.256-.205 1.837-.26 2.38l-31.69-.004v-21.767c0-3.262.156-8.51-.097-11.614"/><path fill="#fefefe" d="m237.08 28.13 23.401-.018c4.52 0 9.25-.07 13.757.019l-.005 25.08c-.003 4.504.065 9.26-.036 13.75-3.2-5.508-7.562-4.764-13.17-4.845-3.321-.049-6.814.121-10.126-.04-.045-.461-.02-.674-.296-1.046-1.195-.175-4.573-.095-5.926-.095l-11.313.005c.398-1.588.832-6.709 1.038-8.587l1.881-16.982c.255-2.258.44-5.061.796-7.24m-58.944 66.196.136.047c.684.24 2.354 1.033 2.845 1.082 3.216.319 6.798.17 10.056.165l19.19.018a1240 1240 0 0 0-1.835 17.88c-.15 1.584-.517 7.019-.797 8.334-9.603.203-19.933.019-29.594.016-.113-9.035-.069-18.499-.001-27.542"/><path fill="#33a953" d="M178.132 63.285c2.908-.002 7.421-.15 10.216.04-1.53 3.082-4.46 7.106-6.283 10.129-.653 1.087-3.178 5.169-3.837 5.818-.153-1.462-.088-4.129-.09-5.679zm70.1 50.547c.352 1.132.22 6.49.211 8.044a340 340 0 0 0-5.373-.01c1.238-2.064 3.791-6.14 5.162-8.034"/><path fill="#000" d="m233.366 60.94 11.313-.005c1.353 0 4.731-.08 5.926.095.276.372.251.585.296 1.047-4.976.084-12.215.088-17.393-.01l-.271-.19c-.098-.414-.009-.526.129-.937"/><path fill="#f72317" d="m2.333 2.352 147.68-.026-.032 35.278c.001 7.674-.117 15.693.018 23.342-8.517-.106-17.246-.007-25.78-.007l-.003-32.824-2.334.02v32.8l-65.62.011-.009 60.916-28.139.014.007 2.348c9.324.001 18.852.102 28.16-.023-.16 8.496-.03 17.302-.031 25.822-5.748-.133-11.993-.017-17.776-.017l-36.12-.01z"/><path fill="#fefefe" d="m28.113 28.123 93.769.012v32.8l-65.62.011-.009 60.916-28.139.014z"/><path fill="#fcbc04" d="m2.353 149.996 36.121.01c5.783 0 12.028-.116 17.776.017v25.76l-28.136.007.024 2.34h28.107l.01 65.62 65.613.006.008 28.119 2.334.004c.173-9.191.008-18.91.002-28.13l25.794-.003-.005 35.852c.002 5.928-.089 12.158.014 18.063-16.457-.213-33.384-.01-49.873-.01l-97.794.005z"/><path fill="#fefefe" d="M28.138 178.13h28.107l.01 65.62 65.613.006.008 28.119-93.74.035a493 493 0 0 1-.017-12.514c.264-27.054-.357-54.226.019-81.267"/><path fill="#659df6" d="M250.775 149.965c15.532.18 31.408-.235 46.877.063l.001 147.618-97.265-.009-32.737.002c-5.812 0-11.837-.078-17.636.022-.103-5.905-.012-12.135-.014-18.063l.005-35.852c8.514.014 17.285-.11 25.762.026l.016 28.11 2.344-.01-.002-28.12 72.665-.006-.013-65.612h23.438l.017-2.378-23.444.012z"/><path fill="#fefefe" d="M250.778 178.134h23.438c.242 12.838.026 26.366.025 39.249l-.013 54.496-63.978.005h-21.295c-3.422 0-7.448.1-10.827-.012l-.002-28.12 72.666-.006z"/><path fill="#fefefe" d="M58.593 121.895c8.325-.168 17.44-.06 25.787-.009v2.33l.003 25.774 65.613.016 34.74-.012c6.35 0 14.039-.215 20.24.063-.14 1.685-.472 3.157-.342 4.839.29 3.752 3.532 7.185 7.326 7.453 5.874.416 7.783-5.703 10.563-9.287.221 2.47.126 6.083.124 8.632l-.011 14.078 2.379.012-.008 2.334-2.345.008.003 39.847-44.522.005.004 23.412-56.267.02-.012-23.449-37.482.043c-.218-13.056-.034-26.785-.016-39.885-8.484.056-17.293.097-25.766-.013z"/><path fill="#659df6" d="m149.996 150.006 34.74-.012c6.35 0 14.039-.215 20.24.063-.14 1.685-.472 3.157-.342 4.839.29 3.752 3.532 7.185 7.326 7.453 5.874.416 7.783-5.703 10.563-9.287.221 2.47.126 6.083.124 8.632l-.011 14.078 2.379.012-.008 2.334-2.345.008-44.534.006-.015 39.832c-.757-.005-1.586.002-2.336-.026-8.508.111-17.233.016-25.756.018z"/><path fill="#000" d="m222.636 175.772 2.379.012-.008 2.334-2.345.008-44.534.006-.015 39.832c-.757-.005-1.586.002-2.336-.026l-.003-42.168z"/><path fill="#fcbc04" d="m84.383 149.99 65.613.016.025 67.95-25.825.026-2.308-.024-.02-39.826-37.476-.011c-.017-.768-.01-1.558-.013-2.328-.107-8.506.005-17.278.004-25.803"/><path fill="#000" d="M84.379 175.793c13.195-.03 26.661-.147 39.838-.006l.004 27.308c0 4.888.076 10.015-.025 14.887l-2.308-.024-.02-39.826-37.476-.011c-.017-.768-.01-1.558-.013-2.328"/><path fill="#f72317" d="m58.581 63.283 63.307-.015-.026 16.52c0 2.748-.115 6.628.02 9.29l2.3-.007 25.82-.003-.02 38.892c.002 7.14-.16 14.952.014 22.046l-65.613-.016-.004-25.773v-2.33c-8.346-.053-17.461-.16-25.786.008z"/><path fill="#f72317" d="m124.182 89.071 25.82-.003-.02 38.892c.002 7.14-.16 14.952.014 22.046l-65.613-.016-.004-25.773v-2.33l37.491-.013.012-32.795z"/><path fill="#000" d="m121.882 89.079 2.3-.008c.163 11.625.02 23.506.044 35.156l-39.847-.01v-2.33l37.491-.013z"/><path fill="#fefefe" d="M84.363 89.06c12.32-.133 25.193-.096 37.52.019l-.013 32.795-37.49.012c-.15-3.324-.017-7.747-.017-11.14z"/><path fill="#659df6" d="m225.007 178.118 23.426.004-.007 41.41c0 7.226-.087 14.657.016 21.868l-70.295-.01-.004-23.412 44.522-.005-.003-39.847z"/><path fill="#33a953" d="m150.013 2.326 58.358.029 13.85-.009c1.361 0 5.76-.09 6.872.178-4.23 2.345-4.122 3.103-6.65 7.098L213.74 23.35c-.692 1.073-2.404 4.032-3.154 4.86-2.877-.255-8.11-.101-11.213-.1l-21.247.008a52 52 0 0 0-2.355.004l-.001 32.817-16.817-.02c-2.865.001-6.113-.072-8.954.027-.135-7.649-.017-15.668-.018-23.342z"/><path fill="#fcbc04" d="M58.604 178.106c8.473.11 17.282.069 25.766.013-.018 13.1-.202 26.829.016 39.885l37.482-.043.012 23.448H58.595z"/><path fill="#fefefe" d="m121.888 63.268 56.244.017.006 10.308c.002 1.55-.063 4.217.09 5.679l-.096.198c-1.987 4.096-3.502 4.318-3.052 9.57-8.138.195-16.892.044-25.079.028l-25.819.003-2.3.008c-.135-2.663-.02-6.543-.02-9.291zm121.182 58.597q2.687-.016 5.373.011l-.01 56.246-23.426-.004.008-2.334-2.38-.012.012-14.078c.002-2.549.097-6.161-.124-8.632.164-.184 1.371-2.082 1.551-2.356l3.68-5.577c5.122-7.734 10.1-15.61 15.316-23.264m-64.944-93.747 21.247-.009c3.102 0 8.336-.154 11.213.102-1.4 2.487-3.073 4.984-4.61 7.403l-7.282 11.514a900 900 0 0 1-6.297 9.998c-.54.842-1.872 3.097-2.418 3.794-3.838.091-7.978.013-11.838.011-.161-10.79-.022-21.997-.015-32.813"/></g></svg></svg>