<svg xmlns="http://www.w3.org/2000/svg" id="svg" width="300" height="300" viewBox="0 0 300 300"><svg xmlns="http://www.w3.org/2000/svg"><defs><clipPath id="clip-1"><path fill="none" d="M0 0h299.991v299.991H0z"/></clipPath></defs><g fill="none" stroke-miterlimit="10" clip-path="url(#clip-1)" font-family="none" font-size="none" font-weight="none" style="mix-blend-mode:normal" text-anchor="none"><path fill="#000" d="M46.71 0h206.104l32.475 32.405 9.218 9.225c1.689 1.689 3.945 3.835 5.493 5.606V251.87c-2.225 2.439-4.894 5.023-7.23 7.386l-11.973 12.1L252.583 300H47.319c-1.808-1.638-3.947-3.896-5.712-5.663l-10.643-10.642L0 252.71V46.693z"/><path fill="#fe0000" d="M143.64 48.247c56.354-3.514 104.887 39.32 108.402 95.673s-39.316 104.887-95.67 108.405c-56.355 3.517-104.891-39.318-108.407-95.673s39.32-104.89 95.676-108.405"/><path fill="#000" d="M143.545 55.62c52.3-3.566 97.584 35.954 101.126 88.256s-35.998 97.567-88.302 101.084c-52.27 3.516-97.498-35.993-101.038-88.26S91.28 59.185 143.545 55.62"/><path fill="#fe0000" d="M178.513 111.554c5.583-.154 11.902-.012 17.548-.01l36.05-.074c1.253 3.251 2.567 5.797 3.777 9.323a91.05 91.05 0 0 1-4.3 69.262c-1.405 2.667-2.883 5.327-4.149 8.058-.976-1.872-2.523-4.285-3.621-6.208l-9.02-15.743-25.146-43.572a1251 1251 0 0 0-7.279-12.546c-1.033-1.743-4.122-6.72-4.685-8.267l.147-.186zM72.524 102.78c1.26 1.544 3.572 5.83 4.69 7.772l8.438 14.637 23.94 41.475 8.11 14.07c1.563 2.708 3.24 5.748 4.91 8.37q-6.63-.067-13.261-.042l-27.396.019c-4.604.011-9.45-.072-14.03.07-2.02-4.729-3.663-8.424-5.073-13.386a91.64 91.64 0 0 1 2.736-58.936c1.987-4.997 4.33-9.366 6.936-14.05M197.167 154.9c1.152 1.132 4.268 7.08 5.317 8.89l14.732 25.488 4.2 7.323c.915 1.597 2.156 3.878 3.28 5.287-1.684 2.644-5.27 6.946-7.401 9.301-12.289 13.577-27.13 22.326-44.772 27.078-8.305 2.137-16.538 2.804-25.086 2.936 5.311-9.79 11.65-20.31 17.25-30.003zm-39.699-95.15c31.441 3.134 56.969 19.727 72.428 47.337-8.968-.184-18.37 0-27.381 0H159.74q-14.827-.14-29.656.018c5.457-8.798 10.762-18.464 15.97-27.497l7.395-12.816c1.26-2.181 2.884-4.832 4.018-7.043m-10.157-.215c1.383-.116 3.654-.095 5.104-.125-1.082 2.364-2.908 5.297-4.242 7.627l-8.315 14.412-23.83 41.303c-4.3 7.436-9.413 15.578-13.243 23.158a760 760 0 0 1-8.134-14.055c-4.47-7.422-8.674-15.271-13.142-22.707-1.52-2.53-4.498-8.491-6.237-10.527 1.306-1.906 4.836-6.326 6.381-8.09a90.44 90.44 0 0 1 50.414-29.248c5.73-1.127 9.493-1.353 15.245-1.748m22.293 133.903c.032.545-4.403 7.91-5.092 9.098l-14.452 25.137c-2.395 4.17-5.343 8.97-7.544 13.172-20.01-2.43-35.101-8.15-50.818-20.927-8.684-7.478-16.152-16.264-21.562-26.408q10.317.06 20.634-.006l41.465-.003 23.85.004c4.238.008 9.328.18 13.519-.067"/></g></svg></svg>