<svg xmlns="http://www.w3.org/2000/svg" id="svg" width="300" height="300" viewBox="0 0 300 300"><svg xmlns="http://www.w3.org/2000/svg"><defs><clipPath id="clip-1"><path fill="none" d="M0 0h299.991v299.991H0z"/></clipPath></defs><g fill="none" stroke-miterlimit="10" clip-path="url(#clip-1)" font-family="none" font-size="none" font-weight="none" style="mix-blend-mode:normal" text-anchor="none"><path fill="#000" d="M0 0h300v300H0z"/><path fill="#000" d="m2.333 2.352 147.68-.026 147.623.032.016 147.67.001 147.618-97.16-.009-32.853.002c-5.811 0-11.828-.077-17.625.022-16.466-.208-33.378-.01-49.873-.01l-97.794.005.005-147.66c-.157-5.183-.014-11.219-.014-16.463v-32.371z"/><path fill="red" d="m2.333 2.352 147.68-.026-.032 35.314c.001 7.664-.116 15.667.018 23.306-8.517-.106-17.246-.007-25.78-.007l-.003-32.824-2.334.02-.001 32.8c-21.769 0-43.88-.211-65.618.011l-.01 60.916-28.139.014.007 2.348c9.329.001 18.845.097 28.16-.023-.157 8.505-.03 17.295-.031 25.822-5.746-.133-11.995-.017-17.776-.017l-36.12-.01c-.158-5.183-.015-11.219-.015-16.463v-32.371z"/><path fill="#fefefe" d="m28.113 28.123 93.769.012-.001 32.8c-21.769 0-43.88-.211-65.618.011l-.01 60.916-28.139.014z"/><path fill="#fcbc04" d="m2.353 149.996 36.121.01c5.78 0 12.03-.116 17.776.017v25.76l-28.137.007.025 2.34h28.107l.01 65.62 65.613.006.008 28.119 2.334.004c.17-9.199.008-18.903.002-28.13l25.794-.003-.005 35.838c0 5.933-.089 12.169.014 18.077-16.466-.208-33.378-.01-49.873-.01l-97.794.005z"/><path fill="#fefefe" d="M28.138 178.13h28.107l.01 65.62 65.613.006.008 28.119-93.74.035a489 489 0 0 1-.017-12.466c.266-27.069-.358-54.257.019-81.315"/><path fill="#33a953" d="m150.013 2.326 147.623.032.016 147.67c-15.469-.298-31.345.116-46.877-.063l-.004-25.745 23.464.018q0-1.188-.03-2.374H250.79l-.009-60.925-72.641-.008c-.159-10.795-.022-21.994-.014-32.813-.795-.01-1.558-.02-2.355.004l-.001 32.817-16.729-.02c-2.893.001-6.174-.073-9.042.027-.134-7.64-.017-15.642-.018-23.306z"/><path fill="#fefefe" d="m178.126 28.118 63.206-.006c10.813 0 22.155-.175 32.906.019l-.005 62.442.002 20.45c0 3.298.119 7.613-.03 10.841H250.79l-.009-60.925-72.641-.008c-.159-10.795-.022-21.994-.014-32.813"/><path fill="#659df6" d="M250.775 149.965c15.532.179 31.408-.235 46.877.063l.001 147.618-97.16-.009-32.853.002c-5.811 0-11.828-.077-17.625.022-.103-5.908-.014-12.144-.014-18.077l.005-35.838c8.51.013 17.288-.11 25.762.026l.016 28.11 2.344-.01-.002-28.12 72.665-.006-.013-65.612h23.438l.017-2.378-23.444.012z"/><path fill="#fefefe" d="M250.778 178.134h23.438c.242 12.838.026 26.357.025 39.239l-.013 54.506-64.133.005h-21.107c-3.435 0-7.465.1-10.86-.012l-.002-28.12 72.666-.006z"/><path fill="#fefefe" d="m58.581 63.283 63.307-.015-.026 16.52c0 2.752-.115 6.624.02 9.29l2.3-.007 25.82-.003c8.519.018 17.304-.122 25.78.008l2.339-.006c.086-2.709.017-5.87.019-8.622l-.008-17.164 70.29.004.02 58.588-25.783.007-.007 2.352-.005 25.744c-.002 8.552.083 17.256-.011 25.793l2.379.012-.008 2.334 23.426.004-.007 41.246c0 7.286-.082 14.76.016 22.032l-70.295-.01-56.267.02H58.595l.009-63.304-.01-56.21z"/><path fill="#33a953" d="m178.132 63.284 70.29.004.02 58.588-25.783.007-.007 2.352-.005 25.744c-2.373.094-5.273.017-7.677.017l-14.613.001-50.361.007c-.178-7.08-.012-14.913-.014-22.044l.02-38.892c8.519.018 17.304-.122 25.78.008l2.339-.006c.086-2.709.017-5.87.019-8.622z"/><path fill="#33a953" d="M150.001 89.068c8.52.018 17.305-.122 25.782.008l2.338-.006c.003 10.88-.101 21.934.017 32.799l29.299.003c4.996 0 10.242-.08 15.222.01l-.007 2.353-.005 25.744c-2.373.094-5.273.017-7.677.017l-14.613.001-50.361.007c-.178-7.08-.012-14.913-.014-22.044z"/><path fill="#000" d="m175.783 89.076 2.338-.006c.003 10.88-.101 21.934.017 32.799l29.299.003c4.996 0 10.242-.08 15.222.01l-.007 2.353c-4.69-.187-10.789-.014-15.552-.013l-31.32.007z"/><path fill="#fefefe" d="m178.12 89.07 28.545-.021c5.263 0 10.765-.084 16.01.02l-.016 32.814c-4.98-.092-10.226-.01-15.222-.011l-29.299-.003c-.118-10.865-.014-21.919-.017-32.799"/><path fill="red" d="m58.581 63.283 63.307-.015-.026 16.52c0 2.752-.115 6.624.02 9.29l2.3-.007 25.82-.003-.02 38.892c.002 7.131-.164 14.963.014 22.044l-65.613-.014-.004-25.773v-2.331c-8.347-.05-17.461-.16-25.786.01z"/><path fill="red" d="m124.182 89.071 25.82-.003-.02 38.892c.002 7.131-.164 14.963.014 22.044l-65.613-.014-.004-25.773v-2.331l37.491-.012.012-32.795z"/><path fill="#000" d="m121.882 89.079 2.3-.008c.162 11.625.02 23.506.044 35.156l-39.847-.01v-2.331l37.491-.012z"/><path fill="#fefefe" d="M84.363 89.06c12.319-.134 25.194-.096 37.52.019l-.013 32.795-37.49.012c-.15-3.32-.017-7.75-.017-11.14z"/><path fill="#659df6" d="m149.996 150.004 50.36-.007 14.614-.001c2.404 0 5.304.077 7.677-.017-.002 8.552.083 17.256-.011 25.793l2.379.012-.008 2.334-2.345.008-44.534.006-.016 39.832c-.756-.005-1.585.002-2.335-.026-8.51.11-17.23.016-25.756.018z"/><path fill="#000" d="m222.636 175.772 2.379.012-.008 2.334-2.345.008-44.534.006-.016 39.832c-.756-.005-1.585.002-2.335-.026l-.003-42.168z"/><path fill="#fcbc04" d="m84.383 149.99 65.613.014.025 67.952-25.825.026-2.308-.024-.02-39.826-37.476-.011q-.015-1.165-.013-2.328c-.107-8.508.005-17.278.004-25.803"/><path fill="#000" d="M84.379 175.793c13.197-.03 26.66-.147 39.837-.006l.006 27.271c0 4.909.072 10.031-.026 14.924l-2.308-.023-.02-39.827-37.476-.011q-.015-1.165-.013-2.328"/><path fill="#659df6" d="m225.007 178.118 23.426.004-.007 41.246c0 7.286-.082 14.76.016 22.032l-70.295-.01-.004-23.412 44.522-.005-.003-39.847z"/><path fill="#fcbc04" d="M58.604 178.106c8.471.11 17.283.07 25.766.013-.021 13.058-.202 26.865.016 39.885l37.482-.043.012 23.448H58.595z"/><path fill="#fefefe" d="m121.888 63.268 56.244.016.008 17.164c-.002 2.751.067 5.913-.02 8.622l-2.337.006c-8.477-.13-17.262.01-25.782-.008l-25.819.003-2.3.008c-.135-2.667-.02-6.54-.02-9.291zm100.772 58.615 25.782-.007-.009 56.246-23.426-.004.008-2.334-2.38-.012c.094-8.537.01-17.24.012-25.793l.005-25.744z"/></g></svg></svg>