<svg xmlns="http://www.w3.org/2000/svg" width="512" height="512" style="shape-rendering:geometricPrecision;text-rendering:geometricPrecision;image-rendering:optimizeQuality;fill-rule:evenodd;clip-rule:evenodd"><path fill="#191919" d="M25.5-.5h460q19.5 6.5 26 26v460q-6.5 19.5-26 26h-460Q6 505-.5 485.5v-460Q6 6 25.5-.5" style="opacity:1"/><path fill="#df8800" d="M332.5 72.5q23.885-3.435 34.5 18 2.276 8.37 1 17a12109 12109 0 0 0-80.5 217 7669 7669 0 0 0 83.5 143q9.93 10.803 5 25-10.499 18.37-31.5 14.5-9.594-2.43-15.5-10.5a4568 4568 0 0 0-64.5-111 2155 2155 0 0 0-22.5 60q-16.23 35.238-42.5 63.5-34.055 1.403-68-1-2.916-3.23-1.5-7.5 67.774-44.888 80-126 12.805-99.572-59.5-168.5-56.55-46.264-129-36-2.36-2.74-2.5-6.5a421 421 0 0 1 0-41l1.5-1.5q117.068-13.908 192 76.5a382 382 0 0 1 20.5 31 334 334 0 0 0 19 37 14030 14030 0 0 0 62-178q6.562-10.895 18.5-15" style="opacity:1"/></svg>