<svg xmlns="http://www.w3.org/2000/svg" id="svg" width="400" height="400" viewBox="0 0 400 400"><g id="svgg" fill-rule="evenodd" stroke="none"><path id="path0" fill="#6c6c6c" d="M203.6 26.4c-.33.213-2.164.391-4.076.394-4.73.008-5.326.825-1.024 1.401l1.9.254V47.2h2.4c1.333 0 2.4-.178 2.4-.4 0-.257 3.867-.4 10.8-.4h10.8V26.8h-9.4c-6 0-9.4-.145-9.4-.4 0-.512-3.607-.512-4.4 0m34.667-.133c-.842.841.889 1.329 2.067.582.399-.252.297-.401-.4-.588-1.191-.319-1.343-.318-1.667.006M256.8 36.6v9.8h110V26.8h-110zm-66.779-8.621c-.459.29-.376.412.4.587 2.316.522 3.349.443 3.494-.266.161-.786-2.776-1.029-3.894-.321m-4.943.677c-.534.533.226.944 1.746.944 1.134 0 1.576-.168 1.576-.6 0-.612-2.768-.899-3.322-.344m-4.452.902c-.27.436.697.842 2.007.842.593 0 .967-.232.967-.6 0-.667-2.582-.877-2.974-.242m-3.729.942c.253.768 2.553.867 2.839.122.192-.499-.081-.622-1.382-.622-1.117 0-1.57.155-1.457.5m-3.697.692c0 .496 1.813.971 2.377.622.854-.528.386-1.014-.977-1.014-.77 0-1.4.177-1.4.392m-3.2.765c0 .197.285.467.633.6 1.123.431 2.167.259 2.167-.357 0-.419-.422-.6-1.4-.6-.77 0-1.4.161-1.4.357m-3.2.8c0 .197.285.467.633.6 1.123.431 2.167.259 2.167-.357 0-.419-.422-.6-1.4-.6-.77 0-1.4.161-1.4.357m-2.972.798c-.12.195.184.462.676.594 1.423.381 1.896.294 1.896-.349 0-.66-2.187-.868-2.572-.245m-2.628.845c0 .22-.529.4-1.176.4-1.555 0-1.905.643-.537.986.753.189 1.217.086 1.527-.338.275-.376.78-.522 1.316-.382.628.164.87.048.87-.419 0-.423-.346-.647-1-.647-.55 0-1 .18-1 .4M156 36c0 .22.27.4.6.4s.731.013.89.03.355-.163.433-.4c.079-.236-.321-.43-.89-.43-.568 0-1.033.18-1.033.4m-2.4.8c0 .22.27.4.6.4s.731.014.89.03c.16.017.355-.163.433-.4s-.321-.43-.89-.43c-.568 0-1.033.18-1.033.4m-2.4.8c0 .22.27.4.6.4s.731.014.89.03c.16.017.354-.163.433-.4.079-.236-.321-.43-.89-.43-.568 0-1.033.18-1.033.4m-2.2.8c-.136.22-.597.4-1.024.4-.934 0-1.027.618-.143.957 1.001.384 1.367.289 1.367-.357 0-.333.356-.6.8-.6.44 0 .8-.18.8-.4s-.349-.4-.776-.4-.888.18-1.024.4m-4.2 1.6c0 .22.165.4.367.4s.652.109 1 .243c.415.159.633.022.633-.4 0-.419-.348-.643-1-.643-.55 0-1 .18-1 .4m-2 .8c0 .22-.36.4-.8.4-1.048 0-1.031.646.024.922.505.132.91-.005 1.043-.353.12-.313.469-.569.776-.569.306 0 .557-.18.557-.4s-.36-.4-.8-.4-.8.18-.8.4m-5.9 2.234c-1.493.653-1.661 1.178-.476 1.488.505.132.91-.005 1.043-.353.12-.313.559-.569.976-.569s.757-.27.757-.6c0-.726-.581-.718-2.3.034M134 44.6c0 .33.27.6.6.6s.6-.27.6-.6-.27-.6-.6-.6-.6.27-.6.6m-1.6.8c0 .33.27.6.6.6s.6-.27.6-.6-.27-.6-.6-.6-.6.27-.6.6m-2 .598c-.33.193-1.185.586-1.9.874s-1.3.659-1.3.826-.36.302-.8.302-.8.18-.8.4-.36.4-.8.4-.8.158-.8.351c0 .194-.54.576-1.2.849-1.238.513-1.498.969-.797 1.402.221.137.506-.021.633-.351s.484-.503.794-.384.67-.061.8-.4.49-.519.8-.4.67-.061.8-.4.468-.528.751-.419c.284.109.622-.079.752-.418a.64.64 0 0 1 .852-.38c.338.129.615.036.615-.207 0-.244.36-.443.8-.443s.8-.18.8-.4.36-.4.8-.4c.444 0 .8-.267.8-.6 0-.66-.671-.745-1.6-.202m-10.323 5.632c.079.237.314.43.523.43s.444-.193.523-.43c.079-.236-.156-.43-.523-.43s-.602.194-.523.43m-1.677.77c0 .22-.36.4-.8.4s-.8.18-.8.4-.27.4-.6.4-.6.18-.6.4-.27.4-.6.4-.6.18-.6.4.27.4.6.4.6-.199.6-.443c0-.243.277-.336.615-.207.344.132.712-.014.833-.331.12-.314.491-.464.825-.335.62.237 1.31-.485 1.321-1.384.003-.275-.174-.5-.394-.5s-.4.18-.4.4m-5.6 3.2c0 .22-.27.4-.6.4s-.6.18-.6.4-.27.4-.6.4-.6.18-.6.4-.193.4-.429.4c-.616 0-1.717 1.188-1.397 1.507.148.149.422.024.607-.277.188-.304.628-.435.991-.296.45.173.796-.066 1.117-.769.295-.647.704-.955 1.125-.846.363.096.869-.16 1.123-.567.606-.97.584-1.152-.137-1.152-.33 0-.6.18-.6.4m85.2 0c0 .235-1.4.4-3.4.4s-3.4.165-3.4.4c0 .222-1.067.4-2.4.4s-2.4.178-2.4.4-1.067.4-2.4.4c-1.32 0-2.4.164-2.4.364s-1.53.492-3.4.647-3.4.442-3.4.636-.72.353-1.6.353-1.6.18-1.6.4-.72.4-1.6.4-1.6.18-1.6.4-.54.4-1.2.4-1.2.18-1.2.4-.72.4-1.6.4-1.6.18-1.6.4-.54.4-1.2.4-1.2.18-1.2.4-.45.4-1 .4-1 .18-1 .4-.54.4-1.2.4-1.2.18-1.2.4-.36.4-.8.4-.8.18-.8.4-.54.4-1.2.4-1.2.18-1.2.4-.54.4-1.2.4-1.2.18-1.2.4-.36.4-.8.4-.8.18-.8.4-.36.4-.8.4-.8.18-.8.4-.54.4-1.2.4-1.2.18-1.2.4-.36.4-.8.4-.8.18-.8.4-.27.4-.6.4-.6.18-.6.4-.36.4-.8.4-.8.18-.8.4-.36.4-.8.4-.8.18-.8.4-.36.4-.8.4-.8.18-.8.4-.36.4-.8.4-.8.164-.8.365-.72.486-1.6.635-1.601.389-1.603.535c-.004.31-1.958 1.265-2.588 1.265-.238 0-.692.36-1.009.8s-.897.8-1.288.8c-.392 0-.712.18-.712.4s-.23.4-.512.4c-.281 0-.771.36-1.088.8s-.857.8-1.2.8-.883.36-1.2.8-.857.8-1.2.8-.883.36-1.2.8-.857.8-1.2.8-.883.36-1.2.8-.857.8-1.2.8-.883.36-1.2.8-.825.8-1.128.8-1.055.54-1.672 1.2-1.343 1.2-1.614 1.2c-.513 0-1.986 1.5-1.986 2.022 0 .165-.52.481-1.155.702-.635.222-2.161 1.409-3.391 2.639-1.23 1.231-2.426 2.237-2.658 2.237-.542 0-11.596 11.258-11.596 11.811 0 .128-1.08 1.293-2.4 2.589s-2.4 2.56-2.4 2.809-.72 1.145-1.6 1.991-1.6 1.782-1.6 2.08-.36.803-.8 1.12-.8.825-.8 1.128-.54 1.055-1.2 1.672-1.2 1.365-1.2 1.664-.36.768-.8 1.043-.8.746-.8 1.047c0 .302-.27.772-.6 1.046s-.6.836-.6 1.249-.18.751-.4.751-.4.32-.4.712-.36.971-.8 1.288-.8.897-.8 1.288c0 .392-.18.712-.4.712s-.4.36-.4.8-.18.8-.4.8-.4.32-.4.712-.36.971-.8 1.288-.8.897-.8 1.288c0 .392-.18.712-.4.712s-.4.36-.4.8-.18.8-.4.8-.4.36-.4.8-.18.8-.4.8-.4.27-.4.6-.18.6-.4.6-.4.54-.4 1.2-.18 1.2-.4 1.2-.4.36-.4.8-.18.8-.4.8-.4.36-.4.8-.18.8-.4.8-.4.54-.4 1.2-.18 1.2-.4 1.2-.4.36-.4.8-.18.8-.4.8-.4.54-.4 1.2-.18 1.2-.4 1.2-.4.54-.4 1.2-.18 1.2-.4 1.2-.4.45-.4 1-.18 1-.4 1-.4.504-.4 1.12-.179 1.299-.398 1.518c-.218.218-.514 1.514-.656 2.88s-.414 2.482-.603 2.482-.343.72-.343 1.6-.18 1.6-.4 1.6-.4.9-.4 2-.18 2-.4 2-.4.81-.4 1.8-.18 1.8-.4 1.8c-.229 0-.4 1.2-.4 2.8s-.171 2.8-.4 2.8c-.243 0-.4 1.8-.4 4.6s-.157 4.6-.4 4.6c-.252 0-.4 2.667-.4 7.2s.148 7.2.4 7.2c.243 0 .4 1.8.4 4.6s.157 4.6.4 4.6c.229 0 .4 1.2.4 2.8s.171 2.8.4 2.8c.22 0 .4.81.4 1.8s.18 1.8.4 1.8.4.9.4 2 .18 2 .4 2 .4.72.4 1.6.154 1.6.343 1.6.46 1.117.603 2.482.438 2.662.656 2.88c.219.219.398.801.398 1.294s.18 1.008.4 1.144.4.687.4 1.224.18.976.4.976.4.54.4 1.2.18 1.2.4 1.2.4.54.4 1.2.18 1.2.4 1.2.4.36.4.8.18.8.4.8.4.54.4 1.2.18 1.2.4 1.2.4.36.4.8.18.8.4.8.4.36.4.8.18.8.4.8.4.54.4 1.2.18 1.2.4 1.2.4.27.4.6.18.6.4.6.4.36.4.8.18.8.4.8.4.36.4.8.18.8.4.8.4.32.4.712.36.971.8 1.288.8.897.8 1.288c0 .392.18.712.4.712s.4.36.4.8.18.8.4.8.4.32.4.712.36.971.8 1.288.8.897.8 1.288c0 .392.18.712.4.712s.4.338.4.751.27.975.6 1.249.6.706.6.961c0 .254.36.722.8 1.039s.8.825.8 1.128.54 1.055 1.2 1.672 1.2 1.369 1.2 1.672.36.811.8 1.128.8.821.8 1.12c0 .298.72 1.234 1.6 2.08s1.6 1.741 1.6 1.991c0 .249 1.08 1.513 2.4 2.809s2.4 2.461 2.4 2.589c0 .553 11.054 11.811 11.596 11.811.232 0 1.411.99 2.621 2.2s2.517 2.2 2.903 2.2.968.377 1.292.837c1.134 1.615 1.886 2.363 2.374 2.363.271 0 .997.54 1.614 1.2s1.369 1.2 1.672 1.2.811.36 1.128.8.857.8 1.2.8.883.36 1.2.8.857.8 1.2.8.883.36 1.2.8.857.8 1.2.8.883.36 1.2.8.857.8 1.2.8.883.36 1.2.8.807.8 1.088.8.512.18.512.4.358.4.797.4c.438 0 1.021.36 1.296.8s.816.8 1.203.8.704.164.704.365.72.486 1.6.635 1.6.434 1.6.635.36.365.8.365.8.18.8.4.36.4.8.4.8.18.8.4.36.4.8.4.8.18.8.4.36.4.8.4.8.18.8.4.36.4.8.4.8.18.8.4.27.4.6.4.6.18.6.4.36.4.8.4.8.18.8.4.54.4 1.2.4 1.2.18 1.2.4.36.4.8.4.8.18.8.4.36.4.8.4.8.18.8.4.54.4 1.2.4 1.2.18 1.2.4.54.4 1.2.4 1.2.18 1.2.4.36.4.8.4.8.18.8.4.54.4 1.2.4 1.2.18 1.2.4.45.4 1 .4 1 .18 1 .4.54.4 1.2.4 1.2.18 1.2.4.72.4 1.6.4 1.6.18 1.6.4.54.4 1.2.4 1.2.18 1.2.4.72.4 1.6.4 1.6.164 1.6.364 1.53.492 3.4.647 3.4.442 3.4.636.72.353 1.6.353 1.6.18 1.6.4c0 .222 1.067.4 2.4.4s2.4.178 2.4.4 1.067.4 2.4.4 2.4.178 2.4.4c0 .235 1.4.4 3.4.4s3.4.165 3.4.4c0 .22.36.4.8.4.779 0 .8-.267.8-10.16v-10.159l-5-.289c-2.75-.158-5-.447-5-.64 0-.194-.9-.352-2-.352s-2-.18-2-.4-.9-.4-2-.4-2-.18-2-.4-.72-.4-1.6-.4-1.6-.18-1.6-.4-.72-.4-1.6-.4-1.6-.18-1.6-.4-.63-.4-1.4-.4-1.4-.18-1.4-.4-.54-.4-1.2-.4-1.2-.18-1.2-.4-.54-.4-1.2-.4-1.2-.18-1.2-.4-.54-.4-1.2-.4-1.2-.18-1.2-.4-.54-.4-1.2-.4-1.2-.18-1.2-.4-.54-.4-1.2-.4-1.2-.18-1.2-.4-.36-.4-.8-.4-.8-.18-.8-.4-.45-.4-1-.4-1-.18-1-.4-.36-.4-.8-.4-.8-.18-.8-.4-.54-.4-1.2-.4-1.2-.18-1.2-.4-.36-.4-.8-.4-.8-.18-.8-.4-.36-.4-.8-.4-.8-.18-.8-.4-.36-.4-.8-.4-.8-.18-.8-.4-.36-.4-.8-.4-.8-.18-.8-.4-.36-.4-.8-.4-.8-.164-.8-.365-.72-.486-1.6-.635-1.6-.434-1.6-.635-.23-.365-.512-.365c-.281 0-.771-.36-1.088-.8s-.897-.8-1.288-.8c-.392 0-.712-.18-.712-.4s-.36-.4-.8-.4-.8-.18-.8-.4-.32-.4-.712-.4-.971-.36-1.288-.8-.857-.8-1.2-.8-.883-.36-1.2-.8-.857-.8-1.2-.8-.883-.36-1.2-.8-.857-.8-1.2-.8-.883-.36-1.2-.8-.897-.8-1.288-.8c-.392 0-.712-.152-.712-.339 0-.531-1.444-2.061-1.946-2.061-.249 0-1.217-.72-2.151-1.6s-1.921-1.6-2.193-1.6c-.273 0-1.665-1.17-3.095-2.6s-2.793-2.6-3.03-2.6-1.5-1.125-2.808-2.5c-3.576-3.758-3.977-4.233-3.977-4.71 0-.507-4.745-5.19-5.258-5.19-.188 0-.342-.288-.342-.64 0-.351-.54-1.143-1.2-1.76s-1.2-1.337-1.2-1.6-.54-.983-1.2-1.6-1.2-1.337-1.2-1.6-.54-.983-1.2-1.6-1.2-1.409-1.2-1.76c0-.352-.18-.64-.4-.64s-.4-.36-.4-.8-.177-.8-.392-.8-.502-.437-.636-.971c-.134-.533-.588-1.281-1.008-1.662-.42-.38-.764-.933-.764-1.229s-.18-.538-.4-.538-.4-.36-.4-.8-.18-.8-.4-.8-.4-.36-.4-.8-.18-.8-.4-.8-.4-.32-.4-.712-.36-.971-.8-1.288-.8-.897-.8-1.288c0-.392-.18-.712-.4-.712s-.4-.54-.4-1.2-.18-1.2-.4-1.2-.4-.36-.4-.8-.18-.8-.4-.8-.4-.36-.4-.8-.18-.8-.4-.8-.4-.36-.4-.8-.18-.8-.4-.8-.4-.45-.4-1-.18-1-.4-1-.4-.54-.4-1.2-.18-1.2-.4-1.2-.4-.36-.4-.8-.18-.8-.4-.8-.4-.54-.4-1.2-.18-1.2-.4-1.2-.4-.72-.4-1.6-.18-1.6-.4-1.6-.4-.54-.4-1.2-.18-1.2-.4-1.2-.4-.72-.4-1.6-.18-1.6-.4-1.6-.4-.795-.4-1.767-.171-1.826-.38-1.9-.505-2.248-.658-4.833-.433-4.7-.621-4.7c-.475 0-.435-24.24.041-25.105.211-.382.498-2.63.639-4.995s.419-4.3.617-4.3c.199 0 .362-.81.362-1.8s.18-1.8.4-1.8.4-.72.4-1.6.18-1.6.4-1.6.4-.54.4-1.2.18-1.2.4-1.2.4-.72.4-1.6.18-1.6.4-1.6.4-.54.4-1.2.18-1.2.4-1.2.4-.36.4-.8.18-.8.4-.8.4-.54.4-1.2.18-1.2.4-1.2.4-.45.4-1 .18-1 .4-1 .4-.36.4-.8.18-.8.4-.8.4-.36.4-.8.18-.8.4-.8.4-.36.4-.8.18-.8.4-.8.4-.54.4-1.2.18-1.2.4-1.2.4-.32.4-.712.36-.971.8-1.288.8-.897.8-1.288c0-.392.18-.712.4-.712s.4-.36.4-.8.18-.8.4-.8.4-.36.4-.8.18-.8.4-.8.4-.341.4-.757c0-.417.279-.864.619-.995s.808-.78 1.039-1.443.583-1.205.781-1.205.361-.36.361-.8.18-.8.4-.8.4-.288.4-.64c0-.351.54-1.143 1.2-1.76s1.2-1.337 1.2-1.6.54-.983 1.2-1.6 1.2-1.337 1.2-1.6.54-.983 1.2-1.6 1.2-1.369 1.2-1.672.383-.816.851-1.14c1.439-.994 4.749-4.311 4.749-4.759 0-.803 6.043-7.229 6.797-7.229.243 0 1.684-1.26 3.203-2.8s3.022-2.8 3.341-2.8c.318 0 1.209-.63 1.979-1.4s1.643-1.401 1.94-1.401c.297-.001.9-.54 1.34-1.199s1.075-1.198 1.412-1.199c.336 0 .871-.361 1.188-.801s.857-.8 1.2-.8.883-.36 1.2-.8.857-.8 1.2-.8.883-.36 1.2-.8.857-.8 1.2-.8.883-.36 1.2-.8.897-.8 1.288-.8c.392 0 .712-.18.712-.4s.36-.4.8-.4.8-.18.8-.4.32-.4.712-.4.971-.36 1.288-.8.807-.8 1.088-.8.512-.18.512-.4.36-.4.8-.4.8-.159.8-.353c0-.195.405-.454.9-.576 1.869-.461 3.9-1.278 3.9-1.569 0-.166.36-.302.8-.302s.8-.18.8-.4.36-.4.8-.4.8-.18.8-.4.36-.4.8-.4.8-.18.8-.4.54-.4 1.2-.4 1.2-.18 1.2-.4.36-.4.8-.4.8-.18.8-.4.45-.4 1-.4 1-.18 1-.4.36-.4.8-.4.8-.18.8-.4.54-.4 1.2-.4 1.2-.18 1.2-.4.54-.4 1.2-.4 1.2-.18 1.2-.4.54-.4 1.2-.4 1.2-.18 1.2-.4.54-.4 1.2-.4 1.2-.18 1.2-.4.54-.4 1.2-.4 1.2-.18 1.2-.4.63-.4 1.4-.4 1.4-.18 1.4-.4.72-.4 1.6-.4 1.6-.18 1.6-.4.72-.4 1.6-.4 1.6-.18 1.6-.4.9-.4 2-.4 2-.18 2-.4.9-.4 2-.4 2-.18 2-.4c0-.226 1.133-.4 2.6-.4s2.6-.174 2.6-.4c0-.22.795-.4 1.767-.4 3.234 0 3.033.679 3.033-10.243 0-9.49-.022-9.757-.8-9.757-.44 0-.8.18-.8.4m32.8 9.406v9.805l12.5-.105 12.5-.106.107-9.7.107-9.7H230.8zm-123.9-5.718c-.495.239-.9.692-.9 1.006 0 .78.805.453 1.515-.616.654-.985.639-.994-.615-.39m-2.808 1.912c-.472.44-1.001.8-1.175.801-.174 0-.947.54-1.717 1.199s-1.537 1.199-1.704 1.199c-.167.001-.868.541-1.559 1.201s-1.417 1.2-1.615 1.2c-.622 0-2.376 1.988-2.12 2.403.437.708.973.425 1.894-1.001.514-.794 1.133-1.313 1.434-1.201.59.219 1.312-.384 2.002-1.673.291-.544.721-.787 1.182-.667.48.126.903-.145 1.255-.804.315-.587.762-.905 1.093-.778.618.237 2.138-1.285 2.138-2.14 0-.707-.092-.686-1.108.261m-12.438 9.462c-.888.929-1.211 1.541-.949 1.803s.714-.055 1.331-.934c.514-.732 1.077-1.391 1.25-1.464.401-.17.413-.876.014-.84-.165.016-.906.661-1.646 1.435m-3.874 3.065c-.671.7-1.795 1.723-2.496 2.273s-1.278 1.225-1.28 1.5c-.008.992 1.14.467 2.454-1.122a70 70 0 0 1 2.242-2.582c.495-.528.9-1.058.9-1.178 0-.497-.672-.088-1.82 1.109M200.4 200.2v125h26.4v-250h-26.4zM79.17 81.437c-6.982 7.122-7.57 7.756-7.57 8.156 0 .225-1.125 1.548-2.5 2.94-3.42 3.461-5.363 5.664-5.928 6.718-.261.488-.901 1.315-1.423 1.837-.522.521-.949 1.093-.949 1.269 0 .282-.447.894-1.993 2.726-.224.266-.407.721-.407 1.012s-.36.788-.8 1.105-.8.75-.8.963-.391.801-.868 1.31c-1.201 1.278-.658 1.592.839.485.791-.585 1.159-1.147 1.026-1.568-.136-.429.129-.81.766-1.1.692-.316.915-.671.769-1.229-.141-.539.04-.862.579-1.033 1.16-.368 2.25-1.682 1.685-2.031-.288-.178.084-.649 1.008-1.277 1.201-.816 1.42-1.168 1.222-1.96-.134-.531-.081-.919.117-.863.716.205 3.283-2.185 3.07-2.856-.129-.407.197-.956.859-1.448 2.565-1.905 4.951-4.355 4.751-4.877-.131-.341 1.528-2.287 4.292-5.036 4.752-4.726 6.493-6.68 5.952-6.68-.18 0-1.844 1.547-3.697 3.437M53.968 112.3c-.313.605-.883 1.449-1.268 1.875-.385.427-.7.997-.7 1.267s-.225.572-.5.67c-.856.306-.008.776.887.492.576-.183.776-.491.625-.966-.15-.473.104-.872.788-1.238.706-.378.94-.759.778-1.27-.156-.49-.03-.73.382-.73.382 0 .528-.227.385-.6-.339-.882-.739-.737-1.377.5m-4.032 6.5c-.292.66-.667 1.2-.834 1.2s-.302.345-.302.767c0 .421-.225.847-.5.945-.868.31-.002.774.906.486.605-.192.807-.505.668-1.037-.131-.502.008-.761.41-.761q.61 0 .407-.774c-.12-.459.034-.865.379-.997.319-.123.469-.405.332-.626-.435-.703-.919-.44-1.466.797m-2.736 4.8c0 .22.27.4.6.4s.6-.18.6-.4-.27-.4-.6-.4-.6.18-.6.4m-.8 1.6c0 .22.27.4.6.4s.6-.18.6-.4-.27-.4-.6-.4-.6.18-.6.4m-.528 1.093c-1.962 3.272-2.211 4.107-1.225 4.107.449 0 .583-.244.437-.8q-.208-.8.38-.8c.408 0 .512-.247.336-.8-.18-.568-.072-.8.373-.8.345 0 .627-.169.627-.376 0-.512-.7-.911-.928-.531M43.2 131.4c0 .33.27.6.6.6s.6-.27.6-.6-.27-.6-.6-.6-.6.27-.6.6m-.533 1.267c-.461.46-.292.933.333.933.33 0 .6-.27.6-.6 0-.625-.473-.794-.933-.333M42 134.8c0 .44-.18.8-.4.8s-.4.36-.4.8-.18.8-.4.8-.4.45-.4 1 .18 1 .4 1 .4-.341.4-.757c0-.417.267-.86.593-.985.327-.125.496-.481.377-.791s.05-.666.376-.791c.369-.142.511-.537.376-1.052-.276-1.055-.922-1.072-.922-.024m-2.4 5.6c0 .44-.18.8-.4.8s-.4.36-.4.8c0 .458.267.8.624.8.343 0 .505-.192.36-.427s.034-.644.398-.91c.408-.299.56-.748.397-1.174-.361-.94-.979-.87-.979.111m-1.6 3.8c0 .652.224 1 .643 1 .422 0 .559-.218.4-.633-.134-.348-.243-.798-.243-1s-.18-.367-.4-.367-.4.45-.4 1m-.8 2.376c0 .537-.18 1.088-.4 1.224s-.4.676-.4 1.2-.18 1.064-.4 1.2c-.677.419-.475 2.2.25 2.2.509 0 .598-.261.41-1.2-.184-.922-.096-1.2.382-1.2.483 0 .563-.268.358-1.2-.206-.938-.126-1.2.368-1.2.676 0 .777-.356.389-1.367-.37-.965-.957-.754-.957.343m-2.4 7.191c0 .672.219 1.033.628 1.033q.627-.002.5-.869c-.189-1.28-1.128-1.417-1.128-.164M34 156.2c0 .988.542 1.341.978.636.289-.468-.154-1.636-.621-1.636-.196 0-.357.45-.357 1m-.522 2.055c-.434.434-.326 2.145.135 2.145.226 0 .512-.259.633-.576.262-.683-.368-1.969-.768-1.569M32.4 162q0 1.2.6 1.2c.628 0 .769-.695.357-1.767-.401-1.045-.957-.715-.957.567m-.8 3.367c0 .672.219 1.033.628 1.033q.627-.002.5-.869c-.189-1.28-1.128-1.417-1.128-.164m-.8 4.033c0 1.333.156 1.8.6 1.8.623 0 .832-1.731.357-2.967-.466-1.216-.957-.618-.957 1.167m-.8 4.367c0 1.033.175 1.433.625 1.433.462 0 .593-.331.5-1.269-.181-1.834-1.125-1.972-1.125-.164M256.8 186.2v10.2h110V176h-110zm-227.327-9.139c-.604.603-.304 4.526.327 4.284.401-.154.598-.779.594-1.888-.006-1.72-.448-2.869-.921-2.396m-.8 6.4c-.596.595-.302 5.739.327 5.739.47 0 .599-.542.594-2.5-.006-2.455-.382-3.778-.921-3.239m349.928 2.935c-.302.953.032 1.604.823 1.604.373 0 .576-.422.576-1.2 0-1.383-.997-1.67-1.399-.404M256.8 214.6v10.2h110v-20.4h-110zm-228.4-2.624c0 2.674.454 3.902.958 2.589.532-1.387.267-5.365-.358-5.365-.476 0-.6.575-.6 2.776m.8 7.2c0 1.996.512 2.951.958 1.789.501-1.305.267-3.765-.358-3.765-.452 0-.6.486-.6 1.976m.8 5.391c0 1.033.175 1.433.625 1.433.462 0 .593-.331.5-1.269-.181-1.834-1.125-1.972-1.125-.164m.8 4.433c0 1.785.491 2.383.957 1.167.475-1.236.266-2.967-.357-2.967-.444 0-.6.467-.6 1.8m.8 4.033c0 1.253.939 1.116 1.128-.164q.127-.867-.5-.869c-.409 0-.628.361-.628 1.033m.8 3.367c0 1.282.556 1.612.957.567.412-1.072.271-1.767-.357-1.767q-.6 0-.6 1.2m.8 2.813c0 1.271.558 1.595.957.554.369-.961.299-1.26-.357-1.512-.45-.172-.6.066-.6.958m.8 2.987c0 .55.161 1 .357 1 .467 0 .91-1.168.621-1.636-.436-.705-.978-.352-.978.636m.8 2.4c0 .676.183 1.006.5.9.275-.092.5-.497.5-.9s-.225-.808-.5-.9c-.317-.106-.5.224-.5.9m.8 2.576c0 .647.18 1.288.4 1.424s.4.687.4 1.224.18.976.4.976.4.45.4 1c0 1.117.584 1.341.957.367.383-.997.289-1.367-.347-1.367-.442 0-.53-.301-.35-1.2.187-.933.098-1.2-.4-1.2s-.587-.267-.4-1.2c.188-.939.099-1.2-.41-1.2-.453 0-.65.357-.65 1.176M38 254.2c0 .55.18 1 .4 1s.4-.165.4-.367.109-.652.243-1c.159-.415.022-.633-.4-.633-.419 0-.643.348-.643 1m.8 2.2c0 .44.18.8.4.8s.4.36.4.8c0 .981.618 1.051.979.111.163-.426.011-.875-.397-1.174-.364-.266-.543-.676-.398-.91.145-.235-.017-.427-.36-.427-.357 0-.624.342-.624.8m1.6 3.767c0 .568.18 1.033.4 1.033s.4.36.4.8.18.8.4.8.4.36.4.8c0 1.048.646 1.031.922-.024.135-.515-.007-.91-.376-1.052-.326-.125-.495-.481-.376-.791s-.054-.667-.384-.794c-.33-.126-.552-.506-.493-.843s-.118-.692-.393-.788c-.316-.11-.5.205-.5.859m2 5.233c0 .33.27.6.6.6s.6-.27.6-.6-.27-.6-.6-.6-.6.27-.6.6m.8 1.6c0 .33.27.6.6.6s.6-.27.6-.6-.27-.6-.6-.6-.6.27-.6.6m.8 1.288c0 .718 1.84 4.084 2.175 3.979.645-.201.722-1.067.096-1.067-.399 0-.527-.264-.387-.8.117-.447.012-.8-.237-.8-.246 0-.447-.36-.447-.8 0-.444-.267-.8-.6-.8-.33 0-.6.13-.6.288m2.477 4.942c.079.236.314.43.523.43s.445-.194.523-.43c.079-.237-.156-.43-.523-.43s-.602.193-.523.43m.723 1.57c0 .22.27.4.6.4s.6-.18.6-.4-.27-.4-.6-.4-.6.18-.6.4m.8 1.6c0 .22.18.4.4.4s.4.36.4.8.18.8.4.8.406.225.413.5c.025 1.004 1.156 2.091 1.655 1.592.354-.354.317-.523-.157-.705-.381-.146-.544-.538-.42-1.013.137-.525-.002-.774-.432-.774-.417 0-.55-.219-.388-.64.249-.648-.455-1.343-1.371-1.354-.275-.003-.5.174-.5.394m3.2 5.6c0 .22.18.4.4.4s.4.236.4.525c0 .288.36.911.8 1.383s.8 1.059.8 1.304c0 .463.972 1.588 1.371 1.588.126 0 .229-.27.229-.6s-.192-.6-.427-.6-.323-.328-.195-.73c.162-.512-.073-.893-.787-1.275-.639-.342-.934-.766-.791-1.138.234-.611-.419-1.24-1.3-1.251-.275-.003-.5.174-.5.394m4 6.112c0 .281.36.771.8 1.088s.8.767.8 1 .36.683.8 1 .8.814.8 1.105.183.746.407 1.012c1.53 1.814 1.993 2.441 1.993 2.702 0 .163.54.874 1.2 1.581s1.2 1.427 1.2 1.6c0 .917 3.512 4.007 3.775 3.321.286-.744-1.853-2.889-2.902-2.91-.349-.007-.439-.289-.266-.834.255-.803-.999-2.377-1.893-2.377-.201 0-.308-.344-.239-.765.121-.743-1.396-2.435-2.183-2.435-.212 0-.288-.37-.17-.823.157-.602-.047-.942-.759-1.267-.688-.313-.906-.659-.743-1.174.166-.521-.062-.863-.794-1.197-.564-.257-1.026-.619-1.026-.803s-.18-.336-.4-.336-.4.23-.4.512m12.051 16.186c1.009 1.284 3.61 3.702 3.982 3.702.202 0 .367.264.367.586 0 .822 10.494 11.814 11.28 11.814.492 0-1.107-1.784-5.974-6.662-2.66-2.666-4.409-4.725-4.287-5.044.288-.749-4.453-5.094-5.557-5.094-.198 0-.113.314.189.698M84 320.831c0 .703 5.113 5.39 5.479 5.023.113-.113-.218-.653-.737-1.2a78 78 0 0 1-2.318-2.624c-1.32-1.563-2.424-2.109-2.424-1.199m6.644 5.098c-.162.262.337 1.079 1.163 1.905 1.455 1.455 2.375 1.68 1.243.304-.334-.406-.948-1.172-1.365-1.703-.507-.645-.851-.813-1.041-.506m140.423.338c-.147.146-.267 4.736-.267 10.2v9.933H256V326h-12.333c-6.784 0-12.454.12-12.6.267m-136.865 2.93c-.27.437 1.513 2.403 2.18 2.403.23 0 .418.18.418.4s.23.4.512.4c.281 0 .771.36 1.088.8.665.923 1.2 1.04 1.2.261 0-.841-1.443-2.296-2.052-2.069-.324.12-.918-.369-1.452-1.194-.921-1.426-1.457-1.709-1.894-1.001m6.053 4.681c-.309.309 2.107 2.52 2.757 2.521.226.001.671.361.988.801.652.905 1.207 1.045 1.187.3-.023-.842-1.551-2.399-2.136-2.175-.316.121-.77-.2-1.068-.757-.513-.958-1.19-1.228-1.728-.69m5.745 4.226c0 .277.36.728.8 1.003.931.581 1.168-.179.32-1.027-.623-.623-1.12-.612-1.12.024m2.4 1.632c0 .294.718.879 1.595 1.3.878.42 1.598.899 1.6 1.064s.275.3.605.3.6.18.6.4.27.4.6.4.6-.103.6-.229c0-.446-1.152-1.371-1.707-1.371-.311 0-.763-.436-1.006-.969-.322-.707-.663-.91-1.264-.753-.468.122-.823.023-.823-.231 0-.246-.18-.447-.4-.447s-.4.241-.4.536m6 3.864c0 .22.27.4.6.4s.6.18.6.4.27.4.6.4.6.18.6.4.345.4.767.4c.421 0 .847.225.945.5.306.856.776.008.492-.887-.187-.588-.488-.777-.989-.618-.438.139-.811-.008-.952-.376a.636.636 0 0 0-.848-.369c-.338.129-.615.036-.615-.207 0-.244-.27-.443-.6-.443s-.6.18-.6.4m5.856 2.678c-.451.45-.275.922.344.922.33 0 .6-.169.6-.376 0-.505-.625-.866-.944-.546m1.565.888c-.318.515.805 1.599 1.679 1.621.275.007.5.193.5.413s.36.4.8.4.8.18.8.4.36.4.8.4.8.136.8.302c0 .167.585.538 1.3.827s1.613.692 1.995.897c1.016.547 1.505.459 1.505-.273 0-.449-.244-.583-.8-.437-.54.141-.8.012-.8-.396 0-.381-.229-.518-.615-.37a.64.64 0 0 1-.852-.38c-.13-.339-.468-.527-.752-.418-.283.109-.621-.08-.751-.419s-.49-.519-.8-.4-.67-.061-.8-.4-.49-.519-.8-.4-.669-.057-.797-.392c-.128-.334-.458-.532-.733-.439-.275.092-.698-.1-.939-.427-.333-.452-.512-.478-.74-.109m78.579 13.416v9.382l-1.3.21a53 53 0 0 1-2.3.318c-2.302.248-.545.917 2.695 1.025 1.924.064 3.671.289 3.882.5.509.509 4.623.494 4.623-.017 0-.255 3.4-.4 9.4-.4h9.4V352H216c-6.933 0-10.8-.143-10.8-.4 0-.222-1.067-.4-2.4-.4h-2.4zm56.4 1.218v9.8H366V352H256.8zM132.4 353c0 .33.27.6.6.6s.6-.27.6-.6-.27-.6-.6-.6-.6.27-.6.6m1.6.8c0 .33.27.6.6.6s.6-.27.6-.6-.27-.6-.6-.6-.6.27-.6.6m1.867.467c-.462.461-.291.933.338.933.333 0 1.008.208 1.5.462 2.63 1.36 2.695 1.372 2.695.495 0-.407-.22-.558-.6-.412-.365.14-.6 0-.6-.358 0-.323-.36-.587-.8-.587s-.8-.18-.8-.4c0-.447-1.318-.548-1.733-.133m6.033 2.03c-1.015.234-.859.863.326 1.313 1.318.501 2.174.497 2.174-.01 0-.22-.205-.4-.456-.4s-.656-.24-.9-.533c-.244-.292-.759-.459-1.144-.37m2.9 2.103c0 .22.45.4 1 .4s1-.18 1-.4-.45-.4-1-.4-1 .18-1 .4m3.1.276c-.947.247-.891.924.076.924.427 0 .888.18 1.024.4s.597.4 1.024.4.776-.18.776-.4-.36-.4-.8-.4c-.444 0-.8-.267-.8-.6 0-.615-.095-.639-1.3-.324m4 1.624c-1.058.24-.838.9.3.9.55 0 1-.169 1-.376 0-.522-.473-.712-1.3-.524m2.4.8c-1.058.24-.838.9.3.9.55 0 1-.169 1-.376 0-.522-.473-.712-1.3-.524m2.4.8c-1.058.24-.838.9.3.9.55 0 1-.169 1-.376 0-.522-.473-.712-1.3-.524m2.4.776c-1.217.318-.758.924.7.924.77 0 1.4.18 1.4.4s.45.4 1 .4c.652 0 1-.224 1-.643 0-.479-.245-.582-.958-.403-.649.163-1.033.047-1.188-.357-.229-.597-.64-.665-1.954-.321m5.195 1.601c-1.062.277-.412.923.929.923.779 0 1.176-.203 1.176-.6 0-.587-.689-.693-2.105-.323m3.005.788c-.988.399-.472.935.9.935.978 0 1.4-.181 1.4-.6 0-.588-1.229-.767-2.3-.335m3.2.8c-.988.399-.472.935.9.935.978 0 1.4-.181 1.4-.6 0-.588-1.229-.767-2.3-.335m3.2.793c-.992.415-.47.942.933.942.968 0 1.38-.162 1.269-.5-.177-.539-1.39-.782-2.202-.442m3.6.807c-1.039.419-.44.935 1.087.935 1.247 0 1.538-.129 1.358-.6-.224-.582-1.425-.747-2.445-.335m3.598.801c-.898.362-.086.934 1.326.934.956 0 1.376-.183 1.376-.6 0-.593-1.577-.788-2.702-.334m4.402.799c-1.091.44-.404.935 1.3.935 1.333 0 1.8-.156 1.8-.6 0-.594-1.938-.804-3.1-.335m4.798.801c-1.04.419.021.934 1.926.934 1.49 0 1.976-.148 1.976-.6 0-.597-2.682-.826-3.902-.334M238 371.8c0 .655 1.449.81 2.334.25.425-.27.398-.39-.133-.594-1.154-.443-2.201-.279-2.201.344"/><path id="path1" fill="#74a44c" d="M230.8 36.636V46.4H256V26.799l-12.6.037-12.6.036zm-36.917-8.23c-.159.608-.444.802-.955.653-2.461-.721-4.528-.742-4.528-.047 0 .619-.283.672-2.4.451-2.049-.214-2.4-.156-2.4.398 0 .538-.306.606-1.815.399-1.449-.199-1.864-.12-2.06.392-.193.503-.61.59-1.948.407-1.328-.182-1.754-.095-1.943.398-.186.483-.569.569-1.638.369-1.143-.215-1.396-.141-1.396.407 0 .557-.269.626-1.6.413-1.32-.211-1.6-.141-1.6.4 0 .542-.28.611-1.6.4-1.307-.209-1.6-.138-1.6.384 0 .525-.287.592-1.6.37-1.344-.227-1.6-.162-1.6.408 0 .516-.229.621-.958.438-.658-.165-1.033-.047-1.195.376-.178.462-.573.553-1.586.363-1.003-.188-1.409-.098-1.581.35-.151.394-.534.524-1.106.374-.563-.147-1-.006-1.224.394-.22.393-.662.541-1.2.4-.531-.139-.979.005-1.191.384-.217.388-.702.536-1.349.413-.592-.113-1.01-.009-1.01.253 0 .246-.36.447-.8.447-.462 0-.8.267-.8.632 0 .494-.262.574-1.2.368-.932-.205-1.2-.125-1.2.358 0 .478-.278.566-1.2.382-.764-.153-1.2-.077-1.2.21 0 .248-.251.45-.557.45s-.65.241-.763.536c-.134.348-.64.473-1.443.355-.806-.119-1.237-.012-1.237.306 0 .27-.269.386-.6.258-.365-.14-.6 0-.6.358 0 .323-.341.587-.757.587-.417 0-.86.268-.986.596-.177.46-.458.508-1.243.209-.822-.312-1.014-.265-1.014.252 0 .439-.247.572-.8.427-.541-.141-.8-.012-.8.4s-.259.542-.8.4c-.52-.136-.8-.012-.8.353 0 .31-.36.563-.8.563s-.8.18-.8.4-.36.4-.8.4-.8.199-.8.443c0 .243-.277.336-.615.207a.64.64 0 0 0-.852.38c-.13.339-.468.527-.752.418-.283-.109-.621.08-.751.419s-.49.519-.8.4-.67.061-.8.4-.49.519-.8.4a.61.61 0 0 0-.782.352.607.607 0 0 1-.781.351c-.31-.119-.666.05-.791.376-.136.353-.538.51-1 .39-.584-.153-.838.06-1.042.873-.202.803-.461 1.025-1.026.877-.427-.111-.848.042-.967.351-.116.302-.488.443-.826.313-.338-.129-.615-.036-.615.207 0 .244-.33.443-.732.443-.403 0-.962.428-1.242.952-.319.595-.765.884-1.191.773-.442-.116-.842.172-1.136.817-.333.731-.671.938-1.276.78-.5-.131-.823-.023-.823.274 0 .269-.256.391-.57.271-.332-.127-.842.197-1.222.777-.465.709-.876.925-1.43.749q-.779-.248-.778.319c0 .877-1.51 2.408-2.138 2.167-.331-.127-.778.191-1.093.778-.352.659-.775.93-1.255.804-.461-.12-.891.123-1.182.667-.69 1.289-1.412 1.892-2.002 1.673-.302-.112-.928.418-1.455 1.234-.61.943-1.132 1.352-1.53 1.199-.664-.254-1.119.122-2.473 2.048-.559.796-1.122 1.197-1.486 1.057-.578-.222-1.287.44-4.151 3.877-1.024 1.229-1.575 1.586-2.203 1.428-.614-.154-1.097.132-1.809 1.073-.533.706-3.005 3.299-5.492 5.763-2.776 2.751-4.439 4.695-4.308 5.036.2.522-2.186 2.972-4.751 4.877-.662.492-.988 1.041-.859 1.448.213.671-2.354 3.061-3.07 2.856-.198-.056-.251.332-.117.863.198.792-.021 1.144-1.222 1.96-.924.628-1.296 1.099-1.008 1.277.565.349-.525 1.663-1.685 2.031-.539.171-.72.494-.579 1.033.146.558-.077.913-.769 1.229q-.975.443-.76 1.119c.147.462-.235.979-1.207 1.633q-1.422.958-1.246 1.658c.107.429-.053.7-.414.7-.389 0-.511.249-.358.73.162.511-.072.892-.778 1.27-.697.373-.939.762-.782 1.257.169.532-.044.785-.828.981-.796.2-1.006.456-.854 1.038.113.432-.03.862-.323.974-.293.113-.435.543-.322.976q.202.773-.407.774-.61-.001-.405.782c.155.592-.051.846-.849 1.046-.805.202-.998.443-.815 1.018.167.529.043.754-.415.754-.472 0-.583.223-.4.8s.072.8-.4.8-.583.223-.4.8.072.8-.4.8-.583.223-.4.8c.176.553.072.8-.336.8q-.588 0-.38.8c.142.541.012.8-.4.8s-.541.259-.4.8.012.8-.4.8-.541.259-.4.8c.145.553.012.8-.427.8-.517 0-.564.192-.252 1.014.302.794.252 1.066-.232 1.252-.341.13-.522.491-.403.801s-.05.666-.377.791c-.326.125-.593.568-.593.985 0 .416-.2.757-.443.757-.275 0-.347.385-.191 1.009.181.718.071 1.079-.379 1.251-.348.134-.538.49-.423.792.124.323-.051.548-.427.548-.494 0-.583.268-.397 1.2.184.922.096 1.2-.382 1.2-.483 0-.563.268-.358 1.2.21.957.129 1.2-.4 1.2s-.61.243-.4 1.2c.205.932.125 1.2-.358 1.2-.478 0-.566.278-.382 1.2.187.933.098 1.2-.4 1.2s-.587.267-.4 1.2c.193.964.104 1.2-.453 1.2-.542 0-.638.221-.441 1.009.182.723.071 1.079-.39 1.256-.492.188-.584.565-.391 1.596.192 1.021.1 1.408-.375 1.591-.476.182-.567.569-.375 1.594.208 1.107.13 1.354-.426 1.354-.571 0-.636.255-.409 1.6.224 1.325.158 1.6-.385 1.6-.564 0-.617.333-.383 2.4.235 2.08.183 2.4-.394 2.4-.567 0-.626.295-.4 2 .226 1.708.167 2-.403 2-.588 0-.636.354-.402 2.938.225 2.485.167 2.976-.374 3.184-.55.211-.604.783-.389 4.062.222 3.382.175 3.816-.41 3.816-.596 0-.66.972-.66 10 0 9.027.064 10 .66 10 .587 0 .631.443.398 4-.233 3.55-.188 4 .395 4 .575 0 .624.372.39 2.952-.23 2.541-.175 2.989.398 3.208.539.207.619.598.42 2.048-.203 1.482-.134 1.792.398 1.792.551 0 .605.348.373 2.4-.234 2.067-.181 2.4.383 2.4.543 0 .609.275.385 1.6-.227 1.345-.162 1.6.409 1.6.561 0 .634.246.416 1.405-.202 1.078-.117 1.462.365 1.647.47.18.567.57.385 1.539-.183.978-.085 1.358.401 1.544.449.173.571.536.404 1.202-.17.677-.044 1.029.433 1.213.487.186.603.532.422 1.254-.191.759-.094.996.407.996.518 0 .607.256.418 1.2-.187.933-.098 1.2.4 1.2s.587.267.4 1.2c-.184.922-.096 1.2.382 1.2.483 0 .563.268.358 1.2s-.125 1.2.358 1.2c.478 0 .566.278.382 1.2-.186.932-.097 1.2.397 1.2.376 0 .551.225.427.548-.115.302.075.658.423.792.438.168.559.536.393 1.197-.165.657-.045 1.029.384 1.194.342.131.525.492.406.802s.061.67.4.8.519.49.4.8.062.671.403.801c.484.186.534.458.232 1.252-.312.822-.265 1.014.252 1.014.439 0 .572.247.427.8-.141.541-.012.8.4.8s.542.259.4.8c-.136.52-.012.8.353.8.31 0 .563.36.563.8s.201.8.447.8c.249 0 .354.353.237.8q-.208.8.38.8c.408 0 .512.247.336.8-.183.577-.072.8.4.8s.583.223.4.8-.072.8.4.8c.458 0 .582.225.415.754-.183.575.01.816.815 1.018.798.2 1.004.454.849 1.046q-.205.783.405.782.61 0 .407.774c-.113.433.029.863.322.976s.436.542.323.974c-.152.582.058.838.854 1.038.784.196.997.449.828.981-.157.495.085.884.782 1.257.706.378.94.759.778 1.27-.128.402-.04.73.195.73s.427.283.427.629c0 .732.646 1.446 1.927 2.132.61.326.837.722.686 1.197-.155.49.076.845.75 1.152.712.325.916.665.759 1.267-.118.453-.042.823.17.823.787 0 2.304 1.692 2.183 2.435-.069.421.038.765.239.765.894 0 2.148 1.574 1.893 2.377-.159.5-.083.823.193.823 1.104 0 3.193 2.087 2.972 2.969-.165.658.017.989.723 1.31 1.587.723 5.159 4.203 4.929 4.802-.129.337 1.545 2.306 4.282 5.039 2.472 2.467 4.943 5.062 5.491 5.766.71.913 1.23 1.222 1.806 1.077.592-.148 1.185.239 2.203 1.436 2.986 3.511 3.604 4.083 4.18 3.862.364-.14.927.261 1.486 1.057 1.354 1.926 1.809 2.302 2.473 2.048.398-.153.92.256 1.53 1.199.548.848 1.148 1.348 1.473 1.227.612-.228 2.052 1.23 2.052 2.077 0 .37.296.472.92.315.702-.176 1.045.004 1.45.761.308.574.763.902 1.081.78.583-.224 2.113 1.332 2.136 2.17.007.273.416.453.907.4q.895-.096 1.294.802c.271.608.627.825 1.106.673.403-.128.706-.021.706.25 0 .281.335.386.823.258.601-.157.942.046 1.264.753.243.533.733.969 1.089.969s.907.36 1.224.8.897.8 1.288.8c.392 0 .712.199.712.443 0 .243.277.336.615.207a.636.636 0 0 1 .848.369c.144.375.512.516.971.37.559-.177.804.023 1.004.821.2.796.456 1.006 1.038.854.462-.12.864.037 1 .39.125.326.481.495.791.376a.607.607 0 0 1 .781.351c.12.313.472.471.782.352s.67.061.8.4.49.519.8.4.67.061.8.4.49.519.8.4.67.061.8.4.468.528.751.419c.284-.109.622.079.752.418a.64.64 0 0 0 .852.38c.386-.148.615-.011.615.37 0 .408.26.537.8.396.541-.142.8-.012.8.4s.259.541.8.4.8-.012.8.4.259.541.8.4c.553-.145.8-.012.8.427 0 .494.269.583 1.2.397.764-.153 1.2-.077 1.2.21 0 .248.36.45.8.45s.8.264.8.587c0 .358.235.498.6.358.38-.146.6.005.6.412 0 .756.034.762 1.388.247.813-.309 1.09-.265 1.269.2.126.328.479.596.786.596.306 0 .557.18.557.4s.54.4 1.2.4 1.2.203 1.2.45c0 .287.436.363 1.2.21.899-.18 1.2-.092 1.2.35 0 .324.36.59.8.59s.8.201.8.447c0 .262.418.366 1.01.253.647-.123 1.132.025 1.349.413.212.379.66.523 1.191.384.538-.141.98.007 1.2.4.224.4.661.541 1.224.394.572-.15.955-.02 1.106.374.172.448.578.538 1.581.35 1.013-.19 1.408-.099 1.586.363.162.423.537.541 1.195.376.729-.183.958-.078.958.438 0 .57.256.635 1.6.408 1.313-.222 1.6-.155 1.6.37 0 .522.293.593 1.6.384 1.32-.211 1.6-.142 1.6.4 0 .541.28.611 1.6.4 1.331-.213 1.6-.144 1.6.413 0 .548.253.622 1.396.407 1.09-.204 1.451-.117 1.649.399.204.531.587.611 1.947.407 1.335-.2 1.746-.12 1.936.377.193.502.617.58 2.057.383 1.534-.21 1.815-.144 1.815.425 0 .588.309.64 2.4.403 2.066-.234 2.4-.18 2.4.383 0 .569.368.62 2.8.394 2.467-.229 2.8-.179 2.8.417 0 .636 4.171.606 5.3-.038.815-.465.327-18.924-.5-18.924-.44 0-.8-.18-.8-.4 0-.229-1.2-.4-2.8-.4s-2.8-.171-2.8-.4c0-.22-.99-.4-2.2-.4s-2.2-.18-2.2-.4c0-.222-1.067-.4-2.4-.4s-2.4-.178-2.4-.4c0-.22-.72-.4-1.6-.4s-1.6-.18-1.6-.4-.9-.4-2-.4-2-.18-2-.4-.619-.4-1.376-.4-1.488-.18-1.624-.4-.687-.4-1.224-.4-.976-.18-.976-.4-.72-.4-1.6-.4-1.6-.18-1.6-.4-.54-.4-1.2-.4-1.2-.18-1.2-.4-.54-.4-1.2-.4-1.2-.155-1.2-.344-1.032-.451-2.294-.581c-1.261-.13-2.356-.425-2.433-.656-.077-.23-.575-.419-1.106-.419s-.967-.18-.967-.4-.54-.4-1.2-.4-1.2-.18-1.2-.4-.36-.4-.8-.4-.8-.18-.8-.4-.54-.4-1.2-.4-1.2-.18-1.2-.4-.36-.4-.8-.4-.8-.18-.8-.4-.54-.4-1.2-.4-1.2-.18-1.2-.4-.36-.4-.8-.4-.8-.18-.8-.4-.36-.4-.8-.4-.8-.18-.8-.4-.27-.4-.6-.4-.6-.18-.6-.4-.54-.4-1.2-.4-1.2-.18-1.2-.4-.36-.4-.8-.4-.8-.18-.8-.4-.36-.4-.8-.4-.8-.18-.8-.4-.32-.4-.712-.4-.971-.36-1.288-.8-.897-.8-1.288-.8c-.392 0-.712-.18-.712-.4s-.36-.4-.8-.4-.8-.18-.8-.4-.36-.4-.8-.4-.8-.18-.8-.4-.32-.4-.712-.4-.971-.36-1.288-.8-.792-.8-1.056-.8c-.647 0-2.938-1.324-2.941-1.7-.002-.165-.323-.3-.715-.3s-.971-.36-1.288-.8-.897-.8-1.288-.8c-.392 0-.712-.18-.712-.4s-.288-.4-.64-.4c-.351 0-1.143-.54-1.76-1.2s-1.369-1.2-1.672-1.2-.811-.36-1.128-.8-.825-.8-1.128-.8-1.055-.54-1.672-1.2-1.397-1.2-1.734-1.2-.717-.331-.846-.736c-.128-.405-.725-.99-1.327-1.3-.601-.31-1.968-1.419-3.036-2.464s-2.192-1.9-2.496-1.9-2.62-2.115-5.147-4.7a1722 1722 0 0 0-8.204-8.331c-1.986-1.997-3.61-3.764-3.61-3.926s-.9-1.172-2-2.243-2-2.158-2-2.414-.54-.969-1.2-1.586-1.2-1.337-1.2-1.6-.54-.983-1.2-1.6-1.2-1.366-1.2-1.665-.45-1.028-1-1.622c-.55-.593-1-1.313-1-1.599s-.36-.746-.8-1.021-.8-.768-.8-1.096-.18-.597-.4-.597-.4-.32-.4-.712-.36-.971-.8-1.288-.8-.897-.8-1.288c0-.392-.18-.712-.4-.712s-.4-.32-.4-.712-.36-.971-.8-1.288-.8-.897-.8-1.288c0-.392-.18-.712-.4-.712s-.4-.36-.4-.8-.18-.8-.4-.8-.4-.36-.4-.8-.18-.8-.4-.8-.4-.36-.4-.8-.18-.8-.4-.8-.4-.36-.4-.8-.18-.8-.4-.8-.4-.36-.4-.8-.18-.8-.4-.8-.4-.27-.4-.6-.18-.6-.4-.6-.4-.36-.4-.8-.18-.8-.4-.8-.4-.36-.4-.8-.18-.8-.4-.8-.4-.36-.4-.8-.18-.8-.4-.8-.4-.54-.4-1.2-.174-1.2-.386-1.2-.506-.9-.652-2-.422-2-.614-2c-.191 0-.348-.54-.348-1.2s-.18-1.2-.4-1.2-.4-.45-.4-1-.18-1-.4-1-.4-.54-.4-1.2-.18-1.2-.4-1.2-.4-.54-.4-1.2-.18-1.2-.4-1.2-.4-.72-.4-1.6-.18-1.6-.4-1.6-.4-.72-.4-1.6-.18-1.6-.4-1.6-.4-.72-.4-1.6-.18-1.6-.4-1.6-.4-.81-.4-1.8-.18-1.8-.4-1.8c-.222 0-.4-1.067-.4-2.4s-.178-2.4-.4-2.4c-.233 0-.4-1.333-.4-3.2s-.167-3.2-.4-3.2c-.259 0-.4-4.8-.4-13.6s.141-13.6.4-13.6c.233 0 .4-1.333.4-3.2s.167-3.2.4-3.2c.22 0 .4-.99.4-2.2s.18-2.2.4-2.2.4-.9.4-2 .18-2 .4-2 .4-.72.4-1.6.18-1.6.4-1.6.4-.72.4-1.6.18-1.6.4-1.6.4-.72.4-1.6.18-1.6.4-1.6.4-.54.4-1.2.18-1.2.4-1.2.4-.45.4-1 .18-1 .4-1 .4-.54.4-1.2.18-1.2.4-1.2.4-.54.4-1.2.157-1.2.348-1.2c.192 0 .468-.9.614-2s.439-2 .652-2c.212 0 .386-.54.386-1.2s.18-1.2.4-1.2.4-.36.4-.8.18-.8.4-.8.4-.36.4-.8.18-.8.4-.8.4-.27.4-.6.18-.6.4-.6.4-.36.4-.8.18-.8.4-.8.4-.36.4-.8.18-.8.4-.8.4-.36.4-.8.18-.8.4-.8.4-.36.4-.8.18-.8.4-.8.4-.36.4-.8.18-.8.4-.8.4-.36.4-.8.18-.8.4-.8.4-.32.4-.712.36-.971.8-1.288.8-.897.8-1.288c0-.392.18-.712.4-.712s.4-.32.4-.712.36-.971.8-1.288.8-.807.8-1.088.18-.512.4-.512.4-.36.4-.8.15-.8.332-.8.588-.495.9-1.1.973-1.548 1.468-2.096.9-1.24.9-1.539.54-1.048 1.2-1.665 1.2-1.337 1.2-1.6.54-.983 1.2-1.6 1.2-1.338 1.2-1.603.9-1.327 2-2.36 2-2.006 2-2.162c0-.285 4.141-4.607 11.089-11.575 4.673-4.686 5.578-5.5 6.123-5.5.242 0 1.317-.9 2.388-2s2.124-2 2.338-2c.215 0 .845-.54 1.401-1.2.555-.66 1.219-1.2 1.475-1.2s.969-.54 1.586-1.2 1.369-1.2 1.672-1.2.811-.36 1.128-.8.825-.8 1.128-.8 1.055-.54 1.672-1.2 1.409-1.2 1.76-1.2c.352 0 .64-.18.64-.4s.36-.4.8-.4.8-.177.8-.392.437-.502.971-.636c.533-.134 1.281-.588 1.662-1.008.38-.42.933-.764 1.229-.764s.538-.18.538-.4.32-.4.712-.4.971-.36 1.288-.8.897-.8 1.288-.8c.392 0 .712-.18.712-.4s.36-.4.8-.4.8-.18.8-.4.36-.4.8-.4.8-.18.8-.4.32-.4.712-.4.971-.36 1.288-.8.897-.8 1.288-.8c.392 0 .712-.18.712-.4s.36-.4.8-.4.8-.18.8-.4.36-.4.8-.4.8-.18.8-.4.54-.4 1.2-.4 1.2-.18 1.2-.4.27-.4.6-.4.6-.18.6-.4.36-.4.8-.4.8-.18.8-.4.36-.4.8-.4.8-.18.8-.4.54-.4 1.2-.4 1.2-.18 1.2-.4.36-.4.8-.4.8-.18.8-.4.54-.4 1.2-.4 1.2-.18 1.2-.4.36-.4.8-.4.8-.159.8-.354.99-.478 2.2-.629 2.2-.442 2.2-.646.36-.371.8-.371.8-.18.8-.4.72-.4 1.6-.4 1.6-.18 1.6-.4.54-.4 1.2-.4 1.2-.18 1.2-.4.54-.4 1.2-.4 1.2-.18 1.2-.4.72-.4 1.6-.4 1.6-.18 1.6-.4.54-.4 1.2-.4 1.2-.18 1.2-.4.63-.4 1.4-.4 1.4-.18 1.4-.4.9-.4 2-.4 2-.18 2-.4.72-.4 1.6-.4 1.6-.18 1.6-.4c0-.222 1.067-.4 2.4-.4s2.4-.178 2.4-.4c0-.22.99-.4 2.2-.4s2.2-.18 2.2-.4c0-.229 1.2-.4 2.8-.4s2.8-.171 2.8-.4c0-.22.36-.4.8-.4 1.166 0 1.264-18.615.1-18.944-2.727-.772-4.793-.71-5.017.15m6.517 36.599v9.806l13.1-.106 13.1-.105.107-9.7.107-9.7H200.4zm56.493-.105.107 9.7 54.9.101 54.9.102V55.2H256.786zm-25.821 10.561c-.149.15-.272 27.422-.272 60.606V196.4h25.203l-.102-60.5-.101-60.5-12.228-.106c-6.725-.058-12.35.017-12.5.167M230.8 264.8v60.4H256V204.4h-25.2zm-30.133 61.467c-.147.146-.267 4.556-.267 9.8v9.533h3.6c2.133 0 3.6.163 3.6.4 0 .256 3.467.4 9.6.4h9.6V326h-12.933c-7.114 0-13.054.12-13.2.267m56.133 9.932V346.4h109.214l-.107-10.1-.107-10.1-54.5-.101-54.5-.102zm-26 25.57v9.77l12.5-.07 12.5-.069.107-9.7.107-9.7H230.8z"/></g></svg>