<svg xmlns="http://www.w3.org/2000/svg" id="svg" width="400" height="400" viewBox="0 0 400 400"><g id="svgg" fill-rule="evenodd" stroke="none"><path id="path0" fill="#fb0404" d="M127.969 1.133c-.344.068-1.399.272-2.344.453-6.016 1.155-13.422 6.839-17.619 13.525C94.547 36.548 117.331 61.685 140 50.409c3.771-1.876 10.713-8.988 12.143-12.44 2.52-6.085 2.663-6.737 2.683-12.188.027-7.701-1.387-11.238-6.756-16.889-5.924-6.237-13.324-9.093-20.101-7.759m-.754 11.427c9.195 4.423 18.74 15.825 18.716 22.354-.018 4.636-4.375 8.542-9.056 8.117-7.032-.639-18.361-10.338-22.414-19.19-3.952-8.633 3.873-15.555 12.754-11.281M88.938 33.203c-2.098 2.112-4.57 6.659-5.646 10.387-.297 1.029-.746 2.269-.998 2.756l-.458.885-1.38-1.272c-2.197-2.025-3.203-1.697-4.999 1.633-.483.895-2.059 3.103-3.503 4.908s-3.117 4.125-3.717 5.156a148 148 0 0 1-1.741 2.918l-.648 1.043.91.91.91.91 2.338-.977c1.286-.538 2.711-1.241 3.167-1.563s.916-.584 1.022-.584c.106-.001 5.481 5.244 11.944 11.654L97.89 83.621l-.97 1.393c-1.951 2.798-2.344 6.861-.664 6.861 3.4 0 20.932-17.741 20.932-21.181V69.61l-1.641.141c-1.674.143-3.321.792-5.904 2.326l-1.451.861-1.674-1.266c-3.51-2.656-21.055-20.722-20.982-21.606.385-4.654 4.584-6.498 9.837-4.318 6.848 2.841 7.384.815 1.804-6.812-1.144-1.563-2.48-3.589-2.97-4.502-2.004-3.738-2.631-3.884-5.269-1.231M41.099 55.666c-2.443.696-4.75 1.751-8.443 3.861C28.634 61.826 4.375 86.206 4.375 87.95c0 2.172 3.899 1.896 7.224-.512.664-.482 1.332-.875 1.483-.875.574 0 38.495 37.532 40.162 39.75l.869 1.157-.907 1.343c-3.525 5.219-2.16 8.842 2.247 5.964 3.056-1.995 17.681-17.067 18.753-19.324 1.554-3.276-1.501-3.804-6.136-1.062-3.369 1.994-3.008 2.199-12.144-6.902l-6.977-6.951 1.229-1.098c8.072-7.216 10.506-10.46 12.849-17.121 5.143-14.628-8.012-30.617-21.928-26.653m-2.51 12.002c7.925 2.064 15.486 12.19 14.093 18.873-.73 3.501-5.618 10.022-7.513 10.022-.168 0-5.079-4.767-10.913-10.594L23.65 75.376l3.226-3.316c4.336-4.456 7.259-5.552 11.713-4.392"/><path id="path1" fill="#ac6404" d="M249.766 235.781c.004.688.068.932.143.543.074-.388.071-.951-.007-1.25-.078-.298-.139.02-.136.707m-97.657.068-.859.13v75.738c0 70.698-.035 75.744-.525 75.838-.289.056 21.884.101 49.273.101s49.564-.045 49.276-.101c-.489-.094-.524-5.243-.524-76.015v-75.915l-47.891.047c-26.339.026-48.277.105-48.75.177m16.776 78.135 2.66 2.735.009 2.118.009 2.118-2.184 2.075c-1.2 1.141-2.265 2.333-2.364 2.648-.161.506-.555.572-3.402.572h-3.22l-2.697-2.696-2.696-2.697v-2.46c0-1.73.113-2.459.382-2.459.511 0 4.306-3.78 4.306-4.288 0-.299.822-.4 3.268-.4h3.268z"/><path id="path2" fill="#fbb443" d="m133.121 58.984-4.527 4.61 4.609-4.527c4.282-4.206 4.751-4.692 4.527-4.692-.045 0-2.119 2.074-4.609 4.609m-7.036 7.032-2.179 2.265 2.266-2.179c2.104-2.024 2.408-2.352 2.179-2.352-.048 0-1.067 1.02-2.266 2.266m-5.975 77.187-79.43 79.453-3.231 1.652c-1.947.996-4.409 1.953-6.199 2.41a729 729 0 0 0-6.177 1.598c-.319.085-.38 15.464-.313 78.7l.084 78.595.824.824c1.363 1.363 1.421 1.365 64.098 1.342l60.547-.021-.001-76.612v-76.613l49.766.08 49.766.08-.083 76.561-.083 76.561h125.623l.171-.704c.237-.975.042-158.261-.196-158.5-.106-.106-1.091-.336-2.188-.511-3.614-.576-9.933-3.01-12.736-4.905-.751-.508-37.033-36.591-80.626-80.184S200.257 63.75 200.003 63.75s-36.206 35.754-79.893 79.453m-41.674-29.531-15.155 15.234 15.235-15.155c8.379-8.335 15.234-15.191 15.234-15.234 0-.22-1.227.994-15.314 15.155m236.252-6.641c1.626 1.633 3.026 2.969 3.112 2.969s-1.174-1.336-2.8-2.969-3.027-2.968-3.113-2.968 1.174 1.335 2.801 2.968M335 127.344c3.176 3.179 5.845 5.781 5.931 5.781s-2.442-2.602-5.618-5.781c-3.177-3.18-5.846-5.781-5.932-5.781s2.443 2.601 5.619 5.781M22.027 170.078l-4.371 4.453 4.453-4.371c4.137-4.06 4.595-4.535 4.371-4.535-.045 0-2.049 2.004-4.453 4.453"/><path id="path3" fill="#fcfb04" d="M192.188 12.498c-8.11 1.006-17.609 5.863-25.223 12.899-4.771 4.408-12.87 12.344-19.777 19.379-4.04 4.114-37.806 37.945-75.037 75.18-63.904 63.91-67.754 67.823-68.784 69.888-1.21 2.425-2.279 5.549-2.592 7.576-.112.73-.333 1.406-.49 1.503-.367.227-.375 7.731-.008 8.124.152.163.437 1.243.633 2.398 1.189 7.024 9.217 15.36 16.915 17.565 4.91 1.407 7.218 1.496 10.769.416.859-.261 2.687-.783 4.062-1.16s3.738-1.343 5.251-2.147l2.752-1.463 79.44-79.453c43.693-43.699 79.649-79.453 79.904-79.453s36.13 35.667 79.723 79.259c43.593 43.593 79.875 79.676 80.626 80.184 4.19 2.833 13.038 5.607 16.156 5.064 10.405-1.81 17.535-6.856 21.624-15.303 1.369-2.828 2.519-13.053 1.574-13.998-.182-.182-.331-.653-.331-1.046 0-1.296-1.838-6.466-3.034-8.535C394.854 186.804 233.959 25.642 230 22.759a209 209 0 0 0-5.625-3.9 694 694 0 0 1-4.497-3.026c-.668-.458-1.443-.833-1.721-.833-.279 0-2.263-.59-4.41-1.312l-3.903-1.311-7.813-.065c-4.297-.036-8.726.048-9.843.186"/><path id="path4" fill="#0c0905" d="M150.313 311.094c0 67.708.053 76.406.468 76.406s.469-8.624.469-75.74v-75.741l1.172-.193c.644-.107 22.582-.196 48.75-.198l47.578-.003v75.938c0 67.291.053 75.937.469 75.937.415 0 .469-8.698.469-76.406v-76.406h-99.375zm9.375.556c0 .508-3.795 4.288-4.306 4.288-.269 0-.382.729-.382 2.459v2.46l2.696 2.697 2.697 2.696h3.22c2.847 0 3.241-.066 3.402-.572.099-.315 1.164-1.507 2.364-2.648l2.184-2.075-.009-2.118-.009-2.118-2.66-2.735-2.661-2.734h-3.268c-2.446 0-3.268.101-3.268.4"/></g></svg>