<svg xmlns="http://www.w3.org/2000/svg" id="svg" width="300" height="300" viewBox="0 0 300 300"><svg xmlns="http://www.w3.org/2000/svg"><defs><clipPath id="clip-1"><path fill="none" d="M0 0h299.991v299.991H0z"/></clipPath></defs><g fill="none" stroke-miterlimit="10" clip-path="url(#clip-1)" font-family="none" font-size="none" font-weight="none" style="mix-blend-mode:normal" text-anchor="none"><path fill="#a40000" d="M74.249 0h132.22l.015.338c1.363 1.1 3.219 3.055 4.514 4.35l7.32 7.329 23.456 23.46 26.013 26.014 8.128 8.112c1.648 1.644 3.724 3.62 5.178 5.382.494 1.403.194 17.98.194 21.225-.002 11.63.215 23.305-.005 34.93l.005 104.824.003 29.464c.005 6.339.33 13.112-.563 19.453-1.024 7.294-7.966 13.585-15.15 14.696-.826.127-1.745-.024-2.48.423H74.165c-.427-.283-2.38-.529-2.959-.653-8.138-1.777-13.79-8.275-14.61-16.51-.689-6.919-.327-13.527-.41-20.422.134-2.75.02-6.278.053-9.132-6.143-.164-12.32-.009-18.464-.051-2.604-.02-6.295.136-8.809-.08h-.135c-4.793-.01-9.408-2.816-9.976-8.002-.337-3.083-.153-6.763-.151-9.899v-19.362l-.004-64.084c.044-4.701 1.358-9.728 6.95-10.863 3.326-.674 8.087-.328 11.605-.346 6.06-.03 12.198-.06 18.266.027l.51-.11.186-.24c-.047-1.915-.016-6.684-.013-8.266l-.018-28.96c.058-2.104.048-4.376.027-6.483l.052-.396c-2.4-.05-9.824-.475-11.763.49-.413.205-.85.46-1.3.57-1.113.269-2.161-.486-3.045-1.064-3.155.065-6.854.331-9.113-2.32-2.004-2.351-1.782-4.947-1.78-7.808.003-1.91 0-3.843 0-5.758l.008-19.985-.074-24.772c-.002-3.163-.19-9.19.072-12.15.255-8.79 5.766-8.064 12.408-8.172 4.848-.079 10.239.241 15.024.016a29 29 0 0 1 .922-2.902A18.85 18.85 0 0 1 69.805.918C70.99.555 73.329.499 74.249 0"/><path fill="#fe960c" d="m55.522 140.623 32.143-.008 7.233.003c.884.005 3.712.08 4.463-.075l.115-.25c.244.891.43 1.151.892 1.921 1.955.997 5.355 2.142 7.48 2.875l9.534 3.361c2.665.922 5.257 1.69 7.834 2.861 1.132-.453 1.75-.78 2.202-2.001.936-2.534 1.086-6.158 1.767-8.685l73.873-.004h22.012c2.699-.001 8.704-.184 11.161.114a8.57 8.57 0 0 1 5.01 2.45c1.262 1.264 2.396 3.528 2.46 5.302.124 3.448.056 7.018.049 10.466l-.004 21.08.001 42.021c0 6.892.018 13.783.009 20.675-.003 1.778-.195 2.895-.64 4.573.96 2.341.91 6.94-.093 9.3-1.59 3.745-5.258 6.156-9.363 5.885-13.88.014-27.738.012-41.607.01l-80.677-.006H73.5l-11.456.008c-1.398 0-4.609.076-5.858-.084.135-2.751.022-6.278.054-9.132-6.143-.164-12.32-.009-18.464-.051-2.604-.02-6.295.136-8.809-.08h-.135c-4.793-.01-9.408-2.816-9.975-8.002-.338-3.083-.154-6.763-.152-9.9v-19.36l-.004-64.084c.044-4.701 1.358-9.728 6.95-10.863 3.326-.674 8.087-.328 11.605-.346 6.06-.03 12.198-.06 18.266.027"/><path fill="#780000" d="M243.116 247.302c.96 2.341.91 6.94-.093 9.3-1.59 3.745-5.258 6.156-9.363 5.885-13.88.014-27.738.012-41.607.01l-80.677-.006H73.5l-11.456.008c-1.398 0-4.609.076-5.858-.084.135-2.751.022-6.278.054-9.132-6.143-.164-12.32-.009-18.464-.051-2.604-.02-6.295.136-8.809-.08 1.98-.11 4.56-.042 6.576-.042l11.832.005 36.438.019 112.458-.005 25.79-.001c4.288 0 8.598.075 12.884-.035 3.691-.095 6.704-2.512 8.17-5.79"/><path fill="#3c3c3c" d="M202.792 219.125c-8.52 4.483-22.665 5.41-31.833 2.652-15.053-4.525-19.576-20.557-15.066-34.344a24.5 24.5 0 0 1 12.349-14.428c5.298-2.654 11.118-3.487 17.04-3.675 2.202-.07 4.935.681 7.203.696 2.582.32 3.958.965 6.817 1.077-.123 4.486.016 9.16-.073 13.725-9.292-3.753-22.945-5.84-27.642 5.934-.338.848-.624 1.924-.638 2.842.189.81.127 6.09.074 7.135.838 5.52 5.576 10.116 11.256 10.194 1.218.016 3.91.193 4.865-.451.58-.933.352-6.353.344-7.729-1.987.037-6.583-.052-8.31.14-.546.118-1.523.155-2.114.196a489 489 0 0 1-.042-11.539c.003-.537-.051-.518.226-.776l.266.086c.84.169 8.236.115 9.536.072 4.995-.164 10.847.213 15.728-.03.01 9.243.185 19.026.014 28.223"/><path fill="#fefefe" d="M177.064 203.089a489 489 0 0 1-.042-11.539c.003-.537-.051-.518.226-.776l.266.086c.022 1.544-.143 11.529.248 11.95.606.105.794.094 1.416.083-.546.118-1.523.155-2.114.196"/><path fill="#fff7cd" d="M170.949 193.604c.189.81.127 6.09.074 7.135-.259-2.153-.975-4.99-.074-7.135"/><path fill="#3c3c3c" d="m134.775 170.416.083-.315c.668-.223 14.786-.122 16.457-.055l.145.164-.153.186c-.673 1.131-1.28 3.462-1.768 4.823-1.492 4.142-2.643 8.505-4.009 12.653l-7.623 22.891c-1.19 3.571-2.937 8.33-3.895 11.895-5.579-.134-11.749-.033-17.332.009-2.249-6.422-4.347-12.954-6.309-19.465-1.454-4.827-3.418-9.824-4.876-14.655-1.274-4.224-2.515-8.39-3.981-12.56-.59-1.68-1.234-4.019-2.025-5.563l-.132-.275c.475-.237 15.297-.106 17.027-.08.204.15.153.058.202.247.396 3.09 1.797 8.282 2.59 11.418l4.194 16.74c.666 2.683 1.364 5.36 1.818 8.087.114.68.182 1.237.432 1.89l.247.068c.593-.647 1.177-5.093 1.508-6.482l5.53-23.172c.427-1.812 1.877-6.876 1.87-8.45"/><path fill="#fff7cd" d="m99.489 170.424-.132-.275c.475-.237 15.297-.106 17.027-.08.204.15.153.058.202.247-1.127.256-5.45.205-6.842.187-3.3-.04-6.986.096-10.255-.079m35.286-.008.083-.315c.668-.223 14.786-.122 16.457-.055l.145.164-.153.186c-2.652.178-5.924.104-8.617.103-2.429-.001-5.549.09-7.915-.083"/><path fill="#3c3c3c" d="M80.26 206.549c-3.686-3.72-5.398-3.62-10.047-5.767-7.255-3.352-10.794-7.554-10.492-15.728.16-4.363.783-6.287 3.939-9.512 3.926-4.01 8.547-5.553 14.029-5.803 1.175-.053 2.465-.38 3.739-.36a48 48 0 0 1 7.59.71c2.418.432 3.418.955 6.008 1.008-.14 4.296-.013 8.818-.088 13.177-5.795-2.696-11.072-4.237-17.43-2.5-1.528 1.7-1.69 3.02-.81 5.083l.177.426c2.517 1.943 6.19 3.028 8.972 4.433 5.193 2.619 10.717 6.104 11.534 12.32 1.547 11.774-6.377 17.77-17.162 19.082-4.538.55-7.008.079-11.347-.183-2.29.04-6.78-1.199-8.962-2.16-.07-4.004.038-8.024-.083-12.029-.024-.79-.107-1.516.056-2.294l.209-.121.298.235c2.774 2.99 10.33 5.331 14.401 5.533 1.688.084 2.925-.19 4.186-1.368q.647-.615 1.273-1.252c.007-.954.034-1.984.01-2.93"/><path fill="#fefefe" d="M59.91 220.775c-.07-4.004.038-8.024-.083-12.029-.024-.79-.107-1.516.056-2.294l.209-.121.298.235c-.287 3.745-.024 10.248-.057 14.252 1.346.152 3.066.861 4.42 1.226 1.421.382 2.67.625 4.119.89-2.29.04-6.78-1.198-8.962-2.159"/><path fill="#3c3c3c" d="M56.703 15.215c3.624.097 7.607.017 11.254.014l19.982-.002h62.18l23.494-.005c4.062-.003 8.225-.116 12.276.097 4.667.246 6.1 4.849 5.729 8.77-.324 3.426.452 8.6-.11 11.827.164 3.646.096 7.711.098 11.38l.003 17.844-.002 15.784c0 2.916.03 5.827-.05 8.742-.042 1.506-.165 1.843-.62 3.2-.307.345-1.062 1.154-1.089 1.603-.614.845-1.263 1.118-2.206 1.56-.202.05-.984.227-1.125.3-.579.23-1.148.29-1.767.294-6.607.046-13.31.036-19.911.026-1.737-.003-9.038.12-10.35-.12-.654.05-1.318 0-1.974-.027-2.626.276-6.696.149-9.465.148l-16.5-.007-18.052.007c-2.478.002-6.834.142-9.181-.032l-.335-.388c-.887-.73-2.46-3.525-3.696-4.839-1.144-.078-1.874-.038-3.03.027-2.093 1.857-1.706 2.378-.595 4.765-1.92-.171-6.627.032-8.802.035l-17.014-.007c-3.043-.001-6.587.097-9.579-.043-2.4-.05-9.824-.475-11.763.49-.413.205-.85.46-1.3.57-1.113.269-2.161-.487-3.045-1.064-3.155.064-6.854.331-9.113-2.32-2.004-2.351-1.782-4.947-1.78-7.808.003-1.91 0-3.843 0-5.758l.008-19.985-.074-24.772c-.002-3.163-.19-9.19.072-12.15.255-8.79 5.766-8.064 12.408-8.172 4.848-.079 10.239.241 15.024.016"/><path fill="#fe960c" d="M56.703 15.215c3.624.097 7.607.017 11.254.014l19.982-.002h62.18l23.494-.005c4.062-.003 8.225-.116 12.276.097 4.667.246 6.1 4.849 5.729 8.77-.324 3.426.452 8.6-.11 11.827l-.59-.631-.23.033c-.99 2.25-5.183 7.264-6.944 9.764L171.416 62.68c-1.49 2.107-2.887 4.295-4.446 6.343-.228-.487-.62-1.389-.942-1.803-2.096-2.697-4.696-5.509-6.97-8.049-2.617-2.708-5.159-4.838-7.513-7.843-1.49-1.904-6.088-6.91-8.81-6.777-1.79.087-5.327 4.09-6.7 5.47l-6.893 6.917-9.462 9.447c-1.836 1.833-4.005 3.907-5.707 5.824-1.246-1.254-2.21-2.733-3.386-3.933-2.01-2.054-3.788-4.218-5.691-6.335l-11.96-13.154c-1.035-1.13-2.087-2.12-3.204-3.333-3.054-3.314-6.323-7.564-9.608-10.547-1.452-1.318-5.828-2.22-7.112-.14-1.533 2.484-2.981 5.289-4.466 7.947l-9.345 16.501c-1.509 2.653-3.844 7.034-5.515 9.428l-.124.176a635 635 0 0 0-13.856-9.336c-3.379-2.252-6.965-4.727-10.406-6.85-.094-9.683.18-19.611-.029-29.261.255-8.79 5.766-8.065 12.408-8.173 4.848-.079 10.239.241 15.024.016"/><path fill="#3c3c3c" d="M113.207 22.708c7.846-.907 14.943 4.719 15.847 12.566.905 7.847-4.724 14.94-12.571 15.842-7.843.902-14.932-4.724-15.837-12.566s4.719-14.934 12.56-15.842"/><path fill="#fe960c" d="M113.027 24.31c6.937-1 13.378 3.794 14.413 10.726 1.034 6.933-3.727 13.398-10.654 14.466-6.976 1.077-13.497-3.726-14.538-10.707-1.042-6.98 3.793-13.478 10.779-14.484"/><path fill="#3c3c3c" d="M113.818 25.828c12.984-.956 15.261 19.279 2.087 21.59-13.512.786-14.874-19.717-2.087-21.59"/><path fill="#fbddb2" d="m98.982 96.23 34.485-.027 11.67.001c1.215 0 6.672-.155 7.378.298-2.626.276-6.696.149-9.465.148l-16.5-.007-18.052.007c-2.478.002-6.834.142-9.181-.032zm55.506.3c1.185-.78 19.131-.088 22.23-.336.86-.07 9.263-.015 9.8.135-.58.23-1.15.29-1.768.294-6.607.046-13.31.036-19.911.026-1.737-.003-9.038.12-10.35-.12m33.153-.499c-.032-.097-.006-.204-.003-.306.53-.504 1.462-1.175 2.21-1.255-.615.845-1.264 1.118-2.207 1.56"/><path fill="#fe0b0a" d="M206.484.338c1.363 1.1 3.219 3.055 4.514 4.35l7.32 7.329 23.456 23.46 26.013 26.014 8.128 8.112c1.648 1.644 3.724 3.62 5.178 5.382-2.453.119-5.002-.006-7.469.027-14.782.198-29.713-.272-44.483.006-5.625-.246-9.017.718-14.244-2.982-1.044-.74-2.51-1.646-3.376-2.608-2.144-2.375-4.536-6.557-5.08-9.68-.251-1.433-.21-5.494-.212-7.014l-.002-12.154.001-25.756c0-1.774-.167-13.866.256-14.486"/><path fill="#a40000" d="m91.661 96.183.032.212c.871 2.133 1.743 4.347 2.702 6.436l11.176 25.38c1.35 3.073 3.057 7.525 4.478 10.372-1.234-.011-2.502-.071-3.728-.063-2.361.016-5.628-.942-6.845 1.773l-.115.25c-.75.154-3.579.08-4.463.075l-7.233-.003-32.143.008.51-.11.186-.24c-.047-1.915-.016-6.684-.013-8.266l-.018-28.96c.058-2.104.048-4.376.027-6.483l.052-.396c2.992.14 6.536.042 9.579.043l17.014.007c2.175-.003 6.883-.206 8.802-.035"/><path fill="#780000" d="m91.661 96.183.032.212c.871 2.133 1.743 4.347 2.702 6.436-2.444.384-6.622.296-9.162.296l-13.222-.01-10.33.008c-1.423 0-4.206.078-5.494-.078.058-2.104.048-4.376.027-6.483l.052-.396c2.992.14 6.536.042 9.579.043l17.014.007c2.175-.003 6.883-.206 8.802-.035"/><path fill="#fbddb2" d="m91.661 96.183.032.212c-.616.332-3.248.238-4.13.243l-8.363.01H64.806c-2.743-.002-5.885.064-8.592-.084l.052-.396c2.992.14 6.536.042 9.579.043l17.014.007c2.175-.003 6.883-.206 8.802-.035"/><path fill="#780000" d="M281.093 74.985c.494 1.403.194 17.98.194 21.225-.002 11.63.215 23.305-.005 34.93l-.205-.62c-1.236-.867-4.412-4.16-5.648-5.396l-10.266-10.263c-13.18-13.177-26.518-26.812-39.835-39.807 1.238.085 2.584.117 3.813-.036 14.77-.278 29.701.192 44.483-.006 2.467-.033 5.016.092 7.47-.027"/><path fill="#fefefe" d="M92.257 91.418c1.155-.065 1.885-.105 3.03-.027 1.235 1.314 2.808 4.11 3.695 4.84l.335.387c1.597 2.4 3.195 4.451 4.897 6.761 4.765 7.27 10.918 14.335 15.882 21.556 1.306 1.9 2.586 3.659 4.043 5.446 1.13-2.182 3.26-5.886 4.608-7.909.97-.026 1.903-.072 2.87.01.127.326.638 1.57.586 1.857-.967 5.321-1.77 11.05-3.018 16.286-.68 2.527-.831 6.15-1.767 8.685-.452 1.222-1.07 1.548-2.202 2.001-2.577-1.17-5.169-1.94-7.834-2.86l-9.533-3.362c-2.126-.733-5.526-1.878-7.48-2.874-.463-.771-.65-1.03-.893-1.922 1.217-2.715 4.484-1.757 6.845-1.773 1.226-.008 2.494.052 3.728.063-1.42-2.847-3.129-7.3-4.478-10.372l-11.176-25.38c-.96-2.089-1.83-4.303-2.702-6.436l-.032-.212c-1.11-2.387-1.498-2.908.596-4.765"/><path fill="#780000" d="M190.937 92.867c.675.858.643 1.45.51 2.48-.203 1.584-1.028 5.205-2.495 6.073-3.626 2.146-10.535 1.71-14.387 1.708l-13.867-.007-43.817.003c-1.904 0-11.598-.292-12.667.255-1.702-2.31-3.3-4.362-4.897-6.761 2.347.174 6.703.034 9.18.032l18.053-.006 16.5.006c2.769.001 6.839.128 9.465-.148.656.028 1.32.078 1.973.028 1.313.238 8.614.116 10.35.12 6.603.01 13.305.02 19.912-.027.619-.005 1.188-.064 1.767-.294.14-.073.923-.25 1.125-.3.943-.442 1.592-.715 2.206-1.56.026-.449.782-1.258 1.088-1.602"/></g></svg></svg>