<svg xmlns="http://www.w3.org/2000/svg" id="svg" width="300" height="300" viewBox="0 0 300 300"><svg xmlns="http://www.w3.org/2000/svg"><defs><clipPath id="clip-1"><path fill="none" d="M0 0h299.991v299.991H0z"/></clipPath></defs><g fill="none" stroke-miterlimit="10" clip-path="url(#clip-1)" font-family="none" font-size="none" font-weight="none" style="mix-blend-mode:normal" text-anchor="none"><path fill="#f00000" d="M57.656.883c4.504.4 10.297.412 14.817.416h132.054l18.911.003c6.307-.002 12.638.002 18.935-.44l-.064 1.718a599 599 0 0 1 6.066-.422l-.085 1.58c1.283-.268 3.361-.38 4.784-.555.004.662-.003.823.132 1.46.663.196 2.629-.358 3.38-.11.096.479.116.733.151 1.223.422.237 1.13-.107 1.972-.059.35.303.234.7.308 1.337.512.25 1.043-.197 1.971-.15.403.377.216.648.384 1.437.678.218 1.248-.48 2.153-.177.186.412.07 1.063.028 1.548.72-.206 1.66-.634 2.306-.222.004.42-.026.526.129.917.417.237.243.219.826.115 2.288-.407 1.94 1.275 3.003 2.283.281.266 1.002.016 1.466-.085 1.518 1.205 2.933 3.22 4.286 4.65.535.564 1.222.112 1.591.245 1.272.457 5.974 5.656 6.517 6.512-.058.447-.077.53-.052.995.581.799 2.838 2.87 3.659 3.474-.267 1.839.59 1.743 1.793 3.016.802.848.133 1.94.458 2.118.966.531 1.584 1.229 2.492 1.826-.073.567-.234 1.167-.08 1.676.251.09.499.123.764.152 1.021 1.088-.289 1.844.554 2.48.44-.023.54-.056.97.055.22.438.017 1.406-.031 1.99.386.674.3-.077 1.092.533.392 1.045.097 2.245-.054 3.375l1.477-.075c-.038.704-.478 3.284-.14 3.66.37-.025.714-.037 1.085-.049.73.664-.548 3.922.022 4.708.461-.013.766-.013 1.226.01.537.626-.268 5.299-.151 6.92.39.15.74-.023 1.239-.128v178.132c-.464-.065-.605-.11-1.072-.008-.657 1.19.652 6.284-.088 6.993a9 9 0 0 0-.979-.1l-.216.23c-.226 1.182.547 3.984.013 4.592a5.5 5.5 0 0 0-.952-.107c-.663.716.256 2.115-.132 3.596-.347.205-.328.105-.863-.02-.939.41.227 2.586-.507 3.686-1.532-.121-.666.887-.999 1.991-.245.816-.857-.09-1.036.747-.136.632.05 1.499-.39 1.998l-.578-.02c-.448.583-.001 1.339-.605 2.134-.602.794-1.639 1.088-2.083 1.856.101 1.853-.93 1.948-2.159 3.142-.35.34-.196.916-.214 1.41-.709 1.367-2.473 2.667-3.722 3.566.092.492.228.903.09 1.371-1.38.985-1.14 1.402-1.105 3.006l-1.808-.417c-1.08 1.84-1.815 2.69-3.455 4.018q-.543-.201-1.089-.396c-1.755.519-2.927 5.318-6.009 4.833-.231.16-1.741 2.103-2.251 2.606-2.678-.523-1.386.216-1.93.9-.525.163-1.446-.058-2.182-.042-.39.53.075.459-.187 1.317-.386.124-1.427-.176-2.116-.173-.364.365-.074.463-.241 1.263-.574.227-1.26-.123-2.126-.03l-.174.269c.041.411.098.627-.043 1.016-.52.239-1.217-.082-2.012-.017l-.192.241c.04.396.058.488.019.88-.968.69-2.937-.489-3.56.257.066.412.134.582.024.98-1.102.374-3.246-.168-4.692-.125l-.142.163c.053.454.069.631.066 1.102-.618.471-4.736-.459-5.836-.153-.186.478-.054 1.065.007 1.597-37.403-.514-74.812-.63-112.218-.349H88.733c-10.427-.006-20.601-.136-31.03.331-.216-.492-.111-1.117-.078-1.672-1.535.142-4.418.474-5.81.336-.41-.587.17-.695-.258-1.382-1.205-.12-2.819.47-4.528.291-.448-.529.113-.61-.244-1.381-.975-.132-2.762.759-3.446-.05.003-.435.035-.633-.124-1.044-.757-.23-1.103.285-1.991.082-.404-.534.026-.566-.24-1.39-.766-.255-1.207.388-2.128.18-.44-.662.173-.667-.207-1.405-.761-.2-1.248.38-2.1.249-.491-.715.198-.705-.237-1.405-.872-.205-1.938.64-2.384.051.038-.397.05-.638.051-1.037-.32-.165-.66-.13-1.011-.014-1.859.613-2.048-1.962-3.018-2.428-.206.031-1.064.164-1.188.112-1.375-.573-3.682-4.262-4.704-4.87-.948.198-1.253.254-1.993-.439-1.933-1.81-4.114-3.756-5.887-5.705-.115-.715.38-.799.424-1.575-1.083-.775-2.988-2.208-3.913-3.153-.079-.74.211-.662.41-1.548-.807-.741-1.874-1.156-2.71-1.974-.146-.664.259-.76.28-1.528-.89-.558-1.864-1.133-2.671-1.792-.357-.85.474-1.498-.164-2.093-.398.073-.609.155-.984.007-.224-.508.062-1.344-.022-2.153-.543-.724-.04.078-.934-.171-.303-.592-.244-1.562-.253-2.267-.623-.379-.497.204-1.209-.05-.144-.987.226-2.3.164-3.478l-.206-.172-1.021.18c-.595-.774.592-2.608-.063-3.564-.55-.197-.604-.065-1.289.08.184-1.641.279-3.418.397-5.073l-1.57.28c.122-1.235.516-6.075.421-7.152-.475-.206-.652-.074-1.265.005V61.065c.543.018.606.038 1.154-.075.414-.797-.396-5.058-.07-6.764.345-.319.445-.194 1.084-.19.827-.641-.65-3.985.302-4.712.38-.006.651.035.97-.16.196-1.069-.435-2.736.189-3.408 2.21-.06.107-1.944 1.159-3.545a8 8 0 0 0 .768-.062c.246-.347.135-1.349.17-1.94.333-.438.199-.298.933-.403.63-.656-.067-1.383.467-2.192.382-.148.444-.171.79-.387.243-.465.12-1.053.073-1.601.672-.599 1.246-.995 1.983-1.512.867-.607.605-1.073.454-1.955.785-.68 1.718-1.266 2.365-2.052.284-.345.013-1.051-.085-1.482 1.253-1.05 2.415-2.107 3.727-3.182.146-.615-.065-1.11-.233-1.74 1.955-1.564 3.873-3.89 5.834-5.544 1.095-.923 1.61-.352 2.113-.76 1.128-.916 2.334-2.481 3.388-3.508.86-.838.962-1.116 2.189-1.041.63.038 1.145-1.202 1.686-1.72 1.01-.968.976-.584 2.222-.676.51-.038.33-.996.783-1.048.727-.083 1.41.216 1.988-.244.033-.343.06-.59.12-.928.83-.345 1.468.422 2.208-.229.064-.347.114-.57.208-.911.52-.228 1.08-.005 1.888-.058.397-.353.315-.592.414-1.226.52-.239 1.173.102 1.992.009.341-.386.231-.43.292-1.075.694-.675 2.306.14 3.195-.03.553-.108.031-.856.339-1.396 1.54-.167 3.053.501 4.502.296.434-.644-.06-.744.29-1.4.766-.135 4.656.244 5.785.28.047-.381.021-1.194.02-1.611"/><path fill="#fefefe" d="m29.107 81.33 38.51.027c.334 5.948.79 11.042 1.253 16.934l1.61 22.223c.206 2.808.59 5.63.774 8.439.384 6.2.569 12.411.554 18.624.232 1.393.021 2.93.3 4.244l.187-.038c.149-.484.143-.469.144-.977.25.33.169.189.255.625.485-.328.492-.385.547-.965l.116-.13c.312-3.53.165-7.14.54-10.66 1.46-13.747 2.704-27.534 4.576-41.232.768-5.627 1.242-11.498 2.21-17.073 5.608-.154 11.637-.038 17.273-.033l23.441.027 2.933 35.973c.232 2.868.796 6.119.864 8.94.265 10.993.96 22.11 1.224 33.085.103.51.097.929.407 1.264l.306-.03-.304.017.323-.035c.327-.639.336-1.227.425-1.947.036-5.2.532-10.265.948-15.44.274-3.402.208-6.904.542-10.302 1.444-14.686 2.91-29.34 4.95-43.96.311-2.23.825-5.283.753-7.493 4.883-.18 9.923-.098 14.823-.097l23.9.006c-.196 4.03-.661 6.962-1.098 10.891l-2.357 20.57-7.564 66.724-2.35 20.529c-.844 6.993-1.857 14.7-2.36 21.668l-31.216.035c-5.312-.002-12.26.217-17.365-.094-.064-3.101-.678-5.56-1.203-8.599l-1.888-11.236a568 568 0 0 1-2.973-22.162c-.693-5.97-1.336-10.35-1.598-16.433-.274-1.043-.423-1.333-1.32-1.897l-.138 1.01c-.18 4.245-.587 8.307-1.135 12.512-2.033 15.594-3.682 31.382-6.155 46.909-15.925-.322-32.263.224-48.253-.07-.03-3.869-.41-5.697-.773-9.437-.655-6.732-1.585-13.454-2.322-20.162L32.778 116.1l-2.373-20.662c-.586-5.136-1.195-8.773-1.298-14.108"/><path fill="#fc9d96" d="M100.004 150.47c.62 1.836 1.323 5.092 1.21 7.01.128 1.82.334 3.97.305 5.76-.274-1.044-.423-1.334-1.32-1.898l-.138 1.01c-.04-.59-.024-1.3-.016-1.896.045-3.313-.195-6.678-.04-9.986"/><path fill="#fc6c60" d="M100.2 161.342c-.123-.889.012-3.016.069-3.942l.1-.029.313.819.17.044c.055-.223.08-.428.116-.655l.245-.1c.13 1.821.335 3.972.306 5.76-.274-1.043-.423-1.333-1.32-1.897"/><path fill="#fc9d96" d="M71.79 155.984c.068.568.012.95.332 1.327.492-.152.555-.215.986-.478.004 2.668-.233 6.257-.44 8.96-.162.421-.368 1.16-.662 1.397l-.177-.255c.075-.992-.016-2.284-.025-3.324l-.06-6.593z"/><path fill="#fc6c60" d="M127.575 158.632c.084 2.432.038 5.01.031 7.455-.054.72-.094 3.557-.36 3.934l-.288.084c-.122-1.36-.078-2.244-.384-3.708-.072-2.302-.217-4.747-.156-7.034.103.51.097.929.407 1.264l.306-.03-.304.017.323-.035c.327-.639.336-1.227.425-1.947m-55.767-11.055c.232 1.393.021 2.93.3 4.244l.187-.038c.149-.484.143-.469.144-.977.25.33.17.189.255.625.485-.328.492-.385.547-.965l.116-.13c.031 2.107-.265 4.428-.249 6.497-.43.263-.494.326-.986.478-.32-.376-.263-.759-.332-1.327.048-2.813-.04-5.608.018-8.407"/><path fill="#f5cbca" d="m71.744 157.018.06 6.593c.01 1.04.1 2.332.025 3.324l.177.255c.294-.237.5-.976.662-1.396.054 1.88-.327 6.743-.605 8.555-.438-3.408-.61-13.78-.319-17.33m54.962 15.181c.197-.468.124-.525.476-.743.35.346.256.385.38.971.095 1.2-.236 4.27-.427 5.454a72 72 0 0 1-.43-5.682"/><path fill="#fc9d96" d="M127.606 166.087c.152 1.762.015 4.513-.043 6.341-.125-.586-.03-.625-.38-.971-.353.218-.28.275-.477.743.026-1.89-.174-3.813-.132-5.803.306 1.464.262 2.349.384 3.708l.287-.084c.267-.377.307-3.215.361-3.934"/><path fill="#fefefe" d="M214.42 78.807c3.902-.783 11.214-.598 15.146.124 2.634.468 5.307.923 7.88 1.61 8.031 2.142 16.955 7.653 21.74 14.55 7.194 10.37 6.645 28.6 6.682 40.85-13.209-.048-26.751-.141-39.944.017.1-1.758.1-3.757.063-5.521-.15-7.325.399-14.96-.801-22.201-.56-3.378-5.555-3.313-5.85 1.294-.758 11.863-.021 23.808-.402 35.67l.174.401c.364-.358-.087-.481.455-1.062l.338.1.299-.29c2.188-.139 6.567.068 8.947.067h23.996c3.672-.001 9.21.172 12.717-.079-.127 5.199.003 11.06.003 16.295v50.973c0 2.757-.129 7.555.145 10.133l-16.327.023c-3.365 0-7.147.075-10.48-.107-.004-1.717-.723-4.006-1.073-5.742a89 89 0 0 1-.699-3.993c-2 8.556-11.222 12.164-19.207 12.768-9.964.665-19.492-2.845-27.013-9.273-13.219-11.295-12.083-29.018-12.095-44.824l-.005-19.603.008-19.178c.019-9.241.15-18.796 2.125-27.9.904-4.161 3.085-8.108 5.9-11.278 5.812-6.544 13.357-11.284 22.025-12.953 1.747-.349 3.461-.757 5.252-.87"/><path fill="#f00000" d="M218.982 168.198c.207.277.207.548.254.882l.161.186c.2-.115.246-.141.438-.279l.003-.558c.143.138.171.907.2 1.178 2.111-.174 4.832-.018 7.139-.166-.246 4.763.844 23.286-1.881 26.631-.649.797-1.556 1.153-2.564 1.203-.774.037-1.563-.138-2.124-.705-.877-.889-1.152-2.739-1.308-3.946-.446-3.495-.287-7.24-.293-10.765-.007-4.553-.07-9.111-.025-13.661"/><path fill="#fd2114" d="m218.934 145.2.174.401c.364-.358-.087-.481.454-1.062l.339.1.299-.29c-.271 7.664.042 15.42-.08 23.094-.014.75.045 1.412-.083 2.164-.028-.271-.056-1.04-.2-1.178l-.002.558a4 4 0 0 1-.438.279l-.161-.186c-.047-.334-.047-.605-.254-.882-.18-.958-.183-6.39-.165-7.67.067-4.973-.164-10.41.117-15.328"/><path fill="#f5cbca" d="M214.42 78.807c3.902-.783 11.214-.598 15.146.124-2.666.177-5.254 1.022-8.218.543-1.544-.25-3.62.186-5.17-.477-.625-.268-1.096-.237-1.759-.19"/></g></svg></svg>