<svg xmlns="http://www.w3.org/2000/svg" id="svg" width="300" height="300" viewBox="0 0 300 300"><svg xmlns="http://www.w3.org/2000/svg"><defs><clipPath id="clip-1"><path fill="none" d="M0 0h299.991v299.991H0z"/></clipPath></defs><g fill="none" stroke-miterlimit="10" clip-path="url(#clip-1)" font-family="none" font-size="none" font-weight="none" style="mix-blend-mode:normal" text-anchor="none"><path fill="red" d="M0 0h300v300H0z"/><path fill="#3efe00" d="m224.383 148.702.096.094c1.138 1.097 1.825.97 2.847 1.86 1.831 1.591 3.55 3.447 5.243 5.189.603.55 1.308 1.232 1.942 1.725.177.183.437.473.623.632 1.614 1.913 3.775 3.965 5.572 5.748l7.758 7.738 26.19 26.193 16.794 16.79c1.645 1.647 6.963 7.232 8.552 8.206v1.906c-1.282.678-7.13 6.756-8.59 8.217l-15.659 15.67-40.24 40.24c-2.041 2.049-4.326 4.441-6.417 6.376-1.916 1.774-2.638 1.201-4.673 3.755-1.526-1.811-3.486-3.667-5.187-5.363l-7.791-7.776c-1.234-1.232-3.072-2.954-4.137-4.35-.312-.41.91-1.723 1.29-2.104 4.665-4.683 9.35-9.362 14.022-14.037l27.913-27.923c1.955-1.957 12.429-11.988 13.134-13.45.336-.704-1.366-2.138-1.877-2.644l-34.774-34.763-11.959-11.956c-1.437-1.434-7.349-7.022-7.815-8.36.6-1.211 3.993-4.299 5.083-5.443 3.816-4.01 8.39-8.061 12.06-12.17M104.353 89.56a175 175 0 0 1 1.933-2.068c.511 2.56 1.43 2.91 2.652 5.058l4.656 8.184c1.544 2.707 1.927 3.7 4.126 5.997 1.463-1.605 6.157-3.567 8.317-3.792l.939-.855c.736-.121 1.763-.172 2.526-.233l1.033-.978c.746-.066 1.635-.092 2.39-.132.624-.523.98-.869 1.731-1.211.554.063 1.553-.02 2.144-.051.778-.152 1.154-.344 1.865-.532 1.545-.407 2.966-.397 4.547-.359 1.325-.215 6.674-.335 7.768.086 1.154-.03 3.262-.21 4.308.04.692.165.535.634 1.83.854.965.028 6.836 1.477 7.785 1.922.497.31 1.046.398 1.61.569 5.788 1.756 10.563 4.491 15.514 7.883 3.274 2.241 5.643 4.095 8.325 7.092 1.194 1.334 2.72 2.547 3.731 4.081 1.777 2.665 3.643 5.392 5.367 8.09.873 1.364 1.962 4.674 2.91 5.805a49.9 49.9 0 0 1 5.172 22.745c-.09 1.336-.073 2.676-.158 3.952-.969.015-1.985.048-2.946.013l-.964-.996c-1.395-.085-3.276-.098-4.47-.741-.177-.094-.553-.27-.723-.314-4.248 1.502-15.67.188-20.354-.827a55.5 55.5 0 0 1-7.652-2.278c-15.847-6.073-25.177-20.756-30.708-36.065-.52-1.439-.883-2.964-1.509-4.358-.387-.285-.743-.2-1.245-.181-3.219.249-8.33 2.5-11.183 4.005-1.202.633 5.712 11.381 6.306 12.601.775 1.589 1.547 2.72 2.83 3.96.063.969.105 1.96.156 2.93-1.028.061-2.072.012-3.102-.015l-1.027-.982c-1.23-.115-2.473-.166-3.707-.23l-.956-.943c-1.204-.111-2.457-.171-3.668-.246l-1.015-.895c-1.685-.222-2.3-.072-3.562-1.18a132 132 0 0 0-3.689-.262l-.962-.928c-1.232-.118-2.491-.172-3.73-.24l-.953-.938c-1.204-.112-2.462-.17-3.673-.243l-1.008-.9c-1.695-.213-2.317-.054-3.566-1.188l-3.707-.237c-.614-.477-1.15-1.069-1.695-1.628-.18-2.827.46-3.592 1.228-6.156.954-3.19 2.213-7.14 2.484-10.41 1.104-1.306.804-2.691 1.296-4.274.957-2.7 1.639-5.24 2.295-8.014.51-2.154.904-2.938 1.083-5.29l.807-1.012c.152-1.22.201-2.456.268-3.685"/><path fill="#fea348" d="m136.803 115.96.145-.017c1.033-.138 1.935-.631 2.974-.76 2.787-.349 13.841-.76 15.93.343.628.332 1.226.499 1.909.685 2.525.693 6.178 1.795 8.57 2.836 1.165.508 2.387 1.457 3.572 1.806a194 194 0 0 0 3.334 4.247c1.059 1.37 2.33 3.09 3.646 4.193.829.695 5.037 4.356 5.97 3.9 2.056 1.566 4.017 6.493 5.226 8.82.556 1.072.754 1.967 1.555 3.083-.09 1.186.117 2.279.289 3.452l.955.895c-.067 1.688-.237 6.16.608 7.575 1.04 1.74 4.295 2.635 6.293 2.65l.492.001c-4.248 1.502-15.67.188-20.354-.827a55.5 55.5 0 0 1-7.652-2.278c-15.847-6.073-25.177-20.756-30.708-36.065-.52-1.439-.883-2.964-1.509-4.358-.387-.285-.744-.2-1.245-.181"/><path fill="red" d="M175.04 124.36c1.339 1.013 6.836 6.152 7.781 7.902.022.04.033.798.033.93-.934.457-5.142-3.204-5.971-3.9-1.316-1.101-2.587-2.822-3.646-4.192.55-.766.907-.667 1.803-.74"/><path fill="#ee1d00" d="M169.903 120.853c1.998 1.038 3.463 2.915 5.137 3.507-.896.073-1.252-.026-1.803.74q-1.697-2.1-3.334-4.247"/><path fill="#ce7834" d="M136.8 99.479c.778-.152 1.154-.344 1.865-.532 1.545-.407 2.966-.397 4.547-.359-.39.53-.532.79-1.203.877-1.683.219-3.503.032-5.209.014m14.18-.805c1.154-.03 3.262-.21 4.308.04.692.165.535.634 1.83.854-1.184-.046-2.447.027-3.62-.034-1.219-.062-1.689.016-2.518-.86"/><path fill="#fea348" d="m134.656 99.53.168-.358c-1.144-11.755-.635-23.812 2.282-35.318 3.334-13.15 10.915-27.527 21.484-36.331a50.4 50.4 0 0 1 14.94-8.506c13.964-5.057 32.039-4.65 45.44 1.796 12.297 5.916 21.07 16.97 25.6 29.709 1.223 3.44 1.776 6.921 2.86 10.301l-16.499 2.773c-2.541.423-6.085 1.127-8.582 1.398-2.55-8.845-5.945-17.155-14.366-21.947-5.808-3.305-14.515-3.782-20.83-1.792-22.247 7.011-23.543 34.656-22.414 54.03.06 1.03.54 5.526.164 6.205-.949-.445-6.82-1.894-7.785-1.922-1.295-.22-1.139-.689-1.83-.855-1.046-.25-3.154-.069-4.308-.039-1.094-.421-6.443-.301-7.768-.086-1.58-.038-3.002-.048-4.547.36-.711.187-1.087.379-1.865.53-.59.031-1.59.115-2.144.052"/><path fill="#fea348" d="M193.519 84.414c16.102-.186 32.24.06 48.344-.036 2.387-.014 4.779 0 7.163.028-.323 14.621-.073 30.141-.071 44.844l.001 18.4c0 3.211-.105 7.383.088 10.54l-9.44.015c-1.37-.002-3.146-.077-4.47-.003-.186-.159-.446-.449-.623-.632-.634-.493-1.339-1.174-1.942-1.725.426-.728.545-.491.895-1.502-1.7-4.119-3.555-11.038-5.473-14.526-4.147 8.595-10.066 14.05-19.094 17.62-.442.176-.894.256-1.365.318a49.9 49.9 0 0 0-5.173-22.745c2.057-.796 4.18-1.586 6.091-2.714 4.767-2.812 8.764-7.501 11.022-12.531 1.86-4.146 1.94-7.468 2.294-11.77l-18.17.02c-2.794-.001-7.38-.139-10.052.07.108-3.49.038-7.294.034-10.809a738 738 0 0 0-.059-12.862"/><path fill="red" d="M233.464 154.343c.438 1.011 1.077 2.16 1.047 3.227-.634-.493-1.339-1.174-1.942-1.725.426-.728.545-.491.895-1.502"/><path fill="#fea348" d="M86.76 156.983c.915.02 1.97.017 2.871.073l1.2.964 3.562.296c.27.224.811.672 1.084.737 1.865.442 6.507.644 6.933 3.054.034.193.17.37.31.543.15-.898.418-1.368 1.507-1.18.307.203.468.385.56.745 1.619 6.334 3.297 12.658 4.835 19.011.192.798.261 1.427.1 2.228l.163.25c.592.915 1.387 2.735 2.01 3.506 3.508 4.337 8.709 8.518 13.464 11.386 2.743 1.654 7.771 2.915 10.894 4.002.383.133 2.205.22 2.7.245l1.187.977c.992.048 1.87.09 2.863.075.418-3.125 2.13-9.11 2.927-12.452l7.244-29.875 24.655.017q-1.86 6.995-3.65 14.009c-.356 1.36-1.357 5.563-1.937 6.618.911.893 2.649.58 4.024.639 1.925 1.43 5.966 2.269 8.344 2.408l1.154.892q1.767.17 3.538.275l1.125.907c.741.045 2.267.111 2.912.341 1.6.57 2.273.857 3.962 1.045l.23.025c.65.537 1.11.91 1.7 1.529.039 1.868.123 2.711-.611 4.477-1.613 3.88-2.293 8.074-3.287 12.137-.414 1.692-1.374 3.544-1.802 5.265-.952 5.284-2.663 10.509-3.844 15.753-.069.304-1.24 1.816-1.493 2.155-.73-.8-1.797-1.872-2.389-2.762-1.308-1.965-2.22-4.368-3.281-6.479-.35-.694-1.35-1.45-1.783-2.138-.593-1.004-1.066-2.488-1.602-3.493-.509-.952-1.956-2.308-2.704-3.147-.747.8-1.638 1.224-2.61 1.72a30 30 0 0 1-4.511 1.91c-1.906.637-4.607 1.299-6.212 2.317-.897 2.729-1.686 5.992-2.423 8.792l-3.667 13.983-9.608 36.511c-1.816 6.882-3.608 14.24-5.632 21.025a94 94 0 0 0-4.258-.04c-7.873.102-15.835-.162-23.7.087-1.373-5.984-3.188-12.37-4.692-18.36L96.613 230.82a1703 1703 0 0 0-4.645-18.26c-.893-3.508-1.89-9.008-3.483-11.935-.403 3.78-1.532 8.369-2.402 12.09l-3.279 14.08-11.669 50.535-3.154 13.65c-.406 1.762-1.383 5.598-1.539 7.248-8.82.082-18.999-.25-27.663.13-.833-3.316-1.952-7.055-2.852-10.414l-7.222-26.87-17.703-65.793c-2.98-11.052-6.27-22.634-8.989-33.716 9.55-.037 19.381-.117 28.914.004.506 2.825 1.432 6.337 2.125 9.188l4.177 16.786 11.033 44.384c1.955 7.806 5.004 18.678 6.06 26.44 1.884-4.303 2.751-9.502 3.826-14.16l4.546-19.52 9.221-39.739c1.771-7.611 3.851-15.873 5.394-23.486 3.056.204 6.211 0 9.322.182z"/><path fill="#3efe00" d="M86.76 156.983c.915.02 1.97.017 2.871.073l1.2.964 3.562.296c.27.224.811.672 1.084.737 1.865.442 6.507.644 6.933 3.054.034.193.17.37.31.543.15-.898.418-1.368 1.507-1.18.307.203.468.385.56.745 1.619 6.334 3.297 12.658 4.835 19.011.192.798.261 1.427.1 2.228l.163.25c.592.915 1.387 2.735 2.01 3.506 3.508 4.337 8.709 8.518 13.464 11.386 2.743 1.654 7.771 2.915 10.894 4.002.383.133 2.205.22 2.7.245l1.187.977c.992.048 1.87.09 2.863.075.418-3.125 2.13-9.11 2.927-12.452l7.244-29.875 24.655.017q-1.86 6.995-3.65 14.009c-.356 1.36-1.357 5.563-1.937 6.618.911.893 2.649.58 4.024.639 1.925 1.43 5.966 2.269 8.344 2.408l1.154.892q1.767.17 3.538.275l1.125.907c.741.045 2.267.111 2.912.341 1.6.57 2.273.857 3.962 1.045l.23.025c.65.537 1.11.91 1.7 1.529.039 1.868.123 2.711-.611 4.477-1.613 3.88-2.293 8.074-3.287 12.137-.414 1.692-1.374 3.544-1.802 5.265-.952 5.284-2.663 10.509-3.844 15.753-.069.304-1.24 1.816-1.493 2.155-.73-.8-1.797-1.872-2.389-2.762-1.308-1.965-2.22-4.368-3.281-6.479-.35-.694-1.35-1.45-1.783-2.138-.593-1.004-1.066-2.488-1.602-3.493-.509-.952-1.956-2.308-2.704-3.147-.747.8-1.638 1.224-2.61 1.72a30 30 0 0 1-4.511 1.91c-1.906.637-4.607 1.299-6.212 2.317-1.125.076-2.25.21-3.312.602-2.598.958-5.272.68-8.007.808l-1.026.768c-1.567.182-6.697.523-7.89-.315-.877-.681-6.183-.7-7.619-.73l-.902-.985c-1.21-.103-2.475-.16-3.691-.233l-1.017-.897c-3.286-.27-9.296-3.149-12.274-4.722-.611-.186-7.665-4.995-8.66-5.785-.558-.444-3.186-2.936-3.86-3.67-1.019-1.113-3.295-3.155-4.124-4.26-3.247-4.32-6.419-8.822-8.573-13.802-.562-1.303-1.419-2.75-1.902-4.058-.621-1.686-1.096-3.472-1.554-5.203-.206-.778-.82-1.326-.95-2.206-.176-1.201.131-2.43-.006-3.646-.067-.6-.467-.768-.981-1.147-.142-2.265-.118-4.59-.123-6.863z"/><path fill="#fea348" d="m153.174 161.568 24.655.017q-1.86 6.995-3.65 14.009c-.356 1.36-1.357 5.563-1.937 6.618-.094-.24-.082-.368-.284-.438-1.028-.355-2.414-.28-3.498-.441-.415-.062-.935-.561-1.4-.709-3.223-1.027-4.317-1.441-7.654-1.626l-.457 1.862c.488 1.91 3.079 4.54 3.892 6.737.707 1.917 2.54 4.126 3.504 5.965.83 1.37 1.336 2.882 2.486 4.015-1.613 1.28-2.247 2.453-4.083 2.686-1.47.188-4.602 1.784-6.287 2.156-1.257.279-2.212.252-3.42.497-.267.054-.831.806-1.165.822-3.415.165-7.51.148-10.873.157.418-3.125 2.13-9.11 2.927-12.452zm-50.454 1.082c.15-.898.418-1.368 1.507-1.18.307.203.468.385.56.745 1.619 6.334 3.297 12.658 4.835 19.011.192.798.261 1.427.1 2.228-1.471-2.985-3.856-6.504-4.9-9.685-.438-1.742-.858-3.52-1.27-5.267-.346-1.459-.116-4.7-.831-5.852"/><path fill="red" d="M129.397 258.368c-3.415-14.79-7.648-29.447-11.198-44.21-.19-.789-.702-1.123-.835-1.874 2.978 1.573 8.988 4.451 12.274 4.722l1.017.897c1.216.073 2.481.13 3.691.233l.902.986c1.436.029 6.742.048 7.62.73-1.166.066-2.405-.1-3.668-.058-.677 1.163-2.095 7.7-2.526 9.516l-4.51 18.41c-.827 3.363-1.626 7.463-2.767 10.648"/><path fill="#3efe00" d="M76.604 1.088c.42.16 7.916 7.742 9.12 8.992 1.868 1.939 7.215 6.815 8.28 8.77-.549 1.019-8.775 9.068-10.17 10.464L51.81 61.343l-9.386 9.376c-1.295 1.293-3.985 3.836-5.025 5.192-.003 1.041 4.908 5.578 5.923 6.594l9.615 9.617 29.365 29.375c1.899 1.899 10.875 10.541 11.642 12.161-.538 1.552-14.716 14.693-17.055 17.575l-.112.141-.862-1.014c-1.498-1.443-2.56-1.569-3.552-2.458-1.637-1.467-3.713-3.67-5.32-5.277L54.96 130.54 14.378 89.96C12.63 88.212 1.068 76.97 1.03 76.318c-.023-.392.118-.624.363-.909 2.127-2.464 4.687-4.73 6.993-7.035l14.111-14.106C38.91 37.859 55.357 21.461 71.712 4.996c.719-.777 1.49-1.45 2.341-2.08 1.143-.847 1.67-.622 2.55-1.828"/></g></svg></svg>