<svg xmlns="http://www.w3.org/2000/svg" id="svg" width="300" height="300" viewBox="0 0 300 300"><svg xmlns="http://www.w3.org/2000/svg"><defs><linearGradient id="color-1" x1="23.809" x2="76.868" y1="230.796" y2="196.135" gradientUnits="userSpaceOnUse"><stop offset="0" stop-color="#ffd418"/><stop offset="1" stop-color="#ff8439"/></linearGradient><linearGradient id="color-2" x1="179.751" x2="176.618" y1="299.193" y2="291.804" gradientUnits="userSpaceOnUse"><stop offset="0" stop-color="#ff485a"/><stop offset="1" stop-color="#ff664a"/></linearGradient><clipPath id="clip-1"><path fill="none" d="M0 0h299.991v299.991H0z"/></clipPath></defs><g fill="none" stroke-miterlimit="10" clip-path="url(#clip-1)" font-family="none" font-size="none" font-weight="none" style="mix-blend-mode:normal" text-anchor="none"><path fill="#fff" d="M141.369 0h17.367c.753.33 1.512.352 2.337.444 5.913.026 13.554 1.311 19.207 2.469 22.507 4.607 43.847 14.136 61.744 28.6 1.093.883 2.414 1.698 3.537 2.565 3.502 3.006 7.262 6.178 10.495 9.442a156.6 156.6 0 0 1 37.65 62.91c.56 1.85 2.765 9.697 2.857 11.326.576 1.465.605 2.895.945 4.4.566 2.505.722 5.183 1.25 7.672.196.842.1 1.751.262 2.441.712 3.03.167 7.928.98 10.746v13.553c-.27 1.093-.37 3.408-.478 4.635.021 3.37-.61 7.286-1.088 10.663a146.3 146.3 0 0 1-19.16 54.224c-1.162 1.969-4.3 7.248-5.728 8.827-1.239 2.06-3.123 4.418-4.577 6.355-4.846 6.45-10.358 12.646-16.285 18.112-.892.822-2.287 2.158-3.242 2.855-2.037 1.896-4.7 4.134-6.981 5.726-7.412 6.245-22.425 15.597-31.475 18.926-1.938 1.04-8.65 3.83-10.777 4.422-1.135.431-3.99 1.303-4.843 1.703-9.409 2.793-18.26 4.905-28.047 5.997-1.998.222-6.05.65-8.083.549-.655.097-1.903.164-2.386.438h-13.71c-.818-.315-2.719-.385-3.669-.463-2.456.133-8.63-.78-11.241-1.151-17.109-2.435-34.067-7.987-49.285-16.264a150.38 150.38 0 0 1-73.85-92.571c-1.59-5.934-3.231-13.606-3.997-19.755q-.354-3.03-.545-6.075c-.091-1.35-.147-3.9-.554-5.112v-17.05c.538-1.64.44-5.263.63-7.14q.58-5.205 1.492-10.36c2.813-16.604 8.27-32.045 16.471-46.717.956-1.711 4.02-7.356 5.227-8.514.145-.735 3.55-5.279 4.26-6.286a141.2 141.2 0 0 1 36.608-35.979c2.261-1.558 6.95-4.782 9.268-5.888 1.702-1.22 6.214-3.563 8.211-4.581a147.1 147.1 0 0 1 44.256-14.388q3.858-.562 7.738-.94c1.462-.15 6.21-.261 7.208-.766"/><path fill="#feb72a" d="M141.369 0h17.367c.753.33 1.512.352 2.337.444l.1.375c-.33.048-.282.032-.614-.05-.665-.16-1.6-.004-2.268.131.857.269 2.495.086 3.37.365.951.303 2.504-.235 3.326.083l.1.193-.472.274c13.522 1.4 27.313 4.516 39.96 9.65 1.616.657 3.424 1.84 5.07 2.634 1.473.426 2.472.923 3.805 1.358.2 3.556.077 8.125.077 11.747l-.006 21.21.01 71.482c-1.529-.01-11.888-.149-12.864.132-2.438-1.713-5.963-3.789-7.501.047-.445-.253-24.274-.356-25.42-.064a6.8 6.8 0 0 0-7.06.018c-1.047-.232-5.918-.16-7.223-.16l-15.726.003-33.046.004c-5.261-.001-12.464-.234-17.594.065l.009-74.576c-.001-9.785-.135-19.904.03-29.668 1.203-.506 1.95-.822 3.069-1.47 2.322-1.8 11.589-4.985 14.743-6.025l-.497-.16c-3.928 1.14-7.8 2.861-11.661 4.26-.245.09-.172.076-.373.239-.307-.216-.482-.445-.762-.356-4.217 1.333-8.628 3.885-12.581 5.885-1.34.678-4.069 2.511-5.118 2.605 1.702-1.22 6.214-3.563 8.211-4.581a147.1 147.1 0 0 1 44.257-14.388q3.856-.563 7.737-.94c1.462-.15 6.21-.261 7.208-.766"/><path fill="#fff" d="M141.369 0h17.367c.753.33 1.512.352 2.337.444l.1.375c-.33.048-.282.032-.614-.05-.665-.16-1.6-.004-2.268.131.857.269 2.495.086 3.37.365.951.303 2.504-.235 3.326.083l.1.193-.472.274c13.522 1.4 27.313 4.516 39.96 9.65 1.616.657 3.424 1.84 5.07 2.634-2.053.29-5.742.235-7.958.236l-11.503-.001-40.196.001-40.829-.002-12.244.003c-1.707 0-5.145.082-6.71-.11 2.322-1.8 11.589-4.984 14.743-6.024l-.497-.16c-3.928 1.14-7.8 2.861-11.662 4.26-.244.09-.171.076-.372.239-.307-.216-.482-.445-.762-.356-4.217 1.333-8.628 3.885-12.581 5.885-1.34.678-4.069 2.511-5.118 2.605 1.702-1.22 6.214-3.563 8.211-4.581a147.1 147.1 0 0 1 44.256-14.388q3.858-.563 7.738-.94c1.462-.15 6.21-.261 7.208-.766"/><path fill="#d80eb1" d="M141.369 0h17.367c.753.33 1.512.352 2.337.444l.1.375c-.33.048-.282.032-.614-.05-.665-.16-1.6-.004-2.268.131.857.269 2.495.086 3.37.365.951.303 2.504-.235 3.326.083l.1.193-.472.274c-2.493-.173-5.493-.531-7.897-.63a154.3 154.3 0 0 0-35.998 2.962c-4.602.972-9.035 2.064-13.527 3.433-.659.2-1.581.496-2.245.622l-.497-.16c-3.928 1.14-7.8 2.861-11.661 4.26-.245.09-.172.076-.373.239-.307-.216-.482-.445-.762-.356-4.217 1.333-8.628 3.885-12.581 5.885-1.34.678-4.069 2.511-5.118 2.605 1.702-1.22 6.214-3.563 8.211-4.581a147.1 147.1 0 0 1 44.256-14.388q3.858-.563 7.738-.94c1.462-.15 6.21-.261 7.208-.766"/><path fill="#fe0000" d="M193.166 120.075c1.538-3.836 5.063-1.76 7.501-.047.64.641 1.46 1.506 1.536 2.434.325 4.022.178 8.323.268 12.353q.19 7.1.464 14.198c.198 6.096.437 12.228 1.137 18.275.423 3.653 1.182 6.434 3.221 9.469.895 1.331 3.044 3.842 3.041 5.364-.136 3.464-3.23 5.606-6.504 5.376-2.941-.206-4.724-2.943-5.84-5.442-4.534-10.145-3.83-21.647-4.194-32.506-.132-3.885-.273-8.132-.022-11.98-1.345 3.12-2.08 6.363-3.72 9.731-5.394 11.088-12.765 22.046-20.788 31.389-2.918 3.063-6.733 7.173-11.272 7.35-4.77.187-7.17-2.791-8.04-7.082-.792-3.888-1.108-7.626-1.161-11.539a92 92 0 0 1 .6-11.894c1.02-9.07 4.78-28.8 11.293-35.495a6.8 6.8 0 0 1 7.06-.018c1.146-.292 24.975-.189 25.42.064"/><path fill="#fff" d="M167.747 120.01c1.145-.291 24.974-.188 25.419.065-.88 2.54-1.573 6.63-2.454 8.94-4.059 10.647-20.945 43.243-31.67 46.52-1.564-2.79-1.32-6.61-1.327-9.726-.029-12.866 1.185-21.623 5.898-33.619.861-2.192 4.734-9.135 4.847-10.479.063-.737-.268-1.16-.713-1.7"/><path fill="#feb72a" d="m223.247 221.323.716.49.012.69c-1.892 1.87-4.325 4.048-6.017 6.027a128 128 0 0 1-8.831 9.353c-.924.888-1.623 2-2.479 2.956l-.276-.506c-8.571.262-18.279.029-26.946.029l-52.521.003h-20.073c-1.911 0-7.779-.136-9.422.052l-.072.22c.142.255.25.459.408.703l-.229.54c-1.905-2.95-5.423-5.317-7.626-7.958-3.674-4.409-7.626-8.191-11.678-12.241.536-.485 3.302-.32 4.16-.32h7.61l25.33.006 71.81.005h23.605c3.913-.002 8.717.131 12.519-.049M87.125 188.43c3.856.214 9.93.038 13.9.037l27.38-.008 83.905-.002.025 16.737 18.124-.03c1.297 0 6.93-.087 7.94.137l.053.137c-1.01.572-3.903.3-5.203.298l-10.197.009-31.786.026-94.576-.001-22.518-.017-6.532-.008c-.779-.002-2.455-.072-3.13.029l-.24.61c-.62-.622-1.508-.915-2.332-1.262 8.196.207 16.93.002 25.183.059-.18-5.136-.038-11.55.004-16.75"/><path fill="#fff" d="M97.746 241.34c-.157-.244-.266-.448-.408-.703l.072-.22c1.643-.188 7.51-.052 9.422-.052h20.073l52.52-.003c8.668 0 18.376.233 26.947-.03l.276.507c-2.53 2.995-5.912 5.433-8.062 8.68-.42.635-.615 1.418-1.425 1.615-.16-.24-.339-.533-.662-.542-1.862-.051-3.736-.028-5.598-.026l-14.726.016-46.193-.004-14.483.007c-2.54.006-5.618.11-8.106-.01l-.395.67-.354.389c-2.584-3.15-6.916-6.759-9.127-9.755z"/><path fill="#fac965" d="m206.372 240.333.276.506c-2.53 2.995-5.912 5.433-8.062 8.68-.42.635-.615 1.418-1.425 1.615-.16-.24-.339-.533-.662-.542-1.862-.051-3.736-.028-5.598-.026l-14.726.016-46.193-.004-14.483.007c-2.54.006-5.618.11-8.106-.01 1.238-.399 17.966-.098 20.84-.098l69.093-.008c2.427-4.343 6.37-6.57 9.046-10.136M97.746 241.34c1.277 2.277 5.456 5.467 7.238 7.576.596.705 1.396 1.618 2.014 2.328l-.354.39c-2.584-3.15-6.916-6.759-9.127-9.755z"/><path fill="#feb72a" d="M107.393 250.575c2.488.12 5.567.016 8.106.01l14.483-.007 46.193.004 14.726-.016c1.862-.002 3.736-.025 5.598.026.323.01.502.302.662.542-1.213 1.17-2.394 2.373-3.6 3.547-2.46 2.389-4.303 5.05-6.802 7.413l-.674-.168-.2-.041c-1.177-.52-63.427.004-69.588-.164-.257-.535-1.48-1.653-1.928-2.15-1.72-1.905-6.511-5.94-7.725-7.937l.354-.39z"/><path fill="#fff" d="M116.297 261.72c6.161.17 68.411-.355 69.587.165l.201.04c-.022.127-11.215 11.95-12.46 12.962-1.093.146-3.999.08-5.224.08h-9.924l-18.575-.001c-1.755.003-9.752.214-10.81-.177l-.369.241c-1.758-1.41-2.91-3.405-4.478-4.996-2.433-2.467-4.988-4.815-7.397-7.307-.308-.318-.509-.552-.551-1.006"/><path fill="#fac965" d="M116.297 261.72c6.161.17 68.411-.355 69.587.165-20-.224-40.05.09-60.056-.04-3.016-.02-6.181-.055-9.191.043 2.884 2.651 5.726 5.524 8.462 8.33 1.45 1.486 2.377 3.07 3.993 4.57l-.369.242c-1.758-1.41-2.91-3.405-4.478-4.996-2.433-2.467-4.988-4.815-7.397-7.307-.308-.318-.509-.552-.551-1.006"/><path fill="#feb72a" d="M129.092 274.789c1.058.39 9.055.18 10.81.177l18.575.001h9.924c1.225 0 4.131.066 5.224-.08l.426.398c-1.106 1.113-1.862 2.485-2.86 3.475-3.127 3.1-6.043 6.09-8.834 9.5-1.579 1.928-4.003 3.77-5.654 5.699-1.538 1.65-2.575 3.236-4.244 4.87l-.243.23c-.546-.01-.565.028-1.037-.276-1.919-1.883-3.874-3.698-5.549-5.8a35 35 0 0 0-1.813-2.106l-15.094-15.847z"/><path fill="url(#color-1)" d="M0 141.56c.539-1.64.44-5.264.631-7.141q.579-5.205 1.491-10.36c2.813-16.604 8.27-32.045 16.471-46.717.956-1.711 4.021-7.356 5.227-8.514.01.249.026.384-.12.602-1.169 1.747-2.939 4.72-3.94 6.435-1.73 2.965-8.968 16.948-9.096 19.51l.647.256c-.056.306-.06.321 0 .644l.133.004c.711-1.333 2.032-5.335 2.564-6.333 1.211-2.271 8.144-17.213 9.812-18.029-3.434 5.968-7.098 12.585-9.85 18.888a149.36 149.36 0 0 0-6.807 99.052c4.972 18.394 14.539 36.803 26.186 51.809 13.207 17.012 31.392 31.932 50.584 41.585a151.3 151.3 0 0 0 41.842 13.633c3.137.522 6.472.872 9.634 1.259 1.473.18 3.104.114 4.623.356l.64.421-.05.19c-.375.115-.857.213-1.15.427-2.456.133-8.63-.78-11.241-1.151-17.109-2.435-34.067-7.987-49.285-16.264a150.38 150.38 0 0 1-73.85-92.571c-1.59-5.934-3.231-13.606-3.997-19.755q-.354-3.03-.545-6.075c-.091-1.35-.147-3.9-.554-5.112z"/><path fill="#ae03de" d="M161.073.444c5.913.026 13.554 1.311 19.207 2.469 22.507 4.607 43.847 14.136 61.744 28.6 1.093.883 2.414 1.698 3.537 2.565 3.502 3.006 7.262 6.178 10.495 9.442a156.6 156.6 0 0 1 37.65 62.91c.56 1.85 2.765 9.697 2.857 11.326.576 1.465.605 2.895.945 4.4.566 2.505.722 5.183 1.25 7.672.196.842.1 1.751.262 2.441.712 3.03.167 7.928.98 10.746v13.553c-.27 1.093-.37 3.408-.478 4.635-.298-1.494-.19-1.909-.14-3.419.217-6.514.179-13.358-.113-19.84l-.49-.304c.286-1.134.515-2.951-.058-3.99-.03 1.187-.337 3.304-.202 4.34.292 2.228.592 3.817.58 6.14-.026 4.711.136 9.44.073 14.15-.01.81.046.927-.665 1.44.884-9.12.282-22.087-1.213-31.17l-1.034-6.41a144.7 144.7 0 0 0-14.61-41.459c-1.502-2.863-3.54-6.66-5.287-9.355a176 176 0 0 0-14.468-19.63c-1.919-2.217-4.336-4.283-6.32-6.406-9.336-9.99-20.491-18.144-32.355-24.881-2.32-1.318-7.412-4.444-9.77-4.952-1.333-.435-2.332-.932-3.805-1.358-1.646-.793-3.454-1.977-5.07-2.634-12.647-5.134-26.438-8.25-39.96-9.65l.471-.274-.1-.193c-.821-.318-2.374.22-3.324-.083-.876-.279-2.514-.096-3.371-.365.668-.135 1.603-.29 2.268-.13.332.08.284.097.615.049z"/><path fill="#fd4d69" d="M92.417 12.54c.2-.162.128-.149.372-.237 3.861-1.4 7.734-3.122 11.662-4.262l.497.161c-3.154 1.04-12.421 4.224-14.743 6.025-1.119.648-1.866.964-3.069 1.47-.885.635-1.47 1.187-2.185 2.02-.413.005-2.005.02-2.333.13-3.542 1.18-7.272 3.744-10.478 5.675-.81.487-2.455 1.63-3.181 1.904-2.54 1.887-5.231 3.563-7.75 5.465-9.6 7.248-18.62 16.142-26.309 25.366-4.1 4.92-7.446 10.475-11.08 15.66-1.668.816-8.6 15.758-9.812 18.03-.532.997-1.853 4.999-2.564 6.332l-.134-.004c-.058-.323-.055-.338.001-.644l-.647-.255c.128-2.563 7.365-16.546 9.096-19.51 1.001-1.715 2.771-4.689 3.94-6.436.146-.218.13-.353.12-.602.145-.735 3.55-5.279 4.26-6.286a141.2 141.2 0 0 1 36.608-35.979c2.261-1.558 6.95-4.782 9.268-5.888 1.05-.094 3.778-1.927 5.118-2.605 3.953-2 8.364-4.552 12.58-5.885.281-.089.456.14.763.356"/><path fill="#fd1f88" d="M92.417 12.54c.2-.162.128-.149.372-.237 3.861-1.4 7.734-3.122 11.662-4.262l.497.161c-3.154 1.04-12.421 4.224-14.743 6.025-1.119.648-1.866.964-3.069 1.47-.885.635-1.47 1.187-2.185 2.02-.413.005-2.005.02-2.333.13-3.542 1.18-7.272 3.744-10.478 5.675-.81.487-2.455 1.63-3.181 1.904l-.207-.053.094-.155c1.442-.789 2.872-1.83 4.284-2.702 2.513-1.55 5.08-2.965 7.696-4.338 1.319-.692 2.696-.708 4.113-.97.116-.021 1.788-1.823 2.01-1.96.5-.31 1.277-.275 1.806-.577.66-.378 1.358-1.263 2.061-1.466.709-.206.853-.48 1.601-.664"/><path fill="#d80eb1" d="M298.507 159.72c.71-.513.655-.63.665-1.44.063-4.71-.1-9.439-.073-14.15.012-2.323-.288-3.912-.58-6.14-.135-1.036.173-3.153.202-4.34.573 1.039.344 2.856.059 3.99l.489.304c.292 6.482.33 13.326.113 19.84-.05 1.51-.158 1.925.14 3.42.021 3.37-.61 7.285-1.088 10.662a146.3 146.3 0 0 1-19.16 54.224c-1.162 1.969-4.3 7.248-5.728 8.827l-.24-.138c-.738 1.29-2.603 3.714-3.543 4.946-2.129 2.79-4.682 6.175-7.078 8.754.669-1.632 1.018-1.875 2.024-2.96 1.614-1.743 10.56-13.644 10.48-14.973.41-.788.98-1.557 1.444-2.325 3.51-5.814 6.852-11.992 9.627-18.2a155 155 0 0 0 9.529-29.784 172 172 0 0 0 2.214-14.483c.18-1.63.137-4.72.504-6.033"/><path fill="url(#color-2)" d="M196.765 291.494c-.417.606-.578.63-1.264.981l-.135.54c-9.408 2.794-18.26 4.906-28.047 5.998-1.998.222-6.05.65-8.083.549l.035-.215c.32-.208.61-.252.981-.347l-.153-.018c-.292-.31-.13-.174-.639-.292 1.386-.483 3.911-.303 5.486-.508 3.076-.403 6.262-.713 9.322-1.2 7.765-1.232 14.977-3.332 22.497-5.488"/><path fill="#fd1f88" d="M212.832 284.972c1.086-.725 3.175-1.29 4.415-1.964 7.624-4.147 14.967-8.578 21.955-13.746 1.97-1.456 3.868-3.078 5.852-4.547-.36.888-.804.87-1.097 1.556l.353-.323c-.623.803-1.766 1.565-1.908 1.823l.059.194c-7.412 6.245-22.425 15.597-31.475 18.926.44-.932.924-1.036 1.885-1.667zm62.358-54.426c.079 1.329-8.867 13.23-10.481 14.972-1.006 1.086-1.355 1.329-2.024 2.96 2.396-2.578 4.95-5.963 7.078-8.753.94-1.232 2.805-3.657 3.543-4.946l.24.138c-1.239 2.06-3.123 4.418-4.577 6.354-4.846 6.45-10.358 12.646-16.285 18.113-.892.822-2.287 2.158-3.242 2.855-.278-.02-.332.005-.605.07-.032-1.146 5.006-4.494 5.445-6.207.217-.343 1.51-1.622 1.883-1.963 5.736-5.246 10.393-11.302 14.912-17.593 1.42-1.975 2.698-4.03 4.113-6"/><path fill="#fac965" d="m64.27 206.385.24-.611c.371.797 4.657 5.199 5.59 6.46 1.825 2.462 7.182 6.21 8.35 9.026 3.88-.114 8.06-.04 11.955-.04h21.342l64.46.002h32.4l9.289-.014c1.344-.002 4.11-.07 5.35.115-3.8.18-8.605.047-12.518.049h-23.604l-71.812-.005-25.329-.006h-7.61c-.858 0-3.624-.165-4.16.32-.815-.78-1.684-2.086-2.562-2.98-3.123-3.179-6.29-6.253-9.013-9.788-.677-.877-1.658-1.627-2.368-2.528"/><path fill="#fd4d69" d="m212.832 284.972.04.252c-.962.631-1.447.735-1.886 1.667-1.938 1.04-8.65 3.83-10.777 4.422-1.135.431-3.99 1.303-4.843 1.703l.135-.54c.686-.352.847-.376 1.264-.982.905-.497 3.904-1.412 5.003-1.814.939-.61 5.919-2.114 7.292-2.724 1.37-.61 2.463-1.295 3.772-1.984"/><path fill="#ff7c4f" d="M140.032 298.499c2.276.307 8.894.583 11.147.284.472.304.49.266 1.037.275-.158.35-.28.57-.38.942h-8.695c-.818-.315-2.719-.385-3.669-.463.293-.214.775-.312 1.15-.426l.05-.19z"/><path fill="#fac965" d="M223.963 221.813c.564-.862.542-1.082 1.337-1.933 2.082-2.225 4.329-4.344 6.44-6.536.936-.972 5.077-6.3 6.083-6.458l.14.186c-.342.644-2.277 2.41-2.926 3.143l-11.062 12.287zm-37.878 40.113.674.168c-1.316 1.527-2.978 2.86-4.215 4.33-2.08 2.474-4.14 4.745-6.524 6.94-.623.572-1.329 1.406-1.969 1.921l-.426-.398c1.245-1.012 12.438-12.835 12.46-12.961"/><path fill="#ff178c" d="M254.282 256.102c-.44 1.713-5.477 5.06-5.445 6.206.273-.064.327-.09.605-.069-2.037 1.896-4.7 4.134-6.981 5.726l-.059-.194c.142-.258 1.285-1.02 1.908-1.823l-.353.323c.293-.686.738-.668 1.097-1.556.186-.378 2.83-2.4 3.348-2.884 2.003-1.873 3.887-3.857 5.88-5.73"/><path fill="#ff7c4f" d="M152.46 298.83c2.244.04 4.77.024 7-.14.508.118.347-.019.639.292l.153.018c-.37.095-.66.139-.981.347l-.035.215c-.655.097-1.903.164-2.386.438h-5.013c.098-.372.221-.592.38-.942z"/><path fill="#fe0000" d="M69.778 93.197c5.124-.324 7.673 3.192 6.23 7.855-1.016 3.286-1.939 5.983-3.26 9.165-7.377 17.765-12.278 36.762-14.233 55.9-.233 2.281-.538 4.798-.237 7.058.04 1.197 2.238 4.097 1.813 5.155-1.054 2.89-3.854 4.683-5.843 6.706-2.888 2.937-10.007 4.04-9.418-1.799.503-4.982 1.572-10.6 2.666-15.586 1.95-8.885 3.53-18.826 6.388-27.452-3.635 4.97-8.037 7.298-14.235 5.395-11.624-4.733-20.033-30.369-27.658-40.412-.357-.572-1.335-2.54-.501-3.052 11.102-6.443 14.81 10.527 18.914 17.65 3.705 6.43 10.278 24.495 20.553 14.814.496-.468 1.436-1.487 1.788-2.06 7.026-11.411 10.338-24.95 14.696-37.5.364-1.049 1.365-1.546 2.337-1.837m36.585 29.155c1.678-.226 3.945.217 5.219 1.378a3 3 0 0 1 .392.432c1.26 1.706-.635 3.732-1.696 5.052-1.998 2.486-4.048 4.896-5.773 7.589-5.988 9.346-10.475 20.115-10.024 31.408.301 7.595 7.585 8.889 13.699 8.418 6.234-.479 11.676-4.003 15.65-8.708 2.738-3.346 5.219-7.61 4.817-12.088-.316-3.521-2.395-5.92-4.873-8.215-3.423-3.205-7.682-5.675-11.271-8.64-6.938-5.73-.34-8.996 5.55-9.291 1.721-.086 5.192-.228 5.423 2.171.068.71-.585 1.4-1.029 1.865 1.109.655 1.892 1.322 2.885 2.127 5.148 4.148 11.438 9.669 12.844 16.33 1.386 6.526-1.07 12.137-4.576 17.729-8.284 13.216-27.256 21.195-41.59 13.15-3.36-1.887-6.656-7.27-7.217-11.193-1.39-9.728 1.77-20.846 5.209-29.933 1.593-4.04 4.586-9.202 6.919-12.79 2.375-3.653 5.157-5.973 9.442-6.79m143.462-23.568c4.383-.04 3.882 3.263 3.32 6.424-1.464 8.247-.92 16.681-.711 25.052a40 40 0 0 0 3.641-.616c6.634-1.45 13.456-2.572 20.033-4.233.698-1.304 1.541-3.107 3.068-3.325 4.3-.714 8.862 5.806 5.937 9.343-2.703 3.27-10.135 3.726-14.184 4.378-6.095.98-12.056 1.846-18.115 2.93.21 11.162.126 22.446 1.637 33.526.46 3.375 1.82 6.396 2.606 9.671.256 1.072-.161 1.815-.781 2.659-1.427 1.394-3.299 2.554-5.347 2.647-1.05.048-2.046-.246-2.821-.974-4.81-4.52-5.016-38.24-5.089-46.188-7.118 1.226-14.181 3.06-21.327 4.156-2.296.36-4.434.288-6.445-1.033-2.922-1.921-2.74-6.665 1.15-7.304 3.249-.47 6.42-.586 9.69-1.058 5.534-.8 11.45-2.603 16.976-3.044-.054-7.93-2.369-24.438 2.347-31.337.838-1.224 2.96-1.553 4.415-1.674"/></g></svg></svg>