<svg xmlns="http://www.w3.org/2000/svg" width="512" height="512" style="shape-rendering:geometricPrecision;text-rendering:geometricPrecision;image-rendering:optimizeQuality;fill-rule:evenodd;clip-rule:evenodd"><path fill="#f9a800" d="M235.5 20.5h40v90h-40zm-205 10h180v40h-140v100h140v40h-180zm271 0h180v180h-100v-40h60v-100h-100v20h-40z" style="opacity:1"/><path fill="#f9a800" d="M90.5 90.5h60v60h-60zm271 0h60v60h-60zm-191 10h40v40h-40zm65 51h40v122h-84a396 396 0 0 0-1-39.5q22.494-.75 45-.5zm66 19h40v40h-40zm-271 63h40v40h-40zm81 0q20.006-.25 40 .5a396 396 0 0 0-1 39.5h-39zm204 0h85v40h-85zm126 0h40v40h-40zm-60 68h100v180h-180v-40h140v-100h-60zm-351 14h180v166h-60v-40h20v-86h-100v126h-40zm205 0h106v40h-66v46h-40z" style="opacity:1"/><path fill="#f9a800" d="M361.5 361.5h60v60h-60zm-271 20h60v40h-20v60h-40zm145 60h40v40h-40z" style="opacity:1"/></svg>