<svg xmlns="http://www.w3.org/2000/svg" width="512" height="512" viewBox="0 0 300 300"><path fill="#82bbf8" d="m0 62.891.102-.118c.51-.572.857-5.912 1.094-7.13a68.35 68.35 0 0 1 29.039-43.569A67.8 67.8 0 0 1 59.145 1.25c1.616-.216 3.371-.23 5.012-.311 1.382-.068 3.124-.343 4.46-.353C75.765.53 82.956.56 90.1.56h113.305l18.261-.006c8.016 0 16.937-.078 24.734 1.575 23.947 5.1 43.75 23.346 50.758 46.787.497 1.273.806 3.557 1.256 4.754.57 1.52.93 8.278 1.586 9.086v174.51c-.417.513-.56 2.33-.63 3.055-.699 7.282-2.994 14.103-6.09 20.735-2.64 5.658-6.51 10.503-10.217 15.567l-.098 2.462c-1.154.479-1.497.425-2.729.403-1.394.902-2.83 2.738-4.123 3.747-1.99 1.553-4.27 3.281-6.36 4.698a67.2 67.2 0 0 1-27.373 10.618c-2.367.336-4.434.257-6.684.511-4.377.494-8.297.428-12.69.427l-14.874-.008h-52.655l-59.402.003-17.265.006c-8.108.002-16.59-.013-24.598-1.56-27.683-5.348-50.27-29.376-53.528-57.42-.093-.8-.188-2.835-.684-3.366z"/><path fill="#0b54a0" d="m170.187 228.656-92.798.002-26.237-.006c-3.516.001-10.934.23-14.056-.274a25.2 25.2 0 0 1-13.566-6.747c-4.524-4.355-7.109-10.945-7.119-17.187-.016-9.731-.001-19.465 0-29.197V117.03l-.001-28.28c0-3.77-.221-11.698.312-15.048a24.06 24.06 0 0 1 6.454-12.995 23.25 23.25 0 0 1 16.508-7.143c12.245-.21 25.009.017 37.302-.007l96.822-.005 44.643.012q5.901.021 11.806-.022c2.713-.002 5.996-.17 8.617.515 11.556 3.019 18.26 12.32 18.375 24.098.188 1.7.117 4.304.114 6.076l-.02 9.51.012 31.397c3.47-.284 6.99-1.14 10.462-1.51.977-.104 1.755-.276 2.697-.524l.145-.04a2695 2695 0 0 0-13.903 24.595c2.11-.214 3.917-.109 5.965-.186 5.471-.207 10.027.313 14.48 3.91a16.87 16.87 0 0 1 6.21 11.459c.16 1.624.142 3.306.172 4.94.236 12.7.15 25.407.147 38.112v17.954c.009 7.093.84 14.694-4.144 20.442-3.114 3.592-7.219 5.77-11.99 5.988-5.603.32-11.34.195-16.952.194l-29.9-.01-22.564.01c-4.252.003-8.527.156-12.732-.254-8.252-.807-14.684-7.835-15.142-16.046-.103-1.83-.104-3.67-.119-5.515"/><path fill="#ea4a17" d="M170.382 161.61c.942-3.526 2.12-6.334 4.731-8.957 6.195-6.22 12.497-5.058 20.246-5.178 1.333.839 3.662 3.199 4.86 4.372 1.651 1.614 3.678 3.467 5.237 5.14 1.661 1.4 4.877 4.35 6.341 5.992 1.503 1.09 3.408 3.102 4.79 4.425l8.535 8.124c1.407 1.334 3.234 3.326 4.88 4.153 6.868 3.45 9.956-1.906 12.674-7.021 1.69-3.18 3.604-6.513 5.344-9.497l3.505-6.163c1.196-2.364 3.868-7.066 5.231-9.342 2.11-.214 3.917-.109 5.965-.186 5.471-.207 10.027.313 14.48 3.91a16.87 16.87 0 0 1 6.21 11.459c.16 1.624.142 3.306.173 4.94.235 12.7.149 25.407.146 38.112v17.954c.009 7.093.84 14.694-4.144 20.442-3.114 3.592-7.219 5.77-11.99 5.988-5.603.32-11.34.195-16.952.194l-29.9-.01-22.564.01c-4.252.003-8.527.156-12.732-.254-8.252-.807-14.684-7.835-15.142-16.046-.103-1.83-.104-3.67-.119-5.515-.103-3.703.001-7.434-.066-11.144l-.007-6.66.004-32.128.032-10.112c.015-2.257-.014-4.78.232-7.002"/><path fill="#ea4a17" d="M170.382 161.61c.942-3.526 2.12-6.334 4.731-8.957 6.195-6.22 12.497-5.058 20.246-5.178 1.333.839 3.662 3.199 4.86 4.372 1.651 1.614 3.678 3.467 5.237 5.14 1.661 1.4 4.877 4.35 6.341 5.992-1.749-.169-4.875-.039-6.788-.091a280 280 0 0 0-11.197-.132c-1.934 0-3.873-.025-5.804.069-1.36.066-1.55.284-2.335 1.314-.354 2.686-.214 7.501-.205 10.372v16.11l-.004 27.028c-.002 4.928-.043 9.863.058 14.79.025 1.236.683 2.601 2.078 2.64 3.05.088 6.121.049 9.174.049l19.602.003 32.366.003c5.386.001 10.771.026 16.157 0 2.624-.012 3.42-.435 3.47-3.229.078-4.41.027-8.83.021-13.242l-.016-26.007.015-18.65c.006-2.301.16-7.572-.056-9.693-.413-.615-.743-1.251-1.528-1.414-2.163-.448-16.37-.189-18.785.264l3.505-6.163c1.196-2.364 3.868-7.066 5.231-9.342 2.11-.214 3.917-.109 5.965-.186 5.471-.207 10.027.313 14.48 3.91a16.87 16.87 0 0 1 6.21 11.459c.16 1.624.142 3.306.173 4.94.235 12.7.149 25.407.146 38.112v17.954c.009 7.093.84 14.694-4.144 20.442-3.114 3.592-7.219 5.77-11.99 5.988-5.603.32-11.34.195-16.952.194l-29.9-.01-22.564.01c-4.252.003-8.527.156-12.732-.254-8.252-.807-14.684-7.835-15.142-16.046-.103-1.83-.104-3.67-.119-5.515-.103-3.703.001-7.434-.066-11.144l-.007-6.66.004-32.128.032-10.112c.015-2.257-.014-4.78.232-7.002"/><path fill="#fe7e36" d="M205.456 156.987c1.661 1.4 4.877 4.35 6.341 5.992-1.749-.169-4.875-.039-6.788-.091a280 280 0 0 0-11.197-.132c-1.934 0-3.873-.025-5.804.069-1.36.066-1.55.284-2.335 1.314-.354 2.686-.214 7.501-.205 10.372v16.11l-.004 27.028c-.002 4.928-.043 9.863.058 14.79.025 1.236.683 2.601 2.078 2.64 3.05.088 6.121.049 9.174.049l19.602.003 32.366.003c5.386.001 10.771.026 16.157 0 2.624-.012 3.42-.435 3.47-3.229.078-4.41.027-8.83.021-13.242l-.016-26.007.015-18.65c.006-2.301.16-7.572-.056-9.693-.413-.615-.743-1.251-1.528-1.414-2.163-.448-16.37-.189-18.785.264l3.505-6.163c1.613.742 14.51-.17 17.069.586a6.95 6.95 0 0 1 4.271 3.392c.747 1.356.938 2.503.982 4.022.107 3.743.057 7.497.055 11.243l-.013 20.339.006 24.608c.001 1.494-.004 3.104.007 4.616.052 6.89 1.29 14.559-8.23 14.795-4.496.11-9.292.033-13.884.036l-26.268-.001-24.37-.002c-4.323.003-8.637.016-12.969-.023-3.114-.028-6.11-1.108-7.44-4.174-.435-1.004-.716-2.148-.725-3.253-.03-4.07.003-8.144.013-12.215l-.007-22.887-.004-21.746c-.006-3.852-.18-7.776.008-11.617.044-.908.166-1.803.507-2.653.777-1.93 2.407-3.67 4.376-4.386 2.273-.829 13.47-.357 16.812-.376.893-.005 2.73.18 3.51-.198.077-.037.15-.08.225-.119"/><path fill="#fbf9f7" d="M221.058 188.81c1.053.136 6.86 3.85 8.316 4.715 2.215 1.32 6.936 3.748 8.484 5.432.04.427.137 1.438-.007 1.812-.78 2.017-5.454 4.352-7.343 5.406-3.15 1.702-5.968 4.112-9.503 5.496l-1.649-.934c-1.23-2.195-.842-5.726-.84-8.272l.034-11.678c.909-.997 1.392-1.31 2.508-1.977"/><path fill="#08427e" d="M160.112 210.91c.08-2.574-.008-5.634-.015-8.239q-.07-9.06-.026-18.118c.058-7.943-.668-14.665 5.947-20.395 1.16-1.007 2.833-2.291 4.364-2.548-.246 2.223-.217 4.745-.232 7.002l-.032 10.112-.004 32.129c-2.3-.223-7.406.05-10.002.057"/><path fill="#08427e" d="m170.187 228.656-92.798.002-26.237-.006c-3.516.001-10.934.23-14.056-.274a25.2 25.2 0 0 1-13.566-6.747c-4.524-4.355-7.109-10.945-7.119-17.187-.016-9.731-.001-19.465 0-29.197V117.03l-.001-28.28c0-3.77-.221-11.698.312-15.048a24.06 24.06 0 0 1 6.454-12.995 23.25 23.25 0 0 1 16.508-7.143c12.245-.21 25.009.017 37.302-.007l96.822-.005 44.643.012q5.901.021 11.806-.022c2.713-.002 5.996-.17 8.617.515 11.556 3.019 18.26 12.32 18.375 24.098-.206 3.304-.05 8.43-.05 11.862l-.006 22.28.004 7.177c.002 1.024.035 3.467-.118 4.415-.208-3.933-.072-8.919-.072-12.91l.001-22.763c0-2.344.211-14.493-.688-15.93l-.148.103.056.197c.4 1.463.402 2.51.402 4.025l-.082.128c-.357-.553-.21-5.234-.845-6.914-2.204-5.831-5.705-10.34-11.272-13.312-2.17-1.195-8.027-3.228-10.126-2.633l-.027.135c.374-.02.734-.047 1.106-.03-.83.611-5.064.317-6.218.297q-3.487-.03-6.977-.015l-27.375.003-115.932-.004-30.36.01c-3.26-.001-6.536.044-9.79.024-1.177-.41-1.182-.468-2.338-.237-8.01 1.601-14.582 6.587-17.818 14.187-1.699 3.989-1.8 7.01-1.844 11.224q-.126 15.671.039 31.342l-.014 55.664.007 21.217c-.014 3.172-.424 17.826.19 19.742.348 1.087.412 2.355.62 3.485.232 1.25 1.405 4.02 2.116 5.105.361-.065.187-.05.523-.051.214.251 1.724 2.614 1.807 2.94l-.252.307c.76.892 3.658 4.043 4.72 4.207-.266-.41-.38-.407-.824-.618l.069-.119c1.117.274 2.56 1.978 3.8 2.54 2.312 1.05 5.343 1.748 7.6 2.95.267.144 3.312.112 3.735.113l6.755.003 23.733.002c1.134 0 10.097.108 10.635-.104l-.109-.112c-.874-.004-7.487.07-7.89-.092l.2-.14c8.59.046 17.204-.077 25.785.054l.173.042c-.21.2-14.531.088-16.204.227.834.343 31.156.157 34.345.126 16.993-.165 34.419.236 51.404-.034-.482-.208-.851-.224-1.367-.292.573-.19.588-.18 1.201-.214.343-.434.173-9.015.175-10.1-1.429.165-4.121.071-5.63.064l-8.717.025-35.127-.06-51.533.035c-8.11.032-16.409 0-24.534-.02-1.358-.005-2.669.064-4.025-.081l.347-.065c19.775.208 39.976.006 59.778.01l69.858-.06c.067 3.711-.037 7.442.066 11.145"/><path fill="#157ade" d="M40.449 217.37c-6.117-.18-11.282-4.285-12.65-10.338-.414-1.83-.263-4.25-.262-6.15l-.009-7.735.009-31.695-.016-55.813.015-18c-.011-3.587-.099-7.182.03-10.784.166-3.107 1.557-6.134 3.705-8.346 4.32-4.448 8.768-3.91 14.437-3.888l11.216.017 44.75-.002 88.463-.003 29.209.003c4.986 0 9.946-.04 14.969.03 4.903.07 10.346 4.666 11.307 9.46.784 3.916.48 9.091.498 13.194l.003 28.88c.002 5.386-.234 13.57.636 18.67.542-.033.937-.154 1.349.077 1.551-.147 5.278-1.033 7.226-1.312-.87 1.315-1.975 3.457-2.8 4.909l-5.564 9.807c-4.404 7.791-9.242 16-13.442 23.878-1.119-1.213-2.592-2.474-3.823-3.62l-5.158-4.89-15.56-14.743c-2.593-2.464-5.547-5.066-8.012-7.61 4.88-.204 11.146-.947 16.091-1.376-.962-6.485-2.863-13.24-5.865-19.086-13.082-25.48-42.406-33.3-67.37-20.252l-.562-.255c5.793-4.703 13.088-7.847 20.06-10.285l.11-.283c.72-.247 1.4-.42 2.137-.603 13.254-3.288 27.877-2.176 40.237 3.853a61.4 61.4 0 0 1 11.126 6.839c2.628 2.055 4.979 4.165 7.242 6.612a62.4 62.4 0 0 1 12.64 20.413c.662 1.73 1.081 2.599 1.534 4.388.287-.72 1.085-1.85 1.002-2.405-.177-1.193.066-2.138.067-3.338l.098-10.987c.132-12.102-.014-24.285-.032-36.391-.004-2.351-.334-4.245-2.298-5.776-1.235-1-2.56-1.134-4.108-1.19-5.006-.048-10.037-.033-15.045-.033h-27.684l-83.015.006H61.522l-13.915-.004c-2.79-.002-5.669-.061-8.452.158-1.198.094-2.94 1.238-3.717 2.147-.875 1.023-1.241 2.85-1.27 4.201-.07 3.195-.037 6.434-.037 9.635l.003 18.111-.002 55.069.004 30.822-.004 9.092c.001 3.11-.439 6.939 2.491 9.054 1.096.791 2.303 1.197 3.651 1.29 3.973.146 8.063.088 12.041.085l21.851.01 55.783-.002c9.869-.003 20.231-.164 30.065.048.131 1.951.085 4.465.085 6.453l-77.141-.002-29.36-.013c-4.389-.007-8.762.076-13.149-.001"/><path fill="url(#color-1)" d="M163.329 90.112c2.294-.604 4.649-1.227 6.993-1.612a59.1 59.1 0 0 1 39.677 7.131 62.23 62.23 0 0 1 28.828 38.207q.365 1.418.695 2.844c1.071-.2 7.878-1.37 8.586-1.735 1.551-.147 5.278-1.033 7.226-1.312-.87 1.315-1.975 3.457-2.8 4.909l-5.564 9.807c-4.404 7.791-9.242 16-13.442 23.878-1.119-1.213-2.592-2.474-3.823-3.62l-5.158-4.89-15.56-14.743c-2.593-2.464-5.547-5.066-8.012-7.61 4.88-.204 11.146-.947 16.091-1.376-.962-6.485-2.863-13.24-5.865-19.086-13.082-25.48-42.406-33.3-67.37-20.252l-.562-.255c5.793-4.703 13.088-7.847 20.06-10.285"/><path fill="#fbf9f7" d="M125.17 119.425c2.245-.117 6.322 2.788 8.393 4.012l10.558 6.228 8.482 4.998c2.232 1.299 5.685 2.92 7.22 4.932 1.424 1.864 1.011 5.327-.804 6.839-1.588 1.322-3.62 2.344-5.436 3.41l-8.733 5.154c-3.947 2.178-7.935 4.768-11.885 7.006-2.119 1.165-4.081 2.67-6.378 3.474-2.615.915-6.05-1.42-6.457-4.05-.297-1.918-.162-4.469-.158-6.467l-.002-11.302-.002-12.714c0-1.63-.094-5.195.083-6.663a5.75 5.75 0 0 1 1.092-2.782c1.06-1.446 2.364-1.824 4.027-2.075"/><path fill="#82bbf8" d="M141.425 101.973c.484-.673 1.14-1.144 1.844-1.576l.561.255c-.716.488-1.625.919-2.405 1.32"/></svg>