<svg xmlns="http://www.w3.org/2000/svg" width="512" height="512" viewBox="0 0 300 300"><defs><linearGradient id="color-1" x1="62.502" x2="21.367" y1="78.368" y2="101.478" gradientUnits="userSpaceOnUse"><stop offset="0" stop-color="#fa5c00"/><stop offset="1" stop-color="#e79900"/></linearGradient><linearGradient id="color-2" x1="89.379" x2="115.149" y1="71.679" y2="47.021" gradientUnits="userSpaceOnUse"><stop offset="0" stop-color="#fd3542"/><stop offset="1" stop-color="#d0649b"/></linearGradient><linearGradient id="color-3" x1="139.592" x2="160.289" y1="188.528" y2="225.338" gradientUnits="userSpaceOnUse"><stop offset="0" stop-color="#c6a454"/><stop offset="1" stop-color="#9ec88b"/></linearGradient><clipPath id="clip-1"><path fill="none" d="M0 0h299.991v299.991H0z"/></clipPath></defs><path fill="#fff" d="M0 63.177c.317-.476 1.232-7.765 1.513-9.009 1.353-6.002 3.048-10.817 5.81-16.3 8.05-15.975 22.258-28.19 39.224-33.83 4.796-1.594 10.67-2.728 15.71-3.08C67.167.615 72.388.698 77.312.7l19.54.003h62.147L210.46.701h15.564c4.22-.001 9.318-.026 13.52.368a63.6 63.6 0 0 1 21.87 6.243 68.32 68.32 0 0 1 35.688 41.537c.332 1.071.581 2.545.943 3.51 1.116 2.985.871 7.588 1.954 10.385v174.631c-.508 1.153-1.102 7.002-1.518 8.814-1.75 7.76-4.89 15.113-9.155 21.816-1.878 2.953-4.075 5.543-6.069 8.396-.575.825-.237 1.877-.43 2.687-.734.428-2.495.316-2.914.7-6.557 6.028-13.066 10.651-21.337 14.206a65.2 65.2 0 0 1-20.062 5.019c-4.266.405-9.45.386-13.748.385l-15.513-.004h-52.212l-60.308.004H78.276c-13.214-.003-23.03.11-35.614-4.95A68.41 68.41 0 0 1 2.882 251.3c-.761-2.38-1.16-4.588-1.672-6.993-.343-1.604-.583-6.075-1.21-7.335z"/><path fill="#c7a57b" d="M256.83 186.092c13.163-.646 24.37 9.476 25.065 22.638.694 13.162-9.386 24.406-22.544 25.148-13.228.747-24.544-9.398-25.243-22.627-.697-13.23 9.488-24.508 22.722-25.159"/><path fill="#87cca1" d="M147.939 240.155c13.153-1.138 24.743 8.593 25.897 21.746 1.154 13.151-8.562 24.753-21.712 25.923-13.174 1.174-24.8-8.563-25.957-21.738-1.157-13.176 8.595-24.79 21.772-25.93"/><path fill="#b26fae" d="M128.717 46.91c-5.313-10.36-2.393-23.042 6.916-30.036s22.302-6.268 30.773 1.72c8.473 7.987 9.963 20.915 3.528 30.619a23.918 23.918 0 0 1-41.217-2.303"/><path fill="#cb7184" d="M128.717 46.91c.599.442 1.819 2.499 2.368 3.265 3.08 4.294 6.876 6.658 11.742 8.527.175-.367.04-.266.334-.416 1.747.376 5.355.689 7.22.752l.362.564 1.271.058c-.061-.502-.205.078-.27-.499.818-.224 1.454.063 2.18-.011 4.678-.48 8.999-3.072 12.49-6.096.9-.781 2.434-2.82 3.272-3.84l.248-.001a23.918 23.918 0 0 1-41.217-2.303m127.806 19.218c13.207-.817 24.567 9.246 25.35 22.456.782 13.209-9.31 24.543-22.52 25.292-13.164.746-24.45-9.302-25.228-22.463-.781-13.162 9.238-24.472 22.398-25.285"/><path fill="url(#color-1)" d="M40.877 66.148c13.14-.622 24.305 9.503 24.969 22.64.663 13.137-9.425 24.335-22.56 25.041-13.195.709-24.455-9.436-25.122-22.632-.666-13.197 9.514-24.425 22.713-25.05"/><path fill="#8ad107" d="M39.394 186.274c13.16-1.444 24.982 8.1 26.345 21.268 1.363 13.17-8.253 24.932-21.43 26.213-13.064 1.27-24.701-8.244-26.053-21.298-1.35-13.055 8.092-24.752 21.138-26.183"/><path fill="#db8527" d="M137.654 129.57c10.666-6.446 24.497-3.602 31.752 6.531 7.256 10.133 5.493 24.144-4.046 32.164s-23.644 7.35-32.38-1.538a23.865 23.865 0 0 1 4.674-37.156"/><path fill="#db8527" d="M223.988 102.103c.243.207 1.298 2.903 1.645 3.589 1.154 2.282 2.557 4.79 4.25 6.713l-30.711 17.083c-4.831 2.681-10.444 5.633-15.122 8.458-.382-.556-1.567-3.517-1.963-4.285-1.21-2.36-2.414-4.054-3.934-6.178 1.705-.78 4.072-2.17 5.748-3.102l9.892-5.507z"/><path fill="#ef5b00" d="M75.874 102.132c.925.38 2.915 1.547 3.836 2.063l7.06 3.94 22.94 12.733c3.509 1.95 8.608 4.999 12.077 6.628-2.75 3.949-3.927 5.695-5.732 10.364-1.11-.458-4.2-2.309-5.377-2.977l-7.934-4.402-19.847-11.034c-3.935-2.191-8.763-5.034-12.741-7.024 2.456-2.892 4.537-6.689 5.718-10.291"/><path fill="#87cca1" d="M223.408 220.598c.326.23 1.05 2.465 1.296 3.072.98 2.402 2.644 5.46 4.258 7.512a147 147 0 0 1-5.595 2.82c-12.963 6.238-25.743 13.2-38.74 19.334l-.05.01c-.35-.164-.836-2.013-1.083-2.587-1.225-2.842-2.596-5.531-4.514-7.97 1.604-.636 4.351-2.103 5.948-2.9l11.26-5.641c8.852-4.437 18.565-9.017 27.22-13.65"/><path fill="#abd567" d="M76.437 220.626c5.006 2.382 11.07 5.376 15.942 7.976 2.33.986 5.39 2.628 7.706 3.787l13.812 6.91c1.893.949 5.274 2.762 7.135 3.492-2.189 2.553-4.546 7.422-5.468 10.664l-21.75-10.905c-1.046-.523-7.43-3.594-7.81-3.99-4.72-2.127-10.324-5.47-14.937-7.331 2.41-2.955 4.178-7.005 5.37-10.603"/><path fill="#8ad107" d="M76.437 220.626c5.006 2.382 11.07 5.376 15.942 7.976.629.913 1.54.617 1.604 1.783-.325.606-1.86 3.567-2.19 3.889l-.43.085c-.236.387-2.973 4.646-2.957 4.572l.154.482c-.853-.162-1.985-.982-2.557-.853-4.72-2.127-10.323-5.47-14.936-7.331 2.41-2.955 4.178-7.005 5.37-10.603"/><path fill="url(#color-2)" d="M115.604 46.574c.772 3.238 3.316 7.985 5.34 10.624a2518 2518 0 0 0-23.306 11.595c-1.142.57-7.518 3.88-8.29 4.09-1.05.64-3.119 1.6-4.281 2.18a559 559 0 0 0-8.595 4.333 35.7 35.7 0 0 0-5.351-10.61c2.605-1.082 5.773-3.07 8.266-3.98 2.832-1.73 9.105-4.652 12.275-6.24z"/><path fill="#fe280d" d="M79.387 64.806c1.047.109 1.687-.914 2.681-.997l.06.116c.76 1.421 5.9 3.971 7.52 5.89.504.597.865 1.368 1.224 2.06-.624.334-1.209.397-1.663.816l.139.193c-1.05.638-3.119 1.598-4.281 2.18a559 559 0 0 0-8.595 4.332 35.7 35.7 0 0 0-5.351-10.61c2.605-1.082 5.773-3.07 8.266-3.98"/><path fill="url(#color-3)" d="M144.052 185.539c5.104.663 6.789.641 11.857.003.213 14.192.035 28.68.087 42.91-4.777-.57-7.256-.506-11.994-.01.246-14.143-.001-28.713.05-42.903"/></svg>