<svg id="svg" version="1.1" xmlns="http://www.w3.org/2000/svg" xmlns:xlink="http://www.w3.org/1999/xlink" width="400" height="400" viewBox="0, 0, 400,400"><g id="svgg"><path id="path0" d="M37.600 100.000 L 37.600 162.400 56.200 162.400 L 74.800 162.400 74.800 121.802 L 74.800 81.204 118.500 81.102 L 162.200 81.000 162.303 59.300 L 162.407 37.600 100.003 37.600 L 37.600 37.600 37.600 100.000 M237.697 59.300 L 237.800 81.000 286.098 81.102 L 334.396 81.203 334.498 121.702 L 334.600 162.200 350.100 162.305 L 365.600 162.409 365.600 100.005 L 365.600 37.600 301.597 37.600 L 237.593 37.600 237.697 59.300 M162.669 84.665 C 162.521 84.812,162.400 92.438,162.400 101.610 L 162.400 118.286 164.859 118.543 C 168.068 118.878,231.936 118.878,235.146 118.543 L 237.609 118.285 237.504 101.443 L 237.400 84.600 200.169 84.498 C 179.692 84.442,162.817 84.517,162.669 84.665 M112.667 119.067 C 112.520 119.213,112.400 129.023,112.400 140.867 L 112.400 162.400 95.400 162.400 L 78.400 162.400 78.400 200.000 L 78.400 237.600 95.397 237.600 L 112.394 237.600 112.497 264.100 L 112.600 290.600 137.500 290.703 L 162.400 290.806 162.400 306.203 L 162.400 321.600 200.000 321.600 L 237.600 321.600 237.600 306.200 L 237.600 290.800 218.900 290.789 C 208.615 290.783,191.695 290.788,181.300 290.800 L 162.400 290.822 162.400 264.211 L 162.400 237.600 137.400 237.600 L 112.400 237.600 112.400 200.000 L 112.400 162.400 137.400 162.400 L 162.400 162.400 162.400 140.600 L 162.400 118.800 137.667 118.800 C 124.063 118.800,112.813 118.920,112.667 119.067 M237.600 140.600 L 237.600 162.400 267.200 162.400 L 296.800 162.400 296.800 140.600 L 296.800 118.800 267.200 118.800 L 237.600 118.800 237.600 140.600 M297.057 164.854 C 296.916 166.209,296.800 182.310,296.800 200.635 L 296.800 233.952 298.300 234.076 C 299.723 234.194,299.810 234.282,300.000 235.800 L 300.200 237.400 315.600 237.400 L 331.000 237.400 331.000 200.000 L 331.000 162.600 314.157 162.496 L 297.315 162.391 297.057 164.854 M37.600 300.000 L 37.600 362.400 100.000 362.400 L 162.400 362.400 162.400 343.802 L 162.400 325.204 118.700 325.102 L 75.000 325.000 74.898 281.300 L 74.796 237.600 56.198 237.600 L 37.600 237.600 37.600 300.000 M237.697 264.100 L 237.800 290.600 267.200 290.600 L 296.600 290.600 296.703 264.100 L 296.806 237.600 267.200 237.600 L 237.594 237.600 237.697 264.100 M334.667 237.867 C 334.520 238.013,334.400 257.723,334.400 281.667 L 334.400 325.200 286.000 325.200 L 237.600 325.200 237.600 343.800 L 237.600 362.400 301.600 362.400 L 365.600 362.400 365.600 300.000 L 365.600 237.600 350.267 237.600 C 341.833 237.600,334.813 237.720,334.667 237.867 " stroke="none" fill="#fcfcfc" fill-rule="evenodd"></path><path id="path1" d="M3.200 101.602 L 3.200 200.004 39.100 199.902 L 75.000 199.800 75.000 182.800 L 75.000 165.800 56.300 165.696 L 37.600 165.592 37.600 101.596 L 37.600 37.600 101.600 37.600 L 165.600 37.600 165.600 59.400 L 165.600 81.200 182.800 81.200 L 200.000 81.200 200.000 42.200 L 200.000 3.200 101.600 3.200 L 3.200 3.200 3.200 101.602 M78.267 84.667 C 78.120 84.813,78.000 102.363,78.000 123.667 L 78.000 162.400 95.200 162.400 L 112.400 162.400 112.400 140.600 L 112.400 118.800 137.400 118.800 L 162.400 118.800 162.400 101.600 L 162.400 84.400 120.467 84.400 C 97.403 84.400,78.413 84.520,78.267 84.667 M165.600 142.200 L 165.600 165.600 138.996 165.600 L 112.391 165.600 112.496 182.700 L 112.600 199.800 156.300 199.902 L 200.000 200.004 200.000 159.402 L 200.000 118.800 182.800 118.800 L 165.600 118.800 165.600 142.200 " stroke="none" fill="#fc0404" fill-rule="evenodd"></path><path id="path2" d="M163.505 118.683 C 164.002 118.779,164.722 118.775,165.105 118.675 C 165.487 118.575,165.080 118.496,164.200 118.501 C 163.320 118.505,163.007 118.587,163.505 118.683 M235.100 118.682 C 235.595 118.778,236.405 118.778,236.900 118.682 C 237.395 118.587,236.990 118.509,236.000 118.509 C 235.010 118.509,234.605 118.587,235.100 118.682 M296.909 164.000 C 296.909 164.990,296.987 165.395,297.082 164.900 C 297.178 164.405,297.178 163.595,297.082 163.100 C 296.987 162.605,296.909 163.010,296.909 164.000 M78.192 200.000 C 78.192 220.570,78.240 228.985,78.300 218.700 C 78.359 208.415,78.359 191.585,78.300 181.300 C 78.240 171.015,78.192 179.430,78.192 200.000 M200.098 245.300 L 200.200 290.600 217.400 290.704 L 234.600 290.808 234.495 262.604 L 234.389 234.400 267.095 234.333 C 285.083 234.296,299.125 234.195,298.300 234.109 L 296.800 233.952 296.800 216.976 L 296.800 200.000 248.398 200.000 L 199.997 200.000 200.098 245.300 M334.583 200.500 C 334.477 200.775,334.438 208.470,334.495 217.600 L 334.600 234.200 350.100 234.305 L 365.600 234.409 365.600 298.405 L 365.600 362.400 301.400 362.478 C 266.090 362.521,236.615 362.566,235.900 362.578 L 234.600 362.600 234.496 343.900 L 234.392 325.200 217.196 325.200 L 200.000 325.200 200.000 361.000 L 200.000 396.800 296.800 396.800 L 393.600 396.800 393.600 298.400 L 393.600 200.000 364.187 200.000 C 341.018 200.000,334.734 200.106,334.583 200.500 M397.067 200.267 C 396.734 200.600,396.710 395.700,397.043 396.567 C 397.198 396.972,397.774 397.200,398.643 397.200 L 400.000 397.200 400.000 298.600 L 400.000 200.000 398.667 200.000 C 397.933 200.000,397.213 200.120,397.067 200.267 M298.503 237.523 L 296.806 237.646 296.703 264.123 L 296.600 290.600 267.000 290.600 L 237.400 290.600 237.509 306.100 L 237.618 321.600 200.142 321.600 C 179.531 321.600,162.773 321.706,162.903 321.836 C 163.033 321.966,200.953 321.940,247.170 321.777 L 331.200 321.482 331.200 279.441 L 331.200 237.400 315.700 237.400 C 307.175 237.400,299.436 237.455,298.503 237.523 " stroke="none" fill="#649cf4" fill-rule="evenodd"></path><path id="path3" d="M200.000 42.200 L 200.000 81.200 217.200 81.200 L 234.400 81.200 234.400 59.400 L 234.400 37.600 235.797 37.600 L 237.193 37.600 237.297 59.500 L 237.400 81.400 285.698 81.502 L 333.996 81.603 334.100 121.902 L 334.204 162.200 334.302 121.700 L 334.400 81.200 286.000 81.200 L 237.600 81.200 237.600 59.400 L 237.600 37.600 301.600 37.600 L 365.600 37.600 365.600 99.995 L 365.600 162.391 349.900 162.500 L 334.200 162.610 349.900 162.705 L 365.600 162.800 365.600 164.200 L 365.600 165.600 350.000 165.600 L 334.400 165.600 334.400 182.900 L 334.400 200.200 364.000 200.095 L 393.600 199.990 393.600 298.262 C 393.600 352.311,393.712 396.421,393.850 396.284 C 393.987 396.146,393.964 307.646,393.800 199.617 L 393.500 3.200 296.750 3.200 L 200.000 3.200 200.000 42.200 M396.800 101.711 L 396.800 200.221 398.400 200.069 L 400.000 199.916 400.000 101.558 L 400.000 3.200 398.400 3.200 L 396.800 3.200 396.800 101.711 M162.496 59.298 L 162.400 81.196 118.700 81.298 L 75.000 81.400 74.898 121.896 L 74.796 162.392 56.098 162.502 L 37.400 162.612 56.200 162.606 L 75.000 162.600 75.102 122.100 L 75.204 81.600 118.814 81.600 C 153.334 81.600,162.465 81.496,162.616 81.100 C 162.722 80.825,162.760 70.880,162.700 59.000 L 162.593 37.400 162.496 59.298 M181.300 84.300 C 191.585 84.359,208.415 84.359,218.700 84.300 C 228.985 84.240,220.570 84.192,200.000 84.192 C 179.430 84.192,171.015 84.240,181.300 84.300 M237.417 118.900 C 237.263 137.875,237.196 155.470,237.269 158.000 L 237.400 162.600 249.800 162.727 C 256.620 162.797,277.725 162.731,296.700 162.579 L 331.200 162.303 331.200 123.351 L 331.200 84.400 284.449 84.400 L 237.697 84.400 237.417 118.900 M162.496 140.500 L 162.400 162.400 137.400 162.400 L 112.400 162.400 112.467 164.100 L 112.534 165.800 112.691 164.300 L 112.848 162.800 137.637 162.800 C 157.099 162.800,162.466 162.693,162.616 162.300 C 162.722 162.025,162.760 152.080,162.700 140.200 L 162.593 118.600 162.496 140.500 M200.000 159.400 L 200.000 200.000 248.400 200.000 L 296.800 200.000 296.800 182.800 L 296.800 165.600 265.594 165.600 L 234.387 165.600 234.494 142.200 L 234.600 118.800 217.300 118.800 L 200.000 118.800 200.000 159.400 M296.800 140.600 L 296.800 162.400 267.200 162.400 L 237.600 162.400 237.600 140.600 L 237.600 118.800 267.200 118.800 L 296.800 118.800 296.800 140.600 M331.392 200.200 C 331.392 220.880,331.441 229.281,331.500 218.870 C 331.559 208.458,331.559 191.538,331.500 181.270 C 331.440 171.001,331.392 179.520,331.392 200.200 M74.983 217.200 C 74.983 226.550,75.036 230.375,75.100 225.700 C 75.164 221.025,75.164 213.375,75.100 208.700 C 75.036 204.025,74.983 207.850,74.983 217.200 M112.467 235.900 L 112.400 237.600 137.397 237.600 L 162.394 237.600 162.497 264.100 L 162.600 290.600 164.200 290.648 L 165.800 290.695 164.303 290.524 L 162.806 290.352 162.703 263.876 L 162.600 237.400 137.724 237.297 L 112.848 237.194 112.691 235.697 L 112.534 234.200 112.467 235.900 M56.198 237.498 L 74.796 237.608 74.898 281.304 L 75.000 325.000 118.696 325.102 L 162.392 325.204 162.502 343.702 L 162.612 362.200 162.606 343.600 L 162.600 325.000 118.902 324.898 L 75.204 324.796 75.102 281.098 L 75.000 237.400 56.300 237.394 L 37.600 237.388 56.198 237.498 M237.467 237.467 C 237.320 237.613,237.200 249.572,237.200 264.041 L 237.200 290.349 236.100 290.512 C 235.062 290.665,235.068 290.672,236.200 290.637 L 237.400 290.600 237.503 264.103 L 237.606 237.605 267.503 237.500 L 297.400 237.395 267.567 237.297 C 251.158 237.244,237.613 237.320,237.467 237.467 M342.100 237.500 C 346.445 237.564,353.555 237.564,357.900 237.500 C 362.245 237.435,358.690 237.382,350.000 237.382 C 341.310 237.382,337.755 237.435,342.100 237.500 M334.098 281.298 L 334.000 324.797 285.700 324.898 L 237.400 325.000 237.296 343.675 L 237.192 362.350 235.896 362.527 C 234.606 362.704,234.607 362.704,236.000 362.652 L 237.400 362.600 237.504 343.900 L 237.608 325.200 285.817 325.200 C 324.015 325.200,334.065 325.096,334.216 324.700 C 334.320 324.425,334.359 304.760,334.301 281.000 L 334.196 237.800 334.098 281.298 M260.900 321.900 C 273.825 321.958,294.975 321.958,307.900 321.900 C 320.825 321.841,310.250 321.793,284.400 321.793 C 258.550 321.793,247.975 321.841,260.900 321.900 M182.900 325.100 C 192.305 325.160,207.695 325.160,217.100 325.100 C 226.505 325.040,218.810 324.991,200.000 324.991 C 181.190 324.991,173.495 325.040,182.900 325.100 " stroke="none" fill="#34ac54" fill-rule="evenodd"></path><path id="path4" d="M112.400 217.100 L 112.400 234.400 139.000 234.400 L 165.600 234.400 165.600 262.604 L 165.600 290.809 182.700 290.704 L 199.800 290.600 199.902 245.304 L 200.003 200.007 156.202 199.904 L 112.400 199.800 112.400 217.100 M3.200 298.400 L 3.200 396.800 101.600 396.800 L 200.000 396.800 200.000 361.000 L 200.000 325.200 182.800 325.200 L 165.600 325.200 165.600 343.800 L 165.600 362.400 101.600 362.400 L 37.600 362.400 37.600 298.400 L 37.600 234.400 56.200 234.400 L 74.800 234.400 74.800 217.200 L 74.800 200.000 39.000 200.000 L 3.200 200.000 3.200 298.400 M78.184 238.100 C 78.080 238.375,78.040 257.320,78.097 280.200 L 78.200 321.800 120.200 321.800 L 162.200 321.800 162.305 306.303 L 162.409 290.806 137.505 290.703 L 112.600 290.600 112.497 264.100 L 112.394 237.600 95.385 237.600 C 82.145 237.600,78.333 237.711,78.184 238.100 " stroke="none" fill="#fcbc04" fill-rule="evenodd"></path><path id="path5" d="M0.000 200.000 L 0.000 400.000 198.500 400.000 L 397.000 400.000 396.896 201.600 L 396.793 3.200 398.396 3.200 L 400.000 3.200 400.000 1.600 L 400.000 0.000 200.000 0.000 L 0.000 0.000 0.000 200.000 M393.800 199.558 C 393.964 307.555,393.976 396.115,393.826 396.358 C 393.627 396.680,340.433 396.800,198.376 396.800 L 3.200 396.800 3.200 200.000 L 3.200 3.200 198.350 3.200 L 393.500 3.200 393.800 199.558 M162.703 59.500 L 162.600 81.400 118.902 81.502 L 75.204 81.604 75.102 122.102 L 75.000 162.600 56.300 162.704 L 37.600 162.808 37.600 164.200 L 37.600 165.592 56.300 165.696 L 75.000 165.800 75.000 200.000 L 75.000 234.200 56.300 234.304 L 37.600 234.408 37.600 235.800 L 37.600 237.192 56.300 237.296 L 75.000 237.400 75.102 281.098 L 75.204 324.796 118.902 324.898 L 162.600 325.000 162.704 343.700 L 162.808 362.400 164.200 362.400 L 165.592 362.400 165.696 343.700 L 165.800 325.000 200.000 325.000 L 234.200 325.000 234.304 343.700 L 234.408 362.400 235.800 362.400 L 237.192 362.400 237.296 343.700 L 237.400 325.000 285.700 324.898 L 334.000 324.797 334.000 281.631 C 334.000 257.890,334.109 238.181,334.243 237.833 C 334.458 237.271,336.226 237.200,350.043 237.200 L 365.600 237.200 365.600 235.800 L 365.600 234.400 350.000 234.400 L 334.400 234.400 334.400 200.000 L 334.400 165.600 350.000 165.600 L 365.600 165.600 365.600 164.200 L 365.600 162.800 350.043 162.800 C 336.226 162.800,334.458 162.729,334.243 162.167 C 334.109 161.819,334.000 143.550,334.000 121.569 L 334.000 81.603 285.700 81.502 L 237.400 81.400 237.297 59.500 L 237.193 37.600 235.797 37.600 L 234.400 37.600 234.400 59.400 L 234.400 81.200 200.000 81.200 L 165.600 81.200 165.600 59.400 L 165.600 37.600 164.203 37.600 L 162.807 37.600 162.703 59.500 M302.800 84.400 L 331.068 84.400 331.326 141.614 C 331.468 173.082,331.468 226.542,331.326 260.415 L 331.068 322.001 204.634 321.901 L 78.200 321.800 78.200 203.200 L 78.200 84.600 120.600 84.364 C 143.920 84.235,188.095 84.190,218.766 84.264 C 249.438 84.339,287.253 84.400,302.800 84.400 M162.703 140.700 L 162.600 162.600 137.700 162.703 L 112.800 162.806 112.800 164.203 L 112.800 165.600 139.200 165.600 L 165.600 165.600 165.600 142.200 L 165.600 118.800 164.203 118.800 L 162.807 118.800 162.703 140.700 M234.667 119.067 C 234.520 119.213,234.400 129.743,234.400 142.467 L 234.400 165.600 265.600 165.600 L 296.800 165.600 296.800 164.203 L 296.800 162.805 267.100 162.703 L 237.400 162.600 237.297 140.700 L 237.193 118.800 236.063 118.800 C 235.442 118.800,234.813 118.920,234.667 119.067 M112.800 235.797 L 112.800 237.194 137.700 237.297 L 162.600 237.400 162.703 263.900 L 162.806 290.400 164.203 290.400 L 165.600 290.400 165.600 262.400 L 165.600 234.400 139.200 234.400 L 112.800 234.400 112.800 235.797 M234.400 262.398 L 234.400 290.400 235.797 290.400 L 237.194 290.400 237.297 263.900 L 237.400 237.400 268.600 237.331 L 299.800 237.261 299.800 235.931 L 299.800 234.600 267.100 234.498 L 234.400 234.395 234.400 262.398 " stroke="none" fill="#040404" fill-rule="evenodd"></path></g></svg>