<svg id="svg" version="1.1" xmlns="http://www.w3.org/2000/svg" xmlns:xlink="http://www.w3.org/1999/xlink" width="400" height="400" viewBox="0, 0, 400,400"><g id="svgg"><path id="path0" d="M203.600 26.400 C 203.270 26.613,201.436 26.791,199.524 26.794 C 194.794 26.802,194.198 27.619,198.500 28.195 L 200.400 28.449 200.400 37.825 L 200.400 47.200 202.800 47.200 C 204.133 47.200,205.200 47.022,205.200 46.800 C 205.200 46.543,209.067 46.400,216.000 46.400 L 226.800 46.400 226.800 36.600 L 226.800 26.800 217.400 26.800 C 211.400 26.800,208.000 26.655,208.000 26.400 C 208.000 25.888,204.393 25.888,203.600 26.400 M238.267 26.267 C 237.425 27.108,239.156 27.596,240.334 26.849 C 240.733 26.597,240.631 26.448,239.934 26.261 C 238.743 25.942,238.591 25.943,238.267 26.267 M256.800 36.600 L 256.800 46.400 311.800 46.400 L 366.800 46.400 366.800 36.600 L 366.800 26.800 311.800 26.800 L 256.800 26.800 256.800 36.600 M190.021 27.979 C 189.562 28.269,189.645 28.391,190.421 28.566 C 192.737 29.088,193.770 29.009,193.915 28.300 C 194.076 27.514,191.139 27.271,190.021 27.979 M185.078 28.656 C 184.544 29.189,185.304 29.600,186.824 29.600 C 187.958 29.600,188.400 29.432,188.400 29.000 C 188.400 28.388,185.632 28.101,185.078 28.656 M180.626 29.558 C 180.356 29.994,181.323 30.400,182.633 30.400 C 183.226 30.400,183.600 30.168,183.600 29.800 C 183.600 29.133,181.018 28.923,180.626 29.558 M176.897 30.500 C 177.150 31.268,179.450 31.367,179.736 30.622 C 179.928 30.123,179.655 30.000,178.354 30.000 C 177.237 30.000,176.784 30.155,176.897 30.500 M173.200 31.192 C 173.200 31.688,175.013 32.163,175.577 31.814 C 176.431 31.286,175.963 30.800,174.600 30.800 C 173.830 30.800,173.200 30.977,173.200 31.192 M170.000 31.957 C 170.000 32.154,170.285 32.424,170.633 32.557 C 171.756 32.988,172.800 32.816,172.800 32.200 C 172.800 31.781,172.378 31.600,171.400 31.600 C 170.630 31.600,170.000 31.761,170.000 31.957 M166.800 32.757 C 166.800 32.954,167.085 33.224,167.433 33.357 C 168.556 33.788,169.600 33.616,169.600 33.000 C 169.600 32.581,169.178 32.400,168.200 32.400 C 167.430 32.400,166.800 32.561,166.800 32.757 M163.828 33.555 C 163.708 33.750,164.012 34.017,164.504 34.149 C 165.927 34.530,166.400 34.443,166.400 33.800 C 166.400 33.140,164.213 32.932,163.828 33.555 M161.200 34.400 C 161.200 34.620,160.671 34.800,160.024 34.800 C 158.469 34.800,158.119 35.443,159.487 35.786 C 160.240 35.975,160.704 35.872,161.014 35.448 C 161.289 35.072,161.794 34.926,162.330 35.066 C 162.958 35.230,163.200 35.114,163.200 34.647 C 163.200 34.224,162.854 34.000,162.200 34.000 C 161.650 34.000,161.200 34.180,161.200 34.400 M156.000 36.000 C 156.000 36.220,156.270 36.400,156.600 36.400 C 156.930 36.400,157.331 36.413,157.490 36.430 C 157.649 36.447,157.845 36.267,157.923 36.030 C 158.002 35.794,157.602 35.600,157.033 35.600 C 156.465 35.600,156.000 35.780,156.000 36.000 M153.600 36.800 C 153.600 37.020,153.870 37.200,154.200 37.200 C 154.530 37.200,154.931 37.214,155.090 37.230 C 155.250 37.247,155.445 37.067,155.523 36.830 C 155.602 36.593,155.202 36.400,154.633 36.400 C 154.065 36.400,153.600 36.580,153.600 36.800 M151.200 37.600 C 151.200 37.820,151.470 38.000,151.800 38.000 C 152.130 38.000,152.531 38.014,152.690 38.030 C 152.850 38.047,153.044 37.867,153.123 37.630 C 153.202 37.394,152.802 37.200,152.233 37.200 C 151.665 37.200,151.200 37.380,151.200 37.600 M149.000 38.400 C 148.864 38.620,148.403 38.800,147.976 38.800 C 147.042 38.800,146.949 39.418,147.833 39.757 C 148.834 40.141,149.200 40.046,149.200 39.400 C 149.200 39.067,149.556 38.800,150.000 38.800 C 150.440 38.800,150.800 38.620,150.800 38.400 C 150.800 38.180,150.451 38.000,150.024 38.000 C 149.597 38.000,149.136 38.180,149.000 38.400 M144.800 40.000 C 144.800 40.220,144.965 40.400,145.167 40.400 C 145.369 40.400,145.819 40.509,146.167 40.643 C 146.582 40.802,146.800 40.665,146.800 40.243 C 146.800 39.824,146.452 39.600,145.800 39.600 C 145.250 39.600,144.800 39.780,144.800 40.000 M142.800 40.800 C 142.800 41.020,142.440 41.200,142.000 41.200 C 140.952 41.200,140.969 41.846,142.024 42.122 C 142.529 42.254,142.934 42.117,143.067 41.769 C 143.187 41.456,143.536 41.200,143.843 41.200 C 144.149 41.200,144.400 41.020,144.400 40.800 C 144.400 40.580,144.040 40.400,143.600 40.400 C 143.160 40.400,142.800 40.580,142.800 40.800 M136.900 43.034 C 135.407 43.687,135.239 44.212,136.424 44.522 C 136.929 44.654,137.334 44.517,137.467 44.169 C 137.587 43.856,138.026 43.600,138.443 43.600 C 138.859 43.600,139.200 43.330,139.200 43.000 C 139.200 42.274,138.619 42.282,136.900 43.034 M134.000 44.600 C 134.000 44.930,134.270 45.200,134.600 45.200 C 134.930 45.200,135.200 44.930,135.200 44.600 C 135.200 44.270,134.930 44.000,134.600 44.000 C 134.270 44.000,134.000 44.270,134.000 44.600 M132.400 45.400 C 132.400 45.730,132.670 46.000,133.000 46.000 C 133.330 46.000,133.600 45.730,133.600 45.400 C 133.600 45.070,133.330 44.800,133.000 44.800 C 132.670 44.800,132.400 45.070,132.400 45.400 M130.400 45.998 C 130.070 46.191,129.215 46.584,128.500 46.872 C 127.785 47.160,127.200 47.531,127.200 47.698 C 127.200 47.864,126.840 48.000,126.400 48.000 C 125.960 48.000,125.600 48.180,125.600 48.400 C 125.600 48.620,125.240 48.800,124.800 48.800 C 124.360 48.800,124.000 48.958,124.000 49.151 C 124.000 49.345,123.460 49.727,122.800 50.000 C 121.562 50.513,121.302 50.969,122.003 51.402 C 122.224 51.539,122.509 51.381,122.636 51.051 C 122.763 50.721,123.120 50.548,123.430 50.667 C 123.740 50.786,124.100 50.606,124.230 50.267 C 124.360 49.928,124.720 49.748,125.030 49.867 C 125.340 49.986,125.700 49.806,125.830 49.467 C 125.960 49.128,126.298 48.939,126.581 49.048 C 126.865 49.157,127.203 48.969,127.333 48.630 C 127.470 48.274,127.829 48.113,128.185 48.250 C 128.523 48.379,128.800 48.286,128.800 48.043 C 128.800 47.799,129.160 47.600,129.600 47.600 C 130.040 47.600,130.400 47.420,130.400 47.200 C 130.400 46.980,130.760 46.800,131.200 46.800 C 131.644 46.800,132.000 46.533,132.000 46.200 C 132.000 45.540,131.329 45.455,130.400 45.998 M120.077 51.630 C 120.156 51.867,120.391 52.060,120.600 52.060 C 120.809 52.060,121.044 51.867,121.123 51.630 C 121.202 51.394,120.967 51.200,120.600 51.200 C 120.233 51.200,119.998 51.394,120.077 51.630 M118.400 52.400 C 118.400 52.620,118.040 52.800,117.600 52.800 C 117.160 52.800,116.800 52.980,116.800 53.200 C 116.800 53.420,116.530 53.600,116.200 53.600 C 115.870 53.600,115.600 53.780,115.600 54.000 C 115.600 54.220,115.330 54.400,115.000 54.400 C 114.670 54.400,114.400 54.580,114.400 54.800 C 114.400 55.020,114.670 55.200,115.000 55.200 C 115.330 55.200,115.600 55.001,115.600 54.757 C 115.600 54.514,115.877 54.421,116.215 54.550 C 116.559 54.682,116.927 54.536,117.048 54.219 C 117.168 53.905,117.539 53.755,117.873 53.884 C 118.493 54.121,119.183 53.399,119.194 52.500 C 119.197 52.225,119.020 52.000,118.800 52.000 C 118.580 52.000,118.400 52.180,118.400 52.400 M112.800 55.600 C 112.800 55.820,112.530 56.000,112.200 56.000 C 111.870 56.000,111.600 56.180,111.600 56.400 C 111.600 56.620,111.330 56.800,111.000 56.800 C 110.670 56.800,110.400 56.980,110.400 57.200 C 110.400 57.420,110.207 57.600,109.971 57.600 C 109.355 57.600,108.254 58.788,108.574 59.107 C 108.722 59.256,108.996 59.131,109.181 58.830 C 109.369 58.526,109.809 58.395,110.172 58.534 C 110.622 58.707,110.968 58.468,111.289 57.765 C 111.584 57.118,111.993 56.810,112.414 56.919 C 112.777 57.015,113.283 56.759,113.537 56.352 C 114.143 55.382,114.121 55.200,113.400 55.200 C 113.070 55.200,112.800 55.380,112.800 55.600 M198.000 55.600 C 198.000 55.835,196.600 56.000,194.600 56.000 C 192.600 56.000,191.200 56.165,191.200 56.400 C 191.200 56.622,190.133 56.800,188.800 56.800 C 187.467 56.800,186.400 56.978,186.400 57.200 C 186.400 57.422,185.333 57.600,184.000 57.600 C 182.680 57.600,181.600 57.764,181.600 57.964 C 181.600 58.164,180.070 58.456,178.200 58.611 C 176.330 58.767,174.800 59.053,174.800 59.247 C 174.800 59.441,174.080 59.600,173.200 59.600 C 172.320 59.600,171.600 59.780,171.600 60.000 C 171.600 60.220,170.880 60.400,170.000 60.400 C 169.120 60.400,168.400 60.580,168.400 60.800 C 168.400 61.020,167.860 61.200,167.200 61.200 C 166.540 61.200,166.000 61.380,166.000 61.600 C 166.000 61.820,165.280 62.000,164.400 62.000 C 163.520 62.000,162.800 62.180,162.800 62.400 C 162.800 62.620,162.260 62.800,161.600 62.800 C 160.940 62.800,160.400 62.980,160.400 63.200 C 160.400 63.420,159.950 63.600,159.400 63.600 C 158.850 63.600,158.400 63.780,158.400 64.000 C 158.400 64.220,157.860 64.400,157.200 64.400 C 156.540 64.400,156.000 64.580,156.000 64.800 C 156.000 65.020,155.640 65.200,155.200 65.200 C 154.760 65.200,154.400 65.380,154.400 65.600 C 154.400 65.820,153.860 66.000,153.200 66.000 C 152.540 66.000,152.000 66.180,152.000 66.400 C 152.000 66.620,151.460 66.800,150.800 66.800 C 150.140 66.800,149.600 66.980,149.600 67.200 C 149.600 67.420,149.240 67.600,148.800 67.600 C 148.360 67.600,148.000 67.780,148.000 68.000 C 148.000 68.220,147.640 68.400,147.200 68.400 C 146.760 68.400,146.400 68.580,146.400 68.800 C 146.400 69.020,145.860 69.200,145.200 69.200 C 144.540 69.200,144.000 69.380,144.000 69.600 C 144.000 69.820,143.640 70.000,143.200 70.000 C 142.760 70.000,142.400 70.180,142.400 70.400 C 142.400 70.620,142.130 70.800,141.800 70.800 C 141.470 70.800,141.200 70.980,141.200 71.200 C 141.200 71.420,140.840 71.600,140.400 71.600 C 139.960 71.600,139.600 71.780,139.600 72.000 C 139.600 72.220,139.240 72.400,138.800 72.400 C 138.360 72.400,138.000 72.580,138.000 72.800 C 138.000 73.020,137.640 73.200,137.200 73.200 C 136.760 73.200,136.400 73.380,136.400 73.600 C 136.400 73.820,136.040 74.000,135.600 74.000 C 135.160 74.000,134.800 74.164,134.800 74.365 C 134.800 74.566,134.080 74.851,133.200 75.000 C 132.320 75.149,131.599 75.389,131.597 75.535 C 131.593 75.845,129.639 76.800,129.009 76.800 C 128.771 76.800,128.317 77.160,128.000 77.600 C 127.683 78.040,127.103 78.400,126.712 78.400 C 126.320 78.400,126.000 78.580,126.000 78.800 C 126.000 79.020,125.770 79.200,125.488 79.200 C 125.207 79.200,124.717 79.560,124.400 80.000 C 124.083 80.440,123.543 80.800,123.200 80.800 C 122.857 80.800,122.317 81.160,122.000 81.600 C 121.683 82.040,121.143 82.400,120.800 82.400 C 120.457 82.400,119.917 82.760,119.600 83.200 C 119.283 83.640,118.743 84.000,118.400 84.000 C 118.057 84.000,117.517 84.360,117.200 84.800 C 116.883 85.240,116.343 85.600,116.000 85.600 C 115.657 85.600,115.117 85.960,114.800 86.400 C 114.483 86.840,113.975 87.200,113.672 87.200 C 113.369 87.200,112.617 87.740,112.000 88.400 C 111.383 89.060,110.657 89.600,110.386 89.600 C 109.873 89.600,108.400 91.100,108.400 91.622 C 108.400 91.787,107.880 92.103,107.245 92.324 C 106.610 92.546,105.084 93.733,103.854 94.963 C 102.624 96.194,101.428 97.200,101.196 97.200 C 100.654 97.200,89.600 108.458,89.600 109.011 C 89.600 109.139,88.520 110.304,87.200 111.600 C 85.880 112.896,84.800 114.160,84.800 114.409 C 84.800 114.659,84.080 115.554,83.200 116.400 C 82.320 117.246,81.600 118.182,81.600 118.480 C 81.600 118.779,81.240 119.283,80.800 119.600 C 80.360 119.917,80.000 120.425,80.000 120.728 C 80.000 121.031,79.460 121.783,78.800 122.400 C 78.140 123.017,77.600 123.765,77.600 124.064 C 77.600 124.363,77.240 124.832,76.800 125.107 C 76.360 125.382,76.000 125.853,76.000 126.154 C 76.000 126.456,75.730 126.926,75.400 127.200 C 75.070 127.474,74.800 128.036,74.800 128.449 C 74.800 128.862,74.620 129.200,74.400 129.200 C 74.180 129.200,74.000 129.520,74.000 129.912 C 74.000 130.303,73.640 130.883,73.200 131.200 C 72.760 131.517,72.400 132.097,72.400 132.488 C 72.400 132.880,72.220 133.200,72.000 133.200 C 71.780 133.200,71.600 133.560,71.600 134.000 C 71.600 134.440,71.420 134.800,71.200 134.800 C 70.980 134.800,70.800 135.120,70.800 135.512 C 70.800 135.903,70.440 136.483,70.000 136.800 C 69.560 137.117,69.200 137.697,69.200 138.088 C 69.200 138.480,69.020 138.800,68.800 138.800 C 68.580 138.800,68.400 139.160,68.400 139.600 C 68.400 140.040,68.220 140.400,68.000 140.400 C 67.780 140.400,67.600 140.760,67.600 141.200 C 67.600 141.640,67.420 142.000,67.200 142.000 C 66.980 142.000,66.800 142.270,66.800 142.600 C 66.800 142.930,66.620 143.200,66.400 143.200 C 66.180 143.200,66.000 143.740,66.000 144.400 C 66.000 145.060,65.820 145.600,65.600 145.600 C 65.380 145.600,65.200 145.960,65.200 146.400 C 65.200 146.840,65.020 147.200,64.800 147.200 C 64.580 147.200,64.400 147.560,64.400 148.000 C 64.400 148.440,64.220 148.800,64.000 148.800 C 63.780 148.800,63.600 149.340,63.600 150.000 C 63.600 150.660,63.420 151.200,63.200 151.200 C 62.980 151.200,62.800 151.560,62.800 152.000 C 62.800 152.440,62.620 152.800,62.400 152.800 C 62.180 152.800,62.000 153.340,62.000 154.000 C 62.000 154.660,61.820 155.200,61.600 155.200 C 61.380 155.200,61.200 155.740,61.200 156.400 C 61.200 157.060,61.020 157.600,60.800 157.600 C 60.580 157.600,60.400 158.050,60.400 158.600 C 60.400 159.150,60.220 159.600,60.000 159.600 C 59.780 159.600,59.600 160.104,59.600 160.720 C 59.600 161.336,59.421 162.019,59.202 162.238 C 58.984 162.456,58.688 163.752,58.546 165.118 C 58.403 166.483,58.132 167.600,57.943 167.600 C 57.754 167.600,57.600 168.320,57.600 169.200 C 57.600 170.080,57.420 170.800,57.200 170.800 C 56.980 170.800,56.800 171.700,56.800 172.800 C 56.800 173.900,56.620 174.800,56.400 174.800 C 56.180 174.800,56.000 175.610,56.000 176.600 C 56.000 177.590,55.820 178.400,55.600 178.400 C 55.371 178.400,55.200 179.600,55.200 181.200 C 55.200 182.800,55.029 184.000,54.800 184.000 C 54.557 184.000,54.400 185.800,54.400 188.600 C 54.400 191.400,54.243 193.200,54.000 193.200 C 53.748 193.200,53.600 195.867,53.600 200.400 C 53.600 204.933,53.748 207.600,54.000 207.600 C 54.243 207.600,54.400 209.400,54.400 212.200 C 54.400 215.000,54.557 216.800,54.800 216.800 C 55.029 216.800,55.200 218.000,55.200 219.600 C 55.200 221.200,55.371 222.400,55.600 222.400 C 55.820 222.400,56.000 223.210,56.000 224.200 C 56.000 225.190,56.180 226.000,56.400 226.000 C 56.620 226.000,56.800 226.900,56.800 228.000 C 56.800 229.100,56.980 230.000,57.200 230.000 C 57.420 230.000,57.600 230.720,57.600 231.600 C 57.600 232.480,57.754 233.200,57.943 233.200 C 58.132 233.200,58.403 234.317,58.546 235.682 C 58.688 237.048,58.984 238.344,59.202 238.562 C 59.421 238.781,59.600 239.363,59.600 239.856 C 59.600 240.349,59.780 240.864,60.000 241.000 C 60.220 241.136,60.400 241.687,60.400 242.224 C 60.400 242.761,60.580 243.200,60.800 243.200 C 61.020 243.200,61.200 243.740,61.200 244.400 C 61.200 245.060,61.380 245.600,61.600 245.600 C 61.820 245.600,62.000 246.140,62.000 246.800 C 62.000 247.460,62.180 248.000,62.400 248.000 C 62.620 248.000,62.800 248.360,62.800 248.800 C 62.800 249.240,62.980 249.600,63.200 249.600 C 63.420 249.600,63.600 250.140,63.600 250.800 C 63.600 251.460,63.780 252.000,64.000 252.000 C 64.220 252.000,64.400 252.360,64.400 252.800 C 64.400 253.240,64.580 253.600,64.800 253.600 C 65.020 253.600,65.200 253.960,65.200 254.400 C 65.200 254.840,65.380 255.200,65.600 255.200 C 65.820 255.200,66.000 255.740,66.000 256.400 C 66.000 257.060,66.180 257.600,66.400 257.600 C 66.620 257.600,66.800 257.870,66.800 258.200 C 66.800 258.530,66.980 258.800,67.200 258.800 C 67.420 258.800,67.600 259.160,67.600 259.600 C 67.600 260.040,67.780 260.400,68.000 260.400 C 68.220 260.400,68.400 260.760,68.400 261.200 C 68.400 261.640,68.580 262.000,68.800 262.000 C 69.020 262.000,69.200 262.320,69.200 262.712 C 69.200 263.103,69.560 263.683,70.000 264.000 C 70.440 264.317,70.800 264.897,70.800 265.288 C 70.800 265.680,70.980 266.000,71.200 266.000 C 71.420 266.000,71.600 266.360,71.600 266.800 C 71.600 267.240,71.780 267.600,72.000 267.600 C 72.220 267.600,72.400 267.920,72.400 268.312 C 72.400 268.703,72.760 269.283,73.200 269.600 C 73.640 269.917,74.000 270.497,74.000 270.888 C 74.000 271.280,74.180 271.600,74.400 271.600 C 74.620 271.600,74.800 271.938,74.800 272.351 C 74.800 272.764,75.070 273.326,75.400 273.600 C 75.730 273.874,76.000 274.306,76.000 274.561 C 76.000 274.815,76.360 275.283,76.800 275.600 C 77.240 275.917,77.600 276.425,77.600 276.728 C 77.600 277.031,78.140 277.783,78.800 278.400 C 79.460 279.017,80.000 279.769,80.000 280.072 C 80.000 280.375,80.360 280.883,80.800 281.200 C 81.240 281.517,81.600 282.021,81.600 282.320 C 81.600 282.618,82.320 283.554,83.200 284.400 C 84.080 285.246,84.800 286.141,84.800 286.391 C 84.800 286.640,85.880 287.904,87.200 289.200 C 88.520 290.496,89.600 291.661,89.600 291.789 C 89.600 292.342,100.654 303.600,101.196 303.600 C 101.428 303.600,102.607 304.590,103.817 305.800 C 105.027 307.010,106.334 308.000,106.720 308.000 C 107.107 308.000,107.688 308.377,108.012 308.837 C 109.146 310.452,109.898 311.200,110.386 311.200 C 110.657 311.200,111.383 311.740,112.000 312.400 C 112.617 313.060,113.369 313.600,113.672 313.600 C 113.975 313.600,114.483 313.960,114.800 314.400 C 115.117 314.840,115.657 315.200,116.000 315.200 C 116.343 315.200,116.883 315.560,117.200 316.000 C 117.517 316.440,118.057 316.800,118.400 316.800 C 118.743 316.800,119.283 317.160,119.600 317.600 C 119.917 318.040,120.457 318.400,120.800 318.400 C 121.143 318.400,121.683 318.760,122.000 319.200 C 122.317 319.640,122.857 320.000,123.200 320.000 C 123.543 320.000,124.083 320.360,124.400 320.800 C 124.717 321.240,125.207 321.600,125.488 321.600 C 125.770 321.600,126.000 321.780,126.000 322.000 C 126.000 322.220,126.358 322.400,126.797 322.400 C 127.235 322.400,127.818 322.760,128.093 323.200 C 128.368 323.640,128.909 324.000,129.296 324.000 C 129.683 324.000,130.000 324.164,130.000 324.365 C 130.000 324.566,130.720 324.851,131.600 325.000 C 132.480 325.149,133.200 325.434,133.200 325.635 C 133.200 325.836,133.560 326.000,134.000 326.000 C 134.440 326.000,134.800 326.180,134.800 326.400 C 134.800 326.620,135.160 326.800,135.600 326.800 C 136.040 326.800,136.400 326.980,136.400 327.200 C 136.400 327.420,136.760 327.600,137.200 327.600 C 137.640 327.600,138.000 327.780,138.000 328.000 C 138.000 328.220,138.360 328.400,138.800 328.400 C 139.240 328.400,139.600 328.580,139.600 328.800 C 139.600 329.020,139.960 329.200,140.400 329.200 C 140.840 329.200,141.200 329.380,141.200 329.600 C 141.200 329.820,141.470 330.000,141.800 330.000 C 142.130 330.000,142.400 330.180,142.400 330.400 C 142.400 330.620,142.760 330.800,143.200 330.800 C 143.640 330.800,144.000 330.980,144.000 331.200 C 144.000 331.420,144.540 331.600,145.200 331.600 C 145.860 331.600,146.400 331.780,146.400 332.000 C 146.400 332.220,146.760 332.400,147.200 332.400 C 147.640 332.400,148.000 332.580,148.000 332.800 C 148.000 333.020,148.360 333.200,148.800 333.200 C 149.240 333.200,149.600 333.380,149.600 333.600 C 149.600 333.820,150.140 334.000,150.800 334.000 C 151.460 334.000,152.000 334.180,152.000 334.400 C 152.000 334.620,152.540 334.800,153.200 334.800 C 153.860 334.800,154.400 334.980,154.400 335.200 C 154.400 335.420,154.760 335.600,155.200 335.600 C 155.640 335.600,156.000 335.780,156.000 336.000 C 156.000 336.220,156.540 336.400,157.200 336.400 C 157.860 336.400,158.400 336.580,158.400 336.800 C 158.400 337.020,158.850 337.200,159.400 337.200 C 159.950 337.200,160.400 337.380,160.400 337.600 C 160.400 337.820,160.940 338.000,161.600 338.000 C 162.260 338.000,162.800 338.180,162.800 338.400 C 162.800 338.620,163.520 338.800,164.400 338.800 C 165.280 338.800,166.000 338.980,166.000 339.200 C 166.000 339.420,166.540 339.600,167.200 339.600 C 167.860 339.600,168.400 339.780,168.400 340.000 C 168.400 340.220,169.120 340.400,170.000 340.400 C 170.880 340.400,171.600 340.564,171.600 340.764 C 171.600 340.964,173.130 341.256,175.000 341.411 C 176.870 341.567,178.400 341.853,178.400 342.047 C 178.400 342.241,179.120 342.400,180.000 342.400 C 180.880 342.400,181.600 342.580,181.600 342.800 C 181.600 343.022,182.667 343.200,184.000 343.200 C 185.333 343.200,186.400 343.378,186.400 343.600 C 186.400 343.822,187.467 344.000,188.800 344.000 C 190.133 344.000,191.200 344.178,191.200 344.400 C 191.200 344.635,192.600 344.800,194.600 344.800 C 196.600 344.800,198.000 344.965,198.000 345.200 C 198.000 345.420,198.360 345.600,198.800 345.600 C 199.579 345.600,199.600 345.333,199.600 335.440 L 199.600 325.281 194.600 324.992 C 191.850 324.834,189.600 324.545,189.600 324.352 C 189.600 324.158,188.700 324.000,187.600 324.000 C 186.500 324.000,185.600 323.820,185.600 323.600 C 185.600 323.380,184.700 323.200,183.600 323.200 C 182.500 323.200,181.600 323.020,181.600 322.800 C 181.600 322.580,180.880 322.400,180.000 322.400 C 179.120 322.400,178.400 322.220,178.400 322.000 C 178.400 321.780,177.680 321.600,176.800 321.600 C 175.920 321.600,175.200 321.420,175.200 321.200 C 175.200 320.980,174.570 320.800,173.800 320.800 C 173.030 320.800,172.400 320.620,172.400 320.400 C 172.400 320.180,171.860 320.000,171.200 320.000 C 170.540 320.000,170.000 319.820,170.000 319.600 C 170.000 319.380,169.460 319.200,168.800 319.200 C 168.140 319.200,167.600 319.020,167.600 318.800 C 167.600 318.580,167.060 318.400,166.400 318.400 C 165.740 318.400,165.200 318.220,165.200 318.000 C 165.200 317.780,164.660 317.600,164.000 317.600 C 163.340 317.600,162.800 317.420,162.800 317.200 C 162.800 316.980,162.260 316.800,161.600 316.800 C 160.940 316.800,160.400 316.620,160.400 316.400 C 160.400 316.180,160.040 316.000,159.600 316.000 C 159.160 316.000,158.800 315.820,158.800 315.600 C 158.800 315.380,158.350 315.200,157.800 315.200 C 157.250 315.200,156.800 315.020,156.800 314.800 C 156.800 314.580,156.440 314.400,156.000 314.400 C 155.560 314.400,155.200 314.220,155.200 314.000 C 155.200 313.780,154.660 313.600,154.000 313.600 C 153.340 313.600,152.800 313.420,152.800 313.200 C 152.800 312.980,152.440 312.800,152.000 312.800 C 151.560 312.800,151.200 312.620,151.200 312.400 C 151.200 312.180,150.840 312.000,150.400 312.000 C 149.960 312.000,149.600 311.820,149.600 311.600 C 149.600 311.380,149.240 311.200,148.800 311.200 C 148.360 311.200,148.000 311.020,148.000 310.800 C 148.000 310.580,147.640 310.400,147.200 310.400 C 146.760 310.400,146.400 310.220,146.400 310.000 C 146.400 309.780,146.040 309.600,145.600 309.600 C 145.160 309.600,144.800 309.436,144.800 309.235 C 144.800 309.034,144.080 308.749,143.200 308.600 C 142.320 308.451,141.600 308.166,141.600 307.965 C 141.600 307.764,141.370 307.600,141.088 307.600 C 140.807 307.600,140.317 307.240,140.000 306.800 C 139.683 306.360,139.103 306.000,138.712 306.000 C 138.320 306.000,138.000 305.820,138.000 305.600 C 138.000 305.380,137.640 305.200,137.200 305.200 C 136.760 305.200,136.400 305.020,136.400 304.800 C 136.400 304.580,136.080 304.400,135.688 304.400 C 135.297 304.400,134.717 304.040,134.400 303.600 C 134.083 303.160,133.543 302.800,133.200 302.800 C 132.857 302.800,132.317 302.440,132.000 302.000 C 131.683 301.560,131.143 301.200,130.800 301.200 C 130.457 301.200,129.917 300.840,129.600 300.400 C 129.283 299.960,128.743 299.600,128.400 299.600 C 128.057 299.600,127.517 299.240,127.200 298.800 C 126.883 298.360,126.303 298.000,125.912 298.000 C 125.520 298.000,125.200 297.848,125.200 297.661 C 125.200 297.130,123.756 295.600,123.254 295.600 C 123.005 295.600,122.037 294.880,121.103 294.000 C 120.169 293.120,119.182 292.400,118.910 292.400 C 118.637 292.400,117.245 291.230,115.815 289.800 C 114.385 288.370,113.022 287.200,112.785 287.200 C 112.549 287.200,111.285 286.075,109.977 284.700 C 106.401 280.942,106.000 280.467,106.000 279.990 C 106.000 279.483,101.255 274.800,100.742 274.800 C 100.554 274.800,100.400 274.512,100.400 274.160 C 100.400 273.809,99.860 273.017,99.200 272.400 C 98.540 271.783,98.000 271.063,98.000 270.800 C 98.000 270.537,97.460 269.817,96.800 269.200 C 96.140 268.583,95.600 267.863,95.600 267.600 C 95.600 267.337,95.060 266.617,94.400 266.000 C 93.740 265.383,93.200 264.591,93.200 264.240 C 93.200 263.888,93.020 263.600,92.800 263.600 C 92.580 263.600,92.400 263.240,92.400 262.800 C 92.400 262.360,92.223 262.000,92.008 262.000 C 91.792 262.000,91.506 261.563,91.372 261.029 C 91.238 260.496,90.784 259.748,90.364 259.367 C 89.944 258.987,89.600 258.434,89.600 258.138 C 89.600 257.842,89.420 257.600,89.200 257.600 C 88.980 257.600,88.800 257.240,88.800 256.800 C 88.800 256.360,88.620 256.000,88.400 256.000 C 88.180 256.000,88.000 255.640,88.000 255.200 C 88.000 254.760,87.820 254.400,87.600 254.400 C 87.380 254.400,87.200 254.080,87.200 253.688 C 87.200 253.297,86.840 252.717,86.400 252.400 C 85.960 252.083,85.600 251.503,85.600 251.112 C 85.600 250.720,85.420 250.400,85.200 250.400 C 84.980 250.400,84.800 249.860,84.800 249.200 C 84.800 248.540,84.620 248.000,84.400 248.000 C 84.180 248.000,84.000 247.640,84.000 247.200 C 84.000 246.760,83.820 246.400,83.600 246.400 C 83.380 246.400,83.200 246.040,83.200 245.600 C 83.200 245.160,83.020 244.800,82.800 244.800 C 82.580 244.800,82.400 244.440,82.400 244.000 C 82.400 243.560,82.220 243.200,82.000 243.200 C 81.780 243.200,81.600 242.750,81.600 242.200 C 81.600 241.650,81.420 241.200,81.200 241.200 C 80.980 241.200,80.800 240.660,80.800 240.000 C 80.800 239.340,80.620 238.800,80.400 238.800 C 80.180 238.800,80.000 238.440,80.000 238.000 C 80.000 237.560,79.820 237.200,79.600 237.200 C 79.380 237.200,79.200 236.660,79.200 236.000 C 79.200 235.340,79.020 234.800,78.800 234.800 C 78.580 234.800,78.400 234.080,78.400 233.200 C 78.400 232.320,78.220 231.600,78.000 231.600 C 77.780 231.600,77.600 231.060,77.600 230.400 C 77.600 229.740,77.420 229.200,77.200 229.200 C 76.980 229.200,76.800 228.480,76.800 227.600 C 76.800 226.720,76.620 226.000,76.400 226.000 C 76.180 226.000,76.000 225.205,76.000 224.233 C 76.000 223.262,75.829 222.407,75.620 222.333 C 75.411 222.260,75.115 220.085,74.962 217.500 C 74.808 214.915,74.529 212.800,74.341 212.800 C 73.866 212.800,73.906 188.560,74.382 187.695 C 74.593 187.313,74.880 185.065,75.021 182.700 C 75.162 180.335,75.440 178.400,75.638 178.400 C 75.837 178.400,76.000 177.590,76.000 176.600 C 76.000 175.610,76.180 174.800,76.400 174.800 C 76.620 174.800,76.800 174.080,76.800 173.200 C 76.800 172.320,76.980 171.600,77.200 171.600 C 77.420 171.600,77.600 171.060,77.600 170.400 C 77.600 169.740,77.780 169.200,78.000 169.200 C 78.220 169.200,78.400 168.480,78.400 167.600 C 78.400 166.720,78.580 166.000,78.800 166.000 C 79.020 166.000,79.200 165.460,79.200 164.800 C 79.200 164.140,79.380 163.600,79.600 163.600 C 79.820 163.600,80.000 163.240,80.000 162.800 C 80.000 162.360,80.180 162.000,80.400 162.000 C 80.620 162.000,80.800 161.460,80.800 160.800 C 80.800 160.140,80.980 159.600,81.200 159.600 C 81.420 159.600,81.600 159.150,81.600 158.600 C 81.600 158.050,81.780 157.600,82.000 157.600 C 82.220 157.600,82.400 157.240,82.400 156.800 C 82.400 156.360,82.580 156.000,82.800 156.000 C 83.020 156.000,83.200 155.640,83.200 155.200 C 83.200 154.760,83.380 154.400,83.600 154.400 C 83.820 154.400,84.000 154.040,84.000 153.600 C 84.000 153.160,84.180 152.800,84.400 152.800 C 84.620 152.800,84.800 152.260,84.800 151.600 C 84.800 150.940,84.980 150.400,85.200 150.400 C 85.420 150.400,85.600 150.080,85.600 149.688 C 85.600 149.297,85.960 148.717,86.400 148.400 C 86.840 148.083,87.200 147.503,87.200 147.112 C 87.200 146.720,87.380 146.400,87.600 146.400 C 87.820 146.400,88.000 146.040,88.000 145.600 C 88.000 145.160,88.180 144.800,88.400 144.800 C 88.620 144.800,88.800 144.440,88.800 144.000 C 88.800 143.560,88.980 143.200,89.200 143.200 C 89.420 143.200,89.600 142.859,89.600 142.443 C 89.600 142.026,89.879 141.579,90.219 141.448 C 90.559 141.317,91.027 140.668,91.258 140.005 C 91.489 139.342,91.841 138.800,92.039 138.800 C 92.238 138.800,92.400 138.440,92.400 138.000 C 92.400 137.560,92.580 137.200,92.800 137.200 C 93.020 137.200,93.200 136.912,93.200 136.560 C 93.200 136.209,93.740 135.417,94.400 134.800 C 95.060 134.183,95.600 133.463,95.600 133.200 C 95.600 132.937,96.140 132.217,96.800 131.600 C 97.460 130.983,98.000 130.263,98.000 130.000 C 98.000 129.737,98.540 129.017,99.200 128.400 C 99.860 127.783,100.400 127.031,100.400 126.728 C 100.400 126.425,100.783 125.912,101.251 125.588 C 102.690 124.594,106.000 121.277,106.000 120.829 C 106.000 120.026,112.043 113.600,112.797 113.600 C 113.040 113.600,114.481 112.340,116.000 110.800 C 117.519 109.260,119.022 108.000,119.341 108.000 C 119.659 108.000,120.550 107.370,121.320 106.600 C 122.090 105.830,122.963 105.199,123.260 105.199 C 123.557 105.198,124.160 104.659,124.600 104.000 C 125.040 103.341,125.675 102.802,126.012 102.801 C 126.348 102.801,126.883 102.440,127.200 102.000 C 127.517 101.560,128.057 101.200,128.400 101.200 C 128.743 101.200,129.283 100.840,129.600 100.400 C 129.917 99.960,130.457 99.600,130.800 99.600 C 131.143 99.600,131.683 99.240,132.000 98.800 C 132.317 98.360,132.857 98.000,133.200 98.000 C 133.543 98.000,134.083 97.640,134.400 97.200 C 134.717 96.760,135.297 96.400,135.688 96.400 C 136.080 96.400,136.400 96.220,136.400 96.000 C 136.400 95.780,136.760 95.600,137.200 95.600 C 137.640 95.600,138.000 95.420,138.000 95.200 C 138.000 94.980,138.320 94.800,138.712 94.800 C 139.103 94.800,139.683 94.440,140.000 94.000 C 140.317 93.560,140.807 93.200,141.088 93.200 C 141.370 93.200,141.600 93.020,141.600 92.800 C 141.600 92.580,141.960 92.400,142.400 92.400 C 142.840 92.400,143.200 92.241,143.200 92.047 C 143.200 91.852,143.605 91.593,144.100 91.471 C 145.969 91.010,148.000 90.193,148.000 89.902 C 148.000 89.736,148.360 89.600,148.800 89.600 C 149.240 89.600,149.600 89.420,149.600 89.200 C 149.600 88.980,149.960 88.800,150.400 88.800 C 150.840 88.800,151.200 88.620,151.200 88.400 C 151.200 88.180,151.560 88.000,152.000 88.000 C 152.440 88.000,152.800 87.820,152.800 87.600 C 152.800 87.380,153.340 87.200,154.000 87.200 C 154.660 87.200,155.200 87.020,155.200 86.800 C 155.200 86.580,155.560 86.400,156.000 86.400 C 156.440 86.400,156.800 86.220,156.800 86.000 C 156.800 85.780,157.250 85.600,157.800 85.600 C 158.350 85.600,158.800 85.420,158.800 85.200 C 158.800 84.980,159.160 84.800,159.600 84.800 C 160.040 84.800,160.400 84.620,160.400 84.400 C 160.400 84.180,160.940 84.000,161.600 84.000 C 162.260 84.000,162.800 83.820,162.800 83.600 C 162.800 83.380,163.340 83.200,164.000 83.200 C 164.660 83.200,165.200 83.020,165.200 82.800 C 165.200 82.580,165.740 82.400,166.400 82.400 C 167.060 82.400,167.600 82.220,167.600 82.000 C 167.600 81.780,168.140 81.600,168.800 81.600 C 169.460 81.600,170.000 81.420,170.000 81.200 C 170.000 80.980,170.540 80.800,171.200 80.800 C 171.860 80.800,172.400 80.620,172.400 80.400 C 172.400 80.180,173.030 80.000,173.800 80.000 C 174.570 80.000,175.200 79.820,175.200 79.600 C 175.200 79.380,175.920 79.200,176.800 79.200 C 177.680 79.200,178.400 79.020,178.400 78.800 C 178.400 78.580,179.120 78.400,180.000 78.400 C 180.880 78.400,181.600 78.220,181.600 78.000 C 181.600 77.780,182.500 77.600,183.600 77.600 C 184.700 77.600,185.600 77.420,185.600 77.200 C 185.600 76.980,186.500 76.800,187.600 76.800 C 188.700 76.800,189.600 76.620,189.600 76.400 C 189.600 76.174,190.733 76.000,192.200 76.000 C 193.667 76.000,194.800 75.826,194.800 75.600 C 194.800 75.380,195.595 75.200,196.567 75.200 C 199.801 75.200,199.600 75.879,199.600 64.957 C 199.600 55.467,199.578 55.200,198.800 55.200 C 198.360 55.200,198.000 55.380,198.000 55.600 M230.800 65.006 L 230.800 74.811 243.300 74.706 L 255.800 74.600 255.907 64.900 L 256.014 55.200 243.407 55.200 L 230.800 55.200 230.800 65.006 M106.900 59.288 C 106.405 59.527,106.000 59.980,106.000 60.294 C 106.000 61.074,106.805 60.747,107.515 59.678 C 108.169 58.693,108.154 58.684,106.900 59.288 M104.092 61.200 C 103.620 61.640,103.091 62.000,102.917 62.001 C 102.743 62.001,101.970 62.541,101.200 63.200 C 100.430 63.859,99.663 64.399,99.496 64.399 C 99.329 64.400,98.628 64.940,97.937 65.600 C 97.246 66.260,96.520 66.800,96.322 66.800 C 95.700 66.800,93.946 68.788,94.202 69.203 C 94.639 69.911,95.175 69.628,96.096 68.202 C 96.610 67.408,97.229 66.889,97.530 67.001 C 98.120 67.220,98.842 66.617,99.532 65.328 C 99.823 64.784,100.253 64.541,100.714 64.661 C 101.194 64.787,101.617 64.516,101.969 63.857 C 102.284 63.270,102.731 62.952,103.062 63.079 C 103.680 63.316,105.200 61.794,105.200 60.939 C 105.200 60.232,105.108 60.253,104.092 61.200 M91.654 70.662 C 90.766 71.591,90.443 72.203,90.705 72.465 C 90.967 72.727,91.419 72.410,92.036 71.531 C 92.550 70.799,93.113 70.140,93.286 70.067 C 93.687 69.897,93.699 69.191,93.300 69.227 C 93.135 69.243,92.394 69.888,91.654 70.662 M87.780 73.727 C 87.109 74.427,85.985 75.450,85.284 76.000 C 84.582 76.550,84.006 77.225,84.004 77.500 C 83.996 78.492,85.144 77.967,86.458 76.378 C 87.196 75.486,88.205 74.324,88.700 73.796 C 89.195 73.268,89.600 72.738,89.600 72.618 C 89.600 72.121,88.928 72.530,87.780 73.727 M200.400 200.200 L 200.400 325.200 213.600 325.200 L 226.800 325.200 226.800 200.200 L 226.800 75.200 213.600 75.200 L 200.400 75.200 200.400 200.200 M79.170 81.437 C 72.188 88.559,71.600 89.193,71.600 89.593 C 71.600 89.818,70.475 91.141,69.100 92.533 C 65.680 95.994,63.737 98.197,63.172 99.251 C 62.911 99.739,62.271 100.566,61.749 101.088 C 61.227 101.609,60.800 102.181,60.800 102.357 C 60.800 102.639,60.353 103.251,58.807 105.083 C 58.583 105.349,58.400 105.804,58.400 106.095 C 58.400 106.386,58.040 106.883,57.600 107.200 C 57.160 107.517,56.800 107.950,56.800 108.163 C 56.800 108.375,56.409 108.964,55.932 109.473 C 54.731 110.751,55.274 111.065,56.771 109.958 C 57.562 109.373,57.930 108.811,57.797 108.390 C 57.661 107.961,57.926 107.580,58.563 107.290 C 59.255 106.974,59.478 106.619,59.332 106.061 C 59.191 105.522,59.372 105.199,59.911 105.028 C 61.071 104.660,62.161 103.346,61.596 102.997 C 61.308 102.819,61.680 102.348,62.604 101.720 C 63.805 100.904,64.024 100.552,63.826 99.760 C 63.692 99.229,63.745 98.841,63.943 98.897 C 64.659 99.102,67.226 96.712,67.013 96.041 C 66.884 95.634,67.210 95.085,67.872 94.593 C 70.437 92.688,72.823 90.238,72.623 89.716 C 72.492 89.375,74.151 87.429,76.915 84.680 C 81.667 79.954,83.408 78.000,82.867 78.000 C 82.687 78.000,81.023 79.547,79.170 81.437 M53.968 112.300 C 53.655 112.905,53.085 113.749,52.700 114.175 C 52.315 114.602,52.000 115.172,52.000 115.442 C 52.000 115.712,51.775 116.014,51.500 116.112 C 50.644 116.418,51.492 116.888,52.387 116.604 C 52.963 116.421,53.163 116.113,53.012 115.638 C 52.862 115.165,53.116 114.766,53.800 114.400 C 54.506 114.022,54.740 113.641,54.578 113.130 C 54.422 112.640,54.548 112.400,54.960 112.400 C 55.342 112.400,55.488 112.173,55.345 111.800 C 55.006 110.918,54.606 111.063,53.968 112.300 M49.936 118.800 C 49.644 119.460,49.269 120.000,49.102 120.000 C 48.936 120.000,48.800 120.345,48.800 120.767 C 48.800 121.188,48.575 121.614,48.300 121.712 C 47.432 122.022,48.298 122.486,49.206 122.198 C 49.811 122.006,50.013 121.693,49.874 121.161 C 49.743 120.659,49.882 120.400,50.284 120.400 C 50.690 120.400,50.826 120.141,50.691 119.626 C 50.571 119.167,50.725 118.761,51.070 118.629 C 51.389 118.506,51.539 118.224,51.402 118.003 C 50.967 117.300,50.483 117.563,49.936 118.800 M47.200 123.600 C 47.200 123.820,47.470 124.000,47.800 124.000 C 48.130 124.000,48.400 123.820,48.400 123.600 C 48.400 123.380,48.130 123.200,47.800 123.200 C 47.470 123.200,47.200 123.380,47.200 123.600 M46.400 125.200 C 46.400 125.420,46.670 125.600,47.000 125.600 C 47.330 125.600,47.600 125.420,47.600 125.200 C 47.600 124.980,47.330 124.800,47.000 124.800 C 46.670 124.800,46.400 124.980,46.400 125.200 M45.872 126.293 C 43.910 129.565,43.661 130.400,44.647 130.400 C 45.096 130.400,45.230 130.156,45.084 129.600 C 44.945 129.067,45.072 128.800,45.464 128.800 C 45.872 128.800,45.976 128.553,45.800 128.000 C 45.620 127.432,45.728 127.200,46.173 127.200 C 46.518 127.200,46.800 127.031,46.800 126.824 C 46.800 126.312,46.100 125.913,45.872 126.293 M43.200 131.400 C 43.200 131.730,43.470 132.000,43.800 132.000 C 44.130 132.000,44.400 131.730,44.400 131.400 C 44.400 131.070,44.130 130.800,43.800 130.800 C 43.470 130.800,43.200 131.070,43.200 131.400 M42.667 132.667 C 42.206 133.127,42.375 133.600,43.000 133.600 C 43.330 133.600,43.600 133.330,43.600 133.000 C 43.600 132.375,43.127 132.206,42.667 132.667 M42.000 134.800 C 42.000 135.240,41.820 135.600,41.600 135.600 C 41.380 135.600,41.200 135.960,41.200 136.400 C 41.200 136.840,41.020 137.200,40.800 137.200 C 40.580 137.200,40.400 137.650,40.400 138.200 C 40.400 138.750,40.580 139.200,40.800 139.200 C 41.020 139.200,41.200 138.859,41.200 138.443 C 41.200 138.026,41.467 137.583,41.793 137.458 C 42.120 137.333,42.289 136.977,42.170 136.667 C 42.051 136.357,42.220 136.001,42.546 135.876 C 42.915 135.734,43.057 135.339,42.922 134.824 C 42.646 133.769,42.000 133.752,42.000 134.800 M39.600 140.400 C 39.600 140.840,39.420 141.200,39.200 141.200 C 38.980 141.200,38.800 141.560,38.800 142.000 C 38.800 142.458,39.067 142.800,39.424 142.800 C 39.767 142.800,39.929 142.608,39.784 142.373 C 39.639 142.139,39.818 141.729,40.182 141.463 C 40.590 141.164,40.742 140.715,40.579 140.289 C 40.218 139.349,39.600 139.419,39.600 140.400 M38.000 144.200 C 38.000 144.852,38.224 145.200,38.643 145.200 C 39.065 145.200,39.202 144.982,39.043 144.567 C 38.909 144.219,38.800 143.769,38.800 143.567 C 38.800 143.365,38.620 143.200,38.400 143.200 C 38.180 143.200,38.000 143.650,38.000 144.200 M37.200 146.576 C 37.200 147.113,37.020 147.664,36.800 147.800 C 36.580 147.936,36.400 148.476,36.400 149.000 C 36.400 149.524,36.220 150.064,36.000 150.200 C 35.323 150.619,35.525 152.400,36.250 152.400 C 36.759 152.400,36.848 152.139,36.660 151.200 C 36.476 150.278,36.564 150.000,37.042 150.000 C 37.525 150.000,37.605 149.732,37.400 148.800 C 37.194 147.862,37.274 147.600,37.768 147.600 C 38.444 147.600,38.545 147.244,38.157 146.233 C 37.787 145.268,37.200 145.479,37.200 146.576 M34.800 153.767 C 34.800 154.439,35.019 154.800,35.428 154.800 C 35.845 154.800,36.013 154.508,35.928 153.931 C 35.739 152.651,34.800 152.514,34.800 153.767 M34.000 156.200 C 34.000 157.188,34.542 157.541,34.978 156.836 C 35.267 156.368,34.824 155.200,34.357 155.200 C 34.161 155.200,34.000 155.650,34.000 156.200 M33.478 158.255 C 33.044 158.689,33.152 160.400,33.613 160.400 C 33.839 160.400,34.125 160.141,34.246 159.824 C 34.508 159.141,33.878 157.855,33.478 158.255 M32.400 162.000 C 32.400 162.800,32.600 163.200,33.000 163.200 C 33.628 163.200,33.769 162.505,33.357 161.433 C 32.956 160.388,32.400 160.718,32.400 162.000 M31.600 165.367 C 31.600 166.039,31.819 166.400,32.228 166.400 C 32.645 166.400,32.813 166.108,32.728 165.531 C 32.539 164.251,31.600 164.114,31.600 165.367 M30.800 169.400 C 30.800 170.733,30.956 171.200,31.400 171.200 C 32.023 171.200,32.232 169.469,31.757 168.233 C 31.291 167.017,30.800 167.615,30.800 169.400 M30.000 173.767 C 30.000 174.800,30.175 175.200,30.625 175.200 C 31.087 175.200,31.218 174.869,31.125 173.931 C 30.944 172.097,30.000 171.959,30.000 173.767 M256.800 186.200 L 256.800 196.400 311.800 196.400 L 366.800 196.400 366.800 186.200 L 366.800 176.000 311.800 176.000 L 256.800 176.000 256.800 186.200 M29.473 177.061 C 28.869 177.664,29.169 181.587,29.800 181.345 C 30.201 181.191,30.398 180.566,30.394 179.457 C 30.388 177.737,29.946 176.588,29.473 177.061 M28.673 183.461 C 28.077 184.056,28.371 189.200,29.000 189.200 C 29.470 189.200,29.599 188.658,29.594 186.700 C 29.588 184.245,29.212 182.922,28.673 183.461 M378.601 186.396 C 378.299 187.349,378.633 188.000,379.424 188.000 C 379.797 188.000,380.000 187.578,380.000 186.800 C 380.000 185.417,379.003 185.130,378.601 186.396 M256.800 214.600 L 256.800 224.800 311.800 224.800 L 366.800 224.800 366.800 214.600 L 366.800 204.400 311.800 204.400 L 256.800 204.400 256.800 214.600 M28.400 211.976 C 28.400 214.650,28.854 215.878,29.358 214.565 C 29.890 213.178,29.625 209.200,29.000 209.200 C 28.524 209.200,28.400 209.775,28.400 211.976 M29.200 219.176 C 29.200 221.172,29.712 222.127,30.158 220.965 C 30.659 219.660,30.425 217.200,29.800 217.200 C 29.348 217.200,29.200 217.686,29.200 219.176 M30.000 224.567 C 30.000 225.600,30.175 226.000,30.625 226.000 C 31.087 226.000,31.218 225.669,31.125 224.731 C 30.944 222.897,30.000 222.759,30.000 224.567 M30.800 229.000 C 30.800 230.785,31.291 231.383,31.757 230.167 C 32.232 228.931,32.023 227.200,31.400 227.200 C 30.956 227.200,30.800 227.667,30.800 229.000 M31.600 233.033 C 31.600 234.286,32.539 234.149,32.728 232.869 C 32.813 232.292,32.645 232.000,32.228 232.000 C 31.819 232.000,31.600 232.361,31.600 233.033 M32.400 236.400 C 32.400 237.682,32.956 238.012,33.357 236.967 C 33.769 235.895,33.628 235.200,33.000 235.200 C 32.600 235.200,32.400 235.600,32.400 236.400 M33.200 239.213 C 33.200 240.484,33.758 240.808,34.157 239.767 C 34.526 238.806,34.456 238.507,33.800 238.255 C 33.350 238.083,33.200 238.321,33.200 239.213 M34.000 242.200 C 34.000 242.750,34.161 243.200,34.357 243.200 C 34.824 243.200,35.267 242.032,34.978 241.564 C 34.542 240.859,34.000 241.212,34.000 242.200 M34.800 244.600 C 34.800 245.276,34.983 245.606,35.300 245.500 C 35.575 245.408,35.800 245.003,35.800 244.600 C 35.800 244.197,35.575 243.792,35.300 243.700 C 34.983 243.594,34.800 243.924,34.800 244.600 M35.600 247.176 C 35.600 247.823,35.780 248.464,36.000 248.600 C 36.220 248.736,36.400 249.287,36.400 249.824 C 36.400 250.361,36.580 250.800,36.800 250.800 C 37.020 250.800,37.200 251.250,37.200 251.800 C 37.200 252.917,37.784 253.141,38.157 252.167 C 38.540 251.170,38.446 250.800,37.810 250.800 C 37.368 250.800,37.280 250.499,37.460 249.600 C 37.647 248.667,37.558 248.400,37.060 248.400 C 36.562 248.400,36.473 248.133,36.660 247.200 C 36.848 246.261,36.759 246.000,36.250 246.000 C 35.797 246.000,35.600 246.357,35.600 247.176 M38.000 254.200 C 38.000 254.750,38.180 255.200,38.400 255.200 C 38.620 255.200,38.800 255.035,38.800 254.833 C 38.800 254.631,38.909 254.181,39.043 253.833 C 39.202 253.418,39.065 253.200,38.643 253.200 C 38.224 253.200,38.000 253.548,38.000 254.200 M38.800 256.400 C 38.800 256.840,38.980 257.200,39.200 257.200 C 39.420 257.200,39.600 257.560,39.600 258.000 C 39.600 258.981,40.218 259.051,40.579 258.111 C 40.742 257.685,40.590 257.236,40.182 256.937 C 39.818 256.671,39.639 256.261,39.784 256.027 C 39.929 255.792,39.767 255.600,39.424 255.600 C 39.067 255.600,38.800 255.942,38.800 256.400 M40.400 260.167 C 40.400 260.735,40.580 261.200,40.800 261.200 C 41.020 261.200,41.200 261.560,41.200 262.000 C 41.200 262.440,41.380 262.800,41.600 262.800 C 41.820 262.800,42.000 263.160,42.000 263.600 C 42.000 264.648,42.646 264.631,42.922 263.576 C 43.057 263.061,42.915 262.666,42.546 262.524 C 42.220 262.399,42.051 262.043,42.170 261.733 C 42.289 261.423,42.116 261.066,41.786 260.939 C 41.456 260.813,41.234 260.433,41.293 260.096 C 41.352 259.759,41.175 259.404,40.900 259.308 C 40.584 259.198,40.400 259.513,40.400 260.167 M42.400 265.400 C 42.400 265.730,42.670 266.000,43.000 266.000 C 43.330 266.000,43.600 265.730,43.600 265.400 C 43.600 265.070,43.330 264.800,43.000 264.800 C 42.670 264.800,42.400 265.070,42.400 265.400 M43.200 267.000 C 43.200 267.330,43.470 267.600,43.800 267.600 C 44.130 267.600,44.400 267.330,44.400 267.000 C 44.400 266.670,44.130 266.400,43.800 266.400 C 43.470 266.400,43.200 266.670,43.200 267.000 M44.000 268.288 C 44.000 269.006,45.840 272.372,46.175 272.267 C 46.820 272.066,46.897 271.200,46.271 271.200 C 45.872 271.200,45.744 270.936,45.884 270.400 C 46.001 269.953,45.896 269.600,45.647 269.600 C 45.401 269.600,45.200 269.240,45.200 268.800 C 45.200 268.356,44.933 268.000,44.600 268.000 C 44.270 268.000,44.000 268.130,44.000 268.288 M46.477 273.230 C 46.556 273.466,46.791 273.660,47.000 273.660 C 47.209 273.660,47.445 273.466,47.523 273.230 C 47.602 272.993,47.367 272.800,47.000 272.800 C 46.633 272.800,46.398 272.993,46.477 273.230 M47.200 274.800 C 47.200 275.020,47.470 275.200,47.800 275.200 C 48.130 275.200,48.400 275.020,48.400 274.800 C 48.400 274.580,48.130 274.400,47.800 274.400 C 47.470 274.400,47.200 274.580,47.200 274.800 M48.000 276.400 C 48.000 276.620,48.180 276.800,48.400 276.800 C 48.620 276.800,48.800 277.160,48.800 277.600 C 48.800 278.040,48.980 278.400,49.200 278.400 C 49.420 278.400,49.606 278.625,49.613 278.900 C 49.638 279.904,50.769 280.991,51.268 280.492 C 51.622 280.138,51.585 279.969,51.111 279.787 C 50.730 279.641,50.567 279.249,50.691 278.774 C 50.828 278.249,50.689 278.000,50.259 278.000 C 49.842 278.000,49.709 277.781,49.871 277.360 C 50.120 276.712,49.416 276.017,48.500 276.006 C 48.225 276.003,48.000 276.180,48.000 276.400 M51.200 282.000 C 51.200 282.220,51.380 282.400,51.600 282.400 C 51.820 282.400,52.000 282.636,52.000 282.925 C 52.000 283.213,52.360 283.836,52.800 284.308 C 53.240 284.780,53.600 285.367,53.600 285.612 C 53.600 286.075,54.572 287.200,54.971 287.200 C 55.097 287.200,55.200 286.930,55.200 286.600 C 55.200 286.270,55.008 286.000,54.773 286.000 C 54.538 286.000,54.450 285.672,54.578 285.270 C 54.740 284.758,54.505 284.377,53.791 283.995 C 53.152 283.653,52.857 283.229,53.000 282.857 C 53.234 282.246,52.581 281.617,51.700 281.606 C 51.425 281.603,51.200 281.780,51.200 282.000 M55.200 288.112 C 55.200 288.393,55.560 288.883,56.000 289.200 C 56.440 289.517,56.800 289.967,56.800 290.200 C 56.800 290.433,57.160 290.883,57.600 291.200 C 58.040 291.517,58.400 292.014,58.400 292.305 C 58.400 292.596,58.583 293.051,58.807 293.317 C 60.337 295.131,60.800 295.758,60.800 296.019 C 60.800 296.182,61.340 296.893,62.000 297.600 C 62.660 298.307,63.200 299.027,63.200 299.200 C 63.200 300.117,66.712 303.207,66.975 302.521 C 67.261 301.777,65.122 299.632,64.073 299.611 C 63.724 299.604,63.634 299.322,63.807 298.777 C 64.062 297.974,62.808 296.400,61.914 296.400 C 61.713 296.400,61.606 296.056,61.675 295.635 C 61.796 294.892,60.279 293.200,59.492 293.200 C 59.280 293.200,59.204 292.830,59.322 292.377 C 59.479 291.775,59.275 291.435,58.563 291.110 C 57.875 290.797,57.657 290.451,57.820 289.936 C 57.986 289.415,57.758 289.073,57.026 288.739 C 56.462 288.482,56.000 288.120,56.000 287.936 C 56.000 287.751,55.820 287.600,55.600 287.600 C 55.380 287.600,55.200 287.830,55.200 288.112 M67.251 304.298 C 68.260 305.582,70.861 308.000,71.233 308.000 C 71.435 308.000,71.600 308.264,71.600 308.586 C 71.600 309.408,82.094 320.400,82.880 320.400 C 83.372 320.400,81.773 318.616,76.906 313.738 C 74.246 311.072,72.497 309.013,72.619 308.694 C 72.907 307.945,68.166 303.600,67.062 303.600 C 66.864 303.600,66.949 303.914,67.251 304.298 M84.000 320.831 C 84.000 321.534,89.113 326.221,89.479 325.854 C 89.592 325.741,89.261 325.201,88.742 324.654 C 88.224 324.107,87.181 322.926,86.424 322.030 C 85.104 320.467,84.000 319.921,84.000 320.831 M90.644 325.929 C 90.482 326.191,90.981 327.008,91.807 327.834 C 93.262 329.289,94.182 329.514,93.050 328.138 C 92.716 327.732,92.102 326.966,91.685 326.435 C 91.178 325.790,90.834 325.622,90.644 325.929 M231.067 326.267 C 230.920 326.413,230.800 331.003,230.800 336.467 L 230.800 346.400 243.400 346.400 L 256.000 346.400 256.000 336.200 L 256.000 326.000 243.667 326.000 C 236.883 326.000,231.213 326.120,231.067 326.267 M94.202 329.197 C 93.932 329.634,95.715 331.600,96.382 331.600 C 96.612 331.600,96.800 331.780,96.800 332.000 C 96.800 332.220,97.030 332.400,97.312 332.400 C 97.593 332.400,98.083 332.760,98.400 333.200 C 99.065 334.123,99.600 334.240,99.600 333.461 C 99.600 332.620,98.157 331.165,97.548 331.392 C 97.224 331.512,96.630 331.023,96.096 330.198 C 95.175 328.772,94.639 328.489,94.202 329.197 M100.255 333.878 C 99.946 334.187,102.362 336.398,103.012 336.399 C 103.238 336.400,103.683 336.760,104.000 337.200 C 104.652 338.105,105.207 338.245,105.187 337.500 C 105.164 336.658,103.636 335.101,103.051 335.325 C 102.735 335.446,102.281 335.125,101.983 334.568 C 101.470 333.610,100.793 333.340,100.255 333.878 M106.000 338.104 C 106.000 338.381,106.360 338.832,106.800 339.107 C 107.731 339.688,107.968 338.928,107.120 338.080 C 106.497 337.457,106.000 337.468,106.000 338.104 M108.400 339.736 C 108.400 340.030,109.118 340.615,109.995 341.036 C 110.873 341.456,111.593 341.935,111.595 342.100 C 111.598 342.265,111.870 342.400,112.200 342.400 C 112.530 342.400,112.800 342.580,112.800 342.800 C 112.800 343.020,113.070 343.200,113.400 343.200 C 113.730 343.200,114.000 343.097,114.000 342.971 C 114.000 342.525,112.848 341.600,112.293 341.600 C 111.982 341.600,111.530 341.164,111.287 340.631 C 110.965 339.924,110.624 339.721,110.023 339.878 C 109.555 340.000,109.200 339.901,109.200 339.647 C 109.200 339.401,109.020 339.200,108.800 339.200 C 108.580 339.200,108.400 339.441,108.400 339.736 M114.400 343.600 C 114.400 343.820,114.670 344.000,115.000 344.000 C 115.330 344.000,115.600 344.180,115.600 344.400 C 115.600 344.620,115.870 344.800,116.200 344.800 C 116.530 344.800,116.800 344.980,116.800 345.200 C 116.800 345.420,117.145 345.600,117.567 345.600 C 117.988 345.600,118.414 345.825,118.512 346.100 C 118.818 346.956,119.288 346.108,119.004 345.213 C 118.817 344.625,118.516 344.436,118.015 344.595 C 117.577 344.734,117.204 344.587,117.063 344.219 C 116.929 343.871,116.568 343.714,116.215 343.850 C 115.877 343.979,115.600 343.886,115.600 343.643 C 115.600 343.399,115.330 343.200,115.000 343.200 C 114.670 343.200,114.400 343.380,114.400 343.600 M120.256 346.278 C 119.805 346.728,119.981 347.200,120.600 347.200 C 120.930 347.200,121.200 347.031,121.200 346.824 C 121.200 346.319,120.575 345.958,120.256 346.278 M121.821 347.166 C 121.503 347.681,122.626 348.765,123.500 348.787 C 123.775 348.794,124.000 348.980,124.000 349.200 C 124.000 349.420,124.360 349.600,124.800 349.600 C 125.240 349.600,125.600 349.780,125.600 350.000 C 125.600 350.220,125.960 350.400,126.400 350.400 C 126.840 350.400,127.200 350.536,127.200 350.702 C 127.200 350.869,127.785 351.240,128.500 351.529 C 129.215 351.817,130.113 352.221,130.495 352.426 C 131.511 352.973,132.000 352.885,132.000 352.153 C 132.000 351.704,131.756 351.570,131.200 351.716 C 130.660 351.857,130.400 351.728,130.400 351.320 C 130.400 350.939,130.171 350.802,129.785 350.950 C 129.429 351.087,129.070 350.926,128.933 350.570 C 128.803 350.231,128.465 350.043,128.181 350.152 C 127.898 350.261,127.560 350.072,127.430 349.733 C 127.300 349.394,126.940 349.214,126.630 349.333 C 126.320 349.452,125.960 349.272,125.830 348.933 C 125.700 348.594,125.340 348.414,125.030 348.533 C 124.720 348.652,124.361 348.476,124.233 348.141 C 124.105 347.807,123.775 347.609,123.500 347.702 C 123.225 347.794,122.802 347.602,122.561 347.275 C 122.228 346.823,122.049 346.797,121.821 347.166 M200.400 360.582 L 200.400 369.964 199.100 370.174 C 198.385 370.290,197.350 370.433,196.800 370.492 C 194.498 370.740,196.255 371.409,199.495 371.517 C 201.419 371.581,203.166 371.806,203.377 372.017 C 203.886 372.526,208.000 372.511,208.000 372.000 C 208.000 371.745,211.400 371.600,217.400 371.600 L 226.800 371.600 226.800 361.800 L 226.800 352.000 216.000 352.000 C 209.067 352.000,205.200 351.857,205.200 351.600 C 205.200 351.378,204.133 351.200,202.800 351.200 L 200.400 351.200 200.400 360.582 M256.800 361.800 L 256.800 371.600 311.400 371.600 L 366.000 371.600 366.000 361.800 L 366.000 352.000 311.400 352.000 L 256.800 352.000 256.800 361.800 M132.400 353.000 C 132.400 353.330,132.670 353.600,133.000 353.600 C 133.330 353.600,133.600 353.330,133.600 353.000 C 133.600 352.670,133.330 352.400,133.000 352.400 C 132.670 352.400,132.400 352.670,132.400 353.000 M134.000 353.800 C 134.000 354.130,134.270 354.400,134.600 354.400 C 134.930 354.400,135.200 354.130,135.200 353.800 C 135.200 353.470,134.930 353.200,134.600 353.200 C 134.270 353.200,134.000 353.470,134.000 353.800 M135.867 354.267 C 135.405 354.728,135.576 355.200,136.205 355.200 C 136.538 355.200,137.213 355.408,137.705 355.662 C 140.335 357.022,140.400 357.034,140.400 356.157 C 140.400 355.750,140.180 355.599,139.800 355.745 C 139.435 355.885,139.200 355.745,139.200 355.387 C 139.200 355.064,138.840 354.800,138.400 354.800 C 137.960 354.800,137.600 354.620,137.600 354.400 C 137.600 353.953,136.282 353.852,135.867 354.267 M141.900 356.297 C 140.885 356.531,141.041 357.160,142.226 357.610 C 143.544 358.111,144.400 358.107,144.400 357.600 C 144.400 357.380,144.195 357.200,143.944 357.200 C 143.693 357.200,143.288 356.960,143.044 356.667 C 142.800 356.375,142.285 356.208,141.900 356.297 M144.800 358.400 C 144.800 358.620,145.250 358.800,145.800 358.800 C 146.350 358.800,146.800 358.620,146.800 358.400 C 146.800 358.180,146.350 358.000,145.800 358.000 C 145.250 358.000,144.800 358.180,144.800 358.400 M147.900 358.676 C 146.953 358.923,147.009 359.600,147.976 359.600 C 148.403 359.600,148.864 359.780,149.000 360.000 C 149.136 360.220,149.597 360.400,150.024 360.400 C 150.451 360.400,150.800 360.220,150.800 360.000 C 150.800 359.780,150.440 359.600,150.000 359.600 C 149.556 359.600,149.200 359.333,149.200 359.000 C 149.200 358.385,149.105 358.361,147.900 358.676 M151.900 360.300 C 150.842 360.540,151.062 361.200,152.200 361.200 C 152.750 361.200,153.200 361.031,153.200 360.824 C 153.200 360.302,152.727 360.112,151.900 360.300 M154.300 361.100 C 153.242 361.340,153.462 362.000,154.600 362.000 C 155.150 362.000,155.600 361.831,155.600 361.624 C 155.600 361.102,155.127 360.912,154.300 361.100 M156.700 361.900 C 155.642 362.140,155.862 362.800,157.000 362.800 C 157.550 362.800,158.000 362.631,158.000 362.424 C 158.000 361.902,157.527 361.712,156.700 361.900 M159.100 362.676 C 157.883 362.994,158.342 363.600,159.800 363.600 C 160.570 363.600,161.200 363.780,161.200 364.000 C 161.200 364.220,161.650 364.400,162.200 364.400 C 162.852 364.400,163.200 364.176,163.200 363.757 C 163.200 363.278,162.955 363.175,162.242 363.354 C 161.593 363.517,161.209 363.401,161.054 362.997 C 160.825 362.400,160.414 362.332,159.100 362.676 M164.295 364.277 C 163.233 364.554,163.883 365.200,165.224 365.200 C 166.003 365.200,166.400 364.997,166.400 364.600 C 166.400 364.013,165.711 363.907,164.295 364.277 M167.300 365.065 C 166.312 365.464,166.828 366.000,168.200 366.000 C 169.178 366.000,169.600 365.819,169.600 365.400 C 169.600 364.812,168.371 364.633,167.300 365.065 M170.500 365.865 C 169.512 366.264,170.028 366.800,171.400 366.800 C 172.378 366.800,172.800 366.619,172.800 366.200 C 172.800 365.612,171.571 365.433,170.500 365.865 M173.700 366.658 C 172.708 367.073,173.230 367.600,174.633 367.600 C 175.601 367.600,176.013 367.438,175.902 367.100 C 175.725 366.561,174.512 366.318,173.700 366.658 M177.300 367.465 C 176.261 367.884,176.860 368.400,178.387 368.400 C 179.634 368.400,179.925 368.271,179.745 367.800 C 179.521 367.218,178.320 367.053,177.300 367.465 M180.898 368.266 C 180.000 368.628,180.812 369.200,182.224 369.200 C 183.180 369.200,183.600 369.017,183.600 368.600 C 183.600 368.007,182.023 367.812,180.898 368.266 M185.300 369.065 C 184.209 369.505,184.896 370.000,186.600 370.000 C 187.933 370.000,188.400 369.844,188.400 369.400 C 188.400 368.806,186.462 368.596,185.300 369.065 M190.098 369.866 C 189.058 370.285,190.119 370.800,192.024 370.800 C 193.514 370.800,194.000 370.652,194.000 370.200 C 194.000 369.603,191.318 369.374,190.098 369.866 M238.000 371.800 C 238.000 372.455,239.449 372.610,240.334 372.050 C 240.759 371.780,240.732 371.660,240.201 371.456 C 239.047 371.013,238.000 371.177,238.000 371.800 " stroke="none" fill="#6c6c6c" fill-rule="evenodd"></path><path id="path1" d="M230.800 36.636 L 230.800 46.400 243.400 46.400 L 256.000 46.400 256.000 36.600 L 256.000 26.799 243.400 26.836 L 230.800 26.872 230.800 36.636 M193.883 28.406 C 193.724 29.014,193.439 29.208,192.928 29.059 C 190.467 28.338,188.400 28.317,188.400 29.012 C 188.400 29.631,188.117 29.684,186.000 29.463 C 183.951 29.249,183.600 29.307,183.600 29.861 C 183.600 30.399,183.294 30.467,181.785 30.260 C 180.336 30.061,179.921 30.140,179.725 30.652 C 179.532 31.155,179.115 31.242,177.777 31.059 C 176.449 30.877,176.023 30.964,175.834 31.457 C 175.648 31.940,175.265 32.026,174.196 31.826 C 173.053 31.611,172.800 31.685,172.800 32.233 C 172.800 32.790,172.531 32.859,171.200 32.646 C 169.880 32.435,169.600 32.505,169.600 33.046 C 169.600 33.588,169.320 33.657,168.000 33.446 C 166.693 33.237,166.400 33.308,166.400 33.830 C 166.400 34.355,166.113 34.422,164.800 34.200 C 163.456 33.973,163.200 34.038,163.200 34.608 C 163.200 35.124,162.971 35.229,162.242 35.046 C 161.584 34.881,161.209 34.999,161.047 35.422 C 160.869 35.884,160.474 35.975,159.461 35.785 C 158.458 35.597,158.052 35.687,157.880 36.135 C 157.729 36.529,157.346 36.659,156.774 36.509 C 156.211 36.362,155.774 36.503,155.550 36.903 C 155.330 37.296,154.888 37.444,154.350 37.303 C 153.819 37.164,153.371 37.308,153.159 37.687 C 152.942 38.075,152.457 38.223,151.810 38.100 C 151.218 37.987,150.800 38.091,150.800 38.353 C 150.800 38.599,150.440 38.800,150.000 38.800 C 149.538 38.800,149.200 39.067,149.200 39.432 C 149.200 39.926,148.938 40.006,148.000 39.800 C 147.068 39.595,146.800 39.675,146.800 40.158 C 146.800 40.636,146.522 40.724,145.600 40.540 C 144.836 40.387,144.400 40.463,144.400 40.750 C 144.400 40.998,144.149 41.200,143.843 41.200 C 143.536 41.200,143.193 41.441,143.080 41.736 C 142.946 42.084,142.440 42.209,141.637 42.091 C 140.831 41.972,140.400 42.079,140.400 42.397 C 140.400 42.667,140.131 42.783,139.800 42.655 C 139.435 42.515,139.200 42.655,139.200 43.013 C 139.200 43.336,138.859 43.600,138.443 43.600 C 138.026 43.600,137.583 43.868,137.457 44.196 C 137.280 44.656,136.999 44.704,136.214 44.405 C 135.392 44.093,135.200 44.140,135.200 44.657 C 135.200 45.096,134.953 45.229,134.400 45.084 C 133.859 44.943,133.600 45.072,133.600 45.484 C 133.600 45.896,133.341 46.026,132.800 45.884 C 132.280 45.748,132.000 45.872,132.000 46.237 C 132.000 46.547,131.640 46.800,131.200 46.800 C 130.760 46.800,130.400 46.980,130.400 47.200 C 130.400 47.420,130.040 47.600,129.600 47.600 C 129.160 47.600,128.800 47.799,128.800 48.043 C 128.800 48.286,128.523 48.379,128.185 48.250 C 127.829 48.113,127.470 48.274,127.333 48.630 C 127.203 48.969,126.865 49.157,126.581 49.048 C 126.298 48.939,125.960 49.128,125.830 49.467 C 125.700 49.806,125.340 49.986,125.030 49.867 C 124.720 49.748,124.360 49.928,124.230 50.267 C 124.100 50.606,123.740 50.786,123.430 50.667 C 123.120 50.548,122.768 50.706,122.648 51.019 C 122.528 51.331,122.177 51.489,121.867 51.370 C 121.557 51.251,121.201 51.420,121.076 51.746 C 120.940 52.099,120.538 52.256,120.076 52.136 C 119.492 51.983,119.238 52.196,119.034 53.009 C 118.832 53.812,118.573 54.034,118.008 53.886 C 117.581 53.775,117.160 53.928,117.041 54.237 C 116.925 54.539,116.553 54.680,116.215 54.550 C 115.877 54.421,115.600 54.514,115.600 54.757 C 115.600 55.001,115.270 55.200,114.868 55.200 C 114.465 55.200,113.906 55.628,113.626 56.152 C 113.307 56.747,112.861 57.036,112.435 56.925 C 111.993 56.809,111.593 57.097,111.299 57.742 C 110.966 58.473,110.628 58.680,110.023 58.522 C 109.523 58.391,109.200 58.499,109.200 58.796 C 109.200 59.065,108.944 59.187,108.630 59.067 C 108.298 58.940,107.788 59.264,107.408 59.844 C 106.943 60.553,106.532 60.769,105.978 60.593 C 105.458 60.428,105.200 60.534,105.200 60.912 C 105.200 61.789,103.690 63.320,103.062 63.079 C 102.731 62.952,102.284 63.270,101.969 63.857 C 101.617 64.516,101.194 64.787,100.714 64.661 C 100.253 64.541,99.823 64.784,99.532 65.328 C 98.842 66.617,98.120 67.220,97.530 67.001 C 97.228 66.889,96.602 67.419,96.075 68.235 C 95.465 69.178,94.943 69.587,94.545 69.434 C 93.881 69.180,93.426 69.556,92.072 71.482 C 91.513 72.278,90.950 72.679,90.586 72.539 C 90.008 72.317,89.299 72.979,86.435 76.416 C 85.411 77.645,84.860 78.002,84.232 77.844 C 83.618 77.690,83.135 77.976,82.423 78.917 C 81.890 79.623,79.418 82.216,76.931 84.680 C 74.155 87.431,72.492 89.375,72.623 89.716 C 72.823 90.238,70.437 92.688,67.872 94.593 C 67.210 95.085,66.884 95.634,67.013 96.041 C 67.226 96.712,64.659 99.102,63.943 98.897 C 63.745 98.841,63.692 99.229,63.826 99.760 C 64.024 100.552,63.805 100.904,62.604 101.720 C 61.680 102.348,61.308 102.819,61.596 102.997 C 62.161 103.346,61.071 104.660,59.911 105.028 C 59.372 105.199,59.191 105.522,59.332 106.061 C 59.478 106.619,59.255 106.974,58.563 107.290 C 57.912 107.586,57.660 107.958,57.803 108.409 C 57.950 108.871,57.568 109.388,56.596 110.042 C 55.648 110.681,55.233 111.233,55.350 111.700 C 55.457 112.129,55.297 112.400,54.936 112.400 C 54.547 112.400,54.425 112.649,54.578 113.130 C 54.740 113.641,54.506 114.022,53.800 114.400 C 53.103 114.773,52.861 115.162,53.018 115.657 C 53.187 116.189,52.974 116.442,52.190 116.638 C 51.394 116.838,51.184 117.094,51.336 117.676 C 51.449 118.108,51.306 118.538,51.013 118.650 C 50.720 118.763,50.578 119.193,50.691 119.626 C 50.826 120.141,50.690 120.400,50.284 120.400 C 49.877 120.400,49.743 120.659,49.879 121.182 C 50.034 121.774,49.828 122.028,49.030 122.228 C 48.225 122.430,48.032 122.671,48.215 123.246 C 48.382 123.775,48.258 124.000,47.800 124.000 C 47.328 124.000,47.217 124.223,47.400 124.800 C 47.583 125.377,47.472 125.600,47.000 125.600 C 46.528 125.600,46.417 125.823,46.600 126.400 C 46.783 126.977,46.672 127.200,46.200 127.200 C 45.728 127.200,45.617 127.423,45.800 128.000 C 45.976 128.553,45.872 128.800,45.464 128.800 C 45.072 128.800,44.945 129.067,45.084 129.600 C 45.226 130.141,45.096 130.400,44.684 130.400 C 44.272 130.400,44.143 130.659,44.284 131.200 C 44.426 131.741,44.296 132.000,43.884 132.000 C 43.472 132.000,43.343 132.259,43.484 132.800 C 43.629 133.353,43.496 133.600,43.057 133.600 C 42.540 133.600,42.493 133.792,42.805 134.614 C 43.107 135.408,43.057 135.680,42.573 135.866 C 42.232 135.996,42.051 136.357,42.170 136.667 C 42.289 136.977,42.120 137.333,41.793 137.458 C 41.467 137.583,41.200 138.026,41.200 138.443 C 41.200 138.859,41.000 139.200,40.757 139.200 C 40.482 139.200,40.410 139.585,40.566 140.209 C 40.747 140.927,40.637 141.288,40.187 141.460 C 39.839 141.594,39.649 141.950,39.764 142.252 C 39.888 142.575,39.713 142.800,39.337 142.800 C 38.843 142.800,38.754 143.068,38.940 144.000 C 39.124 144.922,39.036 145.200,38.558 145.200 C 38.075 145.200,37.995 145.468,38.200 146.400 C 38.410 147.357,38.329 147.600,37.800 147.600 C 37.271 147.600,37.190 147.843,37.400 148.800 C 37.605 149.732,37.525 150.000,37.042 150.000 C 36.564 150.000,36.476 150.278,36.660 151.200 C 36.847 152.133,36.758 152.400,36.260 152.400 C 35.762 152.400,35.673 152.667,35.860 153.600 C 36.053 154.564,35.964 154.800,35.407 154.800 C 34.865 154.800,34.769 155.021,34.966 155.809 C 35.148 156.532,35.037 156.888,34.576 157.065 C 34.084 157.253,33.992 157.630,34.185 158.661 C 34.377 159.682,34.285 160.069,33.810 160.252 C 33.334 160.434,33.243 160.821,33.435 161.846 C 33.643 162.953,33.565 163.200,33.009 163.200 C 32.438 163.200,32.373 163.455,32.600 164.800 C 32.824 166.125,32.758 166.400,32.215 166.400 C 31.651 166.400,31.598 166.733,31.832 168.800 C 32.067 170.880,32.015 171.200,31.438 171.200 C 30.871 171.200,30.812 171.495,31.038 173.200 C 31.264 174.908,31.205 175.200,30.635 175.200 C 30.047 175.200,29.999 175.554,30.233 178.138 C 30.458 180.623,30.400 181.114,29.859 181.322 C 29.309 181.533,29.255 182.105,29.470 185.384 C 29.692 188.766,29.645 189.200,29.060 189.200 C 28.464 189.200,28.400 190.172,28.400 199.200 C 28.400 208.227,28.464 209.200,29.060 209.200 C 29.647 209.200,29.691 209.643,29.458 213.200 C 29.225 216.750,29.270 217.200,29.853 217.200 C 30.428 217.200,30.477 217.572,30.243 220.152 C 30.013 222.693,30.068 223.141,30.641 223.360 C 31.180 223.567,31.260 223.958,31.061 225.408 C 30.858 226.890,30.927 227.200,31.459 227.200 C 32.010 227.200,32.064 227.548,31.832 229.600 C 31.598 231.667,31.651 232.000,32.215 232.000 C 32.758 232.000,32.824 232.275,32.600 233.600 C 32.373 234.945,32.438 235.200,33.009 235.200 C 33.570 235.200,33.643 235.446,33.425 236.605 C 33.223 237.683,33.308 238.067,33.790 238.252 C 34.260 238.432,34.357 238.822,34.175 239.791 C 33.992 240.769,34.090 241.149,34.576 241.335 C 35.025 241.508,35.147 241.871,34.980 242.537 C 34.810 243.214,34.936 243.566,35.413 243.750 C 35.900 243.936,36.016 244.282,35.835 245.004 C 35.644 245.763,35.741 246.000,36.242 246.000 C 36.760 246.000,36.849 246.256,36.660 247.200 C 36.473 248.133,36.562 248.400,37.060 248.400 C 37.558 248.400,37.647 248.667,37.460 249.600 C 37.276 250.522,37.364 250.800,37.842 250.800 C 38.325 250.800,38.405 251.068,38.200 252.000 C 37.995 252.932,38.075 253.200,38.558 253.200 C 39.036 253.200,39.124 253.478,38.940 254.400 C 38.754 255.332,38.843 255.600,39.337 255.600 C 39.713 255.600,39.888 255.825,39.764 256.148 C 39.649 256.450,39.839 256.806,40.187 256.940 C 40.625 257.108,40.746 257.476,40.580 258.137 C 40.415 258.794,40.535 259.166,40.964 259.331 C 41.306 259.462,41.489 259.823,41.370 260.133 C 41.251 260.443,41.431 260.803,41.770 260.933 C 42.109 261.063,42.289 261.423,42.170 261.733 C 42.051 262.043,42.232 262.404,42.573 262.534 C 43.057 262.720,43.107 262.992,42.805 263.786 C 42.493 264.608,42.540 264.800,43.057 264.800 C 43.496 264.800,43.629 265.047,43.484 265.600 C 43.343 266.141,43.472 266.400,43.884 266.400 C 44.296 266.400,44.426 266.659,44.284 267.200 C 44.148 267.720,44.272 268.000,44.637 268.000 C 44.947 268.000,45.200 268.360,45.200 268.800 C 45.200 269.240,45.401 269.600,45.647 269.600 C 45.896 269.600,46.001 269.953,45.884 270.400 C 45.745 270.933,45.872 271.200,46.264 271.200 C 46.672 271.200,46.776 271.447,46.600 272.000 C 46.417 272.577,46.528 272.800,47.000 272.800 C 47.472 272.800,47.583 273.023,47.400 273.600 C 47.217 274.177,47.328 274.400,47.800 274.400 C 48.258 274.400,48.382 274.625,48.215 275.154 C 48.032 275.729,48.225 275.970,49.030 276.172 C 49.828 276.372,50.034 276.626,49.879 277.218 C 49.743 277.741,49.877 278.000,50.284 278.000 C 50.690 278.000,50.826 278.259,50.691 278.774 C 50.578 279.207,50.720 279.637,51.013 279.750 C 51.306 279.862,51.449 280.292,51.336 280.724 C 51.184 281.306,51.394 281.562,52.190 281.762 C 52.974 281.958,53.187 282.211,53.018 282.743 C 52.861 283.238,53.103 283.627,53.800 284.000 C 54.506 284.378,54.740 284.759,54.578 285.270 C 54.450 285.672,54.538 286.000,54.773 286.000 C 55.008 286.000,55.200 286.283,55.200 286.629 C 55.200 287.361,55.846 288.075,57.127 288.761 C 57.737 289.087,57.964 289.483,57.813 289.958 C 57.658 290.448,57.889 290.803,58.563 291.110 C 59.275 291.435,59.479 291.775,59.322 292.377 C 59.204 292.830,59.280 293.200,59.492 293.200 C 60.279 293.200,61.796 294.892,61.675 295.635 C 61.606 296.056,61.713 296.400,61.914 296.400 C 62.808 296.400,64.062 297.974,63.807 298.777 C 63.648 299.277,63.724 299.600,64.000 299.600 C 65.104 299.600,67.193 301.687,66.972 302.569 C 66.807 303.227,66.989 303.558,67.695 303.879 C 69.282 304.602,72.854 308.082,72.624 308.681 C 72.495 309.018,74.169 310.987,76.906 313.720 C 79.378 316.187,81.849 318.782,82.397 319.486 C 83.107 320.399,83.627 320.708,84.203 320.563 C 84.795 320.415,85.388 320.802,86.406 321.999 C 89.392 325.510,90.010 326.082,90.586 325.861 C 90.950 325.721,91.513 326.122,92.072 326.918 C 93.426 328.844,93.881 329.220,94.545 328.966 C 94.943 328.813,95.465 329.222,96.075 330.165 C 96.623 331.013,97.223 331.513,97.548 331.392 C 98.160 331.164,99.600 332.622,99.600 333.469 C 99.600 333.839,99.896 333.941,100.520 333.784 C 101.222 333.608,101.565 333.788,101.970 334.545 C 102.278 335.119,102.733 335.447,103.051 335.325 C 103.634 335.101,105.164 336.657,105.187 337.495 C 105.194 337.768,105.603 337.948,106.094 337.895 C 106.692 337.832,107.121 338.097,107.388 338.697 C 107.659 339.305,108.015 339.522,108.494 339.370 C 108.897 339.242,109.200 339.349,109.200 339.620 C 109.200 339.901,109.535 340.006,110.023 339.878 C 110.624 339.721,110.965 339.924,111.287 340.631 C 111.530 341.164,112.020 341.600,112.376 341.600 C 112.732 341.600,113.283 341.960,113.600 342.400 C 113.917 342.840,114.497 343.200,114.888 343.200 C 115.280 343.200,115.600 343.399,115.600 343.643 C 115.600 343.886,115.877 343.979,116.215 343.850 C 116.568 343.714,116.929 343.871,117.063 344.219 C 117.207 344.594,117.575 344.735,118.034 344.589 C 118.593 344.412,118.838 344.612,119.038 345.410 C 119.238 346.206,119.494 346.416,120.076 346.264 C 120.538 346.144,120.940 346.301,121.076 346.654 C 121.201 346.980,121.557 347.149,121.867 347.030 C 122.177 346.911,122.528 347.069,122.648 347.381 C 122.768 347.694,123.120 347.852,123.430 347.733 C 123.740 347.614,124.100 347.794,124.230 348.133 C 124.360 348.472,124.720 348.652,125.030 348.533 C 125.340 348.414,125.700 348.594,125.830 348.933 C 125.960 349.272,126.320 349.452,126.630 349.333 C 126.940 349.214,127.300 349.394,127.430 349.733 C 127.560 350.072,127.898 350.261,128.181 350.152 C 128.465 350.043,128.803 350.231,128.933 350.570 C 129.070 350.926,129.429 351.087,129.785 350.950 C 130.171 350.802,130.400 350.939,130.400 351.320 C 130.400 351.728,130.660 351.857,131.200 351.716 C 131.741 351.574,132.000 351.704,132.000 352.116 C 132.000 352.528,132.259 352.657,132.800 352.516 C 133.341 352.374,133.600 352.504,133.600 352.916 C 133.600 353.328,133.859 353.457,134.400 353.316 C 134.953 353.171,135.200 353.304,135.200 353.743 C 135.200 354.237,135.469 354.326,136.400 354.140 C 137.164 353.987,137.600 354.063,137.600 354.350 C 137.600 354.598,137.960 354.800,138.400 354.800 C 138.840 354.800,139.200 355.064,139.200 355.387 C 139.200 355.745,139.435 355.885,139.800 355.745 C 140.180 355.599,140.400 355.750,140.400 356.157 C 140.400 356.913,140.434 356.919,141.788 356.404 C 142.601 356.095,142.878 356.139,143.057 356.604 C 143.183 356.932,143.536 357.200,143.843 357.200 C 144.149 357.200,144.400 357.380,144.400 357.600 C 144.400 357.820,144.940 358.000,145.600 358.000 C 146.260 358.000,146.800 358.203,146.800 358.450 C 146.800 358.737,147.236 358.813,148.000 358.660 C 148.899 358.480,149.200 358.568,149.200 359.010 C 149.200 359.334,149.560 359.600,150.000 359.600 C 150.440 359.600,150.800 359.801,150.800 360.047 C 150.800 360.309,151.218 360.413,151.810 360.300 C 152.457 360.177,152.942 360.325,153.159 360.713 C 153.371 361.092,153.819 361.236,154.350 361.097 C 154.888 360.956,155.330 361.104,155.550 361.497 C 155.774 361.897,156.211 362.038,156.774 361.891 C 157.346 361.741,157.729 361.871,157.880 362.265 C 158.052 362.713,158.458 362.803,159.461 362.615 C 160.474 362.425,160.869 362.516,161.047 362.978 C 161.209 363.401,161.584 363.519,162.242 363.354 C 162.971 363.171,163.200 363.276,163.200 363.792 C 163.200 364.362,163.456 364.427,164.800 364.200 C 166.113 363.978,166.400 364.045,166.400 364.570 C 166.400 365.092,166.693 365.163,168.000 364.954 C 169.320 364.743,169.600 364.812,169.600 365.354 C 169.600 365.895,169.880 365.965,171.200 365.754 C 172.531 365.541,172.800 365.610,172.800 366.167 C 172.800 366.715,173.053 366.789,174.196 366.574 C 175.286 366.370,175.647 366.457,175.845 366.973 C 176.049 367.504,176.432 367.584,177.792 367.380 C 179.127 367.180,179.538 367.260,179.728 367.757 C 179.921 368.259,180.345 368.337,181.785 368.140 C 183.319 367.930,183.600 367.996,183.600 368.565 C 183.600 369.153,183.909 369.205,186.000 368.968 C 188.066 368.734,188.400 368.788,188.400 369.351 C 188.400 369.920,188.768 369.971,191.200 369.745 C 193.667 369.516,194.000 369.566,194.000 370.162 C 194.000 370.798,198.171 370.768,199.300 370.124 C 200.115 369.659,199.627 351.200,198.800 351.200 C 198.360 351.200,198.000 351.020,198.000 350.800 C 198.000 350.571,196.800 350.400,195.200 350.400 C 193.600 350.400,192.400 350.229,192.400 350.000 C 192.400 349.780,191.410 349.600,190.200 349.600 C 188.990 349.600,188.000 349.420,188.000 349.200 C 188.000 348.978,186.933 348.800,185.600 348.800 C 184.267 348.800,183.200 348.622,183.200 348.400 C 183.200 348.180,182.480 348.000,181.600 348.000 C 180.720 348.000,180.000 347.820,180.000 347.600 C 180.000 347.380,179.100 347.200,178.000 347.200 C 176.900 347.200,176.000 347.020,176.000 346.800 C 176.000 346.580,175.381 346.400,174.624 346.400 C 173.867 346.400,173.136 346.220,173.000 346.000 C 172.864 345.780,172.313 345.600,171.776 345.600 C 171.239 345.600,170.800 345.420,170.800 345.200 C 170.800 344.980,170.080 344.800,169.200 344.800 C 168.320 344.800,167.600 344.620,167.600 344.400 C 167.600 344.180,167.060 344.000,166.400 344.000 C 165.740 344.000,165.200 343.820,165.200 343.600 C 165.200 343.380,164.660 343.200,164.000 343.200 C 163.340 343.200,162.800 343.045,162.800 342.856 C 162.800 342.667,161.768 342.405,160.506 342.275 C 159.245 342.145,158.150 341.850,158.073 341.619 C 157.996 341.389,157.498 341.200,156.967 341.200 C 156.435 341.200,156.000 341.020,156.000 340.800 C 156.000 340.580,155.460 340.400,154.800 340.400 C 154.140 340.400,153.600 340.220,153.600 340.000 C 153.600 339.780,153.240 339.600,152.800 339.600 C 152.360 339.600,152.000 339.420,152.000 339.200 C 152.000 338.980,151.460 338.800,150.800 338.800 C 150.140 338.800,149.600 338.620,149.600 338.400 C 149.600 338.180,149.240 338.000,148.800 338.000 C 148.360 338.000,148.000 337.820,148.000 337.600 C 148.000 337.380,147.460 337.200,146.800 337.200 C 146.140 337.200,145.600 337.020,145.600 336.800 C 145.600 336.580,145.240 336.400,144.800 336.400 C 144.360 336.400,144.000 336.220,144.000 336.000 C 144.000 335.780,143.640 335.600,143.200 335.600 C 142.760 335.600,142.400 335.420,142.400 335.200 C 142.400 334.980,142.130 334.800,141.800 334.800 C 141.470 334.800,141.200 334.620,141.200 334.400 C 141.200 334.180,140.660 334.000,140.000 334.000 C 139.340 334.000,138.800 333.820,138.800 333.600 C 138.800 333.380,138.440 333.200,138.000 333.200 C 137.560 333.200,137.200 333.020,137.200 332.800 C 137.200 332.580,136.840 332.400,136.400 332.400 C 135.960 332.400,135.600 332.220,135.600 332.000 C 135.600 331.780,135.280 331.600,134.888 331.600 C 134.497 331.600,133.917 331.240,133.600 330.800 C 133.283 330.360,132.703 330.000,132.312 330.000 C 131.920 330.000,131.600 329.820,131.600 329.600 C 131.600 329.380,131.240 329.200,130.800 329.200 C 130.360 329.200,130.000 329.020,130.000 328.800 C 130.000 328.580,129.640 328.400,129.200 328.400 C 128.760 328.400,128.400 328.220,128.400 328.000 C 128.400 327.780,128.080 327.600,127.688 327.600 C 127.297 327.600,126.717 327.240,126.400 326.800 C 126.083 326.360,125.608 326.000,125.344 326.000 C 124.697 326.000,122.406 324.676,122.403 324.300 C 122.401 324.135,122.080 324.000,121.688 324.000 C 121.297 324.000,120.717 323.640,120.400 323.200 C 120.083 322.760,119.503 322.400,119.112 322.400 C 118.720 322.400,118.400 322.220,118.400 322.000 C 118.400 321.780,118.112 321.600,117.760 321.600 C 117.409 321.600,116.617 321.060,116.000 320.400 C 115.383 319.740,114.631 319.200,114.328 319.200 C 114.025 319.200,113.517 318.840,113.200 318.400 C 112.883 317.960,112.375 317.600,112.072 317.600 C 111.769 317.600,111.017 317.060,110.400 316.400 C 109.783 315.740,109.003 315.200,108.666 315.200 C 108.330 315.200,107.949 314.869,107.820 314.464 C 107.692 314.059,107.095 313.474,106.493 313.164 C 105.892 312.854,104.525 311.745,103.457 310.700 C 102.388 309.655,101.265 308.800,100.961 308.800 C 100.657 308.800,98.341 306.685,95.814 304.100 C 93.287 301.515,89.595 297.766,87.610 295.769 C 85.624 293.772,84.000 292.005,84.000 291.843 C 84.000 291.681,83.100 290.671,82.000 289.600 C 80.900 288.529,80.000 287.442,80.000 287.186 C 80.000 286.930,79.460 286.217,78.800 285.600 C 78.140 284.983,77.600 284.263,77.600 284.000 C 77.600 283.737,77.060 283.017,76.400 282.400 C 75.740 281.783,75.200 281.034,75.200 280.735 C 75.200 280.436,74.750 279.707,74.200 279.113 C 73.650 278.520,73.200 277.800,73.200 277.514 C 73.200 277.227,72.840 276.768,72.400 276.493 C 71.960 276.218,71.600 275.725,71.600 275.397 C 71.600 275.068,71.420 274.800,71.200 274.800 C 70.980 274.800,70.800 274.480,70.800 274.088 C 70.800 273.697,70.440 273.117,70.000 272.800 C 69.560 272.483,69.200 271.903,69.200 271.512 C 69.200 271.120,69.020 270.800,68.800 270.800 C 68.580 270.800,68.400 270.480,68.400 270.088 C 68.400 269.697,68.040 269.117,67.600 268.800 C 67.160 268.483,66.800 267.903,66.800 267.512 C 66.800 267.120,66.620 266.800,66.400 266.800 C 66.180 266.800,66.000 266.440,66.000 266.000 C 66.000 265.560,65.820 265.200,65.600 265.200 C 65.380 265.200,65.200 264.840,65.200 264.400 C 65.200 263.960,65.020 263.600,64.800 263.600 C 64.580 263.600,64.400 263.240,64.400 262.800 C 64.400 262.360,64.220 262.000,64.000 262.000 C 63.780 262.000,63.600 261.640,63.600 261.200 C 63.600 260.760,63.420 260.400,63.200 260.400 C 62.980 260.400,62.800 260.040,62.800 259.600 C 62.800 259.160,62.620 258.800,62.400 258.800 C 62.180 258.800,62.000 258.530,62.000 258.200 C 62.000 257.870,61.820 257.600,61.600 257.600 C 61.380 257.600,61.200 257.240,61.200 256.800 C 61.200 256.360,61.020 256.000,60.800 256.000 C 60.580 256.000,60.400 255.640,60.400 255.200 C 60.400 254.760,60.220 254.400,60.000 254.400 C 59.780 254.400,59.600 254.040,59.600 253.600 C 59.600 253.160,59.420 252.800,59.200 252.800 C 58.980 252.800,58.800 252.260,58.800 251.600 C 58.800 250.940,58.626 250.400,58.414 250.400 C 58.201 250.400,57.908 249.500,57.762 248.400 C 57.616 247.300,57.340 246.400,57.148 246.400 C 56.957 246.400,56.800 245.860,56.800 245.200 C 56.800 244.540,56.620 244.000,56.400 244.000 C 56.180 244.000,56.000 243.550,56.000 243.000 C 56.000 242.450,55.820 242.000,55.600 242.000 C 55.380 242.000,55.200 241.460,55.200 240.800 C 55.200 240.140,55.020 239.600,54.800 239.600 C 54.580 239.600,54.400 239.060,54.400 238.400 C 54.400 237.740,54.220 237.200,54.000 237.200 C 53.780 237.200,53.600 236.480,53.600 235.600 C 53.600 234.720,53.420 234.000,53.200 234.000 C 52.980 234.000,52.800 233.280,52.800 232.400 C 52.800 231.520,52.620 230.800,52.400 230.800 C 52.180 230.800,52.000 230.080,52.000 229.200 C 52.000 228.320,51.820 227.600,51.600 227.600 C 51.380 227.600,51.200 226.790,51.200 225.800 C 51.200 224.810,51.020 224.000,50.800 224.000 C 50.578 224.000,50.400 222.933,50.400 221.600 C 50.400 220.267,50.222 219.200,50.000 219.200 C 49.767 219.200,49.600 217.867,49.600 216.000 C 49.600 214.133,49.433 212.800,49.200 212.800 C 48.941 212.800,48.800 208.000,48.800 199.200 C 48.800 190.400,48.941 185.600,49.200 185.600 C 49.433 185.600,49.600 184.267,49.600 182.400 C 49.600 180.533,49.767 179.200,50.000 179.200 C 50.220 179.200,50.400 178.210,50.400 177.000 C 50.400 175.790,50.580 174.800,50.800 174.800 C 51.020 174.800,51.200 173.900,51.200 172.800 C 51.200 171.700,51.380 170.800,51.600 170.800 C 51.820 170.800,52.000 170.080,52.000 169.200 C 52.000 168.320,52.180 167.600,52.400 167.600 C 52.620 167.600,52.800 166.880,52.800 166.000 C 52.800 165.120,52.980 164.400,53.200 164.400 C 53.420 164.400,53.600 163.680,53.600 162.800 C 53.600 161.920,53.780 161.200,54.000 161.200 C 54.220 161.200,54.400 160.660,54.400 160.000 C 54.400 159.340,54.580 158.800,54.800 158.800 C 55.020 158.800,55.200 158.350,55.200 157.800 C 55.200 157.250,55.380 156.800,55.600 156.800 C 55.820 156.800,56.000 156.260,56.000 155.600 C 56.000 154.940,56.180 154.400,56.400 154.400 C 56.620 154.400,56.800 153.860,56.800 153.200 C 56.800 152.540,56.957 152.000,57.148 152.000 C 57.340 152.000,57.616 151.100,57.762 150.000 C 57.908 148.900,58.201 148.000,58.414 148.000 C 58.626 148.000,58.800 147.460,58.800 146.800 C 58.800 146.140,58.980 145.600,59.200 145.600 C 59.420 145.600,59.600 145.240,59.600 144.800 C 59.600 144.360,59.780 144.000,60.000 144.000 C 60.220 144.000,60.400 143.640,60.400 143.200 C 60.400 142.760,60.580 142.400,60.800 142.400 C 61.020 142.400,61.200 142.130,61.200 141.800 C 61.200 141.470,61.380 141.200,61.600 141.200 C 61.820 141.200,62.000 140.840,62.000 140.400 C 62.000 139.960,62.180 139.600,62.400 139.600 C 62.620 139.600,62.800 139.240,62.800 138.800 C 62.800 138.360,62.980 138.000,63.200 138.000 C 63.420 138.000,63.600 137.640,63.600 137.200 C 63.600 136.760,63.780 136.400,64.000 136.400 C 64.220 136.400,64.400 136.040,64.400 135.600 C 64.400 135.160,64.580 134.800,64.800 134.800 C 65.020 134.800,65.200 134.440,65.200 134.000 C 65.200 133.560,65.380 133.200,65.600 133.200 C 65.820 133.200,66.000 132.840,66.000 132.400 C 66.000 131.960,66.180 131.600,66.400 131.600 C 66.620 131.600,66.800 131.280,66.800 130.888 C 66.800 130.497,67.160 129.917,67.600 129.600 C 68.040 129.283,68.400 128.703,68.400 128.312 C 68.400 127.920,68.580 127.600,68.800 127.600 C 69.020 127.600,69.200 127.280,69.200 126.888 C 69.200 126.497,69.560 125.917,70.000 125.600 C 70.440 125.283,70.800 124.793,70.800 124.512 C 70.800 124.230,70.980 124.000,71.200 124.000 C 71.420 124.000,71.600 123.640,71.600 123.200 C 71.600 122.760,71.750 122.400,71.932 122.400 C 72.115 122.400,72.520 121.905,72.832 121.300 C 73.145 120.695,73.805 119.752,74.300 119.204 C 74.795 118.656,75.200 117.964,75.200 117.665 C 75.200 117.366,75.740 116.617,76.400 116.000 C 77.060 115.383,77.600 114.663,77.600 114.400 C 77.600 114.137,78.140 113.417,78.800 112.800 C 79.460 112.183,80.000 111.462,80.000 111.197 C 80.000 110.932,80.900 109.870,82.000 108.837 C 83.100 107.804,84.000 106.831,84.000 106.675 C 84.000 106.390,88.141 102.068,95.089 95.100 C 99.762 90.414,100.667 89.600,101.212 89.600 C 101.454 89.600,102.529 88.700,103.600 87.600 C 104.671 86.500,105.724 85.600,105.938 85.600 C 106.153 85.600,106.783 85.060,107.339 84.400 C 107.894 83.740,108.558 83.200,108.814 83.200 C 109.070 83.200,109.783 82.660,110.400 82.000 C 111.017 81.340,111.769 80.800,112.072 80.800 C 112.375 80.800,112.883 80.440,113.200 80.000 C 113.517 79.560,114.025 79.200,114.328 79.200 C 114.631 79.200,115.383 78.660,116.000 78.000 C 116.617 77.340,117.409 76.800,117.760 76.800 C 118.112 76.800,118.400 76.620,118.400 76.400 C 118.400 76.180,118.760 76.000,119.200 76.000 C 119.640 76.000,120.000 75.823,120.000 75.608 C 120.000 75.392,120.437 75.106,120.971 74.972 C 121.504 74.838,122.252 74.384,122.633 73.964 C 123.013 73.544,123.566 73.200,123.862 73.200 C 124.158 73.200,124.400 73.020,124.400 72.800 C 124.400 72.580,124.720 72.400,125.112 72.400 C 125.503 72.400,126.083 72.040,126.400 71.600 C 126.717 71.160,127.297 70.800,127.688 70.800 C 128.080 70.800,128.400 70.620,128.400 70.400 C 128.400 70.180,128.760 70.000,129.200 70.000 C 129.640 70.000,130.000 69.820,130.000 69.600 C 130.000 69.380,130.360 69.200,130.800 69.200 C 131.240 69.200,131.600 69.020,131.600 68.800 C 131.600 68.580,131.920 68.400,132.312 68.400 C 132.703 68.400,133.283 68.040,133.600 67.600 C 133.917 67.160,134.497 66.800,134.888 66.800 C 135.280 66.800,135.600 66.620,135.600 66.400 C 135.600 66.180,135.960 66.000,136.400 66.000 C 136.840 66.000,137.200 65.820,137.200 65.600 C 137.200 65.380,137.560 65.200,138.000 65.200 C 138.440 65.200,138.800 65.020,138.800 64.800 C 138.800 64.580,139.340 64.400,140.000 64.400 C 140.660 64.400,141.200 64.220,141.200 64.000 C 141.200 63.780,141.470 63.600,141.800 63.600 C 142.130 63.600,142.400 63.420,142.400 63.200 C 142.400 62.980,142.760 62.800,143.200 62.800 C 143.640 62.800,144.000 62.620,144.000 62.400 C 144.000 62.180,144.360 62.000,144.800 62.000 C 145.240 62.000,145.600 61.820,145.600 61.600 C 145.600 61.380,146.140 61.200,146.800 61.200 C 147.460 61.200,148.000 61.020,148.000 60.800 C 148.000 60.580,148.360 60.400,148.800 60.400 C 149.240 60.400,149.600 60.220,149.600 60.000 C 149.600 59.780,150.140 59.600,150.800 59.600 C 151.460 59.600,152.000 59.420,152.000 59.200 C 152.000 58.980,152.360 58.800,152.800 58.800 C 153.240 58.800,153.600 58.641,153.600 58.446 C 153.600 58.251,154.590 57.968,155.800 57.817 C 157.010 57.666,158.000 57.375,158.000 57.171 C 158.000 56.967,158.360 56.800,158.800 56.800 C 159.240 56.800,159.600 56.620,159.600 56.400 C 159.600 56.180,160.320 56.000,161.200 56.000 C 162.080 56.000,162.800 55.820,162.800 55.600 C 162.800 55.380,163.340 55.200,164.000 55.200 C 164.660 55.200,165.200 55.020,165.200 54.800 C 165.200 54.580,165.740 54.400,166.400 54.400 C 167.060 54.400,167.600 54.220,167.600 54.000 C 167.600 53.780,168.320 53.600,169.200 53.600 C 170.080 53.600,170.800 53.420,170.800 53.200 C 170.800 52.980,171.340 52.800,172.000 52.800 C 172.660 52.800,173.200 52.620,173.200 52.400 C 173.200 52.180,173.830 52.000,174.600 52.000 C 175.370 52.000,176.000 51.820,176.000 51.600 C 176.000 51.380,176.900 51.200,178.000 51.200 C 179.100 51.200,180.000 51.020,180.000 50.800 C 180.000 50.580,180.720 50.400,181.600 50.400 C 182.480 50.400,183.200 50.220,183.200 50.000 C 183.200 49.778,184.267 49.600,185.600 49.600 C 186.933 49.600,188.000 49.422,188.000 49.200 C 188.000 48.980,188.990 48.800,190.200 48.800 C 191.410 48.800,192.400 48.620,192.400 48.400 C 192.400 48.171,193.600 48.000,195.200 48.000 C 196.800 48.000,198.000 47.829,198.000 47.600 C 198.000 47.380,198.360 47.200,198.800 47.200 C 199.966 47.200,200.064 28.585,198.900 28.256 C 196.173 27.484,194.107 27.546,193.883 28.406 M200.400 65.005 L 200.400 74.811 213.500 74.705 L 226.600 74.600 226.707 64.900 L 226.814 55.200 213.607 55.200 L 200.400 55.200 200.400 65.005 M256.893 64.900 L 257.000 74.600 311.900 74.701 L 366.800 74.803 366.800 65.001 L 366.800 55.200 311.793 55.200 L 256.786 55.200 256.893 64.900 M231.072 75.461 C 230.923 75.611,230.800 102.883,230.800 136.067 L 230.800 196.400 243.401 196.400 L 256.003 196.400 255.901 135.900 L 255.800 75.400 243.572 75.294 C 236.847 75.236,231.222 75.311,231.072 75.461 M230.800 264.800 L 230.800 325.200 243.400 325.200 L 256.000 325.200 256.000 264.800 L 256.000 204.400 243.400 204.400 L 230.800 204.400 230.800 264.800 M200.667 326.267 C 200.520 326.413,200.400 330.823,200.400 336.067 L 200.400 345.600 204.000 345.600 C 206.133 345.600,207.600 345.763,207.600 346.000 C 207.600 346.256,211.067 346.400,217.200 346.400 L 226.800 346.400 226.800 336.200 L 226.800 326.000 213.867 326.000 C 206.753 326.000,200.813 326.120,200.667 326.267 M256.800 336.199 L 256.800 346.400 311.407 346.400 L 366.014 346.400 365.907 336.300 L 365.800 326.200 311.300 326.099 L 256.800 325.997 256.800 336.199 M230.800 361.769 L 230.800 371.539 243.300 371.469 L 255.800 371.400 255.907 361.700 L 256.014 352.000 243.407 352.000 L 230.800 352.000 230.800 361.769 " stroke="none" fill="#74a44c" fill-rule="evenodd"></path></g></svg>