<svg id="svg" version="1.1" viewBox="0 0 300 300" width="300" height="300" xmlns="http://www.w3.org/2000/svg"><svg xmlns="http://www.w3.org/2000/svg"><defs><clipPath id="clip-1"><rect x="0" y="0" transform="scale(0.14648,0.14648)" width="2048" height="2048" fill="none"/></clipPath></defs><g clip-path="url(#clip-1)" fill="none" fill-rule="nonzero" stroke="none" stroke-width="1" stroke-linecap="butt" stroke-linejoin="miter" stroke-miterlimit="10" stroke-dasharray="" stroke-dashoffset="0" font-family="none" font-weight="none" font-size="none" text-anchor="none" style="mix-blend-mode: normal"><path d="M147.64453,9.45429c2.31152,-0.07676 4.3623,-0.13255 6.65332,0.26821c0.98584,0.17224 2.34082,0.66209 3.12891,0.73315c1.54248,-0.03047 7.0708,1.92419 8.57959,2.70001c7.08105,3.63876 12.0293,9.25907 17.5752,14.81552l16.95117,16.97593l54.71484,54.76201l27.43652,27.4522l8.01416,7.99512c4.11182,4.09424 7.57178,7.07065 8.64111,13.05498c0.12451,0.70166 0.4292,2.10498 0.66064,2.73926v2.95459l-0.04248,0.11572c-0.46436,1.31689 -0.69727,2.71582 -1.23047,4.19678c-1.65088,4.72119 -5.1167,8.58838 -9.62842,10.74609c-2.77881,1.3374 -4.75049,1.60254 -7.74316,1.86475c0.19189,2.38623 -0.06592,7.13086 -0.06592,9.81006v23.21484l-0.00293,54.42041c0.00146,10.69482 -0.14941,21.84082 0.12891,32.49902c-5.521,-0.37939 -13.74902,-0.14209 -19.43701,-0.14209l-35.78906,0.00586l-25.87354,0.00293c-3.16846,-0.00146 -10.27441,-0.20361 -13.09424,0.08789l-0.65479,-0.01465c-0.70605,-0.15674 -5.34082,-0.09814 -6.32227,-0.09668l-14.90625,0.01904l-33.4771,-0.00439c-5.77852,-0.00146 -12.81504,-0.20068 -18.46348,0.09375c-0.13828,0.03369 -0.4377,0.00879 -0.59722,0.00439c-0.83291,-0.1582 -5.2519,-0.10107 -6.31406,-0.10107l-13.97563,0.00732l-48.36724,-0.00439l-15.02007,0.01758c-2.6625,0.00586 -5.43193,0.06006 -8.08989,-0.06006c-1.23457,-0.05566 -1.46821,-0.43652 -2.21719,-1.31543c-0.22559,-2.43604 -0.11323,-6.19189 -0.11147,-8.72754l0.00396,-14.91504l0.00293,-48.94629l0.00132,-32.79639c0.00864,-2.6499 0.00176,-5.2998 -0.02065,-7.94824c-0.02021,-1.28027 -0.16436,-4.09424 -0.01846,-5.1709c-0.42114,-0.09229 -1.26782,-0.0791 -1.80747,-0.17139c-2.53049,-0.43213 -4.8287,-0.61816 -7.05552,-2.00391c-4.84708,-3.01758 -7.96644,-7.36084 -9.39761,-12.80713c-0.11124,-0.4292 -0.21499,-0.59619 -0.41352,-0.98145v-4.55127l0.20086,-0.06592c0.30863,-0.74854 0.38903,-1.61719 0.51337,-2.43018c0.46666,-1.7042 1.12248,-3.61128 2.10397,-5.08521c2.96263,-4.42661 6.8136,-7.77905 10.60456,-11.55645l13.56171,-13.55391l52.33506,-52.33989l32.35547,-32.36235l9.04761,-9.04541c2.27271,-2.27168 4.46045,-4.64941 7.0251,-6.57085c1.08135,-0.54653 2.56245,-1.71108 3.61304,-2.25454c3.04058,-1.57274 7.71533,-4.22142 11.08169,-4.50447c1.08911,-0.13585 2.81016,-0.592 3.92227,-0.87478c0.33062,-0.06158 0.92681,-0.11389 1.27983,-0.15519z" fill="#7f94a2"/><path d="M147.64453,9.45429c2.31152,-0.07676 4.3623,-0.13255 6.65332,0.26821c0.98584,0.17224 2.34082,0.66209 3.12891,0.73315c1.54248,-0.03047 7.0708,1.92419 8.57959,2.70001c7.08105,3.63876 12.0293,9.25907 17.5752,14.81552l16.95117,16.97593l54.71484,54.76201l27.43652,27.4522l8.01416,7.99512c4.11182,4.09424 7.57178,7.07065 8.64111,13.05498c0.12451,0.70166 0.4292,2.10498 0.66064,2.73926v2.95459l-0.04248,0.11572c-0.46436,1.31689 -0.69727,2.71582 -1.23047,4.19678c-1.65088,4.72119 -5.1167,8.58838 -9.62842,10.74609c-2.77881,1.3374 -4.75049,1.60254 -7.74316,1.86475c-3.24609,0.10107 -7.66699,-1.33887 -10.34033,-3.1875c-3.36768,-2.3291 -6.27832,-5.83594 -9.17285,-8.74072l-15.32959,-15.33823l-67.18359,-67.08428l-19.5249,-19.54995l-5.53271,-5.53169c-1.15723,-1.15591 -2.63525,-2.73003 -3.91699,-3.66855c-0.88037,0.00732 -1.34619,0.37969 -1.94971,0.97705c-3.37485,3.34438 -6.72202,6.72949 -10.08398,10.08662l-21.65156,21.64146l-65.52114,65.5396l-13.80498,13.80835c-2.36777,2.37598 -5.01665,5.21045 -7.55391,7.31543c-2.09004,1.73438 -8.59717,4.02686 -11.11509,3.67236c-0.42114,-0.09229 -1.26782,-0.0791 -1.80747,-0.17139c-2.53049,-0.43213 -4.8287,-0.61816 -7.05552,-2.00391c-4.84708,-3.01758 -7.96644,-7.36084 -9.39761,-12.80713c-0.11124,-0.4292 -0.21499,-0.59619 -0.41352,-0.98145v-4.55127l0.20086,-0.06592c0.30863,-0.74854 0.38903,-1.61719 0.51337,-2.43018c0.46666,-1.7042 1.12248,-3.61128 2.10397,-5.08521c2.96263,-4.42661 6.8136,-7.77905 10.60456,-11.55645l13.56171,-13.55391l52.33506,-52.33989l32.35547,-32.36235l9.04761,-9.04541c2.27271,-2.27168 4.46045,-4.64941 7.0251,-6.57085c1.08135,-0.54653 2.56245,-1.71108 3.61304,-2.25454c3.04058,-1.57274 7.71533,-4.22142 11.08169,-4.50447c1.08911,-0.13585 2.81016,-0.592 3.92227,-0.87478c0.33062,-0.06158 0.92681,-0.11389 1.27983,-0.15519z" fill="#fe0000"/><path d="M147.64453,9.45429c2.31152,-0.07676 4.3623,-0.13255 6.65332,0.26821c0.98584,0.17224 2.34082,0.66209 3.12891,0.73315c-1.604,0.23795 -3.22119,0.37021 -4.84277,0.3959c-1.12354,0.02688 -4.55713,0.2753 -5.24854,-0.38372c-0.0835,-0.53795 -0.0249,-0.41055 0.30908,-1.01355z" fill="#c97800"/><path d="M0,150.25342l0.20086,-0.06592c0.30863,-0.74854 0.38903,-1.61719 0.51337,-2.43018c0.5305,2.02734 0.77966,4.2627 0.10635,6.28418l-0.00691,-0.19043c-0.20257,0.71777 -0.28227,1.20996 -0.40015,1.93506c-0.11124,-0.4292 -0.21499,-0.59619 -0.41352,-0.98145z" fill="#ed1700"/><path d="M142.44243,10.48425c1.08911,-0.13585 2.81016,-0.592 3.92227,-0.87478l0.29399,0.65055c-0.4793,1.00961 -3.11675,0.25875 -4.21626,0.22422z" fill="#c97800"/><path d="M113.39648,176.75977c13.10317,-0.24902 26.94609,-0.03516 40.12061,-0.03369l22.5835,-0.00146c3.4043,-0.00146 7.11768,-0.09229 10.48828,-0.01904c-0.21826,12.27979 -0.04248,24.96533 -0.03955,37.29199l0.01758,76.71533c-0.70605,-0.15674 -5.34082,-0.09814 -6.32227,-0.09668l-14.90625,0.01904l-33.4771,-0.00439c-5.77852,-0.00146 -12.81504,-0.20068 -18.46348,0.09375l0.01362,-55.7373l0.01479,-36.82617c-0.00044,-7.08838 0.06943,-14.32324 -0.02974,-21.40137z" fill="#c97800"/><path d="M120.36357,233.40967c1.49399,-0.08936 2.99165,-0.09961 4.48682,-0.03223c1.14741,1.31104 2.57476,2.37598 3.81914,3.88037c0.12744,1.27002 0.08584,2.28369 0.0189,3.55078l-0.13257,0.17139c-0.64146,0.81592 -3.06152,3.58154 -4.07988,3.70313c-1.53428,0.12305 -2.9543,0.09814 -4.4833,0.06152c-0.57759,-0.74268 -2.97012,-3.02783 -3.7355,-3.79687c-0.11953,-1.2832 -0.12144,-2.57373 -0.00601,-3.85693c1.01338,-0.84375 3.04614,-3.37207 4.1124,-3.68115z" fill="#000100"/><path d="M120.05596,234.12744c1.57969,-0.06592 3.35933,-0.03955 4.95483,-0.04687c0.53042,0.78662 2.19624,2.30566 2.94976,3.03369c0.07515,1.30078 0.05493,2.44043 0.03311,3.73682c-0.91509,1.00635 -2.08389,2.28223 -3.11543,3.14502c-1.60562,0.06592 -3.32168,0.02637 -4.93652,0.01904c-0.77856,-0.93457 -2.13501,-2.21045 -3.02754,-3.10254c-0.02563,-1.24365 -0.00117,-2.53125 0.00615,-3.77783c0.81021,-0.65039 2.3228,-2.22656 3.13564,-3.00732z" fill="#fefe00"/><path d="M112.74946,175.92188c1.94824,0.20801 6.69199,0.0498 8.82437,0.04834l18.28242,-0.00439l31.13789,0.00146c5.23535,0.00146 11.14014,0.13477 16.33594,-0.0293c-0.1377,9.17432 -0.01758,18.66504 -0.01611,27.85986l0.00586,53.23535l0.00146,20.98096c0,4.12207 0.09521,8.63232 -0.09961,12.71338l-0.65479,-0.01465l-0.01758,-76.71533c-0.00293,-12.32666 -0.17871,-25.01221 0.03955,-37.29199c-3.37061,-0.07324 -7.08398,0.01758 -10.48828,0.01904l-22.5835,0.00146c-13.17451,-0.00146 -27.01743,-0.21533 -40.12061,0.03369c0.09917,7.07813 0.0293,14.31299 0.02974,21.40137l-0.01479,36.82617l-0.01362,55.7373c-0.13828,0.03369 -0.4377,0.00879 -0.59722,0.00439c-0.29033,-10.24365 -0.08394,-21.23291 -0.08716,-31.5293l0.00029,-58.31982l0.00337,-17.15186c0.00146,-2.45068 0.1021,-5.40967 0.03237,-7.80615z" fill="#000100"/></g></svg></svg>