<svg id="svg" version="1.1" viewBox="0 0 300 300" width="300" height="300" xmlns="http://www.w3.org/2000/svg"><svg xmlns="http://www.w3.org/2000/svg"><defs><clipPath id="clip-1"><rect x="0" y="0" transform="scale(0.14648,0.14648)" width="2048" height="2048" fill="none"/></clipPath></defs><g clip-path="url(#clip-1)" fill="none" fill-rule="nonzero" stroke="none" stroke-width="1" stroke-linecap="butt" stroke-linejoin="miter" stroke-miterlimit="10" stroke-dasharray="" stroke-dashoffset="0" font-family="none" font-weight="none" font-size="none" text-anchor="none" style="mix-blend-mode: normal"><path d="M74.24897,0h132.22075l0.01465,0.33762c1.3623,1.10079 3.21826,3.05489 4.51318,4.34976l7.31982,7.32918l23.45654,23.46034l26.0127,26.01431l8.12842,8.11143c1.64795,1.64443 3.72363,3.62051 5.17822,5.38213c0.49365,1.40317 0.19336,17.98081 0.19336,21.22529c-0.00146,11.63042 0.21533,23.30479 -0.00439,34.93052l0.00439,104.82378l0.00293,29.46387c0.00586,6.33838 0.32959,13.11182 -0.5625,19.45313c-1.02393,7.29346 -7.96582,13.58496 -15.14941,14.69531c-0.82617,0.12744 -1.74609,-0.02344 -2.48145,0.42334h-188.93027c-0.42671,-0.28271 -2.37993,-0.52881 -2.95869,-0.65332c-8.13853,-1.77686 -13.78989,-8.2749 -14.60991,-16.51025c-0.68892,-6.91846 -0.32725,-13.52637 -0.41089,-20.42139c0.13491,-2.75098 0.02124,-6.27832 0.05405,-9.13184c-6.14341,-0.16406 -12.3208,-0.00879 -18.46406,-0.05127c-2.60479,-0.01904 -6.29517,0.13623 -8.80913,-0.08057h-0.13535c-4.79312,-0.00879 -9.40752,-2.81543 -9.97544,-8.00098c-0.33779,-3.0835 -0.15352,-6.76318 -0.15176,-9.89941l0.00044,-19.3623l-0.00425,-64.08398c0.04424,-4.70068 1.35776,-9.72803 6.95039,-10.86255c3.3252,-0.67456 8.08667,-0.32798 11.60435,-0.3457c6.06094,-0.03047 12.19849,-0.05977 18.26646,0.02695l0.51035,-0.11089c0.06182,-0.07998 0.12363,-0.15981 0.18545,-0.23965c-0.04687,-1.91484 -0.01597,-6.68394 -0.01333,-8.26582l-0.01772,-28.9604c0.0583,-2.10322 0.04863,-4.37593 0.02754,-6.48296l0.052,-0.39595c-2.40059,-0.04922 -9.82397,-0.47446 -11.76343,0.48999c-0.41265,0.20522 -0.85078,0.46069 -1.30063,0.56968c-1.11226,0.26924 -2.16079,-0.48589 -3.04409,-1.06304c-3.15557,0.06416 -6.85415,0.33105 -9.11338,-2.31987c-2.00435,-2.35181 -1.78228,-4.94736 -1.77905,-7.8082c0.0022,-1.9106 -0.00088,-3.84302 -0.00059,-5.75801l0.00732,-19.98486l-0.07354,-24.77227c-0.0019,-3.16362 -0.1894,-9.18955 0.07222,-12.14956c0.25474,-8.78971 5.76577,-8.06484 12.40752,-8.17251c4.84819,-0.07866 10.23926,0.24111 15.02432,0.01611c0.23394,-0.90275 0.58887,-2.03621 0.92168,-2.90186c2.06646,-5.48632 6.56851,-9.69842 12.18003,-11.39558c1.18564,-0.36265 3.52471,-0.41875 4.44419,-0.91775z" fill="#a40000"/><path d="M55.52212,140.62339l32.14263,-0.00879l7.23369,0.00337c0.88389,0.00542 3.71191,0.0791 4.4625,-0.075l0.11514,-0.2502c0.2436,0.8915 0.43022,1.15122 0.89238,1.92173c1.9541,0.99639 5.35415,2.14146 7.48008,2.87461l9.5332,3.36108c2.66558,0.92139 5.25732,1.69043 7.83472,2.86084c1.13159,-0.45264 1.74961,-0.7793 2.20137,-2.00098c0.93574,-2.53418 1.08647,-6.1582 1.76704,-8.68535l73.87324,-0.00366l22.01221,-0.00059c2.69824,-0.00088 8.7041,-0.18325 11.16064,0.11426c1.89697,0.23555 3.65918,1.09819 5.00977,2.45068c1.2627,1.26343 2.39648,3.52749 2.46094,5.30142c0.12305,3.44824 0.05566,7.01807 0.04834,10.46631l-0.00439,21.0791l0.00146,42.02197c0,6.89209 0.01758,13.78271 0.00879,20.6748c-0.00293,1.77832 -0.19482,2.89453 -0.64014,4.57324c0.96094,2.34082 0.90967,6.94043 -0.09229,9.30029c-1.59082,3.74414 -5.25879,6.15527 -9.36328,5.88428c-13.87939,0.01465 -27.73828,0.01172 -41.60742,0.01025l-80.67627,-0.00586h-37.87661l-11.45581,0.00732c-1.39775,0 -4.60869,0.07617 -5.85762,-0.0835c0.13491,-2.75098 0.02124,-6.27832 0.05405,-9.13184c-6.14341,-0.16406 -12.3208,-0.00879 -18.46406,-0.05127c-2.60479,-0.01904 -6.29517,0.13623 -8.80913,-0.08057h-0.13535c-4.79312,-0.00879 -9.40752,-2.81543 -9.97544,-8.00098c-0.33779,-3.0835 -0.15352,-6.76318 -0.15176,-9.89941l0.00044,-19.3623l-0.00425,-64.08398c0.04424,-4.70068 1.35776,-9.72803 6.95039,-10.86255c3.3252,-0.67456 8.08667,-0.32798 11.60435,-0.3457c6.06094,-0.03047 12.19849,-0.05977 18.26646,0.02695z" fill="#fe960c"/><path d="M243.11572,247.30225c0.96094,2.34082 0.90967,6.94043 -0.09229,9.30029c-1.59082,3.74414 -5.25879,6.15527 -9.36328,5.88428c-13.87939,0.01465 -27.73828,0.01172 -41.60742,0.01025l-80.67627,-0.00586h-37.87661l-11.45581,0.00732c-1.39775,0 -4.60869,0.07617 -5.85762,-0.0835c0.13491,-2.75098 0.02124,-6.27832 0.05405,-9.13184c-6.14341,-0.16406 -12.3208,-0.00879 -18.46406,-0.05127c-2.60479,-0.01904 -6.29517,0.13623 -8.80913,-0.08057c1.97915,-0.10986 4.55889,-0.04102 6.57598,-0.04102l11.83198,0.00439l36.43799,0.01904l112.45825,-0.00439l25.78857,-0.00146c4.28906,0 8.59863,0.07471 12.88477,-0.03516c3.69141,-0.09521 6.70459,-2.51221 8.1709,-5.79053z" fill="#780000"/><path d="M202.7915,219.12451c-8.51953,4.48389 -22.66406,5.40967 -31.83252,2.65283c-15.05273,-4.5249 -19.57617,-20.55762 -15.06592,-34.34473c2.00977,-6.27246 6.46143,-11.47266 12.34863,-14.42725c5.29834,-2.6543 11.11816,-3.48779 17.04053,-3.67529c2.20166,-0.07031 4.93506,0.68115 7.20264,0.6958c2.58252,0.3208 3.95801,0.96533 6.81738,1.07666c-0.12305,4.48682 0.01611,9.16113 -0.07324,13.72559c-9.2915,-3.75293 -22.94531,-5.84033 -27.6416,5.93408c-0.33838,0.84814 -0.62402,1.92334 -0.63867,2.8418c0.18896,0.81006 0.12744,6.08936 0.07471,7.13525c0.83789,5.51953 5.5752,10.11621 11.25586,10.19385c1.21729,0.01611 3.90967,0.19336 4.86475,-0.45117c0.58008,-0.93311 0.35156,-6.35303 0.34424,-7.72852c-1.98779,0.03662 -6.58301,-0.05273 -8.31006,0.13916c-0.54639,0.11865 -1.52344,0.15527 -2.11377,0.19629c-0.06738,-3.8335 -0.06592,-7.70361 -0.04248,-11.53857c0.00293,-0.5376 -0.05127,-0.51855 0.22559,-0.77637l0.2666,0.08643c0.83936,0.16846 8.23535,0.11426 9.53613,0.07178c4.99512,-0.16406 10.84717,0.2124 15.72803,-0.0293c0.01025,9.2417 0.18457,19.02539 0.01318,28.22168z" fill="#3c3c3c"/><path d="M177.06445,203.08887c-0.06738,-3.8335 -0.06592,-7.70361 -0.04248,-11.53857c0.00293,-0.5376 -0.05127,-0.51855 0.22559,-0.77637l0.2666,0.08643c0.02197,1.54395 -0.14355,11.52832 0.24756,11.94873c0.60645,0.10547 0.79395,0.09521 1.4165,0.0835c-0.54639,0.11865 -1.52344,0.15527 -2.11377,0.19629z" fill="#fefefe"/><path d="M170.94873,193.604c0.18896,0.81006 0.12744,6.08936 0.07471,7.13525c-0.25928,-2.15332 -0.97559,-4.99072 -0.07471,-7.13525z" fill="#fff7cd"/><path d="M134.77544,170.41553l0.08262,-0.31494c0.66797,-0.22266 14.78599,-0.12158 16.45737,-0.0542l0.14502,0.16406l-0.15381,0.18604c-0.67236,1.13086 -1.27881,3.46143 -1.76807,4.82227c-1.49121,4.14258 -2.64258,8.50488 -4.0084,12.65332l-7.62275,22.89111c-1.19106,3.57129 -2.93701,8.3291 -3.89561,11.89453c-5.57856,-0.1333 -11.74849,-0.03223 -17.33188,0.00879c-2.24897,-6.42187 -4.34722,-12.95361 -6.30894,-19.46484c-1.45386,-4.82666 -3.41807,-9.82324 -4.87573,-14.6543c-1.27441,-4.22461 -2.51572,-8.39062 -3.98145,-12.56104c-0.59033,-1.68018 -1.23354,-4.01807 -2.02515,-5.56201l-0.13184,-0.27539c0.47505,-0.2373 15.29722,-0.10547 17.02676,-0.0791c0.20464,0.14941 0.15308,0.05713 0.20273,0.24609c0.39521,3.08936 1.79692,8.28223 2.58955,11.41846l4.19429,16.74023c0.66577,2.68213 1.36392,5.35986 1.81802,8.08594c0.11338,0.68115 0.18164,1.23779 0.4314,1.89111l0.24785,0.06738c0.59282,-0.64746 1.17686,-5.09326 1.50776,-6.48193l5.52993,-23.17236c0.42715,-1.81201 1.87676,-6.87598 1.87031,-8.44922z" fill="#3c3c3c"/><path d="M99.48867,170.42432l-0.13184,-0.27539c0.47505,-0.2373 15.29722,-0.10547 17.02676,-0.0791c0.20464,0.14941 0.15308,0.05713 0.20273,0.24609c-1.12734,0.25635 -5.45054,0.20508 -6.84214,0.1875c-3.30044,-0.04102 -6.98628,0.09521 -10.25552,-0.0791z" fill="#fff7cd"/><path d="M134.77544,170.41553l0.08262,-0.31494c0.66797,-0.22266 14.78599,-0.12158 16.45737,-0.0542l0.14502,0.16406l-0.15381,0.18604c-2.65137,0.17725 -5.92397,0.104 -8.61621,0.10254c-2.429,-0.00146 -5.54941,0.08936 -7.91499,-0.0835z" fill="#fff7cd"/><path d="M80.25923,206.54883c-3.68511,-3.7207 -5.39692,-3.61963 -10.0459,-5.76709c-7.25522,-3.35156 -10.79385,-7.5542 -10.49253,-15.72803c0.16099,-4.3623 0.78281,-6.28711 3.93911,-9.51123c3.92607,-4.01074 8.54751,-5.55322 14.02881,-5.80371c1.17524,-0.05273 2.46548,-0.37939 3.73916,-0.36035c2.54502,0.03516 5.0833,0.27246 7.59067,0.71045c2.41743,0.43213 3.41748,0.95508 6.00762,1.00781c-0.14033,4.29639 -0.01348,8.81836 -0.08848,13.17773c-5.79448,-2.69678 -11.07158,-4.23779 -17.42886,-2.50049c-1.5293,1.69922 -1.69058,3.02051 -0.81108,5.08301l0.17681,0.42627c2.51719,1.94238 6.19028,3.02783 8.97231,4.43262c5.19287,2.61914 10.71753,6.104 11.53403,12.31934c1.54673,11.77441 -6.37676,17.77148 -17.16211,19.08252c-4.53809,0.55078 -7.00737,0.0791 -11.34727,-0.18311c-2.28896,0.03955 -6.77959,-1.19824 -8.96191,-2.15918c-0.06914,-4.00488 0.03882,-8.02441 -0.08218,-12.0293c-0.02402,-0.79102 -0.10723,-1.51611 0.05537,-2.29395l0.20889,-0.12158l0.2981,0.23584c2.77471,2.98975 10.32964,5.33057 14.40117,5.53271c1.68794,0.0835 2.92515,-0.19043 4.18638,-1.36816c0.4311,-0.41016 0.85532,-0.82764 1.27251,-1.25244c0.00732,-0.95361 0.03398,-1.9834 0.00938,-2.92969z" fill="#3c3c3c"/><path d="M59.90962,220.77539c-0.06914,-4.00488 0.03882,-8.02441 -0.08218,-12.0293c-0.02402,-0.79102 -0.10723,-1.51611 0.05537,-2.29395l0.20889,-0.12158l0.2981,0.23584c-0.28696,3.74414 -0.02344,10.24805 -0.05669,14.25146c1.34546,0.15234 3.06636,0.86133 4.41943,1.22607c1.42163,0.38232 2.67041,0.62549 4.11899,0.89063c-2.28896,0.03955 -6.77959,-1.19824 -8.96191,-2.15918z" fill="#fefefe"/><path d="M56.70308,15.21519c3.62358,0.09668 7.60664,0.01699 11.25439,0.01421l19.98193,-0.0022l62.17925,-0.00044l23.49463,-0.00439c4.06201,-0.00337 8.2251,-0.11631 12.27539,0.09668c4.66699,0.24551 6.10107,4.84863 5.729,8.77075c-0.32373,3.4251 0.45264,8.59893 -0.10986,11.82583c0.16406,3.64673 0.09668,7.71138 0.09814,11.38022l0.00293,17.8437l-0.00146,15.78428c0,2.91592 0.0293,5.82671 -0.05127,8.74175c-0.04102,1.50674 -0.16406,1.84321 -0.61963,3.20112c-0.30615,0.34424 -1.06201,1.15327 -1.08838,1.6021c-0.61377,0.84565 -1.2627,1.11797 -2.20605,1.5605c-0.20215,0.04966 -0.98437,0.22646 -1.125,0.29941c-0.57861,0.23071 -1.14844,0.28945 -1.7666,0.29385c-6.60791,0.04658 -13.30957,0.03677 -19.91162,0.02651c-1.7373,-0.00264 -9.03809,0.11938 -10.35059,-0.11924c-0.65332,0.04995 -1.31689,0 -1.97314,-0.02783c-2.62646,0.27612 -6.69609,0.14897 -9.46523,0.14824l-16.50015,-0.00674l-18.052,0.00659c-2.47734,0.00205 -6.83364,0.1415 -9.18105,-0.03223l-0.33442,-0.3876c-0.88755,-0.72964 -2.46064,-3.52485 -3.6958,-4.83882c-1.14463,-0.07881 -1.87441,-0.03882 -3.02959,0.02666c-2.09385,1.85728 -1.70669,2.37803 -0.59575,4.76484c-1.91938,-0.17095 -6.62695,0.03193 -8.80195,0.03457l-17.0146,-0.00645c-3.04233,-0.00132 -6.58652,0.09741 -9.57817,-0.04336c-2.40059,-0.04922 -9.82397,-0.47446 -11.76343,0.48999c-0.41265,0.20522 -0.85078,0.46069 -1.30063,0.56968c-1.11226,0.26924 -2.16079,-0.48589 -3.04409,-1.06304c-3.15557,0.06416 -6.85415,0.33105 -9.11338,-2.31987c-2.00435,-2.35181 -1.78228,-4.94736 -1.77905,-7.8082c0.0022,-1.9106 -0.00088,-3.84302 -0.00059,-5.75801l0.00732,-19.98486l-0.07354,-24.77227c-0.0019,-3.16362 -0.1894,-9.18955 0.07222,-12.14956c0.25474,-8.78971 5.76577,-8.06484 12.40752,-8.17251c4.84819,-0.07866 10.23926,0.24111 15.02432,0.01611z" fill="#3c3c3c"/><path d="M56.70308,15.21519c3.62358,0.09668 7.60664,0.01699 11.25439,0.01421l19.98193,-0.0022l62.17925,-0.00044l23.49463,-0.00439c4.06201,-0.00337 8.2251,-0.11631 12.27539,0.09668c4.66699,0.24551 6.10107,4.84863 5.729,8.77075c-0.32373,3.4251 0.45264,8.59893 -0.10986,11.82583l-0.58887,-0.63105l-0.23145,0.0334c-0.98877,2.25044 -5.18262,7.26445 -6.94336,9.76421l-12.32812,17.5979c-1.48975,2.10703 -2.88721,4.29478 -4.4458,6.34248c-0.22852,-0.48691 -0.61963,-1.38853 -0.94189,-1.80249c-2.09619,-2.69678 -4.69629,-5.50898 -6.97119,-8.04888c-2.61621,-2.70835 -5.15771,-4.83809 -7.51172,-7.84365c-1.49121,-1.90386 -6.08848,-6.90879 -8.81118,-6.77651c-1.78843,0.08687 -5.32603,4.08911 -6.69858,5.4709l-6.89399,6.91582l-9.46187,9.44751c-1.83545,1.83311 -4.0043,3.90688 -5.7063,5.82363c-1.246,-1.25391 -2.21089,-2.73267 -3.38613,-3.93296c-2.01079,-2.05371 -3.78809,-4.21772 -5.69165,-6.33501l-11.95957,-13.1543c-1.03491,-1.1291 -2.08682,-2.12021 -3.20405,-3.33223c-3.05435,-3.31392 -6.32344,-7.56475 -9.6082,-10.54717c-1.4521,-1.31851 -5.82773,-2.2207 -7.11211,-0.1396c-1.53237,2.48306 -2.98125,5.28838 -4.46543,7.94619l-9.34526,16.50146c-1.50879,2.65269 -3.8439,7.03374 -5.5147,9.42788l-0.12407,0.17622c-4.57778,-3.17285 -9.19702,-6.2855 -13.85669,-9.33677c-3.37866,-2.25176 -6.96445,-4.72705 -10.40566,-6.84873c-0.09404,-9.68364 0.18003,-19.61191 -0.02871,-29.2623c0.25474,-8.78971 5.76577,-8.06484 12.40752,-8.17251c4.84819,-0.07866 10.23926,0.24111 15.02432,0.01611z" fill="#fe960c"/><path d="M113.20693,22.70845c7.84644,-0.90791 14.94258,4.71855 15.84756,12.56528c0.90483,7.84688 -4.72427,14.94082 -12.57144,15.84272c-7.84277,0.90146 -14.93218,-4.72397 -15.83657,-12.56646c-0.90454,-7.84248 4.71826,-14.93408 12.56045,-15.84155z" fill="#3c3c3c"/><path d="M113.02676,24.31055c6.93735,-1.00005 13.37871,3.79351 14.41318,10.72588c1.03433,6.93223 -3.72729,13.39746 -10.65439,14.46606c-6.97573,1.07637 -13.49634,-3.72612 -14.53799,-10.70713c-1.04165,-6.98115 3.79307,-13.47788 10.7792,-14.48481z" fill="#fe960c"/><path d="M113.81763,25.82842c12.98452,-0.95625 15.26177,19.27822 2.08755,21.58887c-13.51187,0.78677 -14.87461,-19.71636 -2.08755,-21.58887z" fill="#3c3c3c"/><path d="M98.98228,96.23027l34.48462,-0.0271l11.67026,0.00088c1.21494,0.00044 6.67192,-0.15513 7.37798,0.29795c-2.62646,0.27612 -6.69609,0.14897 -9.46523,0.14824l-16.50015,-0.00674l-18.052,0.00659c-2.47734,0.00205 -6.83364,0.1415 -9.18105,-0.03223z" fill="#fbddb2"/><path d="M154.48828,96.52983c1.18506,-0.77988 19.13086,-0.08804 22.23047,-0.33604c0.85986,-0.06885 9.26221,-0.01494 9.79834,0.13491c-0.57861,0.23071 -1.14844,0.28945 -1.7666,0.29385c-6.60791,0.04658 -13.30957,0.03677 -19.91162,0.02651c-1.7373,-0.00264 -9.03809,0.11938 -10.35059,-0.11924z" fill="#fbddb2"/><path d="M187.64209,96.0293c-0.03223,-0.09653 -0.00586,-0.20332 -0.00293,-0.30498c0.53027,-0.50435 1.46191,-1.1751 2.20898,-1.25552c-0.61377,0.84565 -1.2627,1.11797 -2.20605,1.5605z" fill="#fbddb2"/><path d="M206.48438,0.33762c1.3623,1.10079 3.21826,3.05489 4.51318,4.34976l7.31982,7.32918l23.45654,23.46034l26.0127,26.01431l8.12842,8.11143c1.64795,1.64443 3.72363,3.62051 5.17822,5.38213c-2.45361,0.11924 -5.00244,-0.00542 -7.46924,0.02754c-14.78174,0.19746 -29.71289,-0.27261 -44.48291,0.00586c-5.625,-0.24639 -9.01758,0.71821 -14.24414,-2.98257c-1.04443,-0.73916 -2.50928,-1.6459 -3.37646,-2.60801c-2.14307,-2.37437 -4.53516,-6.55635 -5.08008,-9.67954c-0.25049,-1.43262 -0.20947,-5.4939 -0.21094,-7.01411l-0.00293,-12.1541l0.00146,-25.75605c0,-1.7734 -0.16699,-13.86588 0.25635,-14.48616z" fill="#fe0b0a"/><path d="M91.66113,96.18296l0.03164,0.21182c0.87173,2.1334 1.74287,4.34722 2.70176,6.43579l11.17661,25.38062c1.34897,3.07266 3.05728,7.52446 4.47788,10.37212c-1.23369,-0.01172 -2.50166,-0.07134 -3.72803,-0.06313c-2.36104,0.01597 -5.62808,-0.94189 -6.84492,1.77261l-0.11514,0.2502c-0.75059,0.1541 -3.57861,0.08042 -4.4625,0.075l-7.23369,-0.00337l-32.14263,0.00879l0.51035,-0.11089c0.06182,-0.07998 0.12363,-0.15981 0.18545,-0.23965c-0.04687,-1.91484 -0.01597,-6.68394 -0.01333,-8.26582l-0.01772,-28.9604c0.0583,-2.10322 0.04863,-4.37593 0.02754,-6.48296l0.052,-0.39595c2.99165,0.14077 6.53584,0.04204 9.57817,0.04336l17.0146,0.00645c2.175,-0.00264 6.88257,-0.20552 8.80195,-0.03457z" fill="#a40000"/><path d="M91.66113,96.18296l0.03164,0.21182c0.87173,2.1334 1.74287,4.34722 2.70176,6.43579c-2.4438,0.38467 -6.62124,0.29692 -9.16201,0.29648l-13.22139,-0.00923l-10.33052,0.00688c-1.4228,0.00103 -4.20557,0.07822 -5.49375,-0.07808c0.0583,-2.10322 0.04863,-4.37593 0.02754,-6.48296l0.052,-0.39595c2.99165,0.14077 6.53584,0.04204 9.57817,0.04336l17.0146,0.00645c2.175,-0.00264 6.88257,-0.20552 8.80195,-0.03457z" fill="#780000"/><path d="M91.66113,96.18296l0.03164,0.21182c-0.61597,0.33208 -3.24756,0.23804 -4.12998,0.24272l-8.36279,0.01099l-14.39355,-0.00117c-2.74351,-0.00161 -5.88589,0.06504 -8.59204,-0.08364l0.052,-0.39595c2.99165,0.14077 6.53584,0.04204 9.57817,0.04336l17.0146,0.00645c2.175,-0.00264 6.88257,-0.20552 8.80195,-0.03457z" fill="#fbddb2"/><path d="M281.09326,74.98477c0.49365,1.40317 0.19336,17.98081 0.19336,21.22529c-0.00146,11.63042 0.21533,23.30479 -0.00439,34.93052l-0.20508,-0.61992c-1.23633,-0.86777 -4.41211,-4.1603 -5.64844,-5.39692l-10.26562,-10.2627c-13.18066,-13.17656 -26.51807,-26.8125 -39.83496,-39.80669c1.23779,0.08437 2.58398,0.11616 3.81299,-0.03618c14.77002,-0.27847 29.70117,0.1916 44.48291,-0.00586c2.4668,-0.03296 5.01563,0.0917 7.46924,-0.02754z" fill="#780000"/><path d="M92.25688,91.41812c1.15518,-0.06548 1.88496,-0.10547 3.02959,-0.02666c1.23516,1.31396 2.80825,4.10918 3.6958,4.83882l0.33442,0.3876c1.59683,2.39956 3.1957,4.45107 4.89771,6.76157c4.76499,7.26987 10.91777,14.33452 15.88169,21.55532c1.30605,1.90005 2.5856,3.65874 4.04268,5.446c1.12969,-2.1813 3.25986,-5.8856 4.60781,-7.9084c0.96973,-0.02607 1.90313,-0.07207 2.87065,0.00937c0.127,0.32637 0.63779,1.57061 0.58579,1.85698c-0.96665,5.32148 -1.76909,11.0499 -3.01816,16.28599c-0.68057,2.52715 -0.8313,6.15117 -1.76704,8.68535c-0.45176,1.22168 -1.06978,1.54834 -2.20137,2.00098c-2.57739,-1.17041 -5.16914,-1.93945 -7.83472,-2.86084l-9.5332,-3.36108c-2.12593,-0.73315 -5.52598,-1.87822 -7.48008,-2.87461c-0.46216,-0.77051 -0.64878,-1.03022 -0.89238,-1.92173c1.21685,-2.7145 4.48389,-1.75664 6.84492,-1.77261c1.22637,-0.0082 2.49434,0.05142 3.72803,0.06313c-1.42061,-2.84766 -3.12891,-7.29946 -4.47788,-10.37212l-11.17661,-25.38062c-0.95889,-2.08857 -1.83003,-4.30239 -2.70176,-6.43579l-0.03164,-0.21182c-1.11094,-2.38682 -1.4981,-2.90757 0.59575,-4.76484z" fill="#fefefe"/><path d="M190.93652,92.8667c0.67529,0.85781 0.64307,1.45122 0.51123,2.47983c-0.20361,1.58423 -1.02832,5.20503 -2.49609,6.07354c-3.62549,2.14614 -10.53516,1.70918 -14.38623,1.70815l-13.86768,-0.00718l-43.81699,0.00293c-1.90327,0.00015 -11.59819,-0.29224 -12.66636,0.25547c-1.702,-2.3105 -3.30088,-4.36201 -4.89771,-6.76157c2.34741,0.17373 6.70371,0.03428 9.18105,0.03223l18.052,-0.00659l16.50015,0.00674c2.76914,0.00073 6.83877,0.12788 9.46523,-0.14824c0.65625,0.02783 1.31982,0.07778 1.97314,0.02783c1.3125,0.23862 8.61328,0.1166 10.35059,0.11924c6.60205,0.01025 13.30371,0.02007 19.91162,-0.02651c0.61816,-0.00439 1.18799,-0.06313 1.7666,-0.29385c0.14063,-0.07295 0.92285,-0.24976 1.125,-0.29941c0.94336,-0.44253 1.59229,-0.71484 2.20605,-1.5605c0.02637,-0.44883 0.78223,-1.25786 1.08838,-1.6021z" fill="#780000"/></g></svg></svg>