<svg id="svg" version="1.1" viewBox="0 0 300 300" width="300" height="300" xmlns="http://www.w3.org/2000/svg"><svg xmlns="http://www.w3.org/2000/svg"><defs><clipPath id="clip-1"><rect x="0" y="0" transform="scale(0.14648,0.14648)" width="2048" height="2048" fill="none"/></clipPath></defs><g clip-path="url(#clip-1)" fill="none" fill-rule="nonzero" stroke="none" stroke-width="1" stroke-linecap="butt" stroke-linejoin="miter" stroke-miterlimit="10" stroke-dasharray="" stroke-dashoffset="0" font-family="none" font-weight="none" font-size="none" text-anchor="none" style="mix-blend-mode: normal"><path d="M0,63.30894c0.45623,-0.9249 0.96043,-6.67104 1.27113,-8.17471c1.12588,-5.45918 2.91702,-10.75986 5.33331,-15.78296c7.95328,-16.69761 22.05391,-29.16536 39.54502,-35.17673c10.86094,-3.73274 20.41421,-3.4974 31.68516,-3.4924l19.41958,0.00263l62.43574,-0.00001l50.77295,-0.00252l15.43506,-0.0016c4.2627,0.00023 9.53467,-0.01333 13.79004,0.3965c7.18799,0.72962 14.2002,2.67266 20.73779,5.74653c8.18555,3.87236 15.58008,9.23014 21.81006,15.80128c0.87891,0.94395 2.06396,2.50884 2.87256,3.54302c5.33643,6.69346 9.38232,14.32119 11.92969,22.49399c1.1543,3.67192 1.89111,7.34238 2.35547,11.15273c0.10107,0.82661 0.31641,2.17954 0.60645,2.9231v174.65039c-0.28418,0.66943 -0.52148,2.14893 -0.59766,2.88721c-1.41211,13.47217 -7.66846,25.64502 -16.10449,36.04541c-0.49365,0.60938 -0.37939,1.94824 -0.43945,2.71143c-0.57129,0.54639 -2.49756,0.30322 -3.0293,0.80859c-11.25732,10.71387 -25.45605,17.7876 -41.04785,19.15723c-4.79883,0.42188 -10.24072,0.40869 -15.37061,0.40723l-16.89404,-0.00293h-56.38184l-56.33687,0.00146l-17.26772,0.00146c-13.16821,-0.00146 -22.99204,-0.20508 -35.39414,-5.58838c-18.33662,-7.89844 -32.3059,-23.41553 -38.24128,-42.47754c-0.77253,-2.46973 -1.1993,-4.771 -1.72326,-7.27441c-0.34955,-1.66846 -0.55069,-5.73926 -1.17149,-7.10156z" fill="#fbfbfb"/><path d="M80.1312,33.73975c3.35405,-2.33848 10.71812,-5.85864 14.49741,-7.52812c24.78311,-10.98164 52.2835,-14.30373 78.96855,-9.53936c35.38916,6.25342 66.84082,26.31709 87.42773,55.77202c20.63379,29.58926 28.57764,66.20171 22.06201,101.68169c-6.44238,35.27051 -26.60303,66.54785 -56.06689,86.97949c-21.58887,14.97949 -44.76123,22.43994 -70.83252,24.02637c-6.25781,0.43506 -12.54331,0.30615 -18.779,-0.38379c-0.65903,-0.07764 -2.60068,-0.18164 -3.10166,-0.375c-0.7686,-0.01318 -1.69731,-0.1582 -2.47266,-0.25488c-30.35713,-4.03857 -58.4458,-18.25781 -79.673,-40.33301c-24.69609,-25.58643 -38.38469,-59.83154 -38.13135,-95.39209c0.39396,-30.19263 10.82168,-59.39634 29.64023,-83.01035c4.72456,-5.90771 8.32515,-9.48398 13.65762,-14.69224c5.08462,-5.09839 16.45122,-13.61704 22.80352,-16.95073z" fill="#f01257"/><path d="M57.32769,50.69048c5.08462,-5.09839 16.45122,-13.61704 22.80352,-16.95073c-0.49307,1.20908 -6.86191,4.06729 -6.57598,4.81904c0.45146,-0.21841 0.6082,-0.33018 1.00811,-0.60879l0.03911,0.08994c-5.00508,3.61465 -9.89912,6.88594 -14.45903,11.14116c-0.54536,0.50889 -1.9834,2.04712 -2.58589,1.98384z" fill="#fe1262"/><path d="M131.83418,284.11816c0.35361,-0.97559 1.92861,-0.67969 2.47983,0.04102c-0.00234,0.07178 -0.00483,0.14209 -0.00718,0.21387c-0.7686,-0.01318 -1.69731,-0.1582 -2.47266,-0.25488z" fill="#fe1262"/><path d="M125.41655,74.46035c16.17656,-0.20757 32.97261,-0.08833 49.16938,-0.01831l-0.00146,30.41733c0,6.51284 -0.12158,13.47524 0.0542,19.95908l23.21924,-0.00835c3.13477,0.00161 7.57324,0.17798 10.5293,0.02988c-1.5293,1.27559 -3.87305,3.76846 -5.33057,5.22876l-9.62402,9.62476l-30.64893,30.64146l-7.37256,7.39746c-1.28906,1.29346 -3.95947,4.35938 -5.66602,4.67285c-1.70215,-1.05322 -7.61602,-7.2085 -9.38101,-8.97363l-19.53237,-19.53076l-19.15972,-19.16221c-2.59644,-2.59688 -7.50542,-7.21714 -9.75132,-9.86968c2.73926,0.13037 7.44976,-0.04746 10.36318,-0.04893l23.1249,-0.00439z" fill="#fbfbfb"/><path d="M91.43232,200.4375c14.28003,-0.16553 28.80264,-0.03516 43.0979,-0.03516l72.85649,0.01025l0.01758,15.76318l-115.97095,0.02344z" fill="#fbfbfb"/></g></svg></svg>