<svg id="svg" version="1.1" xmlns="http://www.w3.org/2000/svg" xmlns:xlink="http://www.w3.org/1999/xlink" width="400" height="400" viewBox="0, 0, 400,400"><g id="svgg"><path id="path0" d="M127.969 1.133 C 127.625 1.201,126.570 1.405,125.625 1.586 C 119.609 2.741,112.203 8.425,108.006 15.111 C 94.547 36.548,117.331 61.685,140.000 50.409 C 143.771 48.533,150.713 41.421,152.143 37.969 C 154.663 31.884,154.806 31.232,154.826 25.781 C 154.853 18.080,153.439 14.543,148.070 8.892 C 142.146 2.655,134.746 -0.201,127.969 1.133 M127.215 12.560 C 136.410 16.983,145.955 28.385,145.931 34.914 C 145.913 39.550,141.556 43.456,136.875 43.031 C 129.843 42.392,118.514 32.693,114.461 23.841 C 110.509 15.208,118.334 8.286,127.215 12.560 M88.938 33.203 C 86.840 35.315,84.368 39.862,83.292 43.590 C 82.995 44.619,82.546 45.859,82.294 46.346 L 81.836 47.231 80.456 45.959 C 78.259 43.934,77.253 44.262,75.457 47.592 C 74.974 48.487,73.398 50.695,71.954 52.500 C 70.510 54.305,68.837 56.625,68.237 57.656 C 67.636 58.688,66.853 60.001,66.496 60.574 L 65.848 61.617 66.758 62.527 L 67.668 63.437 70.006 62.460 C 71.292 61.922,72.717 61.219,73.173 60.897 C 73.629 60.576,74.089 60.313,74.195 60.313 C 74.301 60.312,79.676 65.557,86.139 71.967 L 97.890 83.621 96.920 85.014 C 94.969 87.812,94.576 91.875,96.256 91.875 C 99.656 91.875,117.188 74.134,117.188 70.694 L 117.188 69.610 115.547 69.751 C 113.873 69.894,112.226 70.543,109.643 72.077 L 108.192 72.938 106.518 71.672 C 103.008 69.016,85.463 50.950,85.536 50.066 C 85.921 45.412,90.120 43.568,95.373 45.748 C 102.221 48.589,102.757 46.563,97.177 38.936 C 96.033 37.373,94.697 35.347,94.207 34.434 C 92.203 30.696,91.576 30.550,88.938 33.203 M41.099 55.666 C 38.656 56.362,36.349 57.417,32.656 59.527 C 28.634 61.826,4.375 86.206,4.375 87.950 C 4.375 90.122,8.274 89.846,11.599 87.438 C 12.263 86.956,12.931 86.563,13.082 86.563 C 13.656 86.563,51.577 124.095,53.244 126.313 L 54.113 127.470 53.206 128.813 C 49.681 134.032,51.046 137.655,55.453 134.777 C 58.509 132.782,73.134 117.710,74.206 115.453 C 75.760 112.177,72.705 111.649,68.070 114.391 C 64.701 116.385,65.062 116.590,55.926 107.489 L 48.949 100.538 50.178 99.440 C 58.250 92.224,60.684 88.980,63.027 82.319 C 68.170 67.691,55.015 51.702,41.099 55.666 M38.589 67.668 C 46.514 69.732,54.075 79.858,52.682 86.541 C 51.952 90.042,47.064 96.563,45.169 96.563 C 45.001 96.563,40.090 91.796,34.256 85.969 L 23.650 75.376 26.876 72.060 C 31.212 67.604,34.135 66.508,38.589 67.668 " stroke="none" fill="#fb0404" fill-rule="evenodd"></path><path id="path1" d="M249.766 235.781 C 249.770 236.469,249.834 236.713,249.909 236.324 C 249.983 235.936,249.980 235.373,249.902 235.074 C 249.824 234.776,249.763 235.094,249.766 235.781 M152.109 235.849 L 151.250 235.979 151.250 311.717 C 151.250 382.415,151.215 387.461,150.725 387.555 C 150.436 387.611,172.609 387.656,199.998 387.656 C 227.388 387.656,249.562 387.611,249.274 387.555 C 248.785 387.461,248.750 382.312,248.750 311.540 L 248.750 235.625 200.859 235.672 C 174.520 235.698,152.582 235.777,152.109 235.849 M168.885 313.984 L 171.545 316.719 171.554 318.837 L 171.563 320.955 169.379 323.030 C 168.179 324.171,167.114 325.363,167.015 325.678 C 166.854 326.184,166.460 326.250,163.613 326.250 L 160.393 326.250 157.696 323.554 L 155.000 320.857 155.000 318.397 C 155.000 316.667,155.113 315.938,155.382 315.938 C 155.893 315.938,159.688 312.158,159.688 311.650 C 159.688 311.351,160.510 311.250,162.956 311.250 L 166.224 311.250 168.885 313.984 " stroke="none" fill="#ac6404" fill-rule="evenodd"></path><path id="path2" d="M133.121 58.984 L 128.594 63.594 133.203 59.067 C 137.485 54.861,137.954 54.375,137.730 54.375 C 137.685 54.375,135.611 56.449,133.121 58.984 M126.085 66.016 L 123.906 68.281 126.172 66.102 C 128.276 64.078,128.580 63.750,128.351 63.750 C 128.303 63.750,127.284 64.770,126.085 66.016 M120.110 143.203 L 40.680 222.656 37.449 224.308 C 35.502 225.304,33.040 226.261,31.250 226.718 C 28.543 227.409,26.093 228.043,25.073 228.316 C 24.754 228.401,24.693 243.780,24.760 307.016 L 24.844 385.611 25.668 386.435 C 27.031 387.798,27.089 387.800,89.766 387.777 L 150.313 387.756 150.312 311.144 L 150.312 234.531 200.078 234.611 L 249.844 234.691 249.761 311.252 L 249.678 387.813 312.489 387.813 L 375.301 387.813 375.472 387.109 C 375.709 386.134,375.514 228.848,375.276 228.609 C 375.170 228.503,374.185 228.273,373.088 228.098 C 369.474 227.522,363.155 225.088,360.352 223.193 C 359.601 222.685,323.319 186.602,279.726 143.009 C 236.133 99.417,200.257 63.750,200.003 63.750 C 199.748 63.750,163.797 99.504,120.110 143.203 M78.436 113.672 L 63.281 128.906 78.516 113.751 C 86.895 105.416,93.750 98.560,93.750 98.517 C 93.750 98.297,92.523 99.511,78.436 113.672 M314.688 107.031 C 316.314 108.664,317.714 110.000,317.800 110.000 C 317.886 110.000,316.626 108.664,315.000 107.031 C 313.374 105.398,311.973 104.063,311.887 104.063 C 311.801 104.063,313.061 105.398,314.688 107.031 M335.000 127.344 C 338.176 130.523,340.845 133.125,340.931 133.125 C 341.017 133.125,338.489 130.523,335.313 127.344 C 332.136 124.164,329.467 121.563,329.381 121.563 C 329.295 121.563,331.824 124.164,335.000 127.344 M22.027 170.078 L 17.656 174.531 22.109 170.160 C 26.246 166.100,26.704 165.625,26.480 165.625 C 26.435 165.625,24.431 167.629,22.027 170.078 " stroke="none" fill="#fbb443" fill-rule="evenodd"></path><path id="path3" d="M192.188 12.498 C 184.078 13.504,174.579 18.361,166.965 25.397 C 162.194 29.805,154.095 37.741,147.188 44.776 C 143.148 48.890,109.382 82.721,72.151 119.956 C 8.247 183.866,4.397 187.779,3.367 189.844 C 2.157 192.269,1.088 195.393,0.775 197.420 C 0.663 198.150,0.442 198.826,0.285 198.923 C -0.082 199.150,-0.090 206.654,0.277 207.047 C 0.429 207.210,0.714 208.290,0.910 209.445 C 2.099 216.469,10.127 224.805,17.825 227.010 C 22.735 228.417,25.043 228.506,28.594 227.426 C 29.453 227.165,31.281 226.643,32.656 226.266 C 34.031 225.889,36.394 224.923,37.907 224.119 L 40.659 222.656 120.099 143.203 C 163.792 99.504,199.748 63.750,200.003 63.750 C 200.257 63.750,236.133 99.417,279.726 143.009 C 323.319 186.602,359.601 222.685,360.352 223.193 C 364.542 226.026,373.390 228.800,376.508 228.257 C 386.913 226.447,394.043 221.401,398.132 212.954 C 399.501 210.126,400.651 199.901,399.706 198.956 C 399.524 198.774,399.375 198.303,399.375 197.910 C 399.375 196.614,397.537 191.444,396.341 189.375 C 394.854 186.804,233.959 25.642,230.000 22.759 C 228.711 21.820,226.180 20.065,224.375 18.859 C 222.570 17.653,220.547 16.291,219.878 15.833 C 219.210 15.375,218.435 15.000,218.157 15.000 C 217.878 15.000,215.894 14.410,213.747 13.688 L 209.844 12.377 202.031 12.312 C 197.734 12.276,193.305 12.360,192.188 12.498 " stroke="none" fill="#fcfb04" fill-rule="evenodd"></path><path id="path4" d="M150.313 311.094 C 150.313 378.802,150.366 387.500,150.781 387.500 C 151.197 387.500,151.250 378.876,151.250 311.760 L 151.250 236.019 152.422 235.826 C 153.066 235.719,175.004 235.630,201.172 235.628 L 248.750 235.625 248.750 311.563 C 248.750 378.854,248.803 387.500,249.219 387.500 C 249.634 387.500,249.688 378.802,249.688 311.094 L 249.688 234.688 200.000 234.688 L 150.313 234.688 150.313 311.094 M159.688 311.650 C 159.688 312.158,155.893 315.938,155.382 315.938 C 155.113 315.938,155.000 316.667,155.000 318.397 L 155.000 320.857 157.696 323.554 L 160.393 326.250 163.613 326.250 C 166.460 326.250,166.854 326.184,167.015 325.678 C 167.114 325.363,168.179 324.171,169.379 323.030 L 171.563 320.955 171.554 318.837 L 171.545 316.719 168.885 313.984 L 166.224 311.250 162.956 311.250 C 160.510 311.250,159.688 311.351,159.688 311.650 " stroke="none" fill="#0c0905" fill-rule="evenodd"></path></g></svg>