<svg id="svg" version="1.1" viewBox="0 0 300 300" width="300" height="300" xmlns="http://www.w3.org/2000/svg"><svg xmlns="http://www.w3.org/2000/svg"><defs><clipPath id="clip-1"><rect x="0" y="0" transform="scale(0.14648,0.14648)" width="2048" height="2048" fill="none"/></clipPath></defs><g clip-path="url(#clip-1)" fill="none" fill-rule="nonzero" stroke="none" stroke-width="1" stroke-linecap="butt" stroke-linejoin="miter" stroke-miterlimit="10" stroke-dasharray="" stroke-dashoffset="0" font-family="none" font-weight="none" font-size="none" text-anchor="none" style="mix-blend-mode: normal"><path d="M57.6564,0.88296c4.50366,0.39933 10.29639,0.41192 14.81704,0.41634l16.61968,0.0001l53.85571,0.00017l61.57852,0.00003l18.91113,0.00194c6.30615,-0.00162 12.63721,0.00266 18.93457,-0.4392l-0.06445,1.71792c2.02148,-0.15117 4.04297,-0.29209 6.06592,-0.42275l-0.08496,1.58038c1.2832,-0.2675 3.36182,-0.38007 4.78418,-0.55449c0.00439,0.66135 -0.00293,0.82252 0.13184,1.45887c0.66357,0.19626 2.62939,-0.35773 3.38086,-0.10916c0.09521,0.47893 0.11572,0.73248 0.15088,1.22243c0.42188,0.23755 1.12939,-0.10611 1.97168,-0.05855c0.3501,0.3029 0.23438,0.70088 0.30762,1.33689c0.5127,0.25093 1.04297,-0.19695 1.97168,-0.15029c0.40283,0.37693 0.21533,0.64793 0.38379,1.43706c0.67822,0.21838 1.24805,-0.48012 2.15332,-0.17653c0.18604,0.41178 0.06885,1.0633 0.02783,1.54756c0.7207,-0.20537 1.65967,-0.63369 2.30566,-0.22135c0.00439,0.41878 -0.02637,0.52559 0.12891,0.91626c0.41748,0.23703 0.24316,0.21921 0.82617,0.11543c2.28809,-0.40736 1.93945,1.27531 3.00293,2.28308c0.28125,0.26628 1.00195,0.01566 1.46631,-0.08481c1.51758,1.20426 2.93262,3.22024 4.28613,4.64963c0.53467,0.56455 1.22168,0.11162 1.59082,0.24478c1.27148,0.45762 5.97363,5.65605 6.51709,6.51226c-0.05859,0.44736 -0.07764,0.53042 -0.05273,0.99551c0.58154,0.79805 2.83887,2.87021 3.65918,3.47358c-0.2666,1.83896 0.59033,1.74331 1.79297,3.01582c0.80273,0.84785 0.1333,1.93989 0.4585,2.11816c0.96533,0.53101 1.5835,1.22856 2.4917,1.82593c-0.07324,0.56704 -0.23437,1.16704 -0.08057,1.67637c0.25195,0.09038 0.49951,0.12231 0.76465,0.15132c1.021,1.08867 -0.28857,1.84395 0.55371,2.48086c0.43945,-0.02373 0.54053,-0.0564 0.97119,0.05479c0.21973,0.43813 0.01611,1.40596 -0.03223,1.99014c0.38672,0.67354 0.30029,-0.07778 1.09277,0.53218c0.39111,1.04517 0.09668,2.24531 -0.0542,3.37573l1.47656,-0.075c-0.03809,0.70415 -0.47754,3.28359 -0.14062,3.65918c0.37061,-0.02432 0.71484,-0.03647 1.08545,-0.04805c0.72949,0.66401 -0.54785,3.92139 0.02197,4.70742c0.46143,-0.01274 0.76611,-0.0126 1.22607,0.00996c0.5376,0.62578 -0.26807,5.29878 -0.15088,6.91963c0.39111,0.15015 0.73975,-0.02241 1.23926,-0.12788v178.13203c-0.46436,-0.06445 -0.60498,-0.10986 -1.07227,-0.00732c-0.65625,1.18945 0.65186,6.28418 -0.08789,6.99316c-0.37354,-0.05566 -0.60059,-0.0791 -0.97852,-0.10107l-0.2168,0.22998c-0.22559,1.18213 0.54785,3.98438 0.01318,4.59229c-0.40137,-0.07178 -0.54492,-0.09082 -0.95215,-0.10693c-0.66211,0.71631 0.25635,2.11523 -0.13184,3.59619c-0.34717,0.20508 -0.32812,0.10547 -0.86279,-0.02051c-0.93896,0.41016 0.22705,2.58691 -0.50684,3.68701c-1.53223,-0.12158 -0.6665,0.88623 -0.99902,1.99072c-0.24463,0.81592 -0.85693,-0.09082 -1.03564,0.74707c-0.13623,0.63135 0.0498,1.49854 -0.39111,1.99805l-0.57715,-0.02051c-0.44824,0.58301 -0.00146,1.33887 -0.60498,2.13428c-0.60205,0.79395 -1.63916,1.08838 -2.08301,1.85596c0.10107,1.85303 -0.93018,1.94824 -2.15918,3.14209c-0.3501,0.33984 -0.19629,0.91553 -0.21387,1.40918c-0.70898,1.36816 -2.47266,2.66748 -3.72217,3.56689c0.09229,0.49219 0.22852,0.90234 0.08936,1.37109c-1.37988,0.98438 -1.13965,1.40186 -1.10449,3.00586l-1.80762,-0.41748c-1.08105,1.83984 -1.81494,2.68945 -3.45557,4.01807c-0.36182,-0.13477 -0.7251,-0.26514 -1.08838,-0.39551c-1.75488,0.51855 -2.92676,5.31738 -6.00879,4.83252c-0.23145,0.15967 -1.7417,2.10352 -2.25146,2.60596c-2.67773,-0.52295 -1.38574,0.2168 -1.9292,0.89941c-0.52588,0.16406 -1.44727,-0.05713 -2.18262,-0.04102c-0.39111,0.53027 0.07471,0.4585 -0.1875,1.31689c-0.38525,0.12451 -1.42676,-0.17578 -2.11523,-0.17285c-0.36475,0.36475 -0.07471,0.46289 -0.2417,1.2627c-0.57422,0.22705 -1.25977,-0.12305 -2.12549,-0.0293l-0.17432,0.26807c0.04102,0.41162 0.09814,0.62695 -0.04248,1.0166c-0.52002,0.23877 -1.21729,-0.08203 -2.0127,-0.01758l-0.19189,0.2417c0.03955,0.39551 0.05859,0.48779 0.01904,0.87891c-0.96826,0.69141 -2.93701,-0.48779 -3.55957,0.25781c0.06592,0.41162 0.1333,0.58154 0.02344,0.97998c-1.10156,0.37354 -3.24609,-0.16846 -4.69189,-0.12451l-0.14209,0.1626c0.05273,0.4541 0.06885,0.63135 0.06592,1.10156c-0.61816,0.47168 -4.73584,-0.4585 -5.83594,-0.15234c-0.18604,0.47754 -0.0542,1.06494 0.00732,1.59668c-37.40332,-0.51416 -74.8125,-0.62988 -112.2186,-0.34863h-41.52217c-10.42705,-0.00586 -20.60156,-0.13623 -31.03008,0.33105c-0.21636,-0.49219 -0.11147,-1.11768 -0.07837,-1.67285c-1.53516,0.14209 -4.41753,0.47461 -5.8103,0.33691c-0.41001,-0.5874 0.1708,-0.6958 -0.25723,-1.38281c-1.20498,-0.12012 -2.81909,0.47021 -4.52842,0.2915c-0.44824,-0.52881 0.11353,-0.61084 -0.24419,-1.38135c-0.97471,-0.13184 -2.76167,0.75879 -3.44531,-0.0498c0.00234,-0.43506 0.03428,-0.63281 -0.12422,-1.04443c-0.75674,-0.22998 -1.10303,0.28564 -1.99146,0.08203c-0.40415,-0.5332 0.02651,-0.56543 -0.24023,-1.38867c-0.76523,-0.25635 -1.20645,0.38672 -2.12725,0.17871c-0.4396,-0.66211 0.17256,-0.6665 -0.20698,-1.40479c-0.76157,-0.20068 -1.24805,0.38086 -2.10103,0.24902c-0.49058,-0.71484 0.19849,-0.70459 -0.23657,-1.40479c-0.87129,-0.20508 -1.93799,0.64014 -2.3833,0.05127c0.0375,-0.39697 0.04995,-0.63867 0.05083,-1.03711c-0.32095,-0.16553 -0.66108,-0.13037 -1.01147,-0.01465c-1.8583,0.61377 -2.04756,-1.96143 -3.01729,-2.42725c-0.20654,0.03076 -1.06406,0.16406 -1.18887,0.11133c-1.37505,-0.57275 -3.68188,-4.26123 -4.70317,-4.86914c-0.94878,0.19775 -1.25361,0.25342 -1.9938,-0.43945c-1.93242,-1.81055 -4.11401,-3.75586 -5.88633,-5.70557c-0.11484,-0.71484 0.38027,-0.79834 0.42407,-1.57471c-1.08354,-0.7749 -2.98866,-2.20752 -3.91371,-3.15234c-0.07827,-0.74121 0.21177,-0.66211 0.41008,-1.54834c-0.80697,-0.74121 -1.87346,-1.15576 -2.7097,-1.97461c-0.14578,-0.66357 0.25884,-0.76025 0.27913,-1.52783c-0.88935,-0.55811 -1.86341,-1.13232 -2.6704,-1.7915c-0.35637,-0.85107 0.47458,-1.49854 -0.16348,-2.09326c-0.39872,0.07324 -0.60918,0.15527 -0.98385,0.00732c-0.22415,-0.5083 0.06136,-1.34473 -0.02262,-2.15332c-0.54267,-0.72363 -0.03981,0.07764 -0.93376,-0.17139c-0.30346,-0.5918 -0.24406,-1.56152 -0.25263,-2.26611c-0.62317,-0.37939 -0.49695,0.20361 -1.20904,-0.05127c-0.14398,-0.98584 0.22518,-2.2998 0.16393,-3.47754l-0.20591,-0.17139l-1.02185,0.18018c-0.59445,-0.7749 0.59219,-2.60889 -0.06208,-3.56396c-0.54964,-0.19775 -0.60423,-0.06592 -1.28946,0.0791c0.18388,-1.64062 0.27858,-3.41748 0.39721,-5.07275l-1.56962,0.27979c0.12114,-1.23486 0.51562,-6.07471 0.42066,-7.15137c-0.47529,-0.20654 -0.6523,-0.07471 -1.2653,0.00439v-177.93179c0.5434,0.01787 0.60626,0.03823 1.15423,-0.07529c0.4134,-0.79658 -0.39591,-5.05737 -0.07091,-6.76348c0.34561,-0.3189 0.44546,-0.19409 1.08453,-0.18984c0.82714,-0.64116 -0.65074,-3.98525 0.30224,-4.71255c0.37988,-0.00571 0.65098,0.03545 0.96965,-0.15879c0.19658,-1.06948 -0.43421,-2.73677 0.18917,-3.40884c2.21057,-0.05977 0.10736,-1.94443 1.1591,-3.54463c0.28898,-0.01187 0.48138,-0.02578 0.76806,-0.06196c0.24608,-0.3479 0.13529,-1.34927 0.16917,-1.94063c0.33363,-0.43755 0.19958,-0.2981 0.93372,-0.40298c0.62914,-0.65596 -0.06725,-1.38281 0.46663,-2.1917c0.38265,-0.1481 0.44395,-0.17124 0.78995,-0.38672c0.24388,-0.46553 0.12059,-1.05308 0.07384,-1.60166c0.67203,-0.59839 1.24547,-0.99521 1.98302,-1.51172c0.86713,-0.60718 0.60492,-1.07344 0.45381,-1.95483c0.78461,-0.67983 1.71803,-1.26621 2.36487,-2.0521c0.28434,-0.34556 0.01299,-1.05117 -0.08467,-1.48228c1.25279,-1.04912 2.41472,-2.10645 3.72693,-3.18179c0.1459,-0.61523 -0.06533,-1.11021 -0.2332,-1.74009c1.95527,-1.56416 3.87261,-3.89062 5.83374,-5.54399c1.09468,-0.92271 1.60986,-0.35171 2.11333,-0.7604c1.12778,-0.91509 2.33394,-2.48057 3.38818,-3.50764c0.86045,-0.83833 0.96211,-1.11586 2.18818,-1.04121c0.62988,0.03835 1.14536,-1.2019 1.68647,-1.72011c1.0106,-0.96778 0.97588,-0.58336 2.22173,-0.67564c0.50977,-0.03776 0.3312,-0.99576 0.78325,-1.04755c0.72671,-0.08328 1.40933,0.2156 1.98794,-0.24441c0.03267,-0.34307 0.06035,-0.58934 0.11982,-0.92821c0.82983,-0.34519 1.46807,0.42179 2.20781,-0.22849c0.06401,-0.34737 0.1147,-0.57091 0.20815,-0.91144c0.52075,-0.22762 1.08047,-0.0053 1.88833,-0.05754c0.39668,-0.35314 0.31494,-0.59265 0.41367,-1.22588c0.51973,-0.239 1.17378,0.10163 1.99189,0.00845c0.34146,-0.38556 0.23145,-0.42939 0.29253,-1.07518c0.6939,-0.67452 2.30581,0.14079 3.19453,-0.03062c0.55371,-0.1068 0.03179,-0.85531 0.33926,-1.39531c1.54028,-0.16642 3.05273,0.50156 4.5019,0.2961c0.43418,-0.64351 -0.05977,-0.74372 0.29048,-1.40008c0.76553,-0.13526 4.65542,0.24461 5.78481,0.27977c0.04702,-0.38098 0.02095,-1.19335 0.02021,-1.61059z" fill="#f00000"/><path d="M29.10718,81.32974l38.51074,0.02769c0.33267,5.94756 0.78867,11.04126 1.25229,16.93389l1.60972,22.22241c0.20566,2.80854 0.5896,5.62998 0.77417,8.43926c0.38437,6.20024 0.56895,12.41147 0.55356,18.62417c0.23262,1.39307 0.02183,2.92969 0.30029,4.24365l0.18735,-0.03809c0.14854,-0.4834 0.14224,-0.46875 0.14355,-0.97705c0.25049,0.33105 0.16919,0.18896 0.25503,0.62549c0.4853,-0.32812 0.49219,-0.38525 0.54697,-0.96533l0.11602,-0.12891c0.31201,-3.53174 0.16553,-7.14111 0.53965,-10.66187c1.4603,-13.74653 2.70469,-27.53276 4.57617,-41.23096c0.76875,-5.62676 1.24189,-11.49858 2.2103,-17.07319c5.60801,-0.15425 11.63687,-0.03794 17.27285,-0.03325l23.4416,0.02769l2.93262,35.97261c0.23174,2.86846 0.79614,6.1188 0.86426,8.94009c0.26514,10.99248 0.95962,22.11064 1.22329,33.08525c0.10298,0.50977 0.09741,0.92871 0.40708,1.26416l0.30659,-0.03076l-0.30381,0.01758l0.32227,-0.03516c0.32681,-0.63867 0.33647,-1.22754 0.4248,-1.94678c0.03662,-5.2002 0.53232,-10.26562 0.94863,-15.44004c0.27378,-3.4021 0.20786,-6.90454 0.54185,-10.3021c1.44404,-14.68667 2.91006,-29.34009 4.94985,-43.95967c0.31128,-2.22993 0.82471,-5.28384 0.75322,-7.49341c4.8832,-0.18076 9.92241,-0.09844 14.82319,-0.09697l23.89893,0.00601c-0.19482,4.03022 -0.66064,6.96226 -1.09717,10.89082l-2.35693,20.56934l-7.56445,66.72495l-2.34961,20.52832c-0.84375,6.99316 -1.85742,14.70117 -2.35986,21.66797l-31.21611,0.03516c-5.31182,-0.00146 -12.26089,0.2168 -17.36499,-0.09375c-0.06372,-3.10107 -0.67808,-5.55908 -1.20278,-8.59863l-1.88818,-11.23682c-1.13643,-7.36816 -2.12754,-14.75684 -2.9729,-22.16162c-0.69331,-5.96924 -1.33652,-10.34912 -1.59829,-16.43262c-0.27393,-1.04297 -0.42275,-1.33301 -1.31938,-1.89697l-0.13828,1.00928c-0.18018,4.24512 -0.58755,8.30713 -1.13569,12.5127c-2.03262,15.59326 -3.68145,31.38135 -6.15439,46.90869c-15.92476,-0.32227 -32.26289,0.22412 -48.25313,-0.07031c-0.03018,-3.86865 -0.40972,-5.69678 -0.77329,-9.43652c-0.65449,-6.73242 -1.58452,-13.45459 -2.32148,-20.16211l-8.64565,-76.00356l-2.37231,-20.6625c-0.58594,-5.13633 -1.19487,-8.77266 -1.29814,-14.1082z" fill="#fefefe"/><path d="M100.00415,150.47021c0.61978,1.83545 1.32334,5.0918 1.20923,7.00928c0.12905,1.8208 0.33472,3.97119 0.30557,5.75977c-0.27393,-1.04297 -0.42275,-1.33301 -1.31938,-1.89697l-0.13828,1.00928c-0.04028,-0.58887 -0.02388,-1.29932 -0.01582,-1.89551c0.04497,-3.31348 -0.19541,-6.67822 -0.04131,-9.98584z" fill="#fc9d96"/><path d="M100.19956,161.34229c-0.12275,-0.88916 0.01201,-3.01611 0.06943,-3.94189l0.10005,-0.0293l0.31318,0.81885l0.16904,0.04395c0.05552,-0.22266 0.08057,-0.42773 0.11646,-0.65479l0.24565,-0.09961c0.12905,1.8208 0.33472,3.97119 0.30557,5.75977c-0.27393,-1.04297 -0.42275,-1.33301 -1.31938,-1.89697z" fill="#fc6c60"/><path d="M71.78979,155.98389c0.0687,0.56836 0.0123,0.95068 0.33237,1.32715c0.4916,-0.15234 0.55488,-0.21533 0.98613,-0.47754c0.00381,2.66748 -0.2335,6.25635 -0.43989,8.96045c-0.16289,0.42041 -0.36841,1.15869 -0.66226,1.396l-0.17666,-0.25488c0.07427,-0.9917 -0.01641,-2.28369 -0.02593,-3.32373l-0.05918,-6.59326z" fill="#fc9d96"/><path d="M127.57456,158.63232c0.08423,2.43164 0.03823,5.00977 0.03179,7.45459c-0.0542,0.71924 -0.09419,3.55664 -0.36123,3.93457l-0.28711,0.0835c-0.12187,-1.35937 -0.07793,-2.24414 -0.38408,-3.70752c-0.07192,-2.30273 -0.21709,-4.74756 -0.1563,-7.03418c0.10298,0.50977 0.09741,0.92871 0.40708,1.26416l0.30659,-0.03076l-0.30381,0.01758l0.32227,-0.03516c0.32681,-0.63867 0.33647,-1.22754 0.4248,-1.94678z" fill="#fc6c60"/><path d="M71.80767,147.57715c0.23262,1.39307 0.02183,2.92969 0.30029,4.24365l0.18735,-0.03809c0.14854,-0.4834 0.14224,-0.46875 0.14355,-0.97705c0.25049,0.33105 0.16919,0.18896 0.25503,0.62549c0.4853,-0.32812 0.49219,-0.38525 0.54697,-0.96533l0.11602,-0.12891c0.03135,2.10645 -0.26455,4.42676 -0.24858,6.49658c-0.43125,0.26221 -0.49453,0.3252 -0.98613,0.47754c-0.32007,-0.37646 -0.26367,-0.75879 -0.33237,-1.32715c0.04863,-2.8125 -0.03926,-5.60742 0.01787,-8.40674z" fill="#fc6c60"/><path d="M71.74438,157.01807l0.05918,6.59326c0.00952,1.04004 0.1002,2.33203 0.02593,3.32373l0.17666,0.25488c0.29385,-0.2373 0.49937,-0.97559 0.66226,-1.396c0.05405,1.87939 -0.32695,6.74268 -0.60513,8.55469c-0.43799,-3.40723 -0.61011,-13.77979 -0.3189,-17.33057z" fill="#f5cbca"/><path d="M126.70562,172.19971c0.19731,-0.46729 0.12451,-0.52441 0.47666,-0.74268c0.3501,0.3457 0.25576,0.38525 0.38042,0.97119c0.09404,1.19971 -0.23701,4.27002 -0.42759,5.45361c-0.21826,-1.88818 -0.36152,-3.78369 -0.42949,-5.68213z" fill="#f5cbca"/><path d="M127.60635,166.08691c0.15117,1.76221 0.01479,4.51318 -0.04365,6.34131c-0.12466,-0.58594 -0.03032,-0.62549 -0.38042,-0.97119c-0.35215,0.21826 -0.27935,0.27539 -0.47666,0.74268c0.02651,-1.88965 -0.17388,-3.81299 -0.13169,-5.80225c0.30615,1.46338 0.26221,2.34814 0.38408,3.70752l0.28711,-0.0835c0.26704,-0.37793 0.30703,-3.21533 0.36123,-3.93457z" fill="#fc9d96"/><path d="M214.41943,78.80713c3.90234,-0.78296 11.21484,-0.59766 15.14648,0.12407c2.63379,0.46758 5.30713,0.92256 7.88086,1.60942c8.03027,2.14248 16.9541,7.65308 21.73975,14.55088c7.19385,10.36875 6.64453,28.59976 6.68115,40.84907c-13.2085,-0.04717 -26.75098,-0.14062 -39.94336,0.01714c0.09961,-1.75752 0.09961,-3.75703 0.06299,-5.52085c-0.15088,-7.32437 0.39844,-14.95957 -0.80127,-22.20132c-0.55957,-3.37749 -5.55469,-3.3123 -5.84912,1.29448c-0.75879,11.8626 -0.02197,23.80781 -0.40283,35.66968l0.17432,0.40166c0.36328,-0.35801 -0.08789,-0.48179 0.4541,-1.06201l0.33838,0.10034l0.29883,-0.29092c2.18848,-0.13857 6.56689,0.06841 8.94727,0.06709l23.99561,-0.00059c3.67236,-0.00029 9.20947,0.17227 12.71777,-0.07822c-0.12744,5.19858 0.00293,11.05942 0.00293,16.29478v32.5957v18.37793c0,2.75684 -0.12891,7.5542 0.14502,10.13232l-16.32715,0.02344c-3.36475,0 -7.14697,0.07471 -10.47949,-0.10693c-0.00439,-1.7168 -0.72363,-4.00635 -1.07373,-5.74219c-0.27539,-1.3623 -0.4834,-2.61621 -0.69873,-3.99316c-2.00098,8.55615 -11.22217,12.16406 -19.20703,12.76758c-9.96387,0.66504 -19.49268,-2.84473 -27.01318,-9.27246c-13.21875,-11.29541 -12.0835,-29.01855 -12.09521,-44.82422l-0.00439,-19.60254l0.00732,-19.17876c0.01904,-9.24097 0.14941,-18.796 2.12549,-27.89912c0.90381,-4.16177 3.08496,-8.10879 5.90039,-11.27886c5.81104,-6.54331 13.35645,-11.28384 22.02393,-12.95244c1.74756,-0.34893 3.46143,-0.75718 5.25293,-0.871z" fill="#fefefe"/><path d="M218.98242,168.19775c0.20654,0.27686 0.20654,0.54785 0.25342,0.88184l0.16113,0.18604c0.20068,-0.11426 0.24609,-0.14062 0.43799,-0.27832l0.00293,-0.55811c0.14355,0.1377 0.17139,0.90674 0.19922,1.17773c2.1123,-0.17432 4.83252,-0.01758 7.13965,-0.16553c-0.24609,4.76221 0.84375,23.28516 -1.88086,26.63086c-0.64893,0.79688 -1.55566,1.15283 -2.56348,1.20264c-0.7749,0.03662 -1.56299,-0.1377 -2.12402,-0.70459c-0.87744,-0.88916 -1.15283,-2.73926 -1.30811,-3.94629c-0.44678,-3.49512 -0.28711,-7.23926 -0.29297,-10.76514c-0.00732,-4.55273 -0.07031,-9.11133 -0.0249,-13.66113z" fill="#f00000"/><path d="M218.93408,145.19971l0.17432,0.40166c0.36328,-0.35801 -0.08789,-0.48179 0.4541,-1.06201l0.33838,0.10034l0.29883,-0.29092c-0.271,7.66392 0.04248,15.42026 -0.08057,23.09458c-0.01318,0.75 0.04541,1.41211 -0.08203,2.16357c-0.02783,-0.271 -0.05566,-1.04004 -0.19922,-1.17773l-0.00293,0.55811c-0.19189,0.1377 -0.2373,0.16406 -0.43799,0.27832l-0.16113,-0.18604c-0.04687,-0.33398 -0.04687,-0.60498 -0.25342,-0.88184c-0.18018,-0.95801 -0.18311,-6.38965 -0.16553,-7.66992c0.06738,-4.97314 -0.16406,-10.40918 0.11719,-15.32812z" fill="#fd2114"/><path d="M214.41943,78.80713c3.90234,-0.78296 11.21484,-0.59766 15.14648,0.12407c-2.66602,0.1771 -5.25439,1.02173 -8.21777,0.54258c-1.54395,-0.2499 -3.61963,0.18618 -5.1709,-0.4771c-0.62402,-0.26733 -1.0957,-0.23716 -1.75781,-0.18955z" fill="#f5cbca"/></g></svg></svg>