<svg id="svg" version="1.1" viewBox="0 0 300 300" width="300" height="300" xmlns="http://www.w3.org/2000/svg"><svg xmlns="http://www.w3.org/2000/svg"><defs><clipPath id="clip-1"><rect x="0" y="0" transform="scale(0.14648,0.14648)" width="2048" height="2048" fill="none"/></clipPath><linearGradient x1="23.80898" y1="230.79639" x2="76.86841" y2="196.13525" gradientUnits="userSpaceOnUse" id="color-1"><stop offset="0" stop-color="#ffd418"/><stop offset="1" stop-color="#ff8439"/></linearGradient><linearGradient x1="179.75098" y1="299.19287" x2="176.61768" y2="291.8042" gradientUnits="userSpaceOnUse" id="color-2"><stop offset="0" stop-color="#ff485a"/><stop offset="1" stop-color="#ff664a"/></linearGradient></defs><g clip-path="url(#clip-1)" fill="none" fill-rule="nonzero" stroke="none" stroke-width="1" stroke-linecap="butt" stroke-linejoin="miter" stroke-miterlimit="10" stroke-dasharray="" stroke-dashoffset="0" font-family="none" font-weight="none" font-size="none" text-anchor="none" style="mix-blend-mode: normal"><path d="M141.36899,0h17.36733c0.75293,0.32993 1.51172,0.35203 2.33643,0.44372c5.91357,0.02634 13.5542,1.31137 19.20703,2.46892c22.50732,4.60772 43.84717,14.13609 61.74463,28.60084c1.09277,0.88301 2.41406,1.69761 3.53613,2.56494c3.50244,3.00527 7.2627,6.17798 10.49561,9.44194c17.34961,17.69575 30.25342,39.2562 37.64941,62.90933c0.55957,1.85054 2.76563,9.69697 2.85791,11.32588c0.57568,1.46528 0.60498,2.8957 0.94482,4.3998c0.56543,2.50518 0.72217,5.18394 1.24951,7.67227c0.19629,0.84199 0.09961,1.75166 0.26221,2.44146c0.71191,3.03003 0.16699,7.92832 0.97998,10.74624v13.55303c-0.26953,1.09277 -0.36914,3.40723 -0.47754,4.63477c0.02051,3.37061 -0.61084,7.28613 -1.08838,10.6626c-2.73486,19.16455 -9.24902,37.59521 -19.16016,54.22412c-1.16162,1.96875 -4.30078,7.24805 -5.72754,8.82715c-1.23926,2.05957 -3.12305,4.41797 -4.57764,6.35449c-4.8457,6.44971 -10.35791,12.646 -16.28467,18.11279c-0.89209,0.82178 -2.28662,2.15771 -3.2417,2.85498c-2.0376,1.89551 -4.70068,4.13379 -6.98145,5.72607c-7.41211,6.24463 -22.42529,15.59619 -31.4751,18.92578c-1.93799,1.04004 -8.6499,3.83057 -10.77686,4.42236c-1.13525,0.43066 -3.99023,1.30225 -4.84277,1.70215c-9.40869,2.79346 -18.25928,4.90576 -28.04736,5.99707c-1.99805,0.22266 -6.0498,0.65039 -8.08301,0.54932c-0.65479,0.09668 -1.90283,0.16406 -2.38623,0.43799h-5.0127h-8.69619c-0.81812,-0.31494 -2.71846,-0.38525 -3.66855,-0.46289c-2.45654,0.1333 -8.63071,-0.78076 -11.24121,-1.15137c-17.10879,-2.43457 -34.06655,-7.98633 -49.28525,-16.26416c-36.24126,-19.45752 -62.92983,-52.91162 -73.84982,-92.5708c-1.58943,-5.93408 -3.23124,-13.60547 -3.9968,-19.75488c-0.23654,-2.02002 -0.41828,-4.0459 -0.54503,-6.07471c-0.09138,-1.35059 -0.14681,-3.89941 -0.55406,-5.1123v-17.04946c0.53852,-1.6396 0.44069,-5.26377 0.63096,-7.14053c0.38603,-3.46846 0.88343,-6.92373 1.49141,-10.3604c2.813,-16.60327 8.26995,-32.04419 16.47075,-46.7168c0.9561,-1.71079 4.02085,-7.35527 5.22642,-8.51396c0.1459,-0.73506 3.55122,-5.27856 4.26094,-6.28535c9.90249,-14.12827 22.30986,-26.32266 36.60732,-35.9792c2.26128,-1.55859 6.95039,-4.78242 9.26777,-5.88838c1.70215,-1.22051 6.21416,-3.56265 8.21162,-4.5813c13.89551,-7.11318 28.83428,-11.96982 44.2563,-14.38783c2.57124,-0.37466 5.15112,-0.68818 7.7373,-0.94029c1.46221,-0.14914 6.21006,-0.26083 7.2082,-0.76539z" fill="#ffffff"/><path d="M141.36899,0h17.36733c0.75293,0.32993 1.51172,0.35203 2.33643,0.44372l0.10107,0.37528c-0.33105,0.04815 -0.28271,0.03157 -0.61523,-0.04907c-0.66504,-0.16039 -1.59961,-0.00476 -2.26758,0.13053c0.85693,0.26843 2.49463,0.08547 3.37061,0.36492c0.95068,0.30275 2.50342,-0.23548 3.3252,0.08287l0.09961,0.19283l-0.47168,0.27406c13.52197,1.40017 27.31348,4.51622 39.95947,9.65023c1.61719,0.65697 3.4248,1.84015 5.07129,2.63329c1.47217,0.4262 2.47119,0.9236 3.8042,1.35792c0.20068,3.55635 0.07764,8.12549 0.07764,11.74731l-0.00586,21.20918l0.00879,71.48247c-1.52783,-0.00879 -11.88721,-0.1481 -12.86279,0.13213c-2.43896,-1.7127 -5.96338,-3.78867 -7.50146,0.04731c-0.44531,-0.25254 -24.27393,-0.35625 -25.41943,-0.06445c-2.17383,-1.31924 -4.89551,-1.29653 -7.06055,0.01816c-1.04736,-0.23188 -5.91797,-0.15879 -7.22314,-0.15908l-15.72554,0.00278l-33.04614,0.00337c-5.26157,-0.00088 -12.46421,-0.23379 -17.59424,0.06563l0.00864,-74.57607c-0.00088,-9.7856 -0.13477,-19.904 0.03047,-29.66821c1.20264,-0.5064 1.95,-0.82251 3.06855,-1.47044c2.32222,-1.80035 11.58926,-4.98432 14.74351,-6.02461c-0.16582,-0.05353 -0.33179,-0.10705 -0.49761,-0.16058c-3.9271,1.13994 -7.80015,2.86195 -11.66104,4.26113c-0.24478,0.0887 -0.17183,0.075 -0.37207,0.23817c-0.30762,-0.21549 -0.48223,-0.44442 -0.76274,-0.35575c-4.21699,1.33293 -8.62793,3.88518 -12.58066,5.88513c-1.33989,0.67808 -4.06875,2.51133 -5.11846,2.60464c1.70215,-1.22051 6.21416,-3.56265 8.21162,-4.5813c13.89551,-7.11318 28.83428,-11.96982 44.2563,-14.38783c2.57124,-0.37466 5.15112,-0.68818 7.7373,-0.94029c1.46221,-0.14914 6.21006,-0.26083 7.2082,-0.76539z" fill="#feb72a"/><path d="M141.36899,0h17.36733c0.75293,0.32993 1.51172,0.35203 2.33643,0.44372l0.10107,0.37528c-0.33105,0.04815 -0.28271,0.03157 -0.61523,-0.04907c-0.66504,-0.16039 -1.59961,-0.00476 -2.26758,0.13053c0.85693,0.26843 2.49463,0.08547 3.37061,0.36492c0.95068,0.30275 2.50342,-0.23548 3.3252,0.08287l0.09961,0.19283l-0.47168,0.27406c13.52197,1.40017 27.31348,4.51622 39.95947,9.65023c1.61719,0.65697 3.4248,1.84015 5.07129,2.63329c-2.05371,0.29008 -5.74219,0.23577 -7.9585,0.23615l-11.50342,-0.00086l-40.19531,0.00136l-40.82915,-0.00208l-12.24434,0.00313c-1.70713,-0.00032 -5.14526,0.08184 -6.71016,-0.10969c2.32222,-1.80035 11.58926,-4.98432 14.74351,-6.02461c-0.16582,-0.05353 -0.33179,-0.10705 -0.49761,-0.16058c-3.9271,1.13994 -7.80015,2.86195 -11.66104,4.26113c-0.24478,0.0887 -0.17183,0.075 -0.37207,0.23817c-0.30762,-0.21549 -0.48223,-0.44442 -0.76274,-0.35575c-4.21699,1.33293 -8.62793,3.88518 -12.58066,5.88513c-1.33989,0.67808 -4.06875,2.51133 -5.11846,2.60464c1.70215,-1.22051 6.21416,-3.56265 8.21162,-4.5813c13.89551,-7.11318 28.83428,-11.96982 44.2563,-14.38783c2.57124,-0.37466 5.15112,-0.68818 7.7373,-0.94029c1.46221,-0.14914 6.21006,-0.26083 7.2082,-0.76539z" fill="#ffffff"/><path d="M141.36899,0h17.36733c0.75293,0.32993 1.51172,0.35203 2.33643,0.44372l0.10107,0.37528c-0.33105,0.04815 -0.28271,0.03157 -0.61523,-0.04907c-0.66504,-0.16039 -1.59961,-0.00476 -2.26758,0.13053c0.85693,0.26843 2.49463,0.08547 3.37061,0.36492c0.95068,0.30275 2.50342,-0.23548 3.3252,0.08287l0.09961,0.19283l-0.47168,0.27406c-2.49316,-0.17306 -5.49316,-0.53155 -7.89697,-0.62927c-12.07368,-0.42588 -24.15601,0.56786 -35.99824,2.96079c-4.60122,0.97219 -9.03413,2.06405 -13.52681,3.43311c-0.6583,0.20063 -1.58115,0.49648 -2.24458,0.62229c-0.16582,-0.05353 -0.33179,-0.10705 -0.49761,-0.16058c-3.9271,1.13994 -7.80015,2.86195 -11.66104,4.26113c-0.24478,0.0887 -0.17183,0.075 -0.37207,0.23817c-0.30762,-0.21549 -0.48223,-0.44442 -0.76274,-0.35575c-4.21699,1.33293 -8.62793,3.88518 -12.58066,5.88513c-1.33989,0.67808 -4.06875,2.51133 -5.11846,2.60464c1.70215,-1.22051 6.21416,-3.56265 8.21162,-4.5813c13.89551,-7.11318 28.83428,-11.96982 44.2563,-14.38783c2.57124,-0.37466 5.15112,-0.68818 7.7373,-0.94029c1.46221,-0.14914 6.21006,-0.26083 7.2082,-0.76539z" fill="#d80eb1"/><path d="M193.16602,120.075c1.53809,-3.83599 5.0625,-1.76001 7.50146,-0.04731c0.64014,0.64146 1.46045,1.50601 1.53516,2.43472c0.3252,4.02114 0.17871,8.32266 0.26807,12.35229c0.12744,4.73364 0.28271,9.46641 0.46436,14.198c0.19775,6.09668 0.43652,12.22852 1.13672,18.27539c0.42334,3.65332 1.18213,6.43359 3.22119,9.46875c0.89502,1.33154 3.04395,3.84229 3.04102,5.36426c-0.13623,3.46436 -3.22998,5.60596 -6.50391,5.37598c-2.94141,-0.20654 -4.72412,-2.94287 -5.84033,-5.44189c-4.53369,-10.14551 -3.8291,-21.64746 -4.19385,-32.50635c-0.13184,-3.88506 -0.27246,-8.13179 -0.02197,-11.98022c-1.34473,3.12085 -2.08008,6.36313 -3.71924,9.73169c-5.39502,11.0874 -12.76611,22.0459 -20.78906,31.38867c-2.91797,3.06299 -6.73242,7.17334 -11.27197,7.35059c-4.76953,0.18604 -7.16895,-2.79199 -8.04053,-7.08252c-0.79102,-3.8877 -1.10742,-7.62598 -1.16016,-11.53857c-0.05859,-3.97412 0.14209,-7.94678 0.59912,-11.89453c1.021,-9.06943 4.78125,-28.80059 11.29395,-35.49521c2.16504,-1.3147 4.88672,-1.3374 7.06055,-0.01816c1.14551,-0.2918 24.97412,-0.18809 25.41943,0.06445z" fill="#fe0000"/><path d="M167.74658,120.01055c1.14551,-0.2918 24.97412,-0.18809 25.41943,0.06445c-0.88037,2.53945 -1.57324,6.63018 -2.45361,8.94067c-4.05908,10.64619 -20.9458,43.24263 -31.66992,46.51948c-1.56445,-2.79053 -1.32129,-6.61084 -1.32715,-9.72656c-0.0293,-12.86572 1.18506,-21.62241 5.89746,-33.61846c0.86133,-2.19258 4.73438,-9.1355 4.84717,-10.47876c0.06299,-0.73755 -0.26807,-1.16045 -0.71338,-1.70083z" fill="#ffffff"/><path d="M223.24658,221.32324l0.71631,0.48926l0.01172,0.68994c-1.89111,1.87061 -4.32422,4.04883 -6.01611,6.02783c-2.8374,3.31641 -5.67773,6.32959 -8.83154,9.35303c-0.92432,0.8877 -1.62305,1.99951 -2.47852,2.95605l-0.27686,-0.50684c-8.5708,0.26221 -18.27832,0.0293 -26.9458,0.0293l-52.5208,0.00293h-20.07319c-1.91104,0 -7.77876,-0.13623 -9.42158,0.05273l-0.07251,0.21973c0.14224,0.25488 0.25107,0.4585 0.4084,0.70313l-0.22881,0.53906c-1.90562,-2.9502 -5.42373,-5.31592 -7.62627,-7.95703c-3.67412,-4.40918 -7.62598,-8.19141 -11.67847,-12.2417c0.53672,-0.48486 3.30264,-0.31934 4.16133,-0.31934h7.60913l25.3292,0.00586l71.81133,0.00439h23.60449c3.9126,-0.00146 8.71729,0.13184 12.51855,-0.04834z" fill="#feb72a"/><path d="M87.12451,188.43018c3.85649,0.21387 9.93047,0.03809 13.90078,0.03662l27.38013,-0.00732l83.90464,-0.00293l0.0249,16.7373l18.12451,-0.03076c1.29639,0.00146 6.92871,-0.08643 7.93945,0.1377l0.05273,0.1377c-1.00928,0.57129 -3.90234,0.29883 -5.20312,0.29736l-10.19678,0.00879l-31.78564,0.02637l-94.57646,-0.00146l-22.51787,-0.01611l-6.53188,-0.00879c-0.77871,-0.00146 -2.45508,-0.07178 -3.13037,0.0293l-0.23906,0.61084c-0.62139,-0.62256 -1.5082,-0.91553 -2.33291,-1.2627c8.19683,0.20654 16.93037,0.00146 25.18374,0.05859c-0.17974,-5.13574 -0.03853,-11.55029 0.00322,-16.75049z" fill="#feb72a"/><path d="M97.74609,241.34033c-0.15732,-0.24463 -0.26616,-0.44824 -0.4084,-0.70312l0.07251,-0.21973c1.64282,-0.18896 7.51055,-0.05273 9.42158,-0.05273h20.07319l52.5208,-0.00293c8.66748,0 18.375,0.23291 26.9458,-0.0293l0.27686,0.50684c-2.53125,2.99414 -5.91211,5.43311 -8.0625,8.6792c-0.42041,0.63574 -0.61523,1.41797 -1.42529,1.61572c-0.15967,-0.24023 -0.33838,-0.5332 -0.66211,-0.54199c-1.86182,-0.05127 -3.73535,-0.02783 -5.59717,-0.02637l-14.72607,0.01611l-46.19282,-0.00439l-14.48394,0.00732c-2.53887,0.00586 -5.61768,0.10986 -8.10601,-0.01025l-0.39448,0.66943l-0.35449,0.38965c-2.58398,-3.14941 -6.91597,-6.75879 -9.12627,-9.75439z" fill="#ffffff"/><path d="M206.37158,240.33252l0.27686,0.50684c-2.53125,2.99414 -5.91211,5.43311 -8.0625,8.6792c-0.42041,0.63574 -0.61523,1.41797 -1.42529,1.61572c-0.15967,-0.24023 -0.33838,-0.5332 -0.66211,-0.54199c-1.86182,-0.05127 -3.73535,-0.02783 -5.59717,-0.02637l-14.72607,0.01611l-46.19282,-0.00439l-14.48394,0.00732c-2.53887,0.00586 -5.61768,0.10986 -8.10601,-0.01025c1.23867,-0.39844 17.96689,-0.09814 20.84106,-0.09814l69.09258,-0.00732c2.42725,-4.34326 6.37061,-6.56982 9.04541,-10.13672z" fill="#fac965"/><path d="M97.74609,241.34033c1.27705,2.27637 5.45581,5.4668 7.23794,7.57617c0.5959,0.70459 1.39614,1.61719 2.01401,2.32764l-0.35449,0.38965c-2.58398,-3.14941 -6.91597,-6.75879 -9.12627,-9.75439z" fill="#fac965"/><path d="M107.39253,250.57471c2.48833,0.12012 5.56714,0.01611 8.10601,0.01025l14.48394,-0.00732l46.19282,0.00439l14.72607,-0.01611c1.86182,-0.00146 3.73535,-0.0249 5.59717,0.02637c0.32373,0.00879 0.50244,0.30176 0.66211,0.54199c-1.21289,1.17041 -2.39355,2.37305 -3.60059,3.54639c-2.45947,2.38916 -4.30225,5.05078 -6.80127,7.41357l-0.67383,-0.16846l-0.20068,-0.04102c-1.17627,-0.52002 -63.42583,0.00439 -69.5877,-0.16406c-0.25635,-0.53467 -1.47993,-1.65234 -1.92759,-2.14893c-1.71929,-1.90576 -6.51094,-5.94141 -7.72544,-7.93799l0.35449,-0.38965z" fill="#feb72a"/><path d="M116.29658,261.7207c6.16187,0.16846 68.41143,-0.35596 69.5877,0.16406l0.20068,0.04102c-0.02197,0.12598 -11.21484,11.94873 -12.45996,12.96094c-1.09277,0.14648 -3.99902,0.08057 -5.22363,0.08057h-9.92432l-18.57554,-0.00146c-1.75444,0.00293 -9.75176,0.21387 -10.80937,-0.17725l-0.3687,0.2417c-1.75854,-1.41064 -2.91123,-3.40576 -4.47876,-4.99658c-2.43223,-2.4668 -4.98794,-4.81494 -7.39644,-7.30664c-0.30835,-0.31787 -0.50918,-0.55225 -0.55166,-1.00635z" fill="#ffffff"/><path d="M116.29658,261.7207c6.16187,0.16846 68.41143,-0.35596 69.5877,0.16406c-20.00098,-0.22412 -40.05103,0.08936 -60.05625,-0.03955c-3.01611,-0.02051 -6.18135,-0.05566 -9.19131,0.04248c2.88428,2.65137 5.72593,5.52393 8.46211,8.33057c1.44932,1.48535 2.37715,3.07031 3.99331,4.57031l-0.3687,0.2417c-1.75854,-1.41064 -2.91123,-3.40576 -4.47876,-4.99658c-2.43223,-2.4668 -4.98794,-4.81494 -7.39644,-7.30664c-0.30835,-0.31787 -0.50918,-0.55225 -0.55166,-1.00635z" fill="#fac965"/><path d="M129.09214,274.78857c1.05762,0.39111 9.05493,0.18018 10.80937,0.17725l18.57554,0.00146h9.92432c1.22461,0 4.13086,0.06592 5.22363,-0.08057l0.42627,0.39844c-1.10596,1.11328 -1.86182,2.48438 -2.86084,3.47461c-3.12598,3.09961 -6.04248,6.09082 -8.83301,9.49951c-1.5791,1.9292 -4.00342,3.77051 -5.6543,5.69971c-1.53809,1.64941 -2.5752,3.23584 -4.24365,4.87061l-0.24316,0.22852c-0.54639,-0.00879 -0.56543,0.0293 -1.03711,-0.27539c-1.91895,-1.88232 -3.87451,-3.69727 -5.54883,-5.79932c-0.56733,-0.71191 -1.19106,-1.44434 -1.81333,-2.10645l-15.0936,-15.84668z" fill="#feb72a"/><path d="M0,141.55942c0.53852,-1.6396 0.44069,-5.26377 0.63096,-7.14053c0.38603,-3.46846 0.88343,-6.92373 1.49141,-10.3604c2.813,-16.60327 8.26995,-32.04419 16.47075,-46.7168c0.9561,-1.71079 4.02085,-7.35527 5.22642,-8.51396c0.00996,0.24932 0.02666,0.38467 -0.11924,0.60264c-1.16924,1.74668 -2.93906,4.72031 -3.94028,6.43506c-1.73071,2.96411 -8.96755,16.9478 -9.09579,19.5104l0.64707,0.25518c-0.05666,0.3063 -0.05937,0.32139 -0.00111,0.64438l0.13428,0.00381c0.71102,-1.33315 2.03109,-5.33481 2.56337,-6.33281c1.21146,-2.27153 8.14383,-17.21309 9.81185,-18.02915c-3.43374,5.96821 -7.09761,12.58433 -9.84954,18.88799c-13.49763,31.275 -15.89941,66.22456 -6.80704,99.05171c4.97208,18.39404 14.53856,36.80273 26.18626,51.80859c13.20645,17.0127 31.39189,31.93213 50.58325,41.58545c13.20864,6.55957 27.30513,11.15186 41.84224,13.6333c3.13696,0.52148 6.47168,0.87158 9.63428,1.2583c1.47261,0.18018 3.104,0.11426 4.62334,0.35596l0.63999,0.42188l-0.05127,0.19043c-0.37412,0.11426 -0.85576,0.2124 -1.14902,0.42627c-2.45654,0.1333 -8.63071,-0.78076 -11.24121,-1.15137c-17.10879,-2.43457 -34.06655,-7.98633 -49.28525,-16.26416c-36.24126,-19.45752 -62.92983,-52.91162 -73.84982,-92.5708c-1.58943,-5.93408 -3.23124,-13.60547 -3.9968,-19.75488c-0.23654,-2.02002 -0.41828,-4.0459 -0.54503,-6.07471c-0.09138,-1.35059 -0.14681,-3.89941 -0.55406,-5.1123z" fill="url(#color-1)"/><path d="M161.07275,0.44372c5.91357,0.02634 13.5542,1.31137 19.20703,2.46892c22.50732,4.60772 43.84717,14.13609 61.74463,28.60084c1.09277,0.88301 2.41406,1.69761 3.53613,2.56494c3.50244,3.00527 7.2627,6.17798 10.49561,9.44194c17.34961,17.69575 30.25342,39.2562 37.64941,62.90933c0.55957,1.85054 2.76563,9.69697 2.85791,11.32588c0.57568,1.46528 0.60498,2.8957 0.94482,4.3998c0.56543,2.50518 0.72217,5.18394 1.24951,7.67227c0.19629,0.84199 0.09961,1.75166 0.26221,2.44146c0.71191,3.03003 0.16699,7.92832 0.97998,10.74624v13.55303c-0.26953,1.09277 -0.36914,3.40723 -0.47754,4.63477c-0.29883,-1.49414 -0.19043,-1.90869 -0.14062,-3.41895c0.2168,-6.51416 0.17871,-13.35791 -0.11279,-19.84058l-0.48926,-0.30366c0.28564,-1.13408 0.51416,-2.95093 -0.05859,-3.98921c-0.0293,1.18608 -0.33691,3.30322 -0.20215,4.33843c0.2915,2.22861 0.5918,3.81768 0.58008,6.14033c-0.02637,4.71182 0.13623,9.44033 0.07324,14.15127c-0.01025,0.80859 0.04541,0.92578 -0.66504,1.43994c0.8833,-9.12158 0.28125,-22.08765 -1.21289,-31.17041l-1.03418,-6.41089c-2.73047,-14.48291 -7.6582,-28.46367 -14.61035,-41.45845c-1.50146,-2.86304 -3.53906,-6.65947 -5.28662,-9.35537c-4.36377,-6.86982 -9.19775,-13.42896 -14.46826,-19.63008c-1.91895,-2.21675 -4.33594,-4.28247 -6.31934,-6.40576c-9.33691,-9.9895 -20.4917,-18.14414 -32.35547,-24.88081c-2.32031,-1.31777 -7.41211,-4.44375 -9.77051,-4.95234c-1.33301,-0.43433 -2.33203,-0.93173 -3.8042,-1.35792c-1.64648,-0.79314 -3.4541,-1.97632 -5.07129,-2.63329c-12.646,-5.13401 -26.4375,-8.25006 -39.95947,-9.65023l0.47168,-0.27406l-0.09961,-0.19283c-0.82178,-0.31835 -2.37451,0.21987 -3.3252,-0.08287c-0.87598,-0.27945 -2.51367,-0.09649 -3.37061,-0.36492c0.66797,-0.1353 1.60254,-0.29093 2.26758,-0.13053c0.33252,0.08064 0.28418,0.09722 0.61523,0.04907z" fill="#ae03de"/><path d="M92.41743,12.54079c0.20024,-0.16317 0.12729,-0.14947 0.37207,-0.23817c3.86089,-1.39917 7.73394,-3.12119 11.66104,-4.26113c0.16582,0.05353 0.33179,0.10705 0.49761,0.16058c-3.15425,1.04029 -12.42129,4.22426 -14.74351,6.02461c-1.11855,0.64793 -1.86592,0.96404 -3.06855,1.47044c-0.88506,0.63472 -1.471,1.18667 -2.18511,2.01914c-0.41338,0.00601 -2.00537,0.02109 -2.33262,0.13008c-3.54229,1.18081 -7.27192,3.74502 -10.47817,5.67524c-0.80933,0.48721 -2.45508,1.62964 -3.18149,1.90459c-2.53945,1.88716 -5.23066,3.56279 -7.7499,5.46475c-9.59956,7.24775 -18.61948,16.1417 -26.3083,25.36641c-4.10054,4.91968 -7.44609,10.4748 -11.08081,15.65991c-1.66802,0.81606 -8.60039,15.75762 -9.81185,18.02915c-0.53228,0.998 -1.85235,4.99966 -2.56337,6.33281l-0.13428,-0.00381c-0.05826,-0.323 -0.05555,-0.33809 0.00111,-0.64438l-0.64707,-0.25518c0.12823,-2.5626 7.36507,-16.54629 9.09579,-19.5104c1.00122,-1.71475 2.77104,-4.68838 3.94028,-6.43506c0.1459,-0.21797 0.1292,-0.35332 0.11924,-0.60264c0.1459,-0.73506 3.55122,-5.27856 4.26094,-6.28535c9.90249,-14.12827 22.30986,-26.32266 36.60732,-35.9792c2.26128,-1.55859 6.95039,-4.78242 9.26777,-5.88838c1.04971,-0.09331 3.77856,-1.92656 5.11846,-2.60464c3.95273,-1.99995 8.36367,-4.55219 12.58066,-5.88513c0.28052,-0.08867 0.45513,0.14026 0.76274,0.35575z" fill="#fd4d69"/><path d="M92.41743,12.54079c0.20024,-0.16317 0.12729,-0.14947 0.37207,-0.23817c3.86089,-1.39917 7.73394,-3.12119 11.66104,-4.26113c0.16582,0.05353 0.33179,0.10705 0.49761,0.16058c-3.15425,1.04029 -12.42129,4.22426 -14.74351,6.02461c-1.11855,0.64793 -1.86592,0.96404 -3.06855,1.47044c-0.88506,0.63472 -1.471,1.18667 -2.18511,2.01914c-0.41338,0.00601 -2.00537,0.02109 -2.33262,0.13008c-3.54229,1.18081 -7.27192,3.74502 -10.47817,5.67524c-0.80933,0.48721 -2.45508,1.62964 -3.18149,1.90459l-0.20713,-0.05288l0.09419,-0.15542c1.44214,-0.78867 2.87212,-1.83062 4.28423,-2.70161c2.51279,-1.5501 5.08096,-2.96499 7.696,-4.33784c1.3188,-0.69243 2.69604,-0.70884 4.11343,-0.97031c0.11572,-0.02139 1.78726,-1.82344 2.00977,-1.96055c0.49893,-0.30894 1.27705,-0.27407 1.80586,-0.57656c0.65962,-0.3775 1.3582,-1.2628 2.06133,-1.46641c0.70854,-0.2052 0.85312,-0.48037 1.60107,-0.66379z" fill="#fd1f88"/><path d="M298.50732,159.7207c0.71045,-0.51416 0.65479,-0.63135 0.66504,-1.43994c0.06299,-4.71094 -0.09961,-9.43945 -0.07324,-14.15127c0.01172,-2.32266 -0.28857,-3.91172 -0.58008,-6.14033c-0.13477,-1.03521 0.17285,-3.15234 0.20215,-4.33843c0.57275,1.03828 0.34424,2.85513 0.05859,3.98921l0.48926,0.30366c0.2915,6.48267 0.32959,13.32642 0.11279,19.84058c-0.0498,1.51025 -0.1582,1.9248 0.14063,3.41895c0.02051,3.37061 -0.61084,7.28613 -1.08838,10.6626c-2.73486,19.16455 -9.24902,37.59521 -19.16016,54.22412c-1.16162,1.96875 -4.30078,7.24805 -5.72754,8.82715l-0.24023,-0.1377c-0.73828,1.28906 -2.60303,3.71338 -3.54346,4.94531c-2.12842,2.79053 -4.68164,6.17578 -7.07812,8.75391c0.66943,-1.63184 1.01807,-1.875 2.02441,-2.96045c1.61426,-1.7417 10.56006,-13.64355 10.48096,-14.97217c0.40869,-0.78809 0.97998,-1.55713 1.44287,-2.32471c3.50977,-5.81396 6.85254,-11.99268 9.62695,-18.20068c4.17188,-9.58154 7.36523,-19.56006 9.52881,-29.7832c0.94336,-4.79443 1.68311,-9.62549 2.21484,-14.48291c0.18018,-1.63037 0.13623,-4.72119 0.50391,-6.03369z" fill="#d80eb1"/><path d="M196.76514,291.49365c-0.41748,0.60645 -0.57861,0.62988 -1.26416,0.98145l-0.13477,0.54053c-9.40869,2.79346 -18.25928,4.90576 -28.04736,5.99707c-1.99805,0.22266 -6.0498,0.65039 -8.08301,0.54932l0.03516,-0.21533c0.3208,-0.20801 0.61084,-0.25195 0.98145,-0.34717l-0.15381,-0.01758c-0.2915,-0.31055 -0.13037,-0.17432 -0.63867,-0.2915c1.38574,-0.4834 3.91113,-0.30322 5.48584,-0.5083c3.07617,-0.40283 6.26221,-0.71338 9.32227,-1.19971c7.76514,-1.23193 14.97656,-3.33252 22.49707,-5.48877z" fill="url(#color-2)"/><path d="M212.83154,284.97217c1.08691,-0.7251 3.17578,-1.29053 4.41504,-1.96436c7.62451,-4.14697 14.96777,-8.57812 21.95508,-13.74609c1.97021,-1.45605 3.86865,-3.07764 5.85205,-4.54687c-0.35889,0.8877 -0.8042,0.87012 -1.09717,1.55566l0.35303,-0.32227c-0.62256,0.80273 -1.76514,1.56445 -1.90723,1.82227l0.05859,0.19482c-7.41211,6.24463 -22.42529,15.59619 -31.4751,18.92578c0.43945,-0.93164 0.92432,-1.03564 1.88525,-1.66699z" fill="#fd1f88"/><path d="M275.18994,230.5459c0.0791,1.32861 -8.8667,13.23047 -10.48096,14.97217c-1.00635,1.08545 -1.35498,1.32861 -2.02441,2.96045c2.39648,-2.57812 4.94971,-5.96338 7.07813,-8.75391c0.94043,-1.23193 2.80518,-3.65625 3.54346,-4.94531l0.24023,0.1377c-1.23926,2.05957 -3.12305,4.41797 -4.57764,6.35449c-4.8457,6.44971 -10.35791,12.646 -16.28467,18.11279c-0.89209,0.82178 -2.28662,2.15771 -3.2417,2.85498c-0.27832,-0.02051 -0.33252,0.00439 -0.60498,0.06885c-0.03223,-1.14551 5.00537,-4.49268 5.44482,-6.20654c0.2168,-0.34277 1.51025,-1.62158 1.88232,-1.96289c5.73633,-5.24561 10.39307,-11.30127 14.91211,-17.59277c1.41943,-1.97461 2.69824,-4.02979 4.11328,-6z" fill="#fd1f88"/><path d="M64.27046,206.38477l0.23906,-0.61084c0.37148,0.79688 4.65703,5.19873 5.59131,6.45996c1.82417,2.4624 7.18096,6.20947 8.34961,9.02637c3.87964,-0.11426 8.05928,-0.03955 11.95503,-0.04102l21.34146,0.00146l64.4606,0.00146h32.39941l9.28857,-0.01465c1.34473,-0.00146 4.11035,-0.06885 5.35107,0.11572c-3.80127,0.18018 -8.60596,0.04688 -12.51855,0.04834h-23.60449l-71.81133,-0.00439l-25.3292,-0.00586h-7.60913c-0.85869,0 -3.62461,-0.16553 -4.16133,0.31934c-0.8146,-0.7793 -1.68369,-2.08594 -2.56187,-2.97949c-3.12275,-3.17871 -6.28945,-6.25342 -9.01289,-9.78809c-0.67646,-0.87744 -1.65747,-1.62744 -2.36733,-2.52832z" fill="#fac965"/><path d="M212.83154,284.97217l0.03955,0.25195c-0.96094,0.63135 -1.4458,0.73535 -1.88525,1.66699c-1.93799,1.04004 -8.6499,3.83057 -10.77686,4.42236c-1.13525,0.43066 -3.99023,1.30225 -4.84277,1.70215l0.13477,-0.54053c0.68555,-0.35156 0.84668,-0.375 1.26416,-0.98145c0.90527,-0.49658 3.90381,-1.41211 5.00244,-1.81348c0.93896,-0.61084 5.91943,-2.11377 7.29199,-2.72461c1.36963,-0.60937 2.46387,-1.29492 3.77197,-1.9834z" fill="#fd4d69"/><path d="M140.03247,298.49854c2.27578,0.30762 8.8938,0.58301 11.14673,0.28418c0.47168,0.30469 0.49072,0.2666 1.03711,0.27539c-0.1582,0.3501 -0.28125,0.56982 -0.37939,0.94189h-8.69619c-0.81812,-0.31494 -2.71846,-0.38525 -3.66855,-0.46289c0.29326,-0.21387 0.7749,-0.31201 1.14902,-0.42627l0.05127,-0.19043z" fill="#ff7c4f"/><path d="M223.96289,221.8125c0.56396,-0.86133 0.54199,-1.08105 1.3374,-1.93213c2.08154,-2.2251 4.32861,-4.34473 6.43945,-6.53613c0.93604,-0.97266 5.07715,-6.30029 6.0835,-6.4585l0.13916,0.18604c-0.34131,0.64453 -2.27637,2.41113 -2.92529,3.14355l-11.0625,12.28711z" fill="#fac965"/><path d="M186.08496,261.92578l0.67383,0.16846c-1.31543,1.52637 -2.97803,2.85938 -4.21436,4.33008c-2.08008,2.47412 -4.14111,4.74463 -6.52441,6.93896c-0.62256,0.57275 -1.32861,1.40625 -1.96875,1.92188l-0.42627,-0.39844c1.24512,-1.01221 12.43799,-12.83496 12.45996,-12.96094z" fill="#fac965"/><path d="M254.28223,256.10156c-0.43945,1.71387 -5.47705,5.06104 -5.44482,6.20654c0.27246,-0.06445 0.32666,-0.08936 0.60498,-0.06885c-2.0376,1.89551 -4.70068,4.13379 -6.98145,5.72607l-0.05859,-0.19482c0.14209,-0.25781 1.28467,-1.01953 1.90723,-1.82227l-0.35303,0.32227c0.29297,-0.68555 0.73828,-0.66797 1.09717,-1.55566c0.18604,-0.37793 2.83008,-2.39941 3.34863,-2.88428c2.00244,-1.87207 3.88623,-3.85693 5.87988,-5.729z" fill="#ff178c"/><path d="M152.45947,298.82959c2.24414,0.04102 4.771,0.0249 7.00049,-0.13916c0.5083,0.11719 0.34717,-0.01904 0.63867,0.2915l0.15381,0.01758c-0.37061,0.09521 -0.66064,0.13916 -0.98145,0.34717l-0.03516,0.21533c-0.65479,0.09668 -1.90283,0.16406 -2.38623,0.43799h-5.0127c0.09814,-0.37207 0.22119,-0.5918 0.37939,-0.94189z" fill="#ff7c4f"/><path d="M69.77842,93.19746c5.12344,-0.32461 7.67256,3.19189 6.22998,7.85479c-1.0166,3.28535 -1.93901,5.98257 -3.26045,9.16479c-7.37725,17.7646 -12.27803,36.76245 -14.2333,55.89917c-0.23232,2.28223 -0.53789,4.79883 -0.23657,7.05908c0.03984,1.19678 2.23799,4.09717 1.81289,5.15479c-1.05396,2.89014 -3.8543,4.68311 -5.84268,6.70605c-2.88809,2.93701 -10.00767,4.04004 -9.41836,-1.79883c0.50288,-4.98193 1.57236,-10.60107 2.66631,-15.58594c1.94927,-8.88574 3.53071,-18.82617 6.38818,-27.45249c-3.63574,4.96963 -8.03774,7.29771 -14.23564,5.39546c-11.62383,-4.73364 -20.03276,-30.36885 -27.65728,-40.4127c-0.3572,-0.57158 -1.33528,-2.53975 -0.50184,-3.05156c11.10218,-6.44312 14.81087,10.52681 18.91434,17.64902c3.70547,6.43184 10.27808,24.496 20.55264,14.81514c0.49673,-0.46802 1.43599,-1.48696 1.78872,-2.05986c7.02598,-11.41172 10.3377,-24.94995 14.69531,-37.50044c0.36431,-1.04883 1.36553,-1.546 2.33774,-1.83647z" fill="#fe0000"/><path d="M106.3626,122.35239c1.67813,-0.22603 3.9457,0.21621 5.21895,1.37739c0.14458,0.1311 0.27598,0.27598 0.39229,0.43242c1.25933,1.7061 -0.63486,3.73213 -1.69585,5.05195c-1.99834,2.48555 -4.04766,4.89565 -5.7731,7.58862c-5.98813,9.34658 -10.4751,20.11567 -10.02393,31.40815c0.30103,7.59521 7.58496,8.88867 13.69863,8.41846c6.23452,-0.479 11.67598,-4.00342 15.64995,-8.7085c2.73882,-3.3457 5.21938,-7.60986 4.81758,-12.08789c-0.31597,-3.52148 -2.39517,-5.9209 -4.8731,-8.21484c-3.42261,-3.20537 -7.68164,-5.67466 -11.27109,-8.63994c-6.9375,-5.73105 -0.33955,-8.99575 5.55088,-9.29136c1.72017,-0.08628 5.19141,-0.22764 5.42183,2.17134c0.06812,0.70957 -0.58491,1.3998 -1.02817,1.86504c1.10815,0.65493 1.89155,1.32217 2.88486,2.12725c5.14805,4.14756 11.43809,9.66855 12.84404,16.3292c1.38589,6.52588 -1.07095,12.1377 -4.57603,17.729c-8.28472,13.21582 -27.25649,21.19482 -41.59102,13.1499c-3.35947,-1.88672 -6.65566,-7.27002 -7.21611,-11.19287c-1.3894,-9.72803 1.76968,-20.84619 5.20854,-29.93232c1.5936,-4.03945 4.58613,-9.202 6.91904,-12.78999c2.37495,-3.65303 5.15684,-5.97363 9.4418,-6.79102z" fill="#fe0000"/><path d="M249.82471,98.78481c4.38281,-0.03926 3.88184,3.26338 3.3208,6.42466c-1.46484,8.24619 -0.92139,16.68062 -0.71191,25.0519c1.18359,-0.14209 2.47412,-0.36152 3.6416,-0.61655c6.63428,-1.44961 13.45605,-2.57139 20.0332,-4.23281c0.69727,-1.30444 1.54102,-3.10679 3.06738,-3.32534c4.29932,-0.71396 8.8623,5.80591 5.93701,9.3438c-2.70264,3.26924 -10.13525,3.72583 -14.18408,4.3771c-6.09521,0.98027 -12.05566,1.84614 -18.11426,2.93057c0.20947,11.16226 0.12598,22.44595 1.63623,33.52603c0.45996,3.375 1.8208,6.39551 2.60596,9.6709c0.25635,1.07227 -0.16113,1.81494 -0.78076,2.65869c-1.42676,1.39453 -3.29883,2.55469 -5.34668,2.64697c-1.05029,0.04834 -2.04639,-0.24609 -2.82129,-0.97412c-4.80908,-4.51904 -5.01562,-38.23975 -5.08887,-46.1877c-7.11768,1.22593 -14.18115,3.05962 -21.32666,4.15562c-2.29687,0.36079 -4.43408,0.28799 -6.44531,-1.03286c-2.92236,-1.921 -2.73926,-6.6646 1.1499,-7.30386c3.24902,-0.47065 6.42041,-0.58535 9.68994,-1.0582c5.53418,-0.80054 11.44922,-2.60215 16.97607,-3.04365c-0.0542,-7.92964 -2.36865,-24.43799 2.34668,-31.33652c0.83789,-1.22461 2.96045,-1.55376 4.41504,-1.67461z" fill="#fe0000"/></g></svg></svg>